<?xml version="1.0" encoding="UTF-8" standalone="no"?>
<svg width="222px" height="89px" viewBox="0 0 222 89" version="1.1" xmlns="http://www.w3.org/2000/svg" xmlns:xlink="http://www.w3.org/1999/xlink">
    <!-- Generator: Sketch 41.2 (35397) - http://www.bohemiancoding.com/sketch -->
    <title>logo-rectangular-blanco copy</title>
    <desc>Created with Sketch.</desc>
    <defs>
        <polygon id="path-1" points="0 64.7027715 199.769288 64.7027715 199.769288 0.000149812734 0 0.000149812734"></polygon>
    </defs>
    <g id="Page-1" stroke="none" stroke-width="1" fill="none" fill-rule="evenodd">
        <g id="logo-rectangular-blanco-copy">
            <g id="Page-1" transform="translate(11.000000, 12.000000)">
                <path d="M10.5579026,54.9205243 C9.38262172,54.1804494 9.03280899,52.6194007 9.7706367,51.4493633 C10.5114607,50.2778277 12.0597753,49.9302622 13.2290637,50.6770787 C14.3991011,51.4246442 14.7541573,52.9797004 14.0103371,54.1557303 C13.9137079,54.3122846 13.7968539,54.4613483 13.6702622,54.5879401 C12.8605243,55.4014232 11.5653933,55.5662172 10.5579026,54.9205243 Z" id="Fill-1" fill="#FEFEFE"></path>
                <path d="M3.33865169,44.0927341 C2.16411985,43.351161 1.81430712,41.7901124 2.5528839,40.620824 C3.29220974,39.4500375 4.83977528,39.1017228 6.00906367,39.8492884 C7.17910112,40.5968539 7.5341573,42.1519101 6.79108614,43.3279401 C6.69445693,43.4844944 6.57910112,43.6320599 6.45101124,43.7594007 C5.63977528,44.573633 4.34614232,44.738427 3.33865169,44.0927341" id="Fill-3" fill="#FEFEFE"></path>
                <path d="M1.1740824,31.8217228 C-0.000449438202,31.0786517 -0.3517603,29.5191011 0.386067416,28.3475655 C1.12689139,27.1775281 2.67370787,26.8299625 3.84374532,27.576779 C5.01378277,28.3243446 5.36958801,29.8786517 4.62501873,31.0554307 C4.52838951,31.2127341 4.41303371,31.3595506 4.28569288,31.4876404 C3.47445693,32.3011236 2.18157303,32.4659176 1.1740824,31.8217228" id="Fill-5" fill="#FEFEFE"></path>
                <path d="M3.33865169,18.8257678 C2.16411985,18.0849438 1.81430712,16.5238951 2.5528839,15.3523596 C3.29220974,14.1830712 4.83977528,13.8347566 6.00906367,14.5823221 C7.17910112,15.3291386 7.5341573,16.8849438 6.79108614,18.0609738 C6.69445693,18.2175281 6.57910112,18.3650936 6.45101124,18.4924345 C5.63977528,19.3074157 4.34614232,19.4699625 3.33865169,18.8257678" id="Fill-7" fill="#FEFEFE"></path>
                <path d="M10.5579026,8.72 C9.38262172,7.97842697 9.03280899,6.41737828 9.7706367,5.2458427 C10.5114607,4.07730337 12.0597753,3.7282397 13.2290637,4.47505618 C14.3991011,5.22262172 14.7541573,6.77842697 14.0103371,7.95520599 C13.9137079,8.11101124 13.7968539,8.25857678 13.6702622,8.3859176 C12.8605243,9.19940075 11.5653933,9.36419476 10.5579026,8.72" id="Fill-9" fill="#FEFEFE"></path>
                <path d="M56.0386517,8.72 C54.8626217,7.97842697 54.5143071,6.41737828 55.2513858,5.2458427 C55.9922097,4.07730337 57.5397753,3.7282397 58.7090637,4.47505618 C59.8791011,5.22262172 60.2326592,6.77842697 59.489588,7.95520599 C59.3937079,8.11101124 59.2783521,8.25857678 59.1510112,8.3859176 C58.3397753,9.19940075 57.0446442,9.36419476 56.0386517,8.72" id="Fill-11" fill="#FEFEFE"></path>
                <path d="M63.2586517,19.5477903 C62.0826217,18.8062172 61.732809,17.2451685 62.4706367,16.0751311 C63.2099625,14.9050936 64.7597753,14.55603 65.9275655,15.3043446 C67.097603,16.050412 67.4534082,17.6054682 66.7080899,18.7814981 C66.6129588,18.9395506 66.4961049,19.0878652 66.3702622,19.215206 C65.5590262,20.0286891 64.2661423,20.1934831 63.2586517,19.5477903" id="Fill-13" fill="#FEFEFE"></path>
                <path d="M65.4231461,31.8217228 C64.2471161,31.0786517 63.8973034,29.5191011 64.6373783,28.3475655 C65.3767041,27.1775281 66.9242697,26.8299625 68.0935581,27.576779 C69.2620974,28.3243446 69.6186517,29.8786517 68.8740824,31.0554307 C68.7782022,31.2127341 68.6620974,31.3595506 68.5362547,31.4876404 C67.7242697,32.3011236 66.4306367,32.4659176 65.4231461,31.8217228" id="Fill-15" fill="#FEFEFE"></path>
                <path d="M63.2586517,44.0927341 C62.0826217,43.351161 61.732809,41.7901124 62.4706367,40.620824 C63.2099625,39.4500375 64.7597753,39.1017228 65.9275655,39.8492884 C67.097603,40.5968539 67.4534082,42.1519101 66.7080899,43.3279401 C66.6129588,43.4844944 66.4961049,43.6320599 66.3702622,43.7594007 C65.5590262,44.573633 64.2661423,44.738427 63.2586517,44.0927341" id="Fill-17" fill="#FEFEFE"></path>
                <path d="M56.759176,54.9205243 C55.5853933,54.1804494 55.2363296,52.6194007 55.9741573,51.4493633 C56.7127341,50.2778277 58.2617978,49.9302622 59.4310861,50.6770787 C60.6011236,51.4246442 60.9561798,52.9797004 60.2116105,54.1557303 C60.1142322,54.3122846 59.9988764,54.4613483 59.8722846,54.5879401 C59.0617978,55.4014232 57.7681648,55.5662172 56.759176,54.9205243" id="Fill-19" fill="#FEFEFE"></path>
                <path d="M45.9328839,62.1412734 C44.7568539,61.3989513 44.4055431,59.8386517 45.1448689,58.666367 C45.8841948,57.4970787 47.4325094,57.148764 48.6017978,57.8963296 C49.7718352,58.6446442 50.1268914,60.1989513 49.3838202,61.3757303 C49.287191,61.5330337 49.1703371,61.6805993 49.0444944,61.8064419 C48.2332584,62.6214232 46.9388764,62.7854682 45.9328839,62.1412734" id="Fill-21" fill="#FEFEFE"></path>
                <path d="M32.9369288,64.3065169 C31.762397,63.5656929 31.4125843,62.0038951 32.151161,60.8331086 C32.8904869,59.6623221 34.4380524,59.3147566 35.6073408,60.0630712 C36.7773783,60.8091386 37.1339326,62.3641948 36.3893633,63.5402247 C36.2927341,63.6982772 36.1758801,63.8458427 36.0485393,63.9739326 C35.2380524,64.7859176 33.9459176,64.9522097 32.9369288,64.3065169" id="Fill-23" fill="#FEFEFE"></path>
                <path d="M20.6644195,62.1412734 C19.4898876,61.3989513 19.1400749,59.8386517 19.8786517,58.666367 C20.6179775,57.4970787 22.1655431,57.148764 23.3363296,57.8963296 C24.5048689,58.6446442 24.8599251,60.1989513 24.1168539,61.3757303 C24.0194757,61.5330337 23.9033708,61.6805993 23.776779,61.8064419 C22.9670412,62.6214232 21.6719101,62.7854682 20.6644195,62.1412734" id="Fill-25" fill="#FEFEFE"></path>
                <path d="M16.9680899,48.3325843 C16.063221,47.7602996 15.7935581,46.5595506 16.3613483,45.6569288 C16.9306367,44.7543071 18.1246442,44.4868914 19.0242697,45.0621723 C19.9253933,45.6382022 20.1988015,46.8367041 19.6272659,47.741573 C19.5523596,47.8636704 19.463221,47.9775281 19.3665918,48.0741573 C18.7418727,48.7018727 17.7433708,48.8292135 16.9680899,48.3325843" id="Fill-27" fill="#FEFEFE"></path>
                <path d="M11.6704869,40.3877154 C10.765618,39.8146816 10.4967041,38.6139326 11.0659925,37.7120599 C11.6352809,36.8094382 12.8270412,36.5405243 13.7281648,37.1173034 C14.6285393,37.6918352 14.9026966,38.8903371 14.330412,39.7967041 C14.2547566,39.9188015 14.1671161,40.031161 14.0697378,40.1307865 C13.4450187,40.7570037 12.4465169,40.8828464 11.6704869,40.3877154" id="Fill-29" fill="#FEFEFE"></path>
                <path d="M10.0816479,31.3828464 C9.17677903,30.8098127 8.90861423,29.6083146 9.47640449,28.7056929 C10.0449438,27.8045693 11.2382022,27.5371536 12.1393258,28.1124345 C13.0397004,28.6884644 13.3123596,29.8854682 12.7400749,30.7918352 C12.6659176,30.9124345 12.5775281,31.0262921 12.4801498,31.1259176 C11.8546816,31.7521348 10.8576779,31.8779775 10.0816479,31.3828464" id="Fill-31" fill="#FEFEFE"></path>
                <path d="M11.6704869,21.8476404 C10.765618,21.2753558 10.4967041,20.0746067 11.0659925,19.1734831 C11.6352809,18.2708614 12.8270412,18.0004494 13.7281648,18.5772285 C14.6285393,19.1532584 14.9026966,20.3532584 14.330412,21.2573783 C14.2547566,21.3787266 14.1671161,21.4940824 14.0697378,21.5907116 C13.4450187,22.2169288 12.4465169,22.3457678 11.6704869,21.8476404" id="Fill-33" fill="#FEFEFE"></path>
                <path d="M16.9680899,14.4330337 C16.063221,13.8592509 15.7935581,12.6585019 16.3613483,11.7573783 C16.9306367,10.8547566 18.1246442,10.5850936 19.0242697,11.1611236 C19.9253933,11.7371536 20.1988015,12.9371536 19.6272659,13.8420225 C19.5523596,13.9641199 19.463221,14.0779775 19.3665918,14.1746067 C18.7418727,14.8023221 17.7433708,14.9296629 16.9680899,14.4330337" id="Fill-35" fill="#FEFEFE"></path>
                <path d="M50.3387266,14.4330337 C49.4323596,13.8592509 49.1641948,12.6585019 49.731985,11.7573783 C50.3020225,10.8547566 51.4937828,10.5850936 52.3949064,11.1611236 C53.29603,11.7371536 53.5709363,12.9371536 52.9979026,13.8420225 C52.9237453,13.9641199 52.8353558,14.0779775 52.7357303,14.1746067 C52.1117603,14.8023221 51.1140075,14.9296629 50.3387266,14.4330337" id="Fill-37" fill="#FEFEFE"></path>
                <path d="M55.6355805,22.3772285 C54.7307116,21.8041948 54.4595506,20.6034457 55.0303371,19.700824 C55.5981273,18.8004494 56.7906367,18.5315356 57.6932584,19.1075655 C58.594382,19.6820974 58.8662921,20.8813483 58.2947566,21.7877154 C58.2191011,21.9090637 58.1322097,22.0214232 58.0318352,22.1210487 C57.4086142,22.7465169 56.4123596,22.8731086 55.6355805,22.3772285" id="Fill-39" fill="#FEFEFE"></path>
                <path d="M57.2244195,31.3828464 C56.3188015,30.8098127 56.0498876,29.6083146 56.618427,28.7056929 C57.1869663,27.8045693 58.3802247,27.5371536 59.2805993,28.1124345 C60.183221,28.6884644 60.4566292,29.8854682 59.8843446,30.7918352 C59.8094382,30.9124345 59.7210487,31.0262921 59.6221723,31.1259176 C58.9959551,31.7521348 58.0004494,31.8779775 57.2244195,31.3828464" id="Fill-41" fill="#FEFEFE"></path>
                <path d="M55.6355805,40.3877154 C54.7307116,39.8146816 54.4595506,38.6139326 55.0303371,37.7120599 C55.5981273,36.8094382 56.7906367,36.5405243 57.6932584,37.1173034 C58.594382,37.6918352 58.8662921,38.8918352 58.2947566,39.7982022 C58.2191011,39.9188015 58.1322097,40.031161 58.0318352,40.1307865 C57.4086142,40.7570037 56.4123596,40.8828464 55.6355805,40.3877154" id="Fill-43" fill="#FEFEFE"></path>
                <path d="M50.8676404,48.3325843 C49.9627715,47.7602996 49.6946067,46.5595506 50.262397,45.6569288 C50.8324345,44.7543071 52.0241948,44.4868914 52.9253184,45.0621723 C53.8264419,45.6382022 54.0983521,46.8367041 53.5268165,47.741573 C53.4534082,47.8636704 53.3642697,47.9775281 53.2661423,48.0741573 C52.6406742,48.7018727 51.6444195,48.8292135 50.8676404,48.3325843" id="Fill-45" fill="#FEFEFE"></path>
                <path d="M42.9226966,53.6294382 C42.0163296,53.0564045 41.7481648,51.8549064 42.3159551,50.9522846 C42.8859925,50.0526592 44.0777528,49.7837453 44.9788764,50.3590262 C45.8814981,50.9335581 46.1549064,52.1335581 45.5818727,53.0399251 C45.5069663,53.1605243 45.4193258,53.2728839 45.3197004,53.3725094 C44.6957303,53.9987266 43.6979775,54.1268165 42.9226966,53.6294382" id="Fill-47" fill="#FEFEFE"></path>
                <path d="M33.3874906,55.2190262 C32.4841199,54.6452434 32.2144569,53.4437453 32.7822472,52.5426217 C33.3507865,51.64 34.5440449,51.3710861 35.4451685,51.9478652 C36.3462921,52.5231461 36.6197004,53.722397 36.0466667,54.6272659 C35.9732584,54.7493633 35.8841199,54.8624719 35.7867416,54.9598502 C35.1612734,55.5883146 34.1627715,55.7141573 33.3874906,55.2190262" id="Fill-49" fill="#FEFEFE"></path>
                <path d="M24.3848689,53.6294382 C23.4777528,53.0564045 23.208839,51.8549064 23.7766292,50.9522846 C24.3474157,50.0526592 25.5414232,49.7837453 26.4402996,50.3590262 C27.3414232,50.9335581 27.6163296,52.1335581 27.0417978,53.0399251 C26.9668914,53.1605243 26.8792509,53.2728839 26.7811236,53.3725094 C26.1564045,53.9987266 25.1594007,54.1268165 24.3848689,53.6294382" id="Fill-51" fill="#FEFEFE"></path>
                <path d="M91.7764045,23.0809738 C90.6857678,24.0689888 89.3269663,24.8562547 87.2490637,24.8562547 C83.1951311,24.8562547 81.6730337,21.083221 81.6730337,17.5326592 C81.6730337,14.0217978 83.4011236,10.5513858 87.2692884,10.5513858 C89.0400749,10.5513858 90.2745318,10.9955805 91.3861423,11.6817228 L90.5007491,13.0135581 C89.6153558,12.3880899 88.5868914,12.0652434 87.3726592,12.0652434 C84.4505618,12.0652434 83.4835206,15.1319101 83.4835206,17.5326592 C83.4835206,19.9131835 84.3479401,23.3633708 87.4340824,23.3633708 C88.7104869,23.3633708 89.8625468,22.8180524 90.829588,21.931161 L91.7764045,23.0809738 Z" id="Fill-53" fill="#FEFEFE"></path>
                <mask id="mask-2" fill="white">
                    <use xlink:href="#path-1"></use>
                </mask>
                <g id="Clip-56"></g>
                <polygon id="Fill-55" fill="#FEFEFE" mask="url(#mask-2)" points="95.788764 24.613633 97.5385768 24.613633 97.5385768 10.8945318 95.788764 10.8945318"></polygon>
                <path d="M102.517903,10.8947566 L104.246742,10.8947566 L104.246742,20.0138577 C104.246742,23.1411985 106.01603,23.4243446 107.620524,23.4243446 C109.966592,23.4243446 110.770337,22.1322097 110.770337,20.7202247 L110.770337,10.8947566 L112.498427,10.8947566 L112.498427,20.5794007 C112.498427,23.2018727 110.481948,24.8565543 107.559101,24.8565543 C105.00779,24.8565543 102.517903,24.2101124 102.517903,19.9539326 L102.517903,10.8947566 Z" id="Fill-57" fill="#FEFEFE" mask="url(#mask-2)"></path>
                <path d="M120.83191,23.1408989 C122.746517,23.1408989 125.626667,23.1004494 125.626667,17.754382 C125.626667,12.448764 122.746517,12.3671161 120.83191,12.3671161 L119.206442,12.3671161 L119.206442,23.1408989 L120.83191,23.1408989 Z M117.477603,10.8944569 L121.552509,10.8944569 C122.478352,10.8944569 127.437154,10.8944569 127.437154,17.754382 C127.437154,24.6143071 122.478352,24.6143071 121.552509,24.6143071 L117.477603,24.6143071 L117.477603,10.8944569 Z" id="Fill-58" fill="#FEFEFE" mask="url(#mask-2)"></path>
                <path d="M137.067715,15.777603 C136.594307,14.3648689 136.32764,13.4173034 136.100674,12.731161 L136.059476,12.731161 C135.854232,13.4173034 135.565843,14.3648689 135.07221,15.777603 L133.899176,19.1266667 C134.578577,19.1056929 135.380824,19.1056929 136.039251,19.1056929 C136.697678,19.1056929 137.541124,19.1056929 138.179326,19.1266667 L137.067715,15.777603 Z M139.989813,24.6143071 L138.570337,20.5379026 L133.445993,20.5379026 L131.985318,24.6143071 L130.174831,24.6143071 C131.820524,20.0345318 133.610787,15.071236 135.153858,10.8749813 L137.088689,10.8749813 C138.570337,15.071236 140.298427,20.0345318 141.883446,24.6143071 L139.989813,24.6143071 Z" id="Fill-59" fill="#FEFEFE" mask="url(#mask-2)"></path>
                <path d="M149.044719,23.1408989 C150.958577,23.1408989 153.838727,23.1004494 153.838727,17.754382 C153.838727,12.448764 150.958577,12.3671161 149.044719,12.3671161 L147.418502,12.3671161 L147.418502,23.1408989 L149.044719,23.1408989 Z M145.689663,10.8944569 L149.764569,10.8944569 C150.690412,10.8944569 155.649963,10.8944569 155.649963,17.754382 C155.649963,24.6143071 150.690412,24.6143071 149.764569,24.6143071 L145.689663,24.6143071 L145.689663,10.8944569 Z" id="Fill-60" fill="#FEFEFE" mask="url(#mask-2)"></path>
                <path d="M165.280524,15.777603 C164.807116,14.3648689 164.5397,13.4173034 164.313483,12.731161 L164.271536,12.731161 C164.066292,13.4173034 163.777903,14.3648689 163.28427,15.777603 L162.111236,19.1266667 C162.790637,19.1056929 163.592884,19.1056929 164.251311,19.1056929 C164.909738,19.1056929 165.753933,19.1056929 166.391386,19.1266667 L165.280524,15.777603 Z M168.201873,24.6143071 L166.782397,20.5379026 L161.658052,20.5379026 L160.197378,24.6143071 L158.386891,24.6143071 C160.032584,20.0345318 161.823596,15.071236 163.365918,10.8749813 L165.300749,10.8749813 C166.782397,15.071236 168.510487,20.0345318 170.095506,24.6143071 L168.201873,24.6143071 Z" id="Fill-61" fill="#FEFEFE" mask="url(#mask-2)"></path>
                <path d="M173.902022,10.8947566 L175.898277,10.8947566 L180.857828,19.2071161 C181.311011,19.9539326 181.845094,20.9621723 182.236854,21.9307116 L182.298277,21.9307116 C182.257079,20.3771536 182.236854,19.1059925 182.236854,17.7749064 L182.236854,10.8947566 L183.94397,10.8947566 L183.94397,24.6138577 L182.009888,24.6138577 L177.050337,16.3217228 C176.576929,15.535206 176.145468,14.6475655 175.589663,13.476779 L175.52824,13.476779 C175.589663,14.9906367 175.589663,16.3217228 175.589663,17.6333333 L175.609888,24.6138577 L173.902022,24.6138577 L173.902022,10.8947566 Z" id="Fill-62" fill="#FEFEFE" mask="url(#mask-2)"></path>
                <path d="M197.937228,17.5529588 C197.937228,15.131985 196.970187,12.0248689 193.986667,12.0248689 C191.043596,12.0248689 190.05633,15.131985 190.05633,17.5529588 C190.05633,19.8930337 190.961199,23.4241199 193.986667,23.4241199 C197.052584,23.4241199 197.937228,19.8930337 197.937228,17.5529588 M188.245843,17.5529588 C188.245843,14.0016479 190.015131,10.5514607 193.986667,10.5514607 C197.958202,10.5514607 199.768689,14.0016479 199.768689,17.5529588 C199.768689,21.0832959 198.184419,24.8563296 193.986667,24.8563296 C189.80839,24.8563296 188.245843,21.0832959 188.245843,17.5529588" id="Fill-63" fill="#FEFEFE" mask="url(#mask-2)"></path>
                <polygon id="Fill-64" fill="#FEFEFE" mask="url(#mask-2)" points="83.4726592 45.5274906 85.2149813 45.5274906 85.2149813 31.5919101 83.4726592 31.5919101"></polygon>
                <path d="M89.0259925,31.5920599 L91.0140075,31.5920599 L95.9525843,40.0355056 C96.4042697,40.7935581 96.9368539,41.8182772 97.326367,42.8025468 L97.3877903,42.8025468 C97.3465918,41.2242697 97.326367,39.933633 97.326367,38.5800749 L97.326367,31.5920599 L99.0274906,31.5920599 L99.0274906,45.5276404 L97.1001498,45.5276404 L92.161573,37.1044195 C91.690412,36.3059176 91.2597004,35.4040449 90.7061423,34.2152809 L90.6447191,34.2152809 C90.7061423,35.7523596 90.7061423,37.1044195 90.7061423,38.4370037 L90.7271161,45.5276404 L89.0259925,45.5276404 L89.0259925,31.5920599 Z" id="Fill-65" fill="#FEFEFE" mask="url(#mask-2)"></path>
                <path d="M105.871161,33.1084644 C103.781273,33.1496629 101.670412,33.1496629 101.465169,33.1496629 L101.465169,31.5923596 L111.978277,31.5923596 L111.978277,33.1496629 C111.773783,33.1496629 109.703371,33.1496629 107.593258,33.1084644 L107.593258,45.5279401 L105.871161,45.5279401 L105.871161,33.1084644 Z" id="Fill-66" fill="#FEFEFE" mask="url(#mask-2)"></path>
                <path d="M114.457528,31.5920599 L122.593109,31.5920599 L122.593109,33.169588 C122.388614,33.169588 118.330936,33.169588 116.178876,33.1493633 C116.178876,33.3546067 116.178876,36.510412 116.158652,37.5358801 C118.125693,37.5141573 121.651536,37.5141573 121.85603,37.5141573 L121.85603,39.0107865 C121.651536,39.0107865 118.125693,39.0107865 116.158652,38.9905618 C116.178876,41.1838202 116.178876,43.7658427 116.178876,43.9703371 C118.412584,43.9501124 122.593109,43.9501124 122.799101,43.9501124 L122.799101,45.5276404 L114.457528,45.5276404 L114.457528,31.5920599 Z" id="Fill-67" fill="#FEFEFE" mask="url(#mask-2)"></path>
                <path d="M125.810562,31.5920599 L127.53191,31.5920599 C127.53191,31.7965543 127.511685,42.0025468 127.490712,43.9913109 C129.725169,43.9501124 133.14764,43.9501124 133.352135,43.9501124 L133.352135,45.5276404 L125.810562,45.5276404 L125.810562,31.5920599 Z" id="Fill-68" fill="#FEFEFE" mask="url(#mask-2)"></path>
                <polygon id="Fill-69" fill="#FEFEFE" mask="url(#mask-2)" points="135.831461 45.5274906 137.573034 45.5274906 137.573034 31.5919101 135.831461 31.5919101"></polygon>
                <path d="M147.409813,45.6918352 C142.922172,45.6918352 140.564869,42.7412734 140.564869,38.3547566 C140.564869,34.3382772 142.573109,31.2438951 146.815805,31.2438951 C148.127416,31.2438951 149.480225,31.5510112 150.668989,32.1652434 L149.951386,33.5802247 C149.110936,33.0880899 147.8203,32.7809738 146.611311,32.7809738 C143.51618,32.7809738 142.368614,35.301573 142.368614,38.3547566 C142.368614,41.7570037 143.84427,44.2371536 147.512434,44.2371536 C148.168614,44.2371536 148.762622,44.1959551 149.274981,43.9502622 C149.274981,43.7854682 149.274981,41.7570037 149.31618,38.9907116 C147.635281,39.031161 147.205318,39.031161 147.000075,39.031161 L147.000075,37.5143071 L150.99633,37.5143071 L150.99633,45.1173034 C150.15588,45.466367 148.782846,45.6918352 147.409813,45.6918352" id="Fill-70" fill="#FEFEFE" mask="url(#mask-2)"></path>
                <path d="M154.64367,31.5920599 L162.779251,31.5920599 L162.779251,33.169588 C162.574757,33.169588 158.517079,33.169588 156.365019,33.1493633 C156.365019,33.3546067 156.365019,36.510412 156.344794,37.5358801 C158.311835,37.5141573 161.836929,37.5141573 162.041423,37.5141573 L162.041423,39.0107865 C161.836929,39.0107865 158.311835,39.0107865 156.344794,38.9905618 C156.365019,41.1838202 156.365019,43.7658427 156.365019,43.9703371 C158.598727,43.9501124 162.779251,43.9501124 162.984494,43.9501124 L162.984494,45.5276404 L154.64367,45.5276404 L154.64367,31.5920599 Z" id="Fill-71" fill="#FEFEFE" mask="url(#mask-2)"></path>
                <path d="M165.996629,31.5920599 L167.983895,31.5920599 L172.923221,40.0355056 C173.374157,40.7935581 173.907491,41.8182772 174.296255,42.8025468 L174.357678,42.8025468 C174.316479,41.2242697 174.296255,39.933633 174.296255,38.5800749 L174.296255,31.5920599 L175.997378,31.5920599 L175.997378,45.5276404 L174.070787,45.5276404 L169.13221,37.1044195 C168.661049,36.3059176 168.229588,35.4040449 167.676779,34.2152809 L167.615356,34.2152809 C167.676779,35.7523596 167.676779,37.1044195 167.676779,38.4370037 L167.697753,45.5276404 L165.996629,45.5276404 L165.996629,31.5920599 Z" id="Fill-72" fill="#FEFEFE" mask="url(#mask-2)"></path>
                <path d="M182.841798,33.1084644 C180.751161,33.1496629 178.641049,33.1496629 178.435056,33.1496629 L178.435056,31.5923596 L188.948914,31.5923596 L188.948914,33.1496629 C188.74367,33.1496629 186.674007,33.1496629 184.563146,33.1084644 L184.563146,45.5279401 L182.841798,45.5279401 L182.841798,33.1084644 Z" id="Fill-73" fill="#FEFEFE" mask="url(#mask-2)"></path>
                <path d="M191.427491,31.5920599 L199.56382,31.5920599 L199.56382,33.169588 C199.359326,33.169588 195.301648,33.169588 193.149588,33.1493633 C193.149588,33.3546067 193.149588,36.510412 193.128614,37.5358801 C195.095655,37.5141573 198.621498,37.5141573 198.825993,37.5141573 L198.825993,39.0107865 C198.621498,39.0107865 195.095655,39.0107865 193.128614,38.9905618 C193.149588,41.1838202 193.149588,43.7658427 193.149588,43.9703371 C195.383296,43.9501124 199.56382,43.9501124 199.769064,43.9501124 L199.769064,45.5276404 L191.427491,45.5276404 L191.427491,31.5920599 Z" id="Fill-74" fill="#FEFEFE" mask="url(#mask-2)"></path>
                <path d="M25.9634457,32.113633 C26.4076404,32.113633 26.825618,32.3855431 26.9866667,32.8259925 C27.1604494,33.2919101 27.3731835,33.7420974 27.6286142,34.1623221 C29.0795506,36.5930337 31.6391011,38.0417228 34.4645693,38.0417228 C35.0690637,38.0417228 35.5567041,38.5278652 35.5567041,39.1286142 C35.5559551,39.7301124 35.0690637,40.2170037 34.4645693,40.2170037 C30.92,40.2170037 27.5821723,38.326367 25.7582022,35.2844195 C25.4391011,34.7480899 25.1611985,34.1735581 24.9477154,33.5780524 C24.7379775,33.0162547 25.025618,32.3900375 25.5896629,32.1817978 C25.7110112,32.1361049 25.8383521,32.113633 25.9634457,32.113633" id="Fill-75" fill="#FEFEFE" mask="url(#mask-2)"></path>
                <path d="M26.4352809,30.0624719 C26.4352809,30.6714607 25.9431461,31.1643446 25.3349064,31.1643446 C24.7266667,31.1643446 24.2345318,30.6714607 24.2345318,30.0624719 C24.2345318,29.4557303 24.7266667,28.9620974 25.3349064,28.9620974 C25.9431461,28.9620974 26.4352809,29.4557303 26.4352809,30.0624719" id="Fill-76" fill="#FEFEFE" mask="url(#mask-2)"></path>
                <path d="M46.3739326,22.3201498 L45.8151311,21.4886891 L45.7979026,21.4886891 C45.2570787,20.7014232 44.6915356,19.9935581 44.1424719,19.3051685 L42.7005243,20.4564794 C43.2922846,21.1980524 43.9072659,21.9680899 44.4653184,22.8107865 L44.8203745,23.333633 L44.8316105,23.333633 C46.131236,25.3096629 46.8121348,27.6257678 46.8121348,30.0759551 C46.8098876,36.8489888 41.3027715,42.3605993 34.5289888,42.3763296 C27.7589513,42.3605993 22.2540824,36.8489888 22.2570787,30.0759551 C22.2570787,27.6257678 22.943221,25.3096629 24.2420974,23.333633 L24.260824,23.333633 L24.6061423,22.8107865 C25.1694382,21.9643446 25.7874157,21.1905618 26.3874157,20.4429963 C27.9170037,18.5231461 29.3649438,16.7089139 29.3649438,14.2819476 L29.3649438,13.4797004 C29.3934082,11.933633 30.0038951,11.3591011 31.6173783,11.3591011 L34.6937828,11.3591011 L37.4630712,11.3591011 C39.0780524,11.3591011 39.6877903,11.933633 39.7125094,13.4579775 L39.7125094,14.2789513 C39.7125094,16.7089139 41.1604494,18.5231461 42.6915356,20.4452434 L42.7005243,20.4564794 L44.1289888,19.2879401 C42.6930337,17.4849438 41.5582022,16.0609738 41.5582022,14.2789513 L41.5582022,13.428015 C41.5170037,10.9044195 40.0623221,9.5141573 37.4630712,9.5141573 L31.6173783,9.5141573 C28.2907865,9.5141573 27.5529588,11.6527341 27.52,13.4452434 L27.5192509,14.2819476 C27.5192509,16.0609738 26.3289888,17.5553558 24.9492135,19.2864419 C24.3469663,20.0362547 23.7986517,20.7276404 23.2735581,21.4886891 L23.2473408,21.4886891 L22.7005243,22.3201498 C21.202397,24.5973034 20.4113858,27.2797004 20.4113858,30.0759551 C20.4083895,37.8572285 26.7394757,44.2032959 34.5252434,44.2212734 L34.5289888,44.2212734 L34.5334831,44.2212734 C42.3185019,44.2032959 48.6548315,37.8579775 48.6578277,30.0759551 C48.6578277,27.2744569 47.8675655,24.5920599 46.3739326,22.3201498" id="Fill-77" fill="#FEFEFE" mask="url(#mask-2)"></path>
                <path d="M39.406367,4.43041199 L29.8670412,4.43191011 C29.4078652,4.43191011 29.0325843,4.91430712 29.0325843,5.50681648 C29.0325843,6.1023221 29.4078652,6.58621723 29.8670412,6.58621723 L39.405618,6.58546816 C39.8662921,6.58546816 40.241573,6.10082397 40.241573,5.50681648 C40.241573,4.91355805 39.8662921,4.43041199 39.406367,4.43041199" id="Fill-78" fill="#FEFEFE" mask="url(#mask-2)"></path>
                <path d="M39.406367,-0.000299625468 L29.8670412,0.00119850187 C29.4078652,0.00119850187 29.0325843,0.483595506 29.0325843,1.07610487 C29.0325843,1.67161049 29.4078652,2.15625468 29.8670412,2.15625468 L39.405618,2.15475655 C39.8662921,2.15475655 40.241573,1.67086142 40.241573,1.07610487 C40.241573,0.482846442 39.8662921,-0.000299625468 39.406367,-0.000299625468" id="Fill-79" fill="#FEFEFE" mask="url(#mask-2)"></path>
            </g>
        </g>
    </g>
</svg>