<?xml version="1.0" encoding="UTF-8" standalone="no"?>
<svg width="100px" height="100px" viewBox="0 0 100 100" version="1.1" xmlns="http://www.w3.org/2000/svg" xmlns:xlink="http://www.w3.org/1999/xlink">
    <!-- Generator: Sketch 41.2 (35397) - http://www.bohemiancoding.com/sketch -->
    <title>Artboard Copy 44</title>
    <desc>Created with Sketch.</desc>
    <defs>
        <polygon id="path-1" points="10.8240474 0.449 0.976460052 0.449 0.976460052 19.3605 10.8240474 19.3605 10.8240474 0.449"></polygon>
        <polygon id="path-3" points="5.42101086e-20 0.785048653 5.42101086e-20 14.7897 13.71591 14.7897 13.71591 0.785048653 0 0.785048653"></polygon>
    </defs>
    <g id="Welcome" stroke="none" stroke-width="1" fill="none" fill-rule="evenodd">
        <g id="Artboard-Copy-44">
            <g id="Page-1-Copy" transform="translate(36.000000, 22.000000)">
                <path d="M15.0094,21.561 C15.0094,21.561 19.2924,19.132 19.1934,13.042 C19.0964,7.147 14.7224,4.075 14.7224,4.075 C14.7224,4.075 10.4504,7.29 10.5484,13.184 C10.6484,19.274 15.0094,21.561 15.0094,21.561" id="Fill-1" fill="#437DBC"></path>
                <path d="M14.8345,27.8818 C14.8345,27.8818 16.2975,23.1798 12.0585,18.8058 C7.9545,14.5728 2.6625,15.3248 2.6625,15.3248 C2.6625,15.3248 1.7465,20.5908 5.8505,24.8238 C10.0895,29.1978 14.8345,27.8818 14.8345,27.8818" id="Fill-3" fill="#437DBC"></path>
                <path d="M15.0123,38.6967 C15.0123,38.6967 16.4753,33.9947 12.2353,29.6207 C8.1323,25.3887 2.8403,26.1397 2.8403,26.1397 C2.8403,26.1397 1.9243,31.4067 6.0283,35.6387 C10.2673,40.0127 15.0123,38.6967 15.0123,38.6967" id="Fill-5" fill="#437DBC"></path>
                <path d="M15.19,49.5122 C15.19,49.5122 16.653,44.8102 12.413,40.4362 C8.31,36.2032 3.017,36.9552 3.017,36.9552 C3.017,36.9552 2.102,42.2212 6.205,46.4542 C10.445,50.8282 15.19,49.5122 15.19,49.5122" id="Fill-7" fill="#437DBC"></path>
                <path d="M15.3912,27.8725 C15.3912,27.8725 13.7752,23.2215 17.8692,18.7105 C21.8302,14.3455 27.1442,14.9225 27.1442,14.9225 C27.1442,14.9225 28.2332,20.1565 24.2712,24.5215 C20.1762,29.0315 15.3912,27.8725 15.3912,27.8725" id="Fill-9" fill="#437DBC"></path>
                <path d="M15.5689,38.6879 C15.5689,38.6879 13.9529,34.0359 18.0469,29.5259 C22.0079,25.1609 27.3219,25.7379 27.3219,25.7379 C27.3219,25.7379 28.4109,30.9719 24.4489,35.3359 C20.3539,39.8469 15.5689,38.6879 15.5689,38.6879" id="Fill-11" fill="#437DBC"></path>
                <path d="M15.7467,49.5029 C15.7467,49.5029 14.1297,44.8519 18.2247,40.3409 C22.1857,35.9759 27.4997,36.5529 27.4997,36.5529 C27.4997,36.5529 28.5877,41.7869 24.6257,46.1519 C20.5317,50.6629 15.7467,49.5029 15.7467,49.5029" id="Fill-13" fill="#437DBC"></path>
                <path d="M15.0094,21.561 L15.5684,55.551" id="Fill-15" fill="#437DBC"></path>
                <g id="Group-19" transform="translate(7.000000, 0.551000)">
                    <mask id="mask-2" fill="white">
                        <use xlink:href="#path-1"></use>
                    </mask>
                    <g id="Clip-18"></g>
                    <path d="M5.7652,1.9695 C4.7892,2.8685 2.1032,5.7615 2.1772,10.2895 C2.2552,15.0585 5.1032,17.3475 6.0302,17.9675 C6.9482,17.3195 9.7022,14.9695 9.6222,10.1675 C9.5472,5.6225 6.7712,2.8325 5.7652,1.9695 L5.7652,1.9695 Z M6.0492,19.3605 L5.7602,19.2085 C5.5692,19.1085 1.0812,16.6825 0.9782,10.3095 C0.8772,4.1795 5.2062,0.8495 5.3912,0.7115 L5.7402,0.4485 L6.0962,0.6995 C6.2862,0.8325 10.7212,4.0185 10.8222,10.1475 C10.9272,16.5215 6.5222,19.0925 6.3342,19.1985 L6.0492,19.3605 Z" id="Fill-17" fill="#0C1423" mask="url(#mask-2)"></path>
                </g>
                <g id="Group-22" transform="translate(0.000000, 11.551000)">
                    <mask id="mask-4" fill="white">
                        <use xlink:href="#path-3"></use>
                    </mask>
                    <g id="Clip-21"></g>
                    <path d="M1.2349,2.0007 C1.1379,3.3257 1.1599,7.2717 4.3099,10.5217 C7.6539,13.9717 11.2649,13.6807 12.3729,13.4887 C12.5979,12.3907 13.0029,8.7907 9.6569,5.3387 C6.5059,2.0897 2.5679,1.9477 1.2349,2.0007 M11.1099,14.7897 C9.2259,14.7897 6.2399,14.2357 3.4489,11.3567 C-0.8191,6.9557 0.0609,1.5647 0.1009,1.3377 L0.1749,0.9077 L0.6079,0.8467 C0.8369,0.8137 6.2509,0.1017 10.5179,4.5037 C14.9559,9.0807 13.5019,13.9697 13.4379,14.1757 L13.3399,14.4877 L13.0249,14.5757 C12.9479,14.5967 12.2199,14.7897 11.1099,14.7897" id="Fill-20" fill="#0C1423" mask="url(#mask-4)"></path>
                </g>
                <path d="M1.4127,24.3667 C1.3157,25.6917 1.3377,29.6377 4.4877,32.8877 C7.8077,36.3117 11.4537,36.0347 12.5507,35.8527 C12.7757,34.7507 13.1767,31.1537 9.8347,27.7057 C6.6827,24.4547 2.7407,24.3077 1.4127,24.3667 M11.2877,37.1557 C9.4037,37.1557 6.4177,36.6027 3.6267,33.7227 C-0.6413,29.3227 0.2387,23.9307 0.2787,23.7037 L0.3527,23.2737 L0.7857,23.2127 C1.0137,23.1787 6.4277,22.4677 10.6957,26.8707 C15.1327,31.4477 13.6797,36.3357 13.6157,36.5417 L13.5177,36.8547 L13.2027,36.9417 C13.1257,36.9637 12.3987,37.1557 11.2877,37.1557" id="Fill-23" fill="#0C1423"></path>
                <path d="M1.5904,35.1806 C1.4934,36.5036 1.5134,40.4516 4.6654,43.7036 C8.0104,47.1526 11.6214,46.8616 12.7284,46.6706 C12.9534,45.5726 13.3574,41.9716 10.0124,38.5206 C6.8474,35.2566 2.9074,35.1186 1.5904,35.1806 M11.4654,47.9706 C9.5814,47.9706 6.5944,47.4176 3.8044,44.5386 C-0.4636,40.1376 0.4164,34.7466 0.4564,34.5186 L0.5304,34.0896 L0.9634,34.0276 C1.1914,33.9936 6.6064,33.2846 10.8734,37.6856 C15.3104,42.2626 13.8574,47.1506 13.7934,47.3566 L13.6954,47.6696 L13.3804,47.7566 C13.3034,47.7786 12.5754,47.9706 11.4654,47.9706" id="Fill-25" fill="#0C1423"></path>
                <path d="M13.8961,25.0151 C15.0071,25.1701 18.6261,25.3441 21.8561,21.7851 C24.9111,18.4191 24.7941,14.4841 24.6521,13.1671 C23.2911,13.1301 19.3851,13.4281 16.3421,16.7801 C13.1121,20.3391 13.6341,23.9251 13.8961,25.0151 M14.8881,26.2781 C13.9541,26.2781 13.3491,26.1391 13.2791,26.1221 L12.9611,26.0451 L12.8541,25.7361 C12.7831,25.5321 11.1691,20.6941 15.4541,15.9731 C19.5731,11.4351 25.0071,11.9681 25.2391,11.9931 L25.6731,12.0401 L25.7621,12.4671 C25.8091,12.6931 26.8651,18.0521 22.7451,22.5911 C19.8961,25.7301 16.7431,26.2781 14.8881,26.2781" id="Fill-27" fill="#0C1423"></path>
                <path d="M14.0738,35.8305 C15.1858,35.9865 18.8038,36.1595 22.0338,32.6005 C25.0888,29.2345 24.9718,25.2995 24.8298,23.9825 C23.5138,23.9375 19.5638,24.2415 16.5198,27.5955 C13.2898,31.1545 13.8118,34.7405 14.0738,35.8305 M15.0648,37.0935 C14.1318,37.0935 13.5268,36.9545 13.4568,36.9375 L13.1388,36.8605 L13.0318,36.5515 C12.9608,36.3475 11.3468,31.5095 15.6318,26.7885 C19.7508,22.2515 25.1848,22.7835 25.4168,22.8085 L25.8508,22.8555 L25.9398,23.2825 C25.9868,23.5085 27.0428,28.8675 22.9228,33.4065 C20.0738,36.5455 16.9198,37.0935 15.0648,37.0935" id="Fill-29" fill="#0C1423"></path>
                <path d="M14.2545,46.6464 C15.3675,46.8004 18.9835,46.9714 22.2115,43.4154 C25.2665,40.0494 25.1505,36.1154 25.0075,34.7974 C24.9825,34.7964 24.9565,34.7964 24.9305,34.7964 C23.5325,34.7964 19.6845,35.1204 16.6975,38.4114 C13.4925,41.9414 14.0025,45.5604 14.2545,46.6464 M15.2425,47.9094 C14.3095,47.9094 13.7045,47.7704 13.6345,47.7524 L13.3175,47.6754 L13.2095,47.3664 C13.1385,47.1634 11.5255,42.3244 15.8095,37.6044 C19.9285,33.0664 25.3615,33.5984 25.5945,33.6234 L26.0285,33.6704 L26.1175,34.0974 C26.1645,34.3234 27.2205,39.6824 23.1005,44.2214 C20.2515,47.3604 17.0975,47.9094 15.2425,47.9094" id="Fill-31" fill="#0C1423"></path>
                <polygon id="Fill-33" fill="#0C1423" points="12.9976 53.2275 12.4386 19.2375 13.6386 19.2185 14.1966 53.2075"></polygon>
            </g>
        </g>
    </g>
</svg>