<svg width="110" height="110" viewBox="0 0 110 110" fill="none" xmlns="http://www.w3.org/2000/svg">
<g id="i-agr">
<rect width="110" height="110" fill="white"/>
<g id="Group 23">
<path id="Fill 1" fill-rule="evenodd" clip-rule="evenodd" d="M56.0094 48.561C56.0094 48.561 60.2924 46.132 60.1934 40.042C60.0964 34.147 55.7224 31.075 55.7224 31.075C55.7224 31.075 51.4504 34.29 51.5484 40.184C51.6484 46.274 56.0094 48.561 56.0094 48.561" fill="#FF483C"/>
<path id="Fill 3" fill-rule="evenodd" clip-rule="evenodd" d="M55.8345 54.8818C55.8345 54.8818 57.2975 50.1798 53.0585 45.8058C48.9545 41.5728 43.6625 42.3248 43.6625 42.3248C43.6625 42.3248 42.7465 47.5908 46.8505 51.8238C51.0895 56.1978 55.8345 54.8818 55.8345 54.8818" fill="#FF483C"/>
<path id="Fill 5" fill-rule="evenodd" clip-rule="evenodd" d="M56.0123 65.6967C56.0123 65.6967 57.4753 60.9947 53.2353 56.6207C49.1323 52.3887 43.8403 53.1397 43.8403 53.1397C43.8403 53.1397 42.9243 58.4067 47.0283 62.6387C51.2673 67.0127 56.0123 65.6967 56.0123 65.6967" fill="#FF483C"/>
<path id="Fill 7" fill-rule="evenodd" clip-rule="evenodd" d="M56.19 76.5122C56.19 76.5122 57.653 71.8102 53.413 67.4362C49.31 63.2032 44.017 63.9552 44.017 63.9552C44.017 63.9552 43.102 69.2212 47.205 73.4542C51.445 77.8282 56.19 76.5122 56.19 76.5122" fill="#FF483C"/>
<path id="Fill 9" fill-rule="evenodd" clip-rule="evenodd" d="M56.3912 54.8725C56.3912 54.8725 54.7752 50.2215 58.8692 45.7105C62.8302 41.3455 68.1442 41.9225 68.1442 41.9225C68.1442 41.9225 69.2332 47.1565 65.2712 51.5215C61.1762 56.0315 56.3912 54.8725 56.3912 54.8725" fill="#FF483C"/>
<path id="Fill 11" fill-rule="evenodd" clip-rule="evenodd" d="M56.5689 65.6879C56.5689 65.6879 54.9529 61.0359 59.0469 56.5259C63.0079 52.1609 68.3219 52.7379 68.3219 52.7379C68.3219 52.7379 69.4109 57.9719 65.4489 62.3359C61.3539 66.8469 56.5689 65.6879 56.5689 65.6879" fill="#FF483C"/>
<path id="Fill 13" fill-rule="evenodd" clip-rule="evenodd" d="M56.7467 76.5029C56.7467 76.5029 55.1297 71.8519 59.2247 67.3409C63.1857 62.9759 68.4997 63.5529 68.4997 63.5529C68.4997 63.5529 69.5877 68.7869 65.6257 73.1519C61.5317 77.6629 56.7467 76.5029 56.7467 76.5029" fill="#FF483C"/>
<path id="Fill 15" fill-rule="evenodd" clip-rule="evenodd" d="M56.0094 48.561L56.5684 82.551Z" fill="#437DBC"/>
<g id="Group 19">
<mask id="mask0" mask-type="alpha" maskUnits="userSpaceOnUse" x="48" y="28" width="11" height="19">
<path id="Clip 18" fill-rule="evenodd" clip-rule="evenodd" d="M58.824 28H48.9764V46.9115H58.824V28V28Z" fill="white"/>
</mask>
<g mask="url(#mask0)">
<path id="Fill 17" fill-rule="evenodd" clip-rule="evenodd" d="M53.7652 29.5205C52.7892 30.4195 50.1032 33.3125 50.1772 37.8405C50.2552 42.6095 53.1032 44.8985 54.0302 45.5185C54.9482 44.8705 57.7022 42.5205 57.6222 37.7185C57.5472 33.1735 54.7712 30.3835 53.7652 29.5205V29.5205ZM54.0492 46.9115L53.7602 46.7595C53.5692 46.6595 49.0812 44.2335 48.9782 37.8605C48.8772 31.7305 53.2062 28.4005 53.3912 28.2625L53.7402 27.9995L54.0962 28.2505C54.2862 28.3835 58.7212 31.5695 58.8222 37.6985C58.9272 44.0725 54.5222 46.6435 54.3342 46.7495L54.0492 46.9115Z" fill="#232323"/>
</g>
</g>
<g id="Group 22">
<mask id="mask1" mask-type="alpha" maskUnits="userSpaceOnUse" x="41" y="39" width="14" height="15">
<path id="Clip 21" fill-rule="evenodd" clip-rule="evenodd" d="M41 39.336V53.3407H54.7159V39.336H41V39.336Z" fill="white"/>
</mask>
<g mask="url(#mask1)">
<path id="Fill 20" fill-rule="evenodd" clip-rule="evenodd" d="M42.2349 40.5517C42.1379 41.8767 42.1599 45.8227 45.3099 49.0727C48.6539 52.5227 52.2649 52.2317 53.3729 52.0397C53.5979 50.9417 54.0029 47.3417 50.6569 43.8897C47.5059 40.6407 43.5679 40.4987 42.2349 40.5517M52.1099 53.3407C50.2259 53.3407 47.2399 52.7867 44.4489 49.9077C40.1809 45.5067 41.0609 40.1157 41.1009 39.8887L41.1749 39.4587L41.6079 39.3977C41.8369 39.3647 47.2509 38.6527 51.5179 43.0547C55.9559 47.6317 54.5019 52.5207 54.4379 52.7267L54.3399 53.0387L54.0249 53.1267C53.9479 53.1477 53.2199 53.3407 52.1099 53.3407" fill="#232323"/>
</g>
</g>
<path id="Fill 23" fill-rule="evenodd" clip-rule="evenodd" d="M42.4127 51.3667C42.3157 52.6917 42.3377 56.6377 45.4877 59.8877C48.8077 63.3117 52.4537 63.0347 53.5507 62.8527C53.7757 61.7507 54.1767 58.1537 50.8347 54.7057C47.6827 51.4547 43.7407 51.3077 42.4127 51.3667M52.2877 64.1557C50.4037 64.1557 47.4177 63.6027 44.6267 60.7227C40.3587 56.3227 41.2387 50.9307 41.2787 50.7037L41.3527 50.2737L41.7857 50.2127C42.0137 50.1787 47.4277 49.4677 51.6957 53.8707C56.1327 58.4477 54.6797 63.3357 54.6157 63.5417L54.5177 63.8547L54.2027 63.9417C54.1257 63.9637 53.3987 64.1557 52.2877 64.1557" fill="#232323"/>
<path id="Fill 25" fill-rule="evenodd" clip-rule="evenodd" d="M42.5904 62.1806C42.4934 63.5036 42.5134 67.4516 45.6654 70.7036C49.0104 74.1526 52.6214 73.8616 53.7284 73.6706C53.9534 72.5726 54.3574 68.9716 51.0124 65.5206C47.8474 62.2566 43.9074 62.1186 42.5904 62.1806M52.4654 74.9706C50.5814 74.9706 47.5944 74.4176 44.8044 71.5386C40.5364 67.1376 41.4164 61.7466 41.4564 61.5186L41.5304 61.0896L41.9634 61.0276C42.1914 60.9936 47.6064 60.2846 51.8734 64.6856C56.3104 69.2626 54.8574 74.1506 54.7934 74.3566L54.6954 74.6696L54.3804 74.7566C54.3034 74.7786 53.5754 74.9706 52.4654 74.9706" fill="#232323"/>
<path id="Fill 27" fill-rule="evenodd" clip-rule="evenodd" d="M54.8961 52.0151C56.0071 52.1701 59.6261 52.3441 62.8561 48.7851C65.9111 45.4191 65.7941 41.4841 65.6521 40.1671C64.2911 40.1301 60.3851 40.4281 57.3421 43.7801C54.1121 47.3391 54.6341 50.9251 54.8961 52.0151M55.8881 53.2781C54.9541 53.2781 54.3491 53.1391 54.2791 53.1221L53.9611 53.0451L53.8541 52.7361C53.7831 52.5321 52.1691 47.6941 56.4541 42.9731C60.5731 38.4351 66.0071 38.9681 66.2391 38.9931L66.6731 39.0401L66.7621 39.4671C66.8091 39.6931 67.8651 45.0521 63.7451 49.5911C60.8961 52.7301 57.7431 53.2781 55.8881 53.2781" fill="#232323"/>
<path id="Fill 29" fill-rule="evenodd" clip-rule="evenodd" d="M55.0738 62.8305C56.1858 62.9865 59.8038 63.1595 63.0338 59.6005C66.0888 56.2345 65.9718 52.2995 65.8298 50.9825C64.5138 50.9375 60.5638 51.2415 57.5198 54.5955C54.2898 58.1545 54.8118 61.7405 55.0738 62.8305M56.0648 64.0935C55.1318 64.0935 54.5268 63.9545 54.4568 63.9375L54.1388 63.8605L54.0318 63.5515C53.9608 63.3475 52.3468 58.5095 56.6318 53.7885C60.7508 49.2515 66.1848 49.7835 66.4168 49.8085L66.8508 49.8555L66.9398 50.2825C66.9868 50.5085 68.0428 55.8675 63.9228 60.4065C61.0738 63.5455 57.9198 64.0935 56.0648 64.0935" fill="#232323"/>
<path id="Fill 31" fill-rule="evenodd" clip-rule="evenodd" d="M55.2545 73.6464C56.3675 73.8004 59.9835 73.9714 63.2115 70.4154C66.2665 67.0494 66.1505 63.1154 66.0075 61.7974C65.9825 61.7964 65.9565 61.7964 65.9305 61.7964C64.5325 61.7964 60.6845 62.1204 57.6975 65.4114C54.4925 68.9414 55.0025 72.5604 55.2545 73.6464M56.2425 74.9094C55.3095 74.9094 54.7045 74.7704 54.6345 74.7524L54.3175 74.6754L54.2095 74.3664C54.1385 74.1634 52.5255 69.3244 56.8095 64.6044C60.9285 60.0664 66.3615 60.5984 66.5945 60.6234L67.0285 60.6704L67.1175 61.0974C67.1645 61.3234 68.2205 66.6824 64.1005 71.2214C61.2515 74.3604 58.0975 74.9094 56.2425 74.9094" fill="#232323"/>
<path id="Fill 33" fill-rule="evenodd" clip-rule="evenodd" d="M53.9976 80.2275L53.4386 46.2375L54.6386 46.2185L55.1966 80.2075L53.9976 80.2275Z" fill="#232323"/>
</g>
</g>
</svg>
