<svg width="110" height="110" viewBox="0 0 110 110" fill="none" xmlns="http://www.w3.org/2000/svg">
<g id="i-cie">
<rect width="110" height="110" fill="white"/>
<g id="Group">
<path id="Fill 1" fill-rule="evenodd" clip-rule="evenodd" d="M61.0107 51.226C61.0107 49.652 59.7357 48.376 58.1607 48.376C56.5867 48.376 55.3117 49.652 55.3117 51.226C55.3117 52.8 56.5867 54.076 58.1607 54.076C59.7357 54.076 61.0107 52.8 61.0107 51.226Z" fill="#FF483C"/>
<path id="Fill 3" fill-rule="evenodd" clip-rule="evenodd" d="M78.167 33.8305C77.669 31.8805 75.685 30.7045 73.735 31.2015L61.845 34.2375L61.961 34.6935L52.318 37.1555L50.146 37.7105L42.677 39.6175L43.006 40.9085L32.342 43.6315L33.253 47.1995L43.917 44.4765L43.38 42.3745L44.247 45.7675L51.716 43.8595L56.063 42.7495L63.531 40.8425L62.746 37.7685L63.647 41.2975L75.538 38.2615C77.488 37.7635 78.665 35.7795 78.167 33.8305" fill="#FF483C"/>
<path id="Fill 6" fill-rule="evenodd" clip-rule="evenodd" d="M41.793 38.5786L43.066 43.5646L61.189 38.9376L59.916 33.9516L41.793 38.5786ZM42.201 45.0246L40.334 37.7126L60.781 32.4916L62.648 39.8036L42.201 45.0246Z" fill="#263238"/>
<path id="Fill 8" fill-rule="evenodd" clip-rule="evenodd" d="M49.2617 36.6714L50.5347 41.6584L53.7207 40.8444L52.4477 35.8584L49.2617 36.6714ZM49.6697 43.1184L47.8027 35.8054L53.3127 34.3984L55.1797 41.7114L49.6697 43.1184Z" fill="#263238"/>
<path id="Fill 10" fill-rule="evenodd" clip-rule="evenodd" d="M60.9619 33.1992L62.4679 39.0962L73.1959 36.3562L71.6909 30.4602L60.9619 33.1992ZM61.6029 40.5562L59.5029 32.3332L72.5559 29.0002L74.6549 37.2222L61.6029 40.5562Z" fill="#263238"/>
<path id="Fill 12" fill-rule="evenodd" clip-rule="evenodd" d="M74.0742 37.3711L73.7772 36.2081C75.4022 35.7931 76.3872 34.1331 75.9732 32.5071C75.7722 31.7191 75.2762 31.0571 74.5772 30.6421C73.8772 30.2271 73.0562 30.1091 72.2712 30.3111L71.9742 29.1481C73.0732 28.8691 74.2152 29.0321 75.1892 29.6101C76.1642 30.1881 76.8552 31.1121 77.1362 32.2101C77.7142 34.4771 76.3412 36.7921 74.0742 37.3711" fill="#263238"/>
<path id="Fill 14" fill-rule="evenodd" clip-rule="evenodd" d="M31.459 42.5927L32.073 44.9967L41.575 42.5707L40.961 40.1667L31.459 42.5927ZM31.208 46.4567L30 41.7267L41.826 38.7067L43.034 43.4367L31.208 46.4567Z" fill="#263238"/>
<path id="Fill 16" fill-rule="evenodd" clip-rule="evenodd" d="M64.6738 35.1098C64.6518 35.1098 64.6288 35.1128 64.6038 35.1188C64.4528 35.1568 64.3618 35.3118 64.3998 35.4628C64.4388 35.6128 64.5938 35.7028 64.7438 35.6658C64.8418 35.6408 64.8938 35.5738 64.9158 35.5358C64.9378 35.4988 64.9718 35.4218 64.9458 35.3228V35.3218C64.9208 35.2238 64.8548 35.1718 64.8168 35.1498C64.7888 35.1328 64.7378 35.1098 64.6738 35.1098M64.6748 36.8738C64.0138 36.8738 63.4078 36.4278 63.2368 35.7588C63.0348 34.9668 63.5158 34.1588 64.3068 33.9568C64.6888 33.8558 65.0878 33.9148 65.4298 34.1178C65.7698 34.3188 66.0108 34.6418 66.1088 35.0248C66.2068 35.4088 66.1498 35.8078 65.9478 36.1488C65.7458 36.4888 65.4238 36.7308 65.0398 36.8288C64.9178 36.8598 64.7958 36.8738 64.6748 36.8738" fill="#263238"/>
<path id="Fill 18" fill-rule="evenodd" clip-rule="evenodd" d="M69.4844 33.8818C69.4624 33.8818 69.4384 33.8838 69.4154 33.8908C69.3164 33.9158 69.2644 33.9828 69.2424 34.0198C69.2204 34.0568 69.1864 34.1348 69.2124 34.2328C69.2374 34.3318 69.3034 34.3838 69.3404 34.4058C69.3794 34.4278 69.4534 34.4628 69.5544 34.4368C69.7054 34.3988 69.7964 34.2448 69.7584 34.0938C69.7254 33.9658 69.6104 33.8818 69.4844 33.8818M69.4824 35.6458C69.2194 35.6458 68.9614 35.5758 68.7284 35.4378C68.3884 35.2358 68.1474 34.9138 68.0494 34.5298C67.9514 34.1468 68.0084 33.7478 68.2104 33.4078C68.4124 33.0678 68.7344 32.8258 69.1184 32.7278C69.9054 32.5268 70.7184 33.0048 70.9214 33.7968V33.7978C71.1234 34.5898 70.6424 35.3978 69.8514 35.5998C69.7294 35.6308 69.6054 35.6458 69.4824 35.6458" fill="#263238"/>
<path id="Fill 20" fill-rule="evenodd" clip-rule="evenodd" d="M56.377 47.5044C55.136 47.5044 54.126 48.5134 54.126 49.7544C54.126 50.9944 55.136 52.0044 56.377 52.0044C57.617 52.0044 58.627 50.9944 58.627 49.7544C58.627 48.5134 57.617 47.5044 56.377 47.5044M56.377 53.2044C54.475 53.2044 52.927 51.6564 52.927 49.7544C52.927 47.8524 54.475 46.3044 56.377 46.3044C58.279 46.3044 59.826 47.8524 59.826 49.7544C59.826 51.6564 58.279 53.2044 56.377 53.2044" fill="#263238"/>
<path id="Fill 22" fill-rule="evenodd" clip-rule="evenodd" d="M55.778 46.904H56.977V40.786H55.778V46.904Z" fill="#263238"/>
<path id="Fill 24" fill-rule="evenodd" clip-rule="evenodd" d="M55.778 78.406H56.977V52.604H55.778V78.406Z" fill="#263238"/>
<path id="Fill 25" fill-rule="evenodd" clip-rule="evenodd" d="M68.8867 78.6357L57.8347 51.9517L58.9447 51.4927L69.9957 78.1767L68.8867 78.6357Z" fill="#263238"/>
<path id="Fill 26" fill-rule="evenodd" clip-rule="evenodd" d="M43.8672 78.6357L42.7582 78.1767L53.8082 51.4927L54.9182 51.9517L43.8672 78.6357Z" fill="#263238"/>
<path id="Fill 27" fill-rule="evenodd" clip-rule="evenodd" d="M41.513 79.061H45.125V77.861H41.513V79.061Z" fill="#263238"/>
<path id="Fill 28" fill-rule="evenodd" clip-rule="evenodd" d="M54.571 79.061H58.183V77.861H54.571V79.061Z" fill="#263238"/>
<path id="Fill 29" fill-rule="evenodd" clip-rule="evenodd" d="M67.635 79.061H71.247V77.861H67.635V79.061Z" fill="#263238"/>
</g>
</g>
</svg>
