<?xml version="1.0" encoding="UTF-8" standalone="no"?>
<svg width="100px" height="100px" viewBox="0 0 100 100" version="1.1" xmlns="http://www.w3.org/2000/svg" xmlns:xlink="http://www.w3.org/1999/xlink">
    <!-- Generator: Sketch 41.2 (35397) - http://www.bohemiancoding.com/sketch -->
    <title>Artboard Copy 65</title>
    <desc>Created with Sketch.</desc>
    <defs>
        <polygon id="path-1" points="46.281 16.1385 46.281 0.0266287109 0.342 0.0266287109 0.342 16.1385 46.281 16.1385"></polygon>
        <polygon id="path-3" points="0 50.061 48.281 50.061 48.281 0 0 0"></polygon>
    </defs>
    <g id="Welcome" stroke="none" stroke-width="1" fill="none" fill-rule="evenodd">
        <g id="Artboard-Copy-65">
            <g id="Page-1-Copy" transform="translate(24.000000, 25.000000)">
                <path d="M31.0107,22.226 C31.0107,20.652 29.7357,19.376 28.1607,19.376 C26.5867,19.376 25.3117,20.652 25.3117,22.226 C25.3117,23.8 26.5867,25.076 28.1607,25.076 C29.7357,25.076 31.0107,23.8 31.0107,22.226 Z" id="Fill-1" fill="#437DBB"></path>
                <g id="Group-5" transform="translate(2.000000, 2.061000)">
                    <mask id="mask-2" fill="white">
                        <use xlink:href="#path-1"></use>
                    </mask>
                    <g id="Clip-4"></g>
                    <path d="M46.167,2.7695 C45.669,0.8195 43.685,-0.3565 41.735,0.1405 L29.845,3.1765 L29.961,3.6325 L20.318,6.0945 L18.146,6.6495 L10.677,8.5565 L11.006,9.8475 L0.342,12.5705 L1.253,16.1385 L11.917,13.4155 L11.38,11.3135 L12.247,14.7065 L19.716,12.7985 L24.063,11.6885 L31.531,9.7815 L30.746,6.7075 L31.647,10.2365 L43.538,7.2005 C45.488,6.7025 46.665,4.7185 46.167,2.7695" id="Fill-3" fill="#437DBB" mask="url(#mask-2)"></path>
                </g>
                <path d="M11.793,9.5786 L13.066,14.5646 L31.189,9.9376 L29.916,4.9516 L11.793,9.5786 Z M12.201,16.0246 L10.334,8.7126 L30.781,3.4916 L32.648,10.8036 L12.201,16.0246 Z" id="Fill-6" fill="#0C1423"></path>
                <path d="M19.2617,7.6714 L20.5347,12.6584 L23.7207,11.8444 L22.4477,6.8584 L19.2617,7.6714 Z M19.6697,14.1184 L17.8027,6.8054 L23.3127,5.3984 L25.1797,12.7114 L19.6697,14.1184 Z" id="Fill-8" fill="#0C1423"></path>
                <path d="M30.9619,4.1992 L32.4679,10.0962 L43.1959,7.3562 L41.6909,1.4602 L30.9619,4.1992 Z M31.6029,11.5562 L29.5029,3.3332 L42.5559,0.0002 L44.6549,8.2222 L31.6029,11.5562 Z" id="Fill-10" fill="#0C1423"></path>
                <path d="M44.0742,8.3711 L43.7772,7.2081 C45.4022,6.7931 46.3872,5.1331 45.9732,3.5071 C45.7722,2.7191 45.2762,2.0571 44.5772,1.6421 C43.8772,1.2271 43.0562,1.1091 42.2712,1.3111 L41.9742,0.1481 C43.0732,-0.1309 44.2152,0.0321 45.1892,0.6101 C46.1642,1.1881 46.8552,2.1121 47.1362,3.2101 C47.7142,5.4771 46.3412,7.7921 44.0742,8.3711" id="Fill-12" fill="#0C1423"></path>
                <path d="M1.459,13.5927 L2.073,15.9967 L11.575,13.5707 L10.961,11.1667 L1.459,13.5927 Z M1.208,17.4567 L0,12.7267 L11.826,9.7067 L13.034,14.4367 L1.208,17.4567 Z" id="Fill-14" fill="#0C1423"></path>
                <path d="M34.6738,6.1098 C34.6518,6.1098 34.6288,6.1128 34.6038,6.1188 C34.4528,6.1568 34.3618,6.3118 34.3998,6.4628 C34.4388,6.6128 34.5938,6.7028 34.7438,6.6658 C34.8418,6.6408 34.8938,6.5738 34.9158,6.5358 C34.9378,6.4988 34.9718,6.4218 34.9458,6.3228 L34.9458,6.3218 C34.9208,6.2238 34.8548,6.1718 34.8168,6.1498 C34.7888,6.1328 34.7378,6.1098 34.6738,6.1098 M34.6748,7.8738 C34.0138,7.8738 33.4078,7.4278 33.2368,6.7588 C33.0348,5.9668 33.5158,5.1588 34.3068,4.9568 C34.6888,4.8558 35.0878,4.9148 35.4298,5.1178 C35.7698,5.3188 36.0108,5.6418 36.1088,6.0248 C36.2068,6.4088 36.1498,6.8078 35.9478,7.1488 C35.7458,7.4888 35.4238,7.7308 35.0398,7.8288 C34.9178,7.8598 34.7958,7.8738 34.6748,7.8738" id="Fill-16" fill="#0C1423"></path>
                <path d="M39.4844,4.8818 C39.4624,4.8818 39.4384,4.8838 39.4154,4.8908 C39.3164,4.9158 39.2644,4.9828 39.2424,5.0198 C39.2204,5.0568 39.1864,5.1348 39.2124,5.2328 C39.2374,5.3318 39.3034,5.3838 39.3404,5.4058 C39.3794,5.4278 39.4534,5.4628 39.5544,5.4368 C39.7054,5.3988 39.7964,5.2448 39.7584,5.0938 C39.7254,4.9658 39.6104,4.8818 39.4844,4.8818 M39.4824,6.6458 C39.2194,6.6458 38.9614,6.5758 38.7284,6.4378 C38.3884,6.2358 38.1474,5.9138 38.0494,5.5298 C37.9514,5.1468 38.0084,4.7478 38.2104,4.4078 C38.4124,4.0678 38.7344,3.8258 39.1184,3.7278 C39.9054,3.5268 40.7184,4.0048 40.9214,4.7968 L40.9214,4.7978 C41.1234,5.5898 40.6424,6.3978 39.8514,6.5998 C39.7294,6.6308 39.6054,6.6458 39.4824,6.6458" id="Fill-18" fill="#0C1423"></path>
                <path d="M26.377,18.5044 C25.136,18.5044 24.126,19.5134 24.126,20.7544 C24.126,21.9944 25.136,23.0044 26.377,23.0044 C27.617,23.0044 28.627,21.9944 28.627,20.7544 C28.627,19.5134 27.617,18.5044 26.377,18.5044 M26.377,24.2044 C24.475,24.2044 22.927,22.6564 22.927,20.7544 C22.927,18.8524 24.475,17.3044 26.377,17.3044 C28.279,17.3044 29.826,18.8524 29.826,20.7544 C29.826,22.6564 28.279,24.2044 26.377,24.2044" id="Fill-20" fill="#0C1423"></path>
                <mask id="mask-4" fill="white">
                    <use xlink:href="#path-3"></use>
                </mask>
                <g id="Clip-23"></g>
                <polygon id="Fill-22" fill="#0C1423" mask="url(#mask-4)" points="25.778 17.904 26.977 17.904 26.977 11.786 25.778 11.786"></polygon>
                <polygon id="Fill-24" fill="#0C1423" mask="url(#mask-4)" points="25.778 49.406 26.977 49.406 26.977 23.604 25.778 23.604"></polygon>
                <polygon id="Fill-25" fill="#0C1423" mask="url(#mask-4)" points="38.8867 49.6357 27.8347 22.9517 28.9447 22.4927 39.9957 49.1767"></polygon>
                <polygon id="Fill-26" fill="#0C1423" mask="url(#mask-4)" points="13.8672 49.6357 12.7582 49.1767 23.8082 22.4927 24.9182 22.9517"></polygon>
                <polygon id="Fill-27" fill="#0C1423" mask="url(#mask-4)" points="11.513 50.061 15.125 50.061 15.125 48.861 11.513 48.861"></polygon>
                <polygon id="Fill-28" fill="#0C1423" mask="url(#mask-4)" points="24.571 50.061 28.183 50.061 28.183 48.861 24.571 48.861"></polygon>
                <polygon id="Fill-29" fill="#0C1423" mask="url(#mask-4)" points="37.635 50.061 41.247 50.061 41.247 48.861 37.635 48.861"></polygon>
            </g>
        </g>
    </g>
</svg>