<?xml version="1.0" encoding="UTF-8" standalone="no"?>
<svg width="100px" height="100px" viewBox="0 0 100 100" version="1.1" xmlns="http://www.w3.org/2000/svg" xmlns:xlink="http://www.w3.org/1999/xlink">
    <!-- Generator: Sketch 41.2 (35397) - http://www.bohemiancoding.com/sketch -->
    <title>Artboard Copy 45</title>
    <desc>Created with Sketch.</desc>
    <defs>
        <polygon id="path-1" points="0.5997 46 53.8407 46 53.8407 0.9542 0.5997 0.9542"></polygon>
        <polygon id="path-3" points="54.4407 0.963 0 0.963 0 15.4024 54.4407 15.4024 54.4407 0.963"></polygon>
        <polygon id="path-5" points="0 49.0375 55.841 49.0375 55.841 1.0005 0 1.0005"></polygon>
    </defs>
    <g id="Welcome" stroke="none" stroke-width="1" fill="none" fill-rule="evenodd">
        <g id="Artboard-Copy-45">
            <g id="Page-1-Copy" transform="translate(22.000000, 25.000000)">
                <g id="Group-3" transform="translate(2.000000, 3.037500)">
                    <mask id="mask-2" fill="white">
                        <use xlink:href="#path-1"></use>
                    </mask>
                    <g id="Clip-2"></g>
                    <path d="M47.2217,0.9542 L7.2187,0.9542 C3.5637,0.9542 0.5997,3.9182 0.5997,7.5742 C0.5997,11.2302 3.5637,14.1932 7.2187,14.1932 C10.3847,14.1932 13.0237,11.9682 13.6767,8.9982 L13.8387,8.9982 L13.8387,14.1932 L13.8387,19.9182 L13.0597,19.9182 C12.0607,19.9182 11.2507,20.7272 11.2507,21.7262 C11.2507,22.7252 12.0607,23.5352 13.0597,23.5352 L13.8387,23.5352 L13.8387,46.0002 L17.2897,46.0002 L22.0097,46.0002 L25.0227,46.0002 L29.7427,46.0002 L32.7537,46.0002 L37.4737,46.0002 L40.6017,46.0002 L40.6017,23.5352 L41.3797,23.5352 C42.3787,23.5352 43.1897,22.7252 43.1897,21.7262 C43.1897,20.7272 42.3787,19.9182 41.3797,19.9182 L40.6017,19.9182 L40.6017,14.1932 L40.6017,8.9982 L40.7637,8.9982 C41.4167,11.9682 44.0557,14.1932 47.2217,14.1932 C50.8767,14.1932 53.8407,11.2302 53.8407,7.5742 C53.8407,3.9182 50.8767,0.9542 47.2217,0.9542" id="Fill-1" fill="#437DBC" mask="url(#mask-2)"></path>
                </g>
                <path d="M7.2187,5.5581 C5.7507,5.5581 4.5567,6.7521 4.5567,8.2201 C4.5567,9.6881 5.7507,10.8821 7.2187,10.8821 C8.6867,10.8821 9.8807,9.6881 9.8807,8.2201 C9.8807,6.7521 8.6867,5.5581 7.2187,5.5581 M7.2187,12.0821 C5.0897,12.0821 3.3577,10.3501 3.3577,8.2201 C3.3577,6.0911 5.0897,4.3581 7.2187,4.3581 C9.3477,4.3581 11.0797,6.0911 11.0797,8.2201 C11.0797,10.3501 9.3477,12.0821 7.2187,12.0821" id="Fill-4" fill="#0C1423"></path>
                <path d="M47.2207,5.5581 C45.7527,5.5581 44.5587,6.7521 44.5587,8.2201 C44.5587,9.6881 45.7527,10.8821 47.2207,10.8821 C48.6887,10.8821 49.8837,9.6881 49.8837,8.2201 C49.8837,6.7521 48.6887,5.5581 47.2207,5.5581 M47.2207,12.0821 C45.0917,12.0821 43.3597,10.3501 43.3597,8.2201 C43.3597,6.0911 45.0917,4.3581 47.2207,4.3581 C49.3507,4.3581 51.0827,6.0911 51.0827,8.2201 C51.0827,10.3501 49.3507,12.0821 47.2207,12.0821" id="Fill-6" fill="#0C1423"></path>
                <g id="Group-10" transform="translate(0.000000, 0.037500)">
                    <mask id="mask-4" fill="white">
                        <use xlink:href="#path-3"></use>
                    </mask>
                    <g id="Clip-9"></g>
                    <path d="M47.2207,15.4024 C43.2407,15.4024 40.0017,12.1634 40.0017,8.1824 L41.2007,8.1824 C41.2007,11.5024 43.9017,14.2024 47.2207,14.2024 C50.5397,14.2024 53.2417,11.5024 53.2417,8.1824 C53.2417,4.8634 50.5397,2.1624 47.2207,2.1624 L7.2187,2.1624 C3.8997,2.1624 1.1997,4.8634 1.1997,8.1824 C1.1997,11.5024 3.8997,14.2024 7.2187,14.2024 C10.5377,14.2024 13.2397,11.5024 13.2397,8.1824 L14.4387,8.1824 C14.4387,12.1634 11.1997,15.4024 7.2187,15.4024 C3.2387,15.4024 -0.0003,12.1634 -0.0003,8.1824 C-0.0003,4.2014 3.2387,0.9624 7.2187,0.9624 L47.2207,0.9624 C51.2017,0.9624 54.4407,4.2014 54.4407,8.1824 C54.4407,12.1634 51.2017,15.4024 47.2207,15.4024" id="Fill-8" fill="#0C1423" mask="url(#mask-4)"></path>
                </g>
                <mask id="mask-6" fill="white">
                    <use xlink:href="#path-5"></use>
                </mask>
                <g id="Clip-12"></g>
                <path d="M14.438,14.2395 L40.001,14.2395 L40.001,8.8205 L14.438,8.8205 L14.438,14.2395 Z M13.239,15.4395 L41.201,15.4395 L41.201,7.6195 L13.239,7.6195 L13.239,15.4395 Z" id="Fill-11" fill="#0C1423" mask="url(#mask-6)"></path>
                <path d="M14.438,19.9635 L40.001,19.9635 L40.001,15.4395 L14.438,15.4395 L14.438,19.9635 Z M13.239,21.1645 L41.201,21.1645 L41.201,14.2405 L13.239,14.2405 L13.239,21.1645 Z" id="Fill-13" fill="#0C1423" mask="url(#mask-6)"></path>
                <path d="M13.0596,21.1641 C12.3936,21.1641 11.8506,21.7061 11.8506,22.3721 C11.8506,23.0391 12.3936,23.5811 13.0596,23.5811 L41.3806,23.5811 C42.0466,23.5811 42.5896,23.0391 42.5896,22.3721 C42.5896,21.7061 42.0466,21.1641 41.3806,21.1641 L13.0596,21.1641 Z M41.3806,24.7811 L13.0596,24.7811 C11.7316,24.7811 10.6516,23.7011 10.6516,22.3721 C10.6516,21.0441 11.7316,19.9641 13.0596,19.9641 L41.3806,19.9641 C42.7086,19.9641 43.7886,21.0441 43.7886,22.3721 C43.7886,23.7011 42.7086,24.7811 41.3806,24.7811 L41.3806,24.7811 Z" id="Fill-14" fill="#0C1423" mask="url(#mask-6)"></path>
                <path d="M14.438,46.0455 L40.001,46.0455 L40.001,24.7805 L14.438,24.7805 L14.438,46.0455 Z M13.239,47.2465 L41.201,47.2465 L41.201,23.5815 L13.239,23.5815 L13.239,47.2465 Z" id="Fill-15" fill="#0C1423" mask="url(#mask-6)"></path>
                <path d="M25.6221,46.0459 L29.1431,46.0459 L29.1431,31.2489 C29.1431,30.3389 28.3521,29.5979 27.3821,29.5979 C26.4121,29.5979 25.6221,30.3389 25.6221,31.2489 L25.6221,46.0459 Z M30.3421,47.2459 L24.4231,47.2459 L24.4231,31.2489 C24.4231,29.6769 25.7501,28.3979 27.3821,28.3979 C29.0151,28.3979 30.3421,29.6769 30.3421,31.2489 L30.3421,47.2459 Z" id="Fill-16" fill="#0C1423" mask="url(#mask-6)"></path>
                <path d="M17.8896,46.0459 L21.4106,46.0459 L21.4106,31.2489 C21.4106,30.3389 20.6196,29.5979 19.6506,29.5979 C18.6796,29.5979 17.8896,30.3389 17.8896,31.2489 L17.8896,46.0459 Z M22.6096,47.2459 L16.6906,47.2459 L16.6906,31.2489 C16.6906,29.6769 18.0176,28.3979 19.6506,28.3979 C21.2826,28.3979 22.6096,29.6769 22.6096,31.2489 L22.6096,47.2459 Z" id="Fill-17" fill="#0C1423" mask="url(#mask-6)"></path>
                <path d="M33.3535,46.0459 L36.8745,46.0459 L36.8745,31.2489 C36.8745,30.3389 36.0835,29.5979 35.1135,29.5979 C34.1435,29.5979 33.3535,30.3389 33.3535,31.2489 L33.3535,46.0459 Z M38.0735,47.2459 L32.1545,47.2459 L32.1545,31.2489 C32.1545,29.6769 33.4815,28.3979 35.1135,28.3979 C36.7465,28.3979 38.0735,29.6769 38.0735,31.2489 L38.0735,47.2459 Z" id="Fill-18" fill="#0C1423" mask="url(#mask-6)"></path>
                <polygon id="Fill-19" fill="#0C1423" mask="url(#mask-6)" points="17.063 20.5635 18.262 20.5635 18.262 14.8385 17.063 14.8385"></polygon>
                <polygon id="Fill-20" fill="#0C1423" mask="url(#mask-6)" points="36.179 20.5635 37.378 20.5635 37.378 14.8385 36.179 14.8385"></polygon>
                <polygon id="Fill-21" fill="#0C1423" mask="url(#mask-6)" points="32.356 20.5635 33.555 20.5635 33.555 14.8385 32.356 14.8385"></polygon>
                <polygon id="Fill-22" fill="#0C1423" mask="url(#mask-6)" points="20.886 20.5635 22.085 20.5635 22.085 14.8385 20.886 14.8385"></polygon>
                <polygon id="Fill-23" fill="#0C1423" mask="url(#mask-6)" points="24.709 20.5635 25.908 20.5635 25.908 14.8385 24.709 14.8385"></polygon>
                <polygon id="Fill-24" fill="#0C1423" mask="url(#mask-6)" points="28.532 20.5635 29.731 20.5635 29.731 14.8385 28.532 14.8385"></polygon>
                <path d="M19.6504,9.2515 C19.4324,9.2515 18.9384,10.0055 18.9384,11.2495 C18.9384,12.5465 19.4444,13.2465 19.6504,13.2465 C19.8674,13.2465 20.3614,12.4925 20.3614,11.2495 C20.3614,10.0055 19.8674,9.2515 19.6504,9.2515 M19.6504,14.4465 C18.5604,14.4465 17.7394,13.0715 17.7394,11.2495 C17.7394,9.4265 18.5604,8.0515 19.6504,8.0515 C20.7394,8.0515 21.5604,9.4265 21.5604,11.2495 C21.5604,13.0715 20.7394,14.4465 19.6504,14.4465" id="Fill-25" fill="#0C1423" mask="url(#mask-6)"></path>
                <path d="M27.3818,9.2515 C27.1648,9.2515 26.6708,10.0055 26.6708,11.2495 C26.6708,12.4925 27.1648,13.2465 27.3818,13.2465 C27.5878,13.2465 28.0938,12.5465 28.0938,11.2495 C28.0938,10.0055 27.5998,9.2515 27.3818,9.2515 M27.3818,14.4465 C26.2928,14.4465 25.4718,13.0715 25.4718,11.2495 C25.4718,9.4265 26.2928,8.0515 27.3818,8.0515 C28.4718,8.0515 29.2928,9.4265 29.2928,11.2495 C29.2928,13.0715 28.4718,14.4465 27.3818,14.4465" id="Fill-26" fill="#0C1423" mask="url(#mask-6)"></path>
                <path d="M35.1133,9.2515 C34.8963,9.2515 34.4023,10.0055 34.4023,11.2495 C34.4023,12.4925 34.8963,13.2465 35.1133,13.2465 C35.3193,13.2465 35.8253,12.5465 35.8253,11.2495 C35.8253,10.0055 35.3313,9.2515 35.1133,9.2515 M35.1133,14.4465 C34.0243,14.4465 33.2033,13.0715 33.2033,11.2495 C33.2033,9.4265 34.0243,8.0515 35.1133,8.0515 C36.2033,8.0515 37.0243,9.4265 37.0243,11.2495 C37.0243,13.0715 36.2033,14.4465 35.1133,14.4465" id="Fill-27" fill="#0C1423" mask="url(#mask-6)"></path>
            </g>
        </g>
    </g>
</svg>