<svg width="110" height="110" viewBox="0 0 110 110" fill="none" xmlns="http://www.w3.org/2000/svg">
<g id="i-cul">
<rect width="110" height="110" fill="white"/>
<g id="Group">
<path id="Fill 1" fill-rule="evenodd" clip-rule="evenodd" d="M76.2217 33.9917H36.2187C32.5637 33.9917 29.5997 36.9557 29.5997 40.6117C29.5997 44.2677 32.5637 47.2307 36.2187 47.2307C39.3847 47.2307 42.0237 45.0057 42.6767 42.0357H42.8387V47.2307V52.9557H42.0597C41.0607 52.9557 40.2507 53.7647 40.2507 54.7637C40.2507 55.7627 41.0607 56.5727 42.0597 56.5727H42.8387V79.0377H46.2897H51.0097H54.0227H58.7427H61.7537H66.4737H69.6017V56.5727H70.3797C71.3787 56.5727 72.1897 55.7627 72.1897 54.7637C72.1897 53.7647 71.3787 52.9557 70.3797 52.9557H69.6017V47.2307V42.0357H69.7637C70.4167 45.0057 73.0557 47.2307 76.2217 47.2307C79.8767 47.2307 82.8407 44.2677 82.8407 40.6117C82.8407 36.9557 79.8767 33.9917 76.2217 33.9917" fill="#FF483C"/>
<path id="Fill 4" fill-rule="evenodd" clip-rule="evenodd" d="M34.2187 35.5581C32.7507 35.5581 31.5567 36.7521 31.5567 38.2201C31.5567 39.6881 32.7507 40.8821 34.2187 40.8821C35.6867 40.8821 36.8807 39.6881 36.8807 38.2201C36.8807 36.7521 35.6867 35.5581 34.2187 35.5581M34.2187 42.0821C32.0897 42.0821 30.3577 40.3501 30.3577 38.2201C30.3577 36.0911 32.0897 34.3581 34.2187 34.3581C36.3477 34.3581 38.0797 36.0911 38.0797 38.2201C38.0797 40.3501 36.3477 42.0821 34.2187 42.0821" fill="#232323"/>
<path id="Fill 6" fill-rule="evenodd" clip-rule="evenodd" d="M74.2207 35.5581C72.7527 35.5581 71.5587 36.7521 71.5587 38.2201C71.5587 39.6881 72.7527 40.8821 74.2207 40.8821C75.6887 40.8821 76.8837 39.6881 76.8837 38.2201C76.8837 36.7521 75.6887 35.5581 74.2207 35.5581M74.2207 42.0821C72.0917 42.0821 70.3597 40.3501 70.3597 38.2201C70.3597 36.0911 72.0917 34.3581 74.2207 34.3581C76.3507 34.3581 78.0827 36.0911 78.0827 38.2201C78.0827 40.3501 76.3507 42.0821 74.2207 42.0821" fill="#232323"/>
<path id="Fill 8" fill-rule="evenodd" clip-rule="evenodd" d="M74.2207 45.4399C70.2407 45.4399 67.0017 42.2009 67.0017 38.2199H68.2007C68.2007 41.5399 70.9017 44.2399 74.2207 44.2399C77.5397 44.2399 80.2417 41.5399 80.2417 38.2199C80.2417 34.9009 77.5397 32.1999 74.2207 32.1999H34.2187C30.8997 32.1999 28.1997 34.9009 28.1997 38.2199C28.1997 41.5399 30.8997 44.2399 34.2187 44.2399C37.5377 44.2399 40.2397 41.5399 40.2397 38.2199H41.4387C41.4387 42.2009 38.1997 45.4399 34.2187 45.4399C30.2387 45.4399 26.9997 42.2009 26.9997 38.2199C26.9997 34.2389 30.2387 30.9999 34.2187 30.9999H74.2207C78.2017 30.9999 81.4407 34.2389 81.4407 38.2199C81.4407 42.2009 78.2017 45.4399 74.2207 45.4399" fill="#232323"/>
<path id="Fill 11" fill-rule="evenodd" clip-rule="evenodd" d="M41.438 44.2395H67.001V38.8205H41.438V44.2395ZM40.239 45.4395H68.201V37.6195H40.239V45.4395Z" fill="#232323"/>
<path id="Fill 13" fill-rule="evenodd" clip-rule="evenodd" d="M41.438 49.9635H67.001V45.4395H41.438V49.9635ZM40.239 51.1645H68.201V44.2405H40.239V51.1645Z" fill="#232323"/>
<path id="Fill 14" fill-rule="evenodd" clip-rule="evenodd" d="M40.0596 51.1641C39.3936 51.1641 38.8506 51.7061 38.8506 52.3721C38.8506 53.0391 39.3936 53.5811 40.0596 53.5811H68.3806C69.0466 53.5811 69.5896 53.0391 69.5896 52.3721C69.5896 51.7061 69.0466 51.1641 68.3806 51.1641H40.0596ZM68.3806 54.7811H40.0596C38.7316 54.7811 37.6516 53.7011 37.6516 52.3721C37.6516 51.0441 38.7316 49.9641 40.0596 49.9641H68.3806C69.7086 49.9641 70.7886 51.0441 70.7886 52.3721C70.7886 53.7011 69.7086 54.7811 68.3806 54.7811V54.7811Z" fill="#232323"/>
<path id="Fill 15" fill-rule="evenodd" clip-rule="evenodd" d="M41.438 76.0455H67.001V54.7805H41.438V76.0455ZM40.239 77.2465H68.201V53.5815H40.239V77.2465Z" fill="#232323"/>
<path id="Fill 16" fill-rule="evenodd" clip-rule="evenodd" d="M52.6221 76.0459H56.1431V61.2489C56.1431 60.3389 55.3521 59.5979 54.3821 59.5979C53.4121 59.5979 52.6221 60.3389 52.6221 61.2489V76.0459ZM57.3421 77.2459H51.4231V61.2489C51.4231 59.6769 52.7501 58.3979 54.3821 58.3979C56.0151 58.3979 57.3421 59.6769 57.3421 61.2489V77.2459Z" fill="#232323"/>
<path id="Fill 17" fill-rule="evenodd" clip-rule="evenodd" d="M44.8896 76.0459H48.4106V61.2489C48.4106 60.3389 47.6196 59.5979 46.6506 59.5979C45.6796 59.5979 44.8896 60.3389 44.8896 61.2489V76.0459ZM49.6096 77.2459H43.6906V61.2489C43.6906 59.6769 45.0176 58.3979 46.6506 58.3979C48.2826 58.3979 49.6096 59.6769 49.6096 61.2489V77.2459Z" fill="#232323"/>
<path id="Fill 18" fill-rule="evenodd" clip-rule="evenodd" d="M60.3535 76.0459H63.8745V61.2489C63.8745 60.3389 63.0835 59.5979 62.1135 59.5979C61.1435 59.5979 60.3535 60.3389 60.3535 61.2489V76.0459ZM65.0735 77.2459H59.1545V61.2489C59.1545 59.6769 60.4815 58.3979 62.1135 58.3979C63.7465 58.3979 65.0735 59.6769 65.0735 61.2489V77.2459Z" fill="#232323"/>
<path id="Fill 19" fill-rule="evenodd" clip-rule="evenodd" d="M44.063 50.5635H45.262V44.8385H44.063V50.5635Z" fill="#232323"/>
<path id="Fill 20" fill-rule="evenodd" clip-rule="evenodd" d="M63.179 50.5635H64.378V44.8385H63.179V50.5635Z" fill="#232323"/>
<path id="Fill 21" fill-rule="evenodd" clip-rule="evenodd" d="M59.356 50.5635H60.555V44.8385H59.356V50.5635Z" fill="#232323"/>
<path id="Fill 22" fill-rule="evenodd" clip-rule="evenodd" d="M47.886 50.5635H49.085V44.8385H47.886V50.5635Z" fill="#232323"/>
<path id="Fill 23" fill-rule="evenodd" clip-rule="evenodd" d="M51.709 50.5635H52.908V44.8385H51.709V50.5635Z" fill="#232323"/>
<path id="Fill 24" fill-rule="evenodd" clip-rule="evenodd" d="M55.532 50.5635H56.731V44.8385H55.532V50.5635Z" fill="#232323"/>
<path id="Fill 25" fill-rule="evenodd" clip-rule="evenodd" d="M46.6504 39.2515C46.4324 39.2515 45.9384 40.0055 45.9384 41.2495C45.9384 42.5465 46.4444 43.2465 46.6504 43.2465C46.8674 43.2465 47.3614 42.4925 47.3614 41.2495C47.3614 40.0055 46.8674 39.2515 46.6504 39.2515M46.6504 44.4465C45.5604 44.4465 44.7394 43.0715 44.7394 41.2495C44.7394 39.4265 45.5604 38.0515 46.6504 38.0515C47.7394 38.0515 48.5604 39.4265 48.5604 41.2495C48.5604 43.0715 47.7394 44.4465 46.6504 44.4465" fill="#232323"/>
<path id="Fill 26" fill-rule="evenodd" clip-rule="evenodd" d="M54.3818 39.2515C54.1648 39.2515 53.6708 40.0055 53.6708 41.2495C53.6708 42.4925 54.1648 43.2465 54.3818 43.2465C54.5878 43.2465 55.0938 42.5465 55.0938 41.2495C55.0938 40.0055 54.5998 39.2515 54.3818 39.2515M54.3818 44.4465C53.2928 44.4465 52.4718 43.0715 52.4718 41.2495C52.4718 39.4265 53.2928 38.0515 54.3818 38.0515C55.4718 38.0515 56.2928 39.4265 56.2928 41.2495C56.2928 43.0715 55.4718 44.4465 54.3818 44.4465" fill="#232323"/>
<path id="Fill 27" fill-rule="evenodd" clip-rule="evenodd" d="M62.1133 39.2515C61.8963 39.2515 61.4023 40.0055 61.4023 41.2495C61.4023 42.4925 61.8963 43.2465 62.1133 43.2465C62.3193 43.2465 62.8253 42.5465 62.8253 41.2495C62.8253 40.0055 62.3313 39.2515 62.1133 39.2515M62.1133 44.4465C61.0243 44.4465 60.2033 43.0715 60.2033 41.2495C60.2033 39.4265 61.0243 38.0515 62.1133 38.0515C63.2033 38.0515 64.0243 39.4265 64.0243 41.2495C64.0243 43.0715 63.2033 44.4465 62.1133 44.4465" fill="#232323"/>
</g>
</g>
</svg>
