<svg width="110" height="110" viewBox="0 0 110 110" fill="none" xmlns="http://www.w3.org/2000/svg">
<path d="M64.7941 86.6839C73.2141 86.6839 80.0399 79.8582 80.0399 71.4381C80.0399 63.0181 73.2141 56.1923 64.7941 56.1923C56.3741 56.1923 49.5483 63.0181 49.5483 71.4381C49.5483 79.8582 56.3741 86.6839 64.7941 86.6839Z" fill="#D7BFF9"/>
<path d="M48.1008 55.7311C55.6061 55.7311 61.6904 49.6468 61.6904 42.1415C61.6904 34.6361 55.6061 28.5518 48.1008 28.5518C40.5954 28.5518 34.5112 34.6361 34.5112 42.1415C34.5112 49.6468 40.5954 55.7311 48.1008 55.7311Z" fill="#D7BFF9"/>
<path d="M68.5569 52.3771C70.8812 52.3771 72.7655 50.4928 72.7655 48.1685C72.7655 45.8442 70.8812 43.9599 68.5569 43.9599C66.2326 43.9599 64.3483 45.8442 64.3483 48.1685C64.3483 50.4928 66.2326 52.3771 68.5569 52.3771Z" fill="#D7BFF9"/>
<path d="M46 54C53.561 54 59.6904 47.8706 59.6904 40.3096C59.6904 32.7485 53.561 26.6191 46 26.6191C38.439 26.6191 32.3096 32.7485 32.3096 40.3096C32.3096 47.8706 38.439 54 46 54Z" stroke="#232323" stroke-width="1.2"/>
<path fill-rule="evenodd" clip-rule="evenodd" d="M63.7438 43.1084C64.482 42.4228 65.471 42.0035 66.5579 42.0035C67.6724 42.0035 68.6839 42.4443 69.4276 43.161C68.5873 43.918 68.0591 45.0147 68.0591 46.2348C68.0591 47.4047 68.5448 48.4612 69.3255 49.2135C68.5926 49.8739 67.6222 50.2758 66.5579 50.2758C65.5222 50.2758 64.5755 49.8952 63.8499 49.2661C64.6631 48.5108 65.1719 47.4322 65.1719 46.2348C65.1719 44.9862 64.6186 43.8668 63.7438 43.1084Z" stroke="#232323" stroke-width="1.2"/>
<path d="M66.5582 50.3034C68.8578 50.3034 70.7219 48.4392 70.7219 46.1397C70.7219 43.8401 68.8578 41.9759 66.5582 41.9759C64.2586 41.9759 62.3945 43.8401 62.3945 46.1397C62.3945 48.4392 64.2586 50.3034 66.5582 50.3034Z" stroke="#232323" stroke-width="1.2"/>
<path fill-rule="evenodd" clip-rule="evenodd" d="M52.0511 58.3974C54.8262 55.6967 58.6159 54.0332 62.7941 54.0332C66.9724 54.0332 70.7621 55.6967 73.5372 58.3974C70.6615 61.196 68.8754 65.1085 68.8754 69.4381C68.8754 73.7678 70.6615 77.6802 73.5372 80.4788C70.7621 83.1796 66.9724 84.843 62.7941 84.843C58.6159 84.843 54.8262 83.1796 52.0511 80.4788C54.9268 77.6802 56.7129 73.7678 56.7129 69.4381C56.7129 65.1085 54.9268 61.196 52.0511 58.3974Z" stroke="#232323" stroke-width="1.2"/>
<path d="M62.7941 84.843C71.302 84.843 78.199 77.946 78.199 69.4381C78.199 60.9302 71.302 54.0332 62.7941 54.0332C54.2862 54.0332 47.3892 60.9302 47.3892 69.4381C47.3892 77.946 54.2862 84.843 62.7941 84.843Z" stroke="#232323" stroke-width="1.2"/>
<path d="M62.7941 54.4381V84.4548" stroke="#232323" stroke-width="1.2" stroke-linecap="square"/>
<path d="M47.7858 69.4381H77.8024" stroke="#232323" stroke-width="1.2" stroke-linecap="square"/>
<mask id="mask0" mask-type="alpha" maskUnits="userSpaceOnUse" x="32" y="26" width="28" height="29">
<path d="M45.9896 54.0785C53.5506 54.0785 59.68 47.9491 59.68 40.3881C59.68 32.827 53.5506 26.6976 45.9896 26.6976C38.4286 26.6976 32.2991 32.827 32.2991 40.3881C32.2991 47.9491 38.4286 54.0785 45.9896 54.0785Z" fill="white"/>
</mask>
<g mask="url(#mask0)">
<path fill-rule="evenodd" clip-rule="evenodd" d="M42.1793 33.8637L44.0744 37.1037L42.2159 40.3226L38.4624 40.3015L36.5674 37.0615L38.4258 33.8426L42.1793 33.8637Z" stroke="#232323" stroke-width="1.2"/>
<path fill-rule="evenodd" clip-rule="evenodd" d="M53.4847 33.8637L55.3797 37.1037L53.5213 40.3226L49.7678 40.3015L47.8727 37.0615L49.7312 33.8426L53.4847 33.8637Z" stroke="#232323" stroke-width="1.2"/>
<path fill-rule="evenodd" clip-rule="evenodd" d="M47.8037 37.1516L49.6987 40.3917L47.8403 43.6106L44.0868 43.5894L42.1918 40.3494L44.0502 37.1305L47.8037 37.1516Z" stroke="#232323" stroke-width="1.2"/>
<path fill-rule="evenodd" clip-rule="evenodd" d="M36.6092 37.1516L38.5042 40.3917L36.6458 43.6106L32.8923 43.5894L30.9973 40.3494L32.8557 37.1305L36.6092 37.1516Z" stroke="#232323" stroke-width="1.2"/>
<path fill-rule="evenodd" clip-rule="evenodd" d="M59.1765 37.1516L61.0715 40.3917L59.2131 43.6106L55.4596 43.5894L53.5646 40.3494L55.423 37.1305L59.1765 37.1516Z" stroke="#232323" stroke-width="1.2"/>
<path fill-rule="evenodd" clip-rule="evenodd" d="M42.1793 33.8637L44.0744 37.1037L42.2159 40.3226L38.4624 40.3015L36.5674 37.0615L38.4258 33.8426L42.1793 33.8637Z" stroke="#232323" stroke-width="1.2"/>
<path fill-rule="evenodd" clip-rule="evenodd" d="M53.4847 33.8637L55.3797 37.1037L53.5213 40.3226L49.7678 40.3015L47.8727 37.0615L49.7312 33.8426L53.4847 33.8637Z" stroke="#232323" stroke-width="1.2"/>
<path fill-rule="evenodd" clip-rule="evenodd" d="M47.8037 37.1516L49.6987 40.3917L47.8403 43.6106L44.0868 43.5894L42.1918 40.3494L44.0502 37.1305L47.8037 37.1516Z" stroke="#232323" stroke-width="1.2"/>
<path fill-rule="evenodd" clip-rule="evenodd" d="M36.6092 37.1516L38.5042 40.3917L36.6458 43.6106L32.8923 43.5894L30.9973 40.3494L32.8557 37.1305L36.6092 37.1516Z" stroke="#232323" stroke-width="1.2"/>
<path fill-rule="evenodd" clip-rule="evenodd" d="M59.1765 37.1516L61.0715 40.3917L59.2131 43.6106L55.4596 43.5894L53.5646 40.3494L55.423 37.1305L59.1765 37.1516Z" stroke="#232323" stroke-width="1.2"/>
<path fill-rule="evenodd" clip-rule="evenodd" d="M42.1793 40.4071L44.0744 43.6472L42.2159 46.8661L38.4624 46.845L36.5674 43.6049L38.4258 40.386L42.1793 40.4071Z" stroke="#232323" stroke-width="1.2"/>
<path fill-rule="evenodd" clip-rule="evenodd" d="M53.4847 40.4071L55.3797 43.6472L53.5213 46.8661L49.7678 46.8449L47.8727 43.6049L49.7312 40.386L53.4847 40.4071Z" stroke="#232323" stroke-width="1.2"/>
<path fill-rule="evenodd" clip-rule="evenodd" d="M47.8037 43.6951L49.6987 46.9351L47.8403 50.154L44.0868 50.1329L42.1918 46.8928L44.0502 43.6739L47.8037 43.6951Z" stroke="#232323" stroke-width="1.2"/>
<path fill-rule="evenodd" clip-rule="evenodd" d="M36.6092 43.6951L38.5042 46.9351L36.6458 50.154L32.8923 50.1329L30.9973 46.8928L32.8557 43.6739L36.6092 43.6951Z" stroke="#232323" stroke-width="1.2"/>
<path fill-rule="evenodd" clip-rule="evenodd" d="M59.1765 43.6951L61.0715 46.9351L59.2131 50.154L55.4596 50.1329L53.5646 46.8928L55.423 43.6739L59.1765 43.6951Z" stroke="#232323" stroke-width="1.2"/>
<path fill-rule="evenodd" clip-rule="evenodd" d="M42.1793 46.9018L44.0744 50.1418L42.2159 53.3607L38.4624 53.3396L36.5674 50.0995L38.4258 46.8806L42.1793 46.9018Z" stroke="#232323" stroke-width="1.2"/>
<path fill-rule="evenodd" clip-rule="evenodd" d="M53.4847 46.9018L55.3797 50.1418L53.5213 53.3607L49.7678 53.3396L47.8727 50.0995L49.7312 46.8806L53.4847 46.9018Z" stroke="#232323" stroke-width="1.2"/>
<path fill-rule="evenodd" clip-rule="evenodd" d="M47.8037 50.1897L49.6987 53.4297L47.8403 56.6486L44.0868 56.6275L42.1918 53.3875L44.0502 50.1685L47.8037 50.1897Z" stroke="#232323" stroke-width="1.2"/>
<path fill-rule="evenodd" clip-rule="evenodd" d="M36.6092 50.1897L38.5042 53.4297L36.6458 56.6486L32.8923 56.6275L30.9973 53.3875L32.8557 50.1685L36.6092 50.1897Z" stroke="#232323" stroke-width="1.2"/>
<path fill-rule="evenodd" clip-rule="evenodd" d="M59.1765 50.1897L61.0715 53.4297L59.2131 56.6486L55.4596 56.6275L53.5646 53.3875L55.423 50.1685L59.1765 50.1897Z" stroke="#232323" stroke-width="1.2"/>
<path fill-rule="evenodd" clip-rule="evenodd" d="M42.1793 27.3367L44.0744 30.5767L42.2159 33.7956L38.4624 33.7745L36.5674 30.5345L38.4258 27.3156L42.1793 27.3367Z" stroke="#232323" stroke-width="1.2"/>
<path fill-rule="evenodd" clip-rule="evenodd" d="M53.4847 27.3367L55.3797 30.5767L53.5213 33.7956L49.7678 33.7745L47.8727 30.5345L49.7312 27.3156L53.4847 27.3367Z" stroke="#232323" stroke-width="1.2"/>
<path fill-rule="evenodd" clip-rule="evenodd" d="M47.8037 30.6246L49.6987 33.8647L47.8403 37.0836L44.0868 37.0624L42.1918 33.8224L44.0502 30.6035L47.8037 30.6246Z" stroke="#232323" stroke-width="1.2"/>
<path fill-rule="evenodd" clip-rule="evenodd" d="M36.6092 30.6246L38.5042 33.8647L36.6458 37.0836L32.8923 37.0624L30.9973 33.8224L32.8557 30.6035L36.6092 30.6246Z" stroke="#232323" stroke-width="1.2"/>
<path fill-rule="evenodd" clip-rule="evenodd" d="M59.1765 30.6246L61.0715 33.8647L59.2131 37.0836L55.4596 37.0624L53.5646 33.8224L55.423 30.6035L59.1765 30.6246Z" stroke="#232323" stroke-width="1.2"/>
<path fill-rule="evenodd" clip-rule="evenodd" d="M47.8037 24.1647L49.6987 27.4048L47.8403 30.6237L44.0868 30.6025L42.1918 27.3625L44.0502 24.1436L47.8037 24.1647Z" stroke="#232323" stroke-width="1.2"/>
<path fill-rule="evenodd" clip-rule="evenodd" d="M36.6092 24.1647L38.5042 27.4048L36.6458 30.6237L32.8923 30.6025L30.9973 27.3625L32.8557 24.1436L36.6092 24.1647Z" stroke="#232323" stroke-width="1.2"/>
<path fill-rule="evenodd" clip-rule="evenodd" d="M59.1765 24.1647L61.0715 27.4048L59.2131 30.6237L55.4596 30.6025L53.5646 27.3625L55.423 24.1436L59.1765 24.1647Z" stroke="#232323" stroke-width="1.2"/>
</g>
</svg>
