<svg width="110" height="110" viewBox="0 0 110 110" fill="none" xmlns="http://www.w3.org/2000/svg">
<g id="i-des">
<rect width="110" height="110" fill="white"/>
<g id="Group 11">
<path id="Fill 1" fill-rule="evenodd" clip-rule="evenodd" d="M48.583 74.5752C49.808 75.7992 51.8 75.7932 53.032 74.5602C51.8 75.7932 51.793 77.7842 53.018 79.0092C54.242 80.2342 56.234 80.2272 57.467 78.9952L61.449 75.0122C62.375 74.0862 62.608 72.7302 62.146 71.5942C63.388 72.7372 65.321 72.7092 66.533 71.4982C67.775 70.2552 67.782 68.2462 66.548 67.0122C67.782 68.2462 69.791 68.2402 71.033 66.9972C72.276 65.7542 72.283 63.7452 71.048 62.5112C72.283 63.7452 74.292 63.7392 75.534 62.4962C76.331 61.6992 76.613 60.5892 76.393 59.5682L76.399 59.5752L76.757 59.2182C82.284 53.6912 82.312 44.7582 76.821 39.2672C71.33 33.7762 62.397 33.8042 56.871 39.3322L56.869 39.3332L56.87 39.3312L55.765 38.2252C50.272 32.7342 41.341 32.7632 35.813 38.2902C30.286 43.8172 30.258 52.7492 35.749 58.2412L36.855 59.3472L39.301 61.7922L39.303 61.7942C38.521 63.0132 38.655 64.6462 39.715 65.7062C40.774 66.7662 42.407 66.9002 43.627 66.1182L43.736 66.2282C42.956 67.4482 43.09 69.0812 44.149 70.1402C45.374 71.3652 47.365 71.3592 48.598 70.1262C47.365 71.3592 47.359 73.3502 48.583 74.5752" fill="#FF483C"/>
<path id="Fill 4" fill-rule="evenodd" clip-rule="evenodd" d="M69.1045 60.919L58.9645 50.779L59.8125 49.931L69.9525 60.07L69.1045 60.919Z" fill="#232323"/>
<path id="Fill 6" fill-rule="evenodd" clip-rule="evenodd" d="M64.5068 65.3579L54.4458 55.2979L55.2938 54.4489L65.3548 64.5089L64.5068 65.3579Z" fill="#232323"/>
<g id="Group 10">
<mask id="mask0" mask-type="alpha" maskUnits="userSpaceOnUse" x="29" y="31" width="27" height="29">
<path id="Clip 9" fill-rule="evenodd" clip-rule="evenodd" d="M55.3452 31.0005H29.0002L29.0002 59.8101H55.3452V31.0005V31.0005Z" fill="white"/>
</mask>
<g mask="url(#mask0)">
<path id="Fill 8" fill-rule="evenodd" clip-rule="evenodd" d="M36.9102 59.8101L33.3292 56.2281C30.5372 53.4371 29.0002 49.7261 29.0002 45.7781C29.0002 41.8311 30.5372 38.1201 33.3292 35.3291C36.1202 32.5371 39.8312 31.0001 43.7792 31.0001C47.7262 31.0001 51.4372 32.5371 54.2282 35.3291L55.3452 36.4441L54.4952 37.2931L53.3802 36.1771C48.0852 30.8811 39.4702 30.8831 34.1772 36.1771C28.8832 41.4711 28.8832 50.0861 34.1772 55.3801L37.7582 58.9611L36.9102 59.8101Z" fill="#232323"/>
</g>
</g>
<path id="Fill 11" fill-rule="evenodd" clip-rule="evenodd" d="M59.1318 40.2324L74.1778 55.2774C74.4518 55.5524 74.6758 55.8584 74.8488 56.1854C79.8378 50.8694 79.7378 42.4844 74.5478 37.2934C69.2508 31.9974 60.6368 31.9994 55.3438 37.2934L45.4428 47.1954C46.3878 47.9524 47.5538 48.3624 48.7818 48.3624C50.2138 48.3624 51.5598 47.8054 52.5708 46.7944L59.1318 40.2324ZM62.4818 70.7624C61.4698 70.7624 60.5178 70.3684 59.8028 69.6524L60.6508 68.8044C61.6288 69.7814 63.3338 69.7814 64.3108 68.8044C64.7998 68.3154 65.0688 67.6654 65.0688 66.9744C65.0688 66.2824 64.7998 65.6324 64.3118 65.1444L65.1588 64.2954C66.1378 65.2734 67.8428 65.2734 68.8208 64.2954C69.8298 63.2864 69.8298 61.6444 68.8208 60.6354L69.6688 59.7864C70.6768 60.7944 72.3188 60.7954 73.3298 59.7864C73.8188 59.2974 74.0878 58.6484 74.0878 57.9564C74.0878 57.2654 73.8188 56.6154 73.3298 56.1264L59.1318 41.9294L53.4188 47.6424C52.1808 48.8804 50.5338 49.5634 48.7818 49.5634C47.0308 49.5634 45.3848 48.8804 44.1468 47.6424L43.7198 47.2154L44.1488 46.7914L54.4958 36.4444C60.2578 30.6834 69.6338 30.6824 75.3958 36.4444C81.1568 42.2064 81.1568 51.5824 75.3958 57.3444L75.2568 57.4834C75.3968 58.6044 75.0368 59.7764 74.1778 60.6354C73.2328 61.5804 71.9108 61.9184 70.6908 61.6564C70.9548 62.8744 70.6138 64.1984 69.6688 65.1444C68.7238 66.0884 67.3998 66.4284 66.1838 66.1654C66.2398 66.4284 66.2698 66.6994 66.2698 66.9744C66.2698 67.9864 65.8748 68.9374 65.1588 69.6524C64.4438 70.3684 63.4928 70.7624 62.4818 70.7624V70.7624Z" fill="#232323"/>
<path id="Fill 13" fill-rule="evenodd" clip-rule="evenodd" d="M57.4023 67.9473C56.7173 67.9473 56.0753 68.2143 55.5913 68.6973L51.6003 72.6873C50.6023 73.6863 50.6023 75.3113 51.6003 76.3093C52.5693 77.2773 54.2563 77.2773 55.2243 76.3093L59.2143 72.3203C60.2123 71.3213 60.2123 69.6963 59.2143 68.6973C58.7293 68.2143 58.0873 67.9473 57.4023 67.9473M53.4123 78.2603C52.4073 78.2603 51.4633 77.8683 50.7523 77.1583C49.2863 75.6913 49.2863 73.3053 50.7533 71.8393L54.7433 67.8493C56.1633 66.4283 58.6403 66.4283 60.0623 67.8493C61.5283 69.3153 61.5283 71.7023 60.0623 73.1693L56.0723 77.1583C55.3623 77.8683 54.4173 78.2603 53.4123 78.2603" fill="#232323"/>
<path id="Fill 15" fill-rule="evenodd" clip-rule="evenodd" d="M52.9307 63.4761C52.2457 63.4761 51.6037 63.7431 51.1197 64.2261L47.1297 68.2161C46.6467 68.7001 46.3797 69.3431 46.3797 70.0271C46.3797 70.7111 46.6467 71.3541 47.1297 71.8381C47.6147 72.3221 48.2567 72.5891 48.9417 72.5891C49.6257 72.5891 50.2687 72.3231 50.7527 71.8391L54.7427 67.8491C55.2267 67.3651 55.4937 66.7221 55.4927 66.0381C55.4927 65.3531 55.2257 64.7101 54.7427 64.2261C54.2577 63.7431 53.6157 63.4761 52.9307 63.4761M48.9417 73.7891V73.7891C47.9367 73.7891 46.9927 73.3971 46.2817 72.6871C45.5717 71.9761 45.1797 71.0321 45.1797 70.0271C45.1797 69.0221 45.5717 68.0781 46.2827 67.3681L50.2717 63.3781C51.6917 61.9571 54.1687 61.9571 55.5907 63.3781C56.3007 64.0881 56.6927 65.0331 56.6927 66.0381C56.6927 67.0421 56.3017 67.9871 55.5917 68.6981L51.6007 72.6871C50.8907 73.3981 49.9467 73.7891 48.9417 73.7891" fill="#232323"/>
<path id="Fill 17" fill-rule="evenodd" clip-rule="evenodd" d="M48.46 59.0049C47.775 59.0049 47.133 59.2719 46.649 59.7549L42.658 63.7449C41.66 64.7439 41.66 66.3689 42.659 67.3679C43.658 68.3659 45.283 68.3649 46.282 67.3679L50.272 63.3779C51.27 62.3789 51.27 60.7539 50.272 59.7549C49.787 59.2719 49.145 59.0049 48.46 59.0049M44.47 69.3159C43.507 69.3159 42.544 68.9489 41.811 68.2159C40.344 66.7499 40.344 64.3629 41.811 62.8969L45.801 58.9069C47.221 57.4859 49.698 57.4859 51.12 58.9069C52.586 60.3729 52.586 62.7599 51.12 64.2269L47.13 68.2159C46.397 68.9489 45.434 69.3159 44.47 69.3159" fill="#232323"/>
<path id="Fill 19" fill-rule="evenodd" clip-rule="evenodd" d="M43.9883 54.5337C43.3033 54.5337 42.6613 54.8007 42.1773 55.2837L38.1873 59.2737C37.7043 59.7577 37.4373 60.4007 37.4373 61.0847C37.4373 61.7687 37.7043 62.4127 38.1873 62.8967C39.1873 63.8957 40.8103 63.8957 41.8103 62.8967L45.8003 58.9067C46.7993 57.9087 46.7993 56.2827 45.8003 55.2837C45.3163 54.8007 44.6733 54.5337 43.9883 54.5337M39.9993 64.8447C39.0363 64.8447 38.0723 64.4787 37.3403 63.7447C36.6293 63.0347 36.2373 62.0897 36.2373 61.0847C36.2373 60.0797 36.6293 59.1357 37.3403 58.4257L41.3293 54.4357C42.7493 53.0147 45.2283 53.0147 46.6483 54.4357C48.1153 55.9027 48.1153 58.2887 46.6493 59.7557L42.6583 63.7447C41.9253 64.4787 40.9623 64.8447 39.9993 64.8447" fill="#232323"/>
</g>
</g>
</svg>
