<svg width="110" height="110" viewBox="0 0 110 110" fill="none" xmlns="http://www.w3.org/2000/svg">
<g id="i-dem">
<rect width="110" height="110" fill="white"/>
<g id="Group 4">
<g id="Group 3">
<mask id="mask0" mask-type="alpha" maskUnits="userSpaceOnUse" x="41" y="31" width="30" height="51">
<path id="Clip 2" fill-rule="evenodd" clip-rule="evenodd" d="M41.5993 81.9904H70.505V31.9326H41.5993V81.9904Z" fill="white"/>
</mask>
<g mask="url(#mask0)">
<path id="Fill 1" fill-rule="evenodd" clip-rule="evenodd" d="M67.6143 47.3046C66.0173 47.3046 64.7233 48.5986 64.7233 50.1956V38.7136C64.7233 37.1166 63.4293 35.8236 61.8333 35.8236C60.2373 35.8236 58.9433 37.1166 58.9433 38.7136V34.8236C58.9433 33.2276 57.6483 31.9326 56.0523 31.9326C54.4563 31.9326 53.1623 33.2276 53.1623 34.8236V38.3386C53.1623 36.7416 51.8683 35.4486 50.2713 35.4486C48.6753 35.4486 47.3813 36.7416 47.3813 38.3386V45.2426C47.3813 43.6466 46.0873 42.3516 44.4903 42.3516C42.8943 42.3516 41.5993 43.6466 41.5993 45.2426V67.5376C41.5993 75.5196 48.0703 81.9906 56.0523 81.9906C64.0343 81.9906 70.5053 75.5196 70.5053 67.5376V50.1956C70.5053 48.5986 69.2113 47.3046 67.6143 47.3046" fill="#FF483C"/>
</g>
</g>
<path id="Fill 12" fill-rule="evenodd" clip-rule="evenodd" d="M42.4902 40.6191C41.2272 40.6191 40.1992 41.6461 40.1992 42.9091V65.2041C40.1992 72.8431 46.4142 79.0571 54.0532 79.0571C61.6902 79.0571 67.9052 72.8431 67.9052 65.2041V47.8621C67.9052 46.5981 66.8772 45.5711 65.6142 45.5711C64.3512 45.5711 63.3232 46.5981 63.3232 47.8621H62.1242V36.3801C62.1242 35.1171 61.0952 34.0901 59.8332 34.0901C58.5702 34.0901 57.5432 35.1171 57.5432 36.3801H56.3442V32.4911C56.3442 31.2271 55.3152 30.2001 54.0532 30.2001C52.7902 30.2001 51.7612 31.2271 51.7612 32.4911V36.0051H50.5622C50.5622 34.7421 49.5342 33.7151 48.2712 33.7151C47.0092 33.7151 45.9802 34.7421 45.9802 36.0051V42.9091H44.7812C44.7812 41.6461 43.7532 40.6191 42.4902 40.6191M54.0532 80.2571C45.7522 80.2571 39.0002 73.5051 39.0002 65.2041V42.9091C39.0002 40.9851 40.5652 39.4191 42.4902 39.4191C43.3662 39.4191 44.1672 39.7431 44.7812 40.2781V36.0051C44.7812 34.0801 46.3462 32.5151 48.2712 32.5151C49.1472 32.5151 49.9482 32.8391 50.5622 33.3731V32.4911C50.5622 30.5661 52.1282 29.0001 54.0532 29.0001C55.9772 29.0001 57.5432 30.5661 57.5432 32.4911V33.7481C58.1562 33.2141 58.9582 32.8901 59.8332 32.8901C61.7582 32.8901 63.3232 34.4551 63.3232 36.3801V45.2301C63.9372 44.6951 64.7382 44.3711 65.6142 44.3711C67.5392 44.3711 69.1042 45.9371 69.1042 47.8621V65.2041C69.1042 73.5051 62.3522 80.2571 54.0532 80.2571" fill="#303030"/>
<path id="Fill 15" fill-rule="evenodd" clip-rule="evenodd" d="M44.781 55.2974H45.98V42.1444H44.781V55.2974Z" fill="#303030"/>
<path id="Fill 17" fill-rule="evenodd" clip-rule="evenodd" d="M50.563 55.2974H51.762V35.3644H50.563V55.2974Z" fill="#303030"/>
<path id="Fill 18" fill-rule="evenodd" clip-rule="evenodd" d="M56.344 55.2974H57.543V35.3644H56.344V55.2974Z" fill="#303030"/>
<path id="Fill 19" fill-rule="evenodd" clip-rule="evenodd" d="M62.124 55.2974H63.323V46.6604H62.124V55.2974Z" fill="#303030"/>
</g>
</g>
</svg>
