<?xml version="1.0" encoding="UTF-8" standalone="no"?>
<svg width="100px" height="100px" viewBox="0 0 100 100" version="1.1" xmlns="http://www.w3.org/2000/svg" xmlns:xlink="http://www.w3.org/1999/xlink">
    <!-- Generator: Sketch 41.2 (35397) - http://www.bohemiancoding.com/sketch -->
    <title>Artboard Copy 48</title>
    <desc>Created with Sketch.</desc>
    <defs>
        <polygon id="path-1" points="26.3452 0.077 0.0002 0.077 0.0002 28.8866 26.3452 28.8866 26.3452 0.077"></polygon>
    </defs>
    <g id="Welcome" stroke="none" stroke-width="1" fill="none" fill-rule="evenodd">
        <g id="Artboard-Copy-48">
            <g id="Page-1-Copy" transform="translate(24.000000, 25.000000)">
                <g id="Group-3" transform="translate(2.000000, 3.923500)" fill="#307CBF">
                    <path d="M17.583,40.6517 C18.808,41.8757 20.8,41.8697 22.032,40.6367 C20.8,41.8697 20.793,43.8607 22.018,45.0857 C23.242,46.3107 25.234,46.3037 26.467,45.0717 L30.449,41.0887 C31.375,40.1627 31.608,38.8067 31.146,37.6707 C32.388,38.8137 34.321,38.7857 35.533,37.5747 C36.775,36.3317 36.782,34.3227 35.548,33.0887 C36.782,34.3227 38.791,34.3167 40.033,33.0737 C41.276,31.8307 41.283,29.8217 40.048,28.5877 C41.283,29.8217 43.292,29.8157 44.534,28.5727 C45.331,27.7757 45.613,26.6657 45.393,25.6447 L45.399,25.6517 L45.757,25.2947 C51.284,19.7677 51.312,10.8347 45.821,5.3437 C40.33,-0.1473 31.397,-0.1193 25.871,5.4087 L25.869,5.4097 L25.87,5.4077 L24.765,4.3017 C19.272,-1.1893 10.341,-1.1603 4.813,4.3667 C-0.714,9.8937 -0.742,18.8257 4.749,24.3177 L5.855,25.4237 L8.301,27.8687 L8.303,27.8707 C7.521,29.0897 7.655,30.7227 8.715,31.7827 C9.774,32.8427 11.407,32.9767 12.627,32.1947 L12.736,32.3047 C11.956,33.5247 12.09,35.1577 13.149,36.2167 C14.374,37.4417 16.365,37.4357 17.598,36.2027 C16.365,37.4357 16.359,39.4267 17.583,40.6517" id="Fill-1"></path>
                </g>
                <polygon id="Fill-4" fill="#0C1423" points="40.1045 30.919 29.9645 20.779 30.8125 19.931 40.9525 30.07"></polygon>
                <polygon id="Fill-6" fill="#0C1423" points="35.5068 35.3579 25.4458 25.2979 26.2938 24.4489 36.3548 34.5089"></polygon>
                <g id="Group-10" transform="translate(0.000000, 0.923500)">
                    <mask id="mask-2" fill="white">
                        <use xlink:href="#path-1"></use>
                    </mask>
                    <g id="Clip-9"></g>
                    <path d="M7.9102,28.8866 L4.3292,25.3046 C1.5372,22.5136 0.0002,18.8026 0.0002,14.8546 C0.0002,10.9076 1.5372,7.1966 4.3292,4.4056 C7.1202,1.6136 10.8312,0.0766 14.7792,0.0766 C18.7262,0.0766 22.4372,1.6136 25.2282,4.4056 L26.3452,5.5206 L25.4952,6.3696 L24.3802,5.2536 C19.0852,-0.0424 10.4702,-0.0404 5.1772,5.2536 C-0.1168,10.5476 -0.1168,19.1626 5.1772,24.4566 L8.7582,28.0376 L7.9102,28.8866 Z" id="Fill-8" fill="#0C1423" mask="url(#mask-2)"></path>
                </g>
                <path d="M30.1318,10.2324 L45.1778,25.2774 C45.4518,25.5524 45.6758,25.8584 45.8488,26.1854 C50.8378,20.8694 50.7378,12.4844 45.5478,7.2934 C40.2508,1.9974 31.6368,1.9994 26.3438,7.2934 L16.4428,17.1954 C17.3878,17.9524 18.5538,18.3624 19.7818,18.3624 C21.2138,18.3624 22.5598,17.8054 23.5708,16.7944 L30.1318,10.2324 Z M33.4818,40.7624 C32.4698,40.7624 31.5178,40.3684 30.8028,39.6524 L31.6508,38.8044 C32.6288,39.7814 34.3338,39.7814 35.3108,38.8044 C35.7998,38.3154 36.0688,37.6654 36.0688,36.9744 C36.0688,36.2824 35.7998,35.6324 35.3118,35.1444 L36.1588,34.2954 C37.1378,35.2734 38.8428,35.2734 39.8208,34.2954 C40.8298,33.2864 40.8298,31.6444 39.8208,30.6354 L40.6688,29.7864 C41.6768,30.7944 43.3188,30.7954 44.3298,29.7864 C44.8188,29.2974 45.0878,28.6484 45.0878,27.9564 C45.0878,27.2654 44.8188,26.6154 44.3298,26.1264 L30.1318,11.9294 L24.4188,17.6424 C23.1808,18.8804 21.5338,19.5634 19.7818,19.5634 C18.0308,19.5634 16.3848,18.8804 15.1468,17.6424 L14.7198,17.2154 L15.1488,16.7914 L25.4958,6.4444 C31.2578,0.6834 40.6338,0.6824 46.3958,6.4444 C52.1568,12.2064 52.1568,21.5824 46.3958,27.3444 L46.2568,27.4834 C46.3968,28.6044 46.0368,29.7764 45.1778,30.6354 C44.2328,31.5804 42.9108,31.9184 41.6908,31.6564 C41.9548,32.8744 41.6138,34.1984 40.6688,35.1444 C39.7238,36.0884 38.3998,36.4284 37.1838,36.1654 C37.2398,36.4284 37.2698,36.6994 37.2698,36.9744 C37.2698,37.9864 36.8748,38.9374 36.1588,39.6524 C35.4438,40.3684 34.4928,40.7624 33.4818,40.7624 L33.4818,40.7624 Z" id="Fill-11" fill="#0C1423"></path>
                <path d="M28.4023,37.9473 C27.7173,37.9473 27.0753,38.2143 26.5913,38.6973 L22.6003,42.6873 C21.6023,43.6863 21.6023,45.3113 22.6003,46.3093 C23.5693,47.2773 25.2563,47.2773 26.2243,46.3093 L30.2143,42.3203 C31.2123,41.3213 31.2123,39.6963 30.2143,38.6973 C29.7293,38.2143 29.0873,37.9473 28.4023,37.9473 M24.4123,48.2603 C23.4073,48.2603 22.4633,47.8683 21.7523,47.1583 C20.2863,45.6913 20.2863,43.3053 21.7533,41.8393 L25.7433,37.8493 C27.1633,36.4283 29.6403,36.4283 31.0623,37.8493 C32.5283,39.3153 32.5283,41.7023 31.0623,43.1693 L27.0723,47.1583 C26.3623,47.8683 25.4173,48.2603 24.4123,48.2603" id="Fill-13" fill="#0C1423"></path>
                <path d="M23.9307,33.4761 C23.2457,33.4761 22.6037,33.7431 22.1197,34.2261 L18.1297,38.2161 C17.6467,38.7001 17.3797,39.3431 17.3797,40.0271 C17.3797,40.7111 17.6467,41.3541 18.1297,41.8381 C18.6147,42.3221 19.2567,42.5891 19.9417,42.5891 C20.6257,42.5891 21.2687,42.3231 21.7527,41.8391 L25.7427,37.8491 C26.2267,37.3651 26.4937,36.7221 26.4927,36.0381 C26.4927,35.3531 26.2257,34.7101 25.7427,34.2261 C25.2577,33.7431 24.6157,33.4761 23.9307,33.4761 M19.9417,43.7891 L19.9417,43.7891 C18.9367,43.7891 17.9927,43.3971 17.2817,42.6871 C16.5717,41.9761 16.1797,41.0321 16.1797,40.0271 C16.1797,39.0221 16.5717,38.0781 17.2827,37.3681 L21.2717,33.3781 C22.6917,31.9571 25.1687,31.9571 26.5907,33.3781 C27.3007,34.0881 27.6927,35.0331 27.6927,36.0381 C27.6927,37.0421 27.3017,37.9871 26.5917,38.6981 L22.6007,42.6871 C21.8907,43.3981 20.9467,43.7891 19.9417,43.7891" id="Fill-15" fill="#0C1423"></path>
                <path d="M19.46,29.0049 C18.775,29.0049 18.133,29.2719 17.649,29.7549 L13.658,33.7449 C12.66,34.7439 12.66,36.3689 13.659,37.3679 C14.658,38.3659 16.283,38.3649 17.282,37.3679 L21.272,33.3779 C22.27,32.3789 22.27,30.7539 21.272,29.7549 C20.787,29.2719 20.145,29.0049 19.46,29.0049 M15.47,39.3159 C14.507,39.3159 13.544,38.9489 12.811,38.2159 C11.344,36.7499 11.344,34.3629 12.811,32.8969 L16.801,28.9069 C18.221,27.4859 20.698,27.4859 22.12,28.9069 C23.586,30.3729 23.586,32.7599 22.12,34.2269 L18.13,38.2159 C17.397,38.9489 16.434,39.3159 15.47,39.3159" id="Fill-17" fill="#0C1423"></path>
                <path d="M14.9883,24.5337 C14.3033,24.5337 13.6613,24.8007 13.1773,25.2837 L9.1873,29.2737 C8.7043,29.7577 8.4373,30.4007 8.4373,31.0847 C8.4373,31.7687 8.7043,32.4127 9.1873,32.8967 C10.1873,33.8957 11.8103,33.8957 12.8103,32.8967 L16.8003,28.9067 C17.7993,27.9087 17.7993,26.2827 16.8003,25.2837 C16.3163,24.8007 15.6733,24.5337 14.9883,24.5337 M10.9993,34.8447 C10.0363,34.8447 9.0723,34.4787 8.3403,33.7447 C7.6293,33.0347 7.2373,32.0897 7.2373,31.0847 C7.2373,30.0797 7.6293,29.1357 8.3403,28.4257 L12.3293,24.4357 C13.7493,23.0147 16.2283,23.0147 17.6483,24.4357 C19.1153,25.9027 19.1153,28.2887 17.6493,29.7557 L13.6583,33.7447 C12.9253,34.4787 11.9623,34.8447 10.9993,34.8447" id="Fill-19" fill="#0C1423"></path>
            </g>
        </g>
    </g>
</svg>