<?xml version="1.0" encoding="UTF-8"?>
<svg width="110px" height="110px" viewBox="0 0 110 110" version="1.1" xmlns="http://www.w3.org/2000/svg" xmlns:xlink="http://www.w3.org/1999/xlink">
    <!-- Generator: Sketch 42 (36781) - http://www.bohemiancoding.com/sketch -->
    <title>Artboard</title>
    <desc>Created with Sketch.</desc>
    <defs>
        <ellipse id="path-1" cx="14.5" cy="14.5" rx="13.6904365" ry="13.6904365"></ellipse>
    </defs>
    <g id="Page-1" stroke="none" stroke-width="1" fill="none" fill-rule="evenodd">
        <g id="Artboard">
            <g id="Group-3" transform="translate(31.000000, 25.000000)">
                <circle id="Oval-2" fill="#FF483C" cx="33.7941372" cy="46.438119" r="15.2458282"></circle>
                <circle id="Oval-2-Copy" fill="#FF483C" cx="17.1008254" cy="17.1414552" r="13.5896111"></circle>
                <circle id="Oval-2-Copy-2" fill="#FF483C" cx="37.5569332" cy="23.1685125" r="4.20857686"></circle>
                <ellipse id="Oval" stroke="#232323" stroke-width="1.2" cx="15" cy="15.3095635" rx="13.6904365" ry="13.6904365"></ellipse>
                <path d="M32.7438793,18.1083708 C33.4820635,17.4227629 34.4710618,17.0035125 35.5579813,17.0035125 C36.6724227,17.0035125 37.6839211,17.4442634 38.427673,18.1609615 C37.5873787,18.9180219 37.0591038,20.0147232 37.0591038,21.2348097 C37.0591038,22.4047048 37.5448088,23.4611574 38.3255691,24.2135178 C37.5926021,24.8738821 36.6222313,25.2758266 35.5579813,25.2758266 C34.5222844,25.2758266 33.5754969,24.8951606 32.8498984,24.2661084 C33.6631272,23.5108008 34.1719535,22.4322266 34.1719535,21.2348097 C34.1719535,19.9861701 33.6186633,18.8667583 32.7438793,18.1083708 Z" id="Combined-Shape" stroke="#232323" stroke-width="1.2"></path>
                <ellipse id="Oval-Copy-5" stroke="#232323" stroke-width="1.2" cx="35.5582005" cy="21.1396695" rx="4.16373271" ry="4.16373271"></ellipse>
                <g id="Group" transform="translate(16.254294, 28.731066)" stroke="#232323" stroke-width="1.2">
                    <path d="M4.79679287,4.66632474 C7.57188994,1.96558886 11.3616101,0.30216599 15.5398435,0.30216599 C19.7180769,0.30216599 23.5077971,1.96558886 26.2828941,4.66632474 C23.4072288,7.46493402 21.6210581,11.3774021 21.6210581,15.7070527 C21.6210581,20.0367033 23.4072288,23.9491713 26.2828941,26.7477806 C23.5077971,29.4485165 19.7180769,31.1119393 15.5398435,31.1119393 C11.3616101,31.1119393 7.57188994,29.4485165 4.79679287,26.7477806 C7.67245815,23.9491713 9.45862891,20.0367033 9.45862891,15.7070527 C9.45862891,11.3774021 7.67245815,7.46493402 4.79679287,4.66632474 Z" id="Combined-Shape"></path>
                    <ellipse id="Oval-Copy-9" cx="15.5398435" cy="15.7070527" rx="15.4048867" ry="15.4048867"></ellipse>
                    <path d="M15.5398435,0.707052663 L15.5398435,30.7237147" id="Line" stroke-linecap="square"></path>
                    <path d="M0.531512477,15.7070527 L30.5481745,15.7070527" id="Line-Copy" stroke-linecap="square"></path>
                </g>
                <g id="Group-2" transform="translate(0.489586, 0.888061)">
                    <mask id="mask-2" fill="white">
                        <use xlink:href="#path-1"></use>
                    </mask>
                    <g id="Mask"></g>
                    <g mask="url(#mask-2)" stroke-width="1.2" stroke="#232323">
                        <g transform="translate(-2.000000, -4.000000)">
                            <polygon id="Polygon" transform="translate(10.831289, 15.194549) rotate(-330.000000) translate(-10.831289, -15.194549) " points="10.8312894 11.4776779 14.0924696 13.3361136 14.0924696 17.0529852 10.8312894 18.911421 7.57010915 17.0529852 7.57010915 13.3361136"></polygon>
                            <polygon id="Polygon-Copy-11" transform="translate(22.136653, 15.194549) rotate(-330.000000) translate(-22.136653, -15.194549) " points="22.1366525 11.4776779 25.3978327 13.3361136 25.3978327 17.0529852 22.1366525 18.911421 18.8754723 17.0529852 18.8754723 13.3361136"></polygon>
                            <polygon id="Polygon-Copy-3" transform="translate(16.455659, 18.482467) rotate(-330.000000) translate(-16.455659, -18.482467) " points="16.4556587 14.7655959 19.7168389 16.6240316 19.7168389 20.3409032 16.4556587 22.1993389 13.1944785 20.3409032 13.1944785 16.6240316"></polygon>
                            <polygon id="Polygon-Copy-16" transform="translate(5.261180, 18.482467) rotate(-330.000000) translate(-5.261180, -18.482467) " points="5.26118022 14.7655959 8.52236045 16.6240316 8.52236045 20.3409032 5.26118022 22.1993389 2 20.3409032 2 16.6240316"></polygon>
                            <polygon id="Polygon-Copy-25" transform="translate(27.828477, 18.482467) rotate(-330.000000) translate(-27.828477, -18.482467) " points="27.8284766 14.7655959 31.0896568 16.6240316 31.0896568 20.3409032 27.8284766 22.1993389 24.5672964 20.3409032 24.5672964 16.6240316"></polygon>
                            <polygon id="Polygon-Copy" transform="translate(10.831289, 15.194549) rotate(-330.000000) translate(-10.831289, -15.194549) " points="10.8312894 11.4776779 14.0924696 13.3361136 14.0924696 17.0529852 10.8312894 18.911421 7.57010915 17.0529852 7.57010915 13.3361136"></polygon>
                            <polygon id="Polygon-Copy-12" transform="translate(22.136653, 15.194549) rotate(-330.000000) translate(-22.136653, -15.194549) " points="22.1366525 11.4776779 25.3978327 13.3361136 25.3978327 17.0529852 22.1366525 18.911421 18.8754723 17.0529852 18.8754723 13.3361136"></polygon>
                            <polygon id="Polygon-Copy-4" transform="translate(16.455659, 18.482467) rotate(-330.000000) translate(-16.455659, -18.482467) " points="16.4556587 14.7655959 19.7168389 16.6240316 19.7168389 20.3409032 16.4556587 22.1993389 13.1944785 20.3409032 13.1944785 16.6240316"></polygon>
                            <polygon id="Polygon-Copy-17" transform="translate(5.261180, 18.482467) rotate(-330.000000) translate(-5.261180, -18.482467) " points="5.26118022 14.7655959 8.52236045 16.6240316 8.52236045 20.3409032 5.26118022 22.1993389 2 20.3409032 2 16.6240316"></polygon>
                            <polygon id="Polygon-Copy-29" transform="translate(27.828477, 18.482467) rotate(-330.000000) translate(-27.828477, -18.482467) " points="27.8284766 14.7655959 31.0896568 16.6240316 31.0896568 20.3409032 27.8284766 22.1993389 24.5672964 20.3409032 24.5672964 16.6240316"></polygon>
                            <polygon id="Polygon-Copy-5" transform="translate(10.831289, 21.737994) rotate(-330.000000) translate(-10.831289, -21.737994) " points="10.8312894 18.0211222 14.0924696 19.8795579 14.0924696 23.5964295 10.8312894 25.4548652 7.57010915 23.5964295 7.57010915 19.8795579"></polygon>
                            <polygon id="Polygon-Copy-13" transform="translate(22.136653, 21.737994) rotate(-330.000000) translate(-22.136653, -21.737994) " points="22.1366525 18.0211222 25.3978327 19.8795579 25.3978327 23.5964295 22.1366525 25.4548652 18.8754723 23.5964295 18.8754723 19.8795579"></polygon>
                            <polygon id="Polygon-Copy-7" transform="translate(16.455659, 25.025912) rotate(-330.000000) translate(-16.455659, -25.025912) " points="16.4556587 21.3090402 19.7168389 23.1674759 19.7168389 26.8843475 16.4556587 28.7427832 13.1944785 26.8843475 13.1944785 23.1674759"></polygon>
                            <polygon id="Polygon-Copy-18" transform="translate(5.261180, 25.025912) rotate(-330.000000) translate(-5.261180, -25.025912) " points="5.26118022 21.3090402 8.52236045 23.1674759 8.52236045 26.8843475 5.26118022 28.7427832 2 26.8843475 2 23.1674759"></polygon>
                            <polygon id="Polygon-Copy-33" transform="translate(27.828477, 25.025912) rotate(-330.000000) translate(-27.828477, -25.025912) " points="27.8284766 21.3090402 31.0896568 23.1674759 31.0896568 26.8843475 27.8284766 28.7427832 24.5672964 26.8843475 24.5672964 23.1674759"></polygon>
                            <polygon id="Polygon-Copy-6" transform="translate(10.831289, 28.232612) rotate(-330.000000) translate(-10.831289, -28.232612) " points="10.8312894 24.5157408 14.0924696 26.3741766 14.0924696 30.0910482 10.8312894 31.9494839 7.57010915 30.0910482 7.57010915 26.3741766"></polygon>
                            <polygon id="Polygon-Copy-14" transform="translate(22.136653, 28.232612) rotate(-330.000000) translate(-22.136653, -28.232612) " points="22.1366525 24.5157408 25.3978327 26.3741766 25.3978327 30.0910482 22.1366525 31.9494839 18.8754723 30.0910482 18.8754723 26.3741766"></polygon>
                            <polygon id="Polygon-Copy-8" transform="translate(16.455659, 31.520530) rotate(-330.000000) translate(-16.455659, -31.520530) " points="16.4556587 27.8036588 19.7168389 29.6620946 19.7168389 33.3789661 16.4556587 35.2374019 13.1944785 33.3789661 13.1944785 29.6620946"></polygon>
                            <polygon id="Polygon-Copy-19" transform="translate(5.261180, 31.520530) rotate(-330.000000) translate(-5.261180, -31.520530) " points="5.26118022 27.8036588 8.52236045 29.6620946 8.52236045 33.3789661 5.26118022 35.2374019 2 33.3789661 2 29.6620946"></polygon>
                            <polygon id="Polygon-Copy-37" transform="translate(27.828477, 31.520530) rotate(-330.000000) translate(-27.828477, -31.520530) " points="27.8284766 27.8036588 31.0896568 29.6620946 31.0896568 33.3789661 27.8284766 35.2374019 24.5672964 33.3789661 24.5672964 29.6620946"></polygon>
                            <polygon id="Polygon-Copy-2" transform="translate(10.831289, 8.667539) rotate(-330.000000) translate(-10.831289, -8.667539) " points="10.8312894 4.95066751 14.0924696 6.80910328 14.0924696 10.5259748 10.8312894 12.3844106 7.57010915 10.5259748 7.57010915 6.80910328"></polygon>
                            <polygon id="Polygon-Copy-15" transform="translate(22.136653, 8.667539) rotate(-330.000000) translate(-22.136653, -8.667539) " points="22.1366525 4.95066751 25.3978327 6.80910328 25.3978327 10.5259748 22.1366525 12.3844106 18.8754723 10.5259748 18.8754723 6.80910328"></polygon>
                            <polygon id="Polygon-Copy-9" transform="translate(16.455659, 11.955457) rotate(-330.000000) translate(-16.455659, -11.955457) " points="16.4556587 8.2385855 19.7168389 10.0970213 19.7168389 13.8138928 16.4556587 15.6723286 13.1944785 13.8138928 13.1944785 10.0970213"></polygon>
                            <polygon id="Polygon-Copy-20" transform="translate(5.261180, 11.955457) rotate(-330.000000) translate(-5.261180, -11.955457) " points="5.26118022 8.2385855 8.52236045 10.0970213 8.52236045 13.8138928 5.26118022 15.6723286 2 13.8138928 2 10.0970213"></polygon>
                            <polygon id="Polygon-Copy-41" transform="translate(27.828477, 11.955457) rotate(-330.000000) translate(-27.828477, -11.955457) " points="27.8284766 8.2385855 31.0896568 10.0970213 31.0896568 13.8138928 27.8284766 15.6723286 24.5672964 13.8138928 24.5672964 10.0970213"></polygon>
                            <polygon id="Polygon-Copy-10" transform="translate(16.455659, 5.495559) rotate(-330.000000) translate(-16.455659, -5.495559) " points="16.4556587 1.7786873 19.7168389 3.63712307 19.7168389 7.35399461 16.4556587 9.21243038 13.1944785 7.35399461 13.1944785 3.63712307"></polygon>
                            <polygon id="Polygon-Copy-21" transform="translate(5.261180, 5.495559) rotate(-330.000000) translate(-5.261180, -5.495559) " points="5.26118022 1.7786873 8.52236045 3.63712307 8.52236045 7.35399461 5.26118022 9.21243038 2 7.35399461 2 3.63712307"></polygon>
                            <polygon id="Polygon-Copy-43" transform="translate(27.828477, 5.495559) rotate(-330.000000) translate(-27.828477, -5.495559) " points="27.8284766 1.7786873 31.0896568 3.63712307 31.0896568 7.35399461 27.8284766 9.21243038 24.5672964 7.35399461 24.5672964 3.63712307"></polygon>
                        </g>
                    </g>
                </g>
            </g>
        </g>
    </g>
</svg>