<svg width="110" height="110" viewBox="0 0 110 110" fill="none" xmlns="http://www.w3.org/2000/svg">
<g id="i-def">
<rect width="110" height="110" fill="white"/>
<g id="Group">
<path id="Fill 1" fill-rule="evenodd" clip-rule="evenodd" d="M55.6871 79.3862C74.1891 69.6362 72.7491 63.1002 72.7491 63.1002V41.8282C59.2321 41.8282 55.6871 34.7372 55.6871 34.7372C55.6871 34.7372 52.1411 41.8282 38.6251 41.8282V63.1002C38.6251 63.1002 37.1851 69.6362 55.6871 79.3862" fill="#FF483C"/>
<path id="Fill 4" fill-rule="evenodd" clip-rule="evenodd" d="M37.2242 40.0156L37.2102 60.8216C37.2022 60.8726 36.2912 67.0616 53.6872 76.2996C71.0042 67.1036 70.1762 60.8826 70.1622 60.8216L70.1492 60.6926V40.0156C59.5132 39.8526 55.0922 35.3576 53.6872 33.4406C52.2822 35.3566 47.8602 39.8526 37.2242 40.0156V40.0156ZM53.6872 77.6566L53.4082 77.5096C35.5682 68.1086 35.9022 61.4756 36.0252 60.6426V38.8206H36.6242C49.5572 38.8206 53.1172 32.1266 53.1522 32.0586L53.6912 30.9996L54.2242 32.0616C54.2572 32.1266 57.8162 38.8206 70.7482 38.8206H71.3482V60.6426C71.4712 61.4746 71.8072 68.1086 53.9662 77.5096L53.6872 77.6566Z" fill="#263238"/>
<path id="Fill 7" fill-rule="evenodd" clip-rule="evenodd" d="M61.4586 72.498L36.1756 47.214L37.0226 46.365L62.3066 71.649L61.4586 72.498Z" fill="#263238"/>
<path id="Fill 9" fill-rule="evenodd" clip-rule="evenodd" d="M68.7233 65.2334L42.7003 39.2104L43.5473 38.3614L69.5713 64.3844L68.7233 65.2334Z" fill="#263238"/>
</g>
</g>
</svg>
