<?xml version="1.0" encoding="UTF-8" standalone="no"?>
<svg width="100px" height="100px" viewBox="0 0 100 100" version="1.1" xmlns="http://www.w3.org/2000/svg" xmlns:xlink="http://www.w3.org/1999/xlink">
    <!-- Generator: Sketch 41.2 (35397) - http://www.bohemiancoding.com/sketch -->
    <title>Artboard Copy 49</title>
    <desc>Created with Sketch.</desc>
    <defs>
        <polygon id="path-1" points="0.6335 20 12.161 20 12.161 0.3174 0.6335 0.3174"></polygon>
        <polygon id="path-3" points="0 36.147 69.161 36.147 69.161 0 0 0"></polygon>
    </defs>
    <g id="Welcome" stroke="none" stroke-width="1" fill="none" fill-rule="evenodd">
        <g id="Artboard-Copy-49">
            <g id="Page-1-Copy" transform="translate(15.000000, 32.000000)">
                <g id="Group-3" transform="translate(57.000000, 16.147000)">
                    <mask id="mask-2" fill="white">
                        <use xlink:href="#path-1"></use>
                    </mask>
                    <g id="Clip-2"></g>
                    <path d="M6.3975,0.3174 C3.2135,0.3174 0.6335,1.6714 0.6335,3.3434 L0.6335,16.9744 C0.6335,18.6454 3.2135,20.0004 6.3975,20.0004 C9.5805,20.0004 12.1615,18.6454 12.1615,16.9744 L12.1615,3.3434 C12.1615,1.6714 9.5805,0.3174 6.3975,0.3174" id="Fill-1" fill="#307CBF" mask="url(#mask-2)"></path>
                </g>
                <mask id="mask-4" fill="white">
                    <use xlink:href="#path-3"></use>
                </mask>
                <g id="Clip-5"></g>
                <polygon id="Fill-4" fill="#307CBF" mask="url(#mask-4)" points="2.5 30.023 61.996 30.023 61.996 2.904 2.5 2.904"></polygon>
                <path d="M61.3975,34.3135 C57.8845,34.3135 55.1335,32.7645 55.1335,30.7875 L55.1335,17.1565 L56.1335,17.1565 L56.1335,30.7875 C56.1335,32.0075 58.2495,33.3135 61.3975,33.3135 C64.5455,33.3135 66.6615,32.0075 66.6615,30.7875 L66.6615,17.1565 L67.6615,17.1565 L67.6615,30.7875 C67.6615,32.7645 64.9105,34.3135 61.3975,34.3135" id="Fill-6" fill="#0C1423" mask="url(#mask-4)"></path>
                <polygon id="Fill-7" fill="#0C1423" mask="url(#mask-4)" points="55.6338 28.1182 -0.0002 28.1182 -0.0002 0.0002 60.4958 0.0002 60.4958 14.0592 59.4958 14.0592 59.4958 1.0002 0.9998 1.0002 0.9998 27.1182 55.6338 27.1182"></polygon>
                <path d="M61.3975,14.6309 C58.2495,14.6309 56.1335,15.9369 56.1335,17.1569 C56.1335,18.3769 58.2495,19.6829 61.3975,19.6829 C64.5455,19.6829 66.6615,18.3769 66.6615,17.1569 C66.6615,15.9369 64.5455,14.6309 61.3975,14.6309 M61.3975,20.6829 C57.8845,20.6829 55.1335,19.1339 55.1335,17.1569 C55.1335,15.1799 57.8845,13.6309 61.3975,13.6309 C64.9105,13.6309 67.6615,15.1799 67.6615,17.1569 C67.6615,19.1339 64.9105,20.6829 61.3975,20.6829" id="Fill-8" fill="#0C1423" mask="url(#mask-4)"></path>
                <path d="M61.3975,30.9058 C57.8845,30.9058 55.1335,29.3568 55.1335,27.3798 L56.1335,27.3798 C56.1335,28.5998 58.2495,29.9058 61.3975,29.9058 C64.5455,29.9058 66.6615,28.5998 66.6615,27.3798 L67.6615,27.3798 C67.6615,29.3568 64.9105,30.9058 61.3975,30.9058" id="Fill-9" fill="#0C1423" mask="url(#mask-4)"></path>
                <path d="M61.3975,24.0904 C57.8845,24.0904 55.1335,22.5414 55.1335,20.5644 L56.1335,20.5644 C56.1335,21.7844 58.2495,23.0904 61.3975,23.0904 C64.5455,23.0904 66.6615,21.7844 66.6615,20.5644 L67.6615,20.5644 C67.6615,22.5414 64.9105,24.0904 61.3975,24.0904" id="Fill-10" fill="#0C1423" mask="url(#mask-4)"></path>
                <path d="M61.3975,27.4981 C57.8845,27.4981 55.1335,25.9491 55.1335,23.9721 L56.1335,23.9721 C56.1335,25.1921 58.2495,26.4981 61.3975,26.4981 C64.5455,26.4981 66.6615,25.1921 66.6615,23.9721 L67.6615,23.9721 C67.6615,25.9491 64.9105,27.4981 61.3975,27.4981" id="Fill-11" fill="#0C1423" mask="url(#mask-4)"></path>
                <path d="M30.248,6.6226 C26.147,6.6226 22.811,9.9586 22.811,14.0596 C22.811,18.1596 26.147,21.4956 30.248,21.4956 C34.349,21.4956 37.685,18.1596 37.685,14.0596 C37.685,9.9586 34.349,6.6226 30.248,6.6226 M30.248,22.4956 C25.596,22.4956 21.811,18.7106 21.811,14.0596 C21.811,9.4076 25.596,5.6226 30.248,5.6226 C34.9,5.6226 38.685,9.4076 38.685,14.0596 C38.685,18.7106 34.9,22.4956 30.248,22.4956" id="Fill-12" fill="#0C1423" mask="url(#mask-4)"></path>
                <path d="M30.6416,16.5054 C31.1926,16.3964 31.4676,16.0944 31.4676,15.6024 C31.4676,15.3524 31.3966,15.1504 31.2526,14.9954 C31.1106,14.8414 30.9066,14.7054 30.6416,14.5874 L30.6416,16.5054 Z M29.1866,11.9644 C29.1866,12.1854 29.2596,12.3594 29.4076,12.4874 C29.5536,12.6164 29.7746,12.7394 30.0686,12.8574 L30.0686,11.1934 C29.4806,11.2874 29.1866,11.5454 29.1866,11.9644 L29.1866,11.9644 Z M27.6426,16.4614 C27.6426,16.2924 27.7046,16.1214 27.8296,15.9484 C27.9546,15.7764 28.0986,15.6904 28.2606,15.6904 C28.3706,15.6904 28.5006,15.7504 28.6516,15.8714 C28.8016,15.9934 28.9916,16.1234 29.2196,16.2634 C29.4476,16.4024 29.7006,16.4874 29.9806,16.5174 L29.9806,14.3224 C29.7076,14.2204 29.5006,14.1394 29.3576,14.0804 C29.2136,14.0224 29.0306,13.9264 28.8056,13.7944 C28.5816,13.6614 28.4116,13.5264 28.2926,13.3864 C28.1756,13.2464 28.0716,13.0674 27.9796,12.8464 C27.8876,12.6254 27.8416,12.3794 27.8416,12.1074 C27.8416,11.4534 28.0436,10.9514 28.4486,10.6034 C28.8516,10.2534 29.3626,10.0384 29.9806,9.9574 L29.9806,9.6494 C29.9806,9.5754 30.0166,9.5114 30.0896,9.4564 C30.1636,9.4014 30.2516,9.3734 30.3546,9.3734 C30.4506,9.3734 30.5376,9.4014 30.6146,9.4564 C30.6916,9.5114 30.7296,9.5754 30.7296,9.6494 L30.7296,9.9364 C31.1926,9.9504 31.6216,10.0274 32.0196,10.1674 C32.4156,10.3074 32.6146,10.5204 32.6146,10.8074 C32.6146,10.9684 32.5636,11.1354 32.4596,11.3084 C32.3576,11.4814 32.2136,11.5674 32.0306,11.5674 C31.9566,11.5674 31.7906,11.5054 31.5346,11.3794 C31.2776,11.2554 31.0086,11.1814 30.7296,11.1594 L30.7296,13.0994 C31.0316,13.2094 31.2816,13.3164 31.4796,13.4194 C31.6776,13.5224 31.8926,13.6634 32.1236,13.8434 C32.3556,14.0244 32.5286,14.2494 32.6426,14.5224 C32.7556,14.7934 32.8136,15.1064 32.8136,15.4584 C32.8136,16.1194 32.6256,16.6494 32.2506,17.0464 C31.8756,17.4424 31.3696,17.6924 30.7296,17.7954 L30.7296,18.1374 C30.7296,18.2104 30.6916,18.2754 30.6146,18.3304 C30.5376,18.3854 30.4506,18.4124 30.3546,18.4124 C30.2516,18.4124 30.1636,18.3854 30.0896,18.3304 C30.0166,18.2754 29.9806,18.2104 29.9806,18.1374 L29.9806,17.8284 C29.3406,17.8144 28.7906,17.6634 28.3316,17.3764 C27.8726,17.0904 27.6426,16.7844 27.6426,16.4614 L27.6426,16.4614 Z" id="Fill-13" fill="#0C1423" mask="url(#mask-4)"></path>
            </g>
        </g>
    </g>
</svg>