<?xml version="1.0" encoding="UTF-8" standalone="no"?>
<svg width="100px" height="100px" viewBox="0 0 100 100" version="1.1" xmlns="http://www.w3.org/2000/svg" xmlns:xlink="http://www.w3.org/1999/xlink">
    <!-- Generator: Sketch 41.2 (35397) - http://www.bohemiancoding.com/sketch -->
    <title>Artboard Copy 50</title>
    <desc>Created with Sketch.</desc>
    <defs>
        <polygon id="path-1" points="0 44 61.347 44 61.347 0.69 0 0.69"></polygon>
    </defs>
    <g id="Welcome" stroke="none" stroke-width="1" fill="none" fill-rule="evenodd">
        <g id="Artboard-Copy-50">
            <g id="Page-1-Copy" transform="translate(19.000000, 26.000000)">
                <polygon id="Fill-1" fill="#307CBF" points="43.911 6.082 53.784 44.31 61.347 42.357 51.474 4.129"></polygon>
                <polygon id="Fill-2" fill="#307CBF" points="14.1309 4.0003 2.4979 4.0003 2.4979 43.4833 14.1309 43.4833 25.7629 43.4833 37.8749 43.4833 45.7019 43.4833 45.7019 13.3053 37.8749 13.3053 37.8749 10.1103 25.7629 10.1103 25.7629 4.0003"></polygon>
                <path d="M0,41.6854 L12.833,41.6854 L12.833,1.0024 L0,1.0024 L0,41.6854 Z M1.199,40.4854 L11.634,40.4854 L11.634,2.2034 L1.199,2.2034 L1.199,40.4854 Z" id="Fill-3" fill="#0C1423"></path>
                <path d="M11.633,41.6854 L24.466,41.6854 L24.466,1.0024 L11.633,1.0024 L11.633,41.6854 Z M12.833,40.4854 L23.268,40.4854 L23.268,2.2034 L12.833,2.2034 L12.833,40.4854 Z" id="Fill-4" fill="#0C1423"></path>
                <path d="M50.0076,0.9997 L41.2836,3.2537 L51.4556,42.6437 L60.1806,40.3897 L50.0076,0.9997 Z M42.7466,4.1147 L49.1466,2.4617 L58.7176,39.5287 L52.3166,41.1817 L42.7466,4.1147 Z" id="Fill-5" fill="#0C1423"></path>
                <path d="M24.467,40.4854 L35.378,40.4854 L35.378,8.3124 L24.467,8.3124 L24.467,40.4854 Z M23.267,41.6854 L36.577,41.6854 L36.577,7.1124 L23.267,7.1124 L23.267,41.6854 Z" id="Fill-6" fill="#0C1423"></path>
                <path d="M36.577,40.4854 L43.206,40.4854 L43.206,11.5084 L36.577,11.5084 L36.577,40.4854 Z M35.378,41.6854 L44.405,41.6854 L44.405,10.3084 L35.378,10.3084 L35.378,41.6854 Z" id="Fill-7" fill="#0C1423"></path>
                <polygon id="Fill-8" fill="#0C1423" points="0.599 9.4584 12.233 9.4584 12.233 8.2574 0.599 8.2574"></polygon>
                <polygon id="Fill-9" fill="#0C1423" points="0.599 12.3404 12.233 12.3404 12.233 11.1394 0.599 11.1394"></polygon>
                <polygon id="Fill-10" fill="#0C1423" points="12.233 9.4584 23.867 9.4584 23.867 8.2584 12.233 8.2584"></polygon>
                <polygon id="Fill-11" fill="#0C1423" points="12.233 12.3404 23.867 12.3404 23.867 11.1404 12.233 11.1404"></polygon>
                <polygon id="Fill-12" fill="#0C1423" points="24.105 15.2224 35.738 15.2224 35.738 14.0224 24.105 14.0224"></polygon>
                <polygon id="Fill-13" fill="#0C1423" points="12.233 15.2224 23.867 15.2224 23.867 14.0224 12.233 14.0224"></polygon>
                <g id="Group-22" transform="translate(0.000000, 0.310400)">
                    <path d="M29.9219,31.4879 C28.6669,31.4879 27.6459,32.5089 27.6459,33.7639 C27.6459,35.0189 28.6669,36.0399 29.9219,36.0399 C31.1779,36.0399 32.1989,35.0189 32.1989,33.7639 C32.1989,32.5089 31.1779,31.4879 29.9219,31.4879 Z M29.9219,37.2399 C28.0049,37.2399 26.4459,35.6809 26.4459,33.7639 C26.4459,31.8469 28.0049,30.2879 29.9219,30.2879 C31.8389,30.2879 33.3989,31.8469 33.3989,33.7639 C33.3989,35.6809 31.8389,37.2399 29.9219,37.2399 Z" id="Fill-14" fill="#0C1423"></path>
                    <mask id="mask-2" fill="white">
                        <use xlink:href="#path-1"></use>
                    </mask>
                    <g id="Clip-17"></g>
                    <polygon id="Fill-16" fill="#0C1423" mask="url(#mask-2)" points="35.978 37.24 43.806 37.24 43.806 36.04 35.978 36.04"></polygon>
                    <polygon id="Fill-18" fill="#0C1423" mask="url(#mask-2)" points="35.978 34.364 43.806 34.364 43.806 33.164 35.978 33.164"></polygon>
                    <polygon id="Fill-19" fill="#0C1423" mask="url(#mask-2)" points="48.1797 27.2438 47.8787 26.0818 55.4417 24.1288 55.7417 25.2908"></polygon>
                    <polygon id="Fill-20" fill="#0C1423" mask="url(#mask-2)" points="47.4307 24.3439 47.1297 23.1819 54.6927 21.2289 54.9927 22.3909"></polygon>
                    <polygon id="Fill-21" fill="#0C1423" mask="url(#mask-2)" points="46.6816 21.444 46.3806 20.282 53.9436 18.329 54.2436 19.491"></polygon>
                </g>
            </g>
        </g>
    </g>
</svg>