<?xml version="1.0" encoding="UTF-8" standalone="no"?>
<svg width="100px" height="100px" viewBox="0 0 100 100" version="1.1" xmlns="http://www.w3.org/2000/svg" xmlns:xlink="http://www.w3.org/1999/xlink">
    <!-- Generator: Sketch 41.2 (35397) - http://www.bohemiancoding.com/sketch -->
    <title>Artboard Copy 51</title>
    <desc>Created with Sketch.</desc>
    <defs>
        <polygon id="path-1" points="0.9564 44 29.7584 44 29.7584 0.6054 0.9564 0.6054 0.9564 44"></polygon>
        <polygon id="path-3" points="0 57.5586 54.714 57.5586 54.714 -0.0004 0 -0.0004"></polygon>
    </defs>
    <g id="Welcome" stroke="none" stroke-width="1" fill="none" fill-rule="evenodd">
        <g id="Artboard-Copy-51">
            <g id="Page-1-Copy" transform="translate(23.000000, 19.000000)">
                <g id="Group-3" transform="translate(14.000000, 13.558600)">
                    <mask id="mask-2" fill="white">
                        <use xlink:href="#path-1"></use>
                    </mask>
                    <g id="Clip-2"></g>
                    <path d="M15.3574,0.6054 C7.4034,0.6054 0.9564,7.0534 0.9564,15.0064 C0.9564,20.7954 4.3794,25.7724 9.3054,28.0614 L9.3054,30.6814 L9.3054,32.6564 L9.3054,41.1804 C9.3054,42.7374 12.0144,44.0004 15.3574,44.0004 C18.6994,44.0004 21.4094,42.7374 21.4094,41.1804 L21.4094,32.6564 L21.4094,30.6814 L21.4094,28.0614 C26.3354,25.7724 29.7584,20.7954 29.7584,15.0064 C29.7584,7.0534 23.3104,0.6054 15.3574,0.6054" id="Fill-1" fill="#307CBF" mask="url(#mask-2)"></path>
                </g>
                <path d="M34.0088,43.8818 L32.8098,43.8818 L32.8098,38.9028 L33.1558,38.7418 C38.0178,36.4848 41.1588,31.5738 41.1588,26.2318 C41.1588,18.6218 34.9678,12.4308 27.3578,12.4308 C19.7468,12.4308 13.5558,18.6218 13.5558,26.2318 C13.5558,31.5738 16.6968,36.4848 21.5588,38.7418 L21.9048,38.9028 L21.9048,43.8818 L20.7058,43.8818 L20.7058,39.6638 C15.6208,37.1408 12.3568,31.9108 12.3568,26.2318 C12.3568,17.9598 19.0858,11.2308 27.3578,11.2308 C35.6288,11.2308 42.3588,17.9598 42.3588,26.2318 C42.3588,31.9108 39.0938,37.1408 34.0088,39.6638 L34.0088,43.8818 Z" id="Fill-4" fill="#0C1423"></path>
                <path d="M27.3574,41.663 C24.2374,41.663 21.9054,42.834 21.9054,43.882 C21.9054,44.93 24.2374,46.101 27.3574,46.101 C30.4774,46.101 32.8094,44.93 32.8094,43.882 C32.8094,42.834 30.4774,41.663 27.3574,41.663 M27.3574,47.301 C23.5654,47.301 20.7064,45.831 20.7064,43.882 C20.7064,41.933 23.5654,40.463 27.3574,40.463 C31.1494,40.463 34.0084,41.933 34.0084,43.882 C34.0084,45.831 31.1494,47.301 27.3574,47.301" id="Fill-6" fill="#0C1423"></path>
                <path d="M27.3574,50.1425 C23.5654,50.1425 20.7064,48.6725 20.7064,46.7235 L21.9054,46.7235 C21.9054,47.7705 24.2374,48.9425 27.3574,48.9425 C30.4774,48.9425 32.8094,47.7705 32.8094,46.7235 L34.0084,46.7235 C34.0084,48.6725 31.1494,50.1425 27.3574,50.1425" id="Fill-8" fill="#0C1423"></path>
                <path d="M27.3574,52.9838 C23.5654,52.9838 20.7064,51.5138 20.7064,49.5648 L21.9054,49.5648 C21.9054,50.6118 24.2374,51.7838 27.3574,51.7838 C30.4774,51.7838 32.8094,50.6118 32.8094,49.5648 L34.0084,49.5648 C34.0084,51.5138 31.1494,52.9838 27.3574,52.9838" id="Fill-10" fill="#0C1423"></path>
                <path d="M27.3574,55.8256 C23.5654,55.8256 20.7064,54.3556 20.7064,52.4066 L21.9054,52.4066 C21.9054,53.4536 24.2374,54.6256 27.3574,54.6256 C30.4774,54.6256 32.8094,53.4536 32.8094,52.4066 L34.0084,52.4066 C34.0084,54.3556 31.1494,55.8256 27.3574,55.8256" id="Fill-12" fill="#0C1423"></path>
                <mask id="mask-4" fill="white">
                    <use xlink:href="#path-3"></use>
                </mask>
                <g id="Clip-15"></g>
                <polygon id="Fill-14" fill="#0C1423" mask="url(#mask-4)" points="20.706 52.4066 21.905 52.4066 21.905 43.8826 20.706 43.8826"></polygon>
                <polygon id="Fill-16" fill="#0C1423" mask="url(#mask-4)" points="32.81 52.4066 34.009 52.4066 34.009 43.8826 32.81 43.8826"></polygon>
                <path d="M22.542,29.8618 C21.51,29.8618 20.669,30.7018 20.669,31.7348 C20.669,32.7668 21.51,33.6068 22.542,33.6068 C23.574,33.6068 24.414,32.7668 24.414,31.7348 C24.414,30.7018 23.574,29.8618 22.542,29.8618 M22.542,34.8068 C20.848,34.8068 19.47,33.4278 19.47,31.7348 C19.47,30.0398 20.848,28.6618 22.542,28.6618 C24.235,28.6618 25.613,30.0398 25.613,31.7348 C25.613,33.4278 24.235,34.8068 22.542,34.8068" id="Fill-17" fill="#0C1423" mask="url(#mask-4)"></path>
                <path d="M27.4863,29.8618 C26.4543,29.8618 25.6133,30.7018 25.6133,31.7348 C25.6133,32.7668 26.4543,33.6068 27.4863,33.6068 C28.5183,33.6068 29.3583,32.7668 29.3583,31.7348 C29.3583,30.7018 28.5183,29.8618 27.4863,29.8618 M27.4863,34.8068 C25.7923,34.8068 24.4143,33.4278 24.4143,31.7348 C24.4143,30.0398 25.7923,28.6618 27.4863,28.6618 C29.1793,28.6618 30.5573,30.0398 30.5573,31.7348 C30.5573,33.4278 29.1793,34.8068 27.4863,34.8068" id="Fill-18" fill="#0C1423" mask="url(#mask-4)"></path>
                <path d="M32.4307,29.8618 C31.3987,29.8618 30.5577,30.7018 30.5577,31.7348 C30.5577,32.7668 31.3987,33.6068 32.4307,33.6068 C33.4627,33.6068 34.3037,32.7668 34.3037,31.7348 C34.3037,30.7018 33.4627,29.8618 32.4307,29.8618 M32.4307,34.8068 C30.7367,34.8068 29.3587,33.4278 29.3587,31.7348 C29.3587,30.0398 30.7367,28.6618 32.4307,28.6618 C34.1247,28.6618 35.5027,30.0398 35.5027,31.7348 C35.5027,33.4278 34.1247,34.8068 32.4307,34.8068" id="Fill-19" fill="#0C1423" mask="url(#mask-4)"></path>
                <polygon id="Fill-20" fill="#0C1423" mask="url(#mask-4)" points="26.8203 44.1494 22.0053 34.4744 23.0793 33.9394 27.8943 43.6144"></polygon>
                <polygon id="Fill-21" fill="#0C1423" mask="url(#mask-4)" points="27.8887 44.1606 26.8267 43.6026 31.8997 33.9276 32.9617 34.4856"></polygon>
                <polygon id="Fill-22" fill="#0C1423" mask="url(#mask-4)" points="26.887 43.8816 28.086 43.8816 28.086 34.2066 26.887 34.2066"></polygon>
                <polygon id="Fill-23" fill="#0C1423" mask="url(#mask-4)" points="26.758 9.3116 27.957 9.3116 27.957 -0.0004 26.758 -0.0004"></polygon>
                <polygon id="Fill-24" fill="#0C1423" mask="url(#mask-4)" points="46.2773 47.1254 39.7113 40.5594 40.5583 39.7104 47.1253 46.2764"></polygon>
                <polygon id="Fill-25" fill="#0C1423" mask="url(#mask-4)" points="14.1719 15.0195 7.5889 8.4365 8.4369 7.5885 15.0199 14.1705"></polygon>
                <polygon id="Fill-26" fill="#0C1423" mask="url(#mask-4)" points="40.5518 15.0254 39.7038 14.1764 46.2918 7.5884 47.1398 8.4374"></polygon>
                <polygon id="Fill-27" fill="#0C1423" mask="url(#mask-4)" points="8.4512 47.1254 7.6032 46.2764 14.1632 39.7184 15.0112 40.5664"></polygon>
                <polygon id="Fill-28" fill="#0C1423" mask="url(#mask-4)" points="45.418 27.9566 54.714 27.9566 54.714 26.7566 45.418 26.7566"></polygon>
                <polygon id="Fill-29" fill="#0C1423" mask="url(#mask-4)" points="0 27.9566 9.297 27.9566 9.297 26.7566 0 26.7566"></polygon>
            </g>
        </g>
    </g>
</svg>