<svg width="110" height="110" viewBox="0 0 110 110" fill="none" xmlns="http://www.w3.org/2000/svg">
<g id="i-ene">
<g id="Group 4">
<g id="Group 3">
<mask id="mask0" mask-type="alpha" maskUnits="userSpaceOnUse" x="41" y="40" width="30" height="44">
<path id="Clip 2" fill-rule="evenodd" clip-rule="evenodd" d="M41.9564 83.5586H70.7584V40.164H41.9564V83.5586V83.5586Z" fill="white"/>
</mask>
<g mask="url(#mask0)">
<path id="Fill 1" fill-rule="evenodd" clip-rule="evenodd" d="M56.3574 40.164C48.4034 40.164 41.9564 46.612 41.9564 54.565C41.9564 60.354 45.3794 65.331 50.3054 67.62V70.24V72.215V80.739C50.3054 82.296 53.0144 83.559 56.3574 83.559C59.6994 83.559 62.4094 82.296 62.4094 80.739V72.215V70.24V67.62C67.3354 65.331 70.7584 60.354 70.7584 54.565C70.7584 46.612 64.3104 40.164 56.3574 40.164Z" fill="#D7BFF9"/>
</g>
</g>
<path id="Fill 4" fill-rule="evenodd" clip-rule="evenodd" d="M61.0088 69.8818H59.8098V64.9028L60.1558 64.7418C65.0178 62.4848 68.1588 57.5738 68.1588 52.2318C68.1588 44.6218 61.9678 38.4308 54.3578 38.4308C46.7468 38.4308 40.5558 44.6218 40.5558 52.2318C40.5558 57.5738 43.6968 62.4848 48.5588 64.7418L48.9048 64.9028V69.8818H47.7058V65.6638C42.6208 63.1408 39.3568 57.9108 39.3568 52.2318C39.3568 43.9598 46.0858 37.2308 54.3578 37.2308C62.6288 37.2308 69.3588 43.9598 69.3588 52.2318C69.3588 57.9108 66.0938 63.1408 61.0088 65.6638V69.8818Z" fill="#465056"/>
<path id="Fill 6" fill-rule="evenodd" clip-rule="evenodd" d="M54.3574 67.663C51.2374 67.663 48.9054 68.834 48.9054 69.882C48.9054 70.93 51.2374 72.101 54.3574 72.101C57.4774 72.101 59.8094 70.93 59.8094 69.882C59.8094 68.834 57.4774 67.663 54.3574 67.663ZM54.3574 73.301C50.5654 73.301 47.7064 71.831 47.7064 69.882C47.7064 67.933 50.5654 66.463 54.3574 66.463C58.1494 66.463 61.0084 67.933 61.0084 69.882C61.0084 71.831 58.1494 73.301 54.3574 73.301Z" fill="#465056"/>
<path id="Fill 8" fill-rule="evenodd" clip-rule="evenodd" d="M54.3574 76.1425C50.5654 76.1425 47.7064 74.6725 47.7064 72.7235H48.9054C48.9054 73.7705 51.2374 74.9425 54.3574 74.9425C57.4774 74.9425 59.8094 73.7705 59.8094 72.7235H61.0084C61.0084 74.6725 58.1494 76.1425 54.3574 76.1425Z" fill="#465056"/>
<path id="Fill 10" fill-rule="evenodd" clip-rule="evenodd" d="M54.3574 78.9838C50.5654 78.9838 47.7064 77.5138 47.7064 75.5648H48.9054C48.9054 76.6118 51.2374 77.7838 54.3574 77.7838C57.4774 77.7838 59.8094 76.6118 59.8094 75.5648H61.0084C61.0084 77.5138 58.1494 78.9838 54.3574 78.9838Z" fill="#465056"/>
<path id="Fill 12" fill-rule="evenodd" clip-rule="evenodd" d="M54.3574 81.8256C50.5654 81.8256 47.7064 80.3556 47.7064 78.4066H48.9054C48.9054 79.4536 51.2374 80.6256 54.3574 80.6256C57.4774 80.6256 59.8094 79.4536 59.8094 78.4066H61.0084C61.0084 80.3556 58.1494 81.8256 54.3574 81.8256Z" fill="#465056"/>
<path id="Fill 14" fill-rule="evenodd" clip-rule="evenodd" d="M47.706 78.4066H48.905V69.8826H47.706V78.4066Z" fill="#465056"/>
<path id="Fill 16" fill-rule="evenodd" clip-rule="evenodd" d="M59.81 78.4066H61.009V69.8826H59.81V78.4066Z" fill="#465056"/>
<path id="Fill 17" fill-rule="evenodd" clip-rule="evenodd" d="M49.542 55.8618C48.51 55.8618 47.669 56.7018 47.669 57.7348C47.669 58.7668 48.51 59.6068 49.542 59.6068C50.574 59.6068 51.414 58.7668 51.414 57.7348C51.414 56.7018 50.574 55.8618 49.542 55.8618ZM49.542 60.8068C47.848 60.8068 46.47 59.4278 46.47 57.7348C46.47 56.0398 47.848 54.6618 49.542 54.6618C51.235 54.6618 52.613 56.0398 52.613 57.7348C52.613 59.4278 51.235 60.8068 49.542 60.8068Z" fill="#465056"/>
<path id="Fill 18" fill-rule="evenodd" clip-rule="evenodd" d="M54.4863 55.8618C53.4543 55.8618 52.6133 56.7018 52.6133 57.7348C52.6133 58.7668 53.4543 59.6068 54.4863 59.6068C55.5183 59.6068 56.3583 58.7668 56.3583 57.7348C56.3583 56.7018 55.5183 55.8618 54.4863 55.8618ZM54.4863 60.8068C52.7923 60.8068 51.4143 59.4278 51.4143 57.7348C51.4143 56.0398 52.7923 54.6618 54.4863 54.6618C56.1793 54.6618 57.5573 56.0398 57.5573 57.7348C57.5573 59.4278 56.1793 60.8068 54.4863 60.8068Z" fill="#465056"/>
<path id="Fill 19" fill-rule="evenodd" clip-rule="evenodd" d="M59.4307 55.8618C58.3987 55.8618 57.5577 56.7018 57.5577 57.7348C57.5577 58.7668 58.3987 59.6068 59.4307 59.6068C60.4627 59.6068 61.3037 58.7668 61.3037 57.7348C61.3037 56.7018 60.4627 55.8618 59.4307 55.8618ZM59.4307 60.8068C57.7367 60.8068 56.3587 59.4278 56.3587 57.7348C56.3587 56.0398 57.7367 54.6618 59.4307 54.6618C61.1247 54.6618 62.5027 56.0398 62.5027 57.7348C62.5027 59.4278 61.1247 60.8068 59.4307 60.8068Z" fill="#465056"/>
<path id="Fill 20" fill-rule="evenodd" clip-rule="evenodd" d="M53.8203 70.1494L49.0053 60.4744L50.0793 59.9394L54.8943 69.6144L53.8203 70.1494Z" fill="#465056"/>
<path id="Fill 21" fill-rule="evenodd" clip-rule="evenodd" d="M54.8887 70.1606L53.8267 69.6026L58.8997 59.9276L59.9617 60.4856L54.8887 70.1606Z" fill="#465056"/>
<path id="Fill 22" fill-rule="evenodd" clip-rule="evenodd" d="M53.887 69.8816H55.086V60.2066H53.887V69.8816Z" fill="#465056"/>
<path id="Fill 23" fill-rule="evenodd" clip-rule="evenodd" d="M53.758 35.3116H54.957V25.9996H53.758V35.3116Z" fill="#465056"/>
<path id="Fill 24" fill-rule="evenodd" clip-rule="evenodd" d="M73.2773 73.1254L66.7113 66.5594L67.5583 65.7104L74.1253 72.2764L73.2773 73.1254Z" fill="#465056"/>
<path id="Fill 25" fill-rule="evenodd" clip-rule="evenodd" d="M41.1719 41.0195L34.5889 34.4365L35.4369 33.5885L42.0199 40.1705L41.1719 41.0195Z" fill="#465056"/>
<path id="Fill 26" fill-rule="evenodd" clip-rule="evenodd" d="M67.5518 41.0254L66.7038 40.1764L73.2918 33.5884L74.1398 34.4374L67.5518 41.0254Z" fill="#465056"/>
<path id="Fill 27" fill-rule="evenodd" clip-rule="evenodd" d="M35.4512 73.1254L34.6032 72.2764L41.1632 65.7184L42.0112 66.5664L35.4512 73.1254Z" fill="#465056"/>
<path id="Fill 28" fill-rule="evenodd" clip-rule="evenodd" d="M72.418 53.9566H81.714V52.7566H72.418V53.9566Z" fill="#465056"/>
<path id="Fill 29" fill-rule="evenodd" clip-rule="evenodd" d="M27 53.9566H36.297V52.7566H27V53.9566Z" fill="#465056"/>
</g>
</g>
</svg>
