<?xml version="1.0" encoding="UTF-8" standalone="no"?>
<svg width="100px" height="100px" viewBox="0 0 100 100" version="1.1" xmlns="http://www.w3.org/2000/svg" xmlns:xlink="http://www.w3.org/1999/xlink">
    <!-- Generator: Sketch 41.2 (35397) - http://www.bohemiancoding.com/sketch -->
    <title>Artboard Copy 52</title>
    <desc>Created with Sketch.</desc>
    <defs>
        <polygon id="path-1" points="9.48 9.7231 9.48 0.41 0.1691 0.41 0.1691 9.7231 9.48 9.7231"></polygon>
        <polygon id="path-3" points="0 40 71.48 40 71.48 0.41 0 0.41"></polygon>
    </defs>
    <g id="Welcome" stroke="none" stroke-width="1" fill="none" fill-rule="evenodd">
        <g id="Artboard-Copy-52">
            <g id="Page-1-Copy" transform="translate(14.000000, 28.000000)">
                <polygon id="Fill-1" fill="#307CBF" points="28.735 16.4498 41.127 16.4498 41.127 12.7088 28.735 12.7088"></polygon>
                <polygon id="Fill-2" fill="#307CBF" points="28.735 23.5108 41.127 23.5108 41.127 19.7688 28.735 19.7688"></polygon>
                <g id="Group-19" transform="translate(0.000000, 0.589800)">
                    <path d="M9.1182,7.228 C4.7522,7.228 1.1992,10.78 1.1992,15.147 C1.1992,19.514 4.7522,23.066 9.1182,23.066 C13.4852,23.066 17.0382,19.514 17.0382,15.147 C17.0382,10.78 13.4852,7.228 9.1182,7.228 Z M9.1182,24.266 C4.0902,24.266 0.0002,20.175 0.0002,15.147 C0.0002,10.119 4.0902,6.028 9.1182,6.028 C14.1462,6.028 18.2372,10.119 18.2372,15.147 C18.2372,20.175 14.1462,24.266 9.1182,24.266 Z" id="Fill-3" fill="#0C1423"></path>
                    <path d="M9.1182,40 C8.7872,40 8.5182,39.731 8.5182,39.4 L8.5182,23.666 C8.5182,23.334 8.7872,23.066 9.1182,23.066 C9.4492,23.066 9.7182,23.334 9.7182,23.666 L9.7182,39.4 C9.7182,39.731 9.4492,40 9.1182,40" id="Fill-5" fill="#0C1423"></path>
                    <path d="M14.7578,29.7559 L3.4798,29.7559 C3.1488,29.7559 2.8798,29.4869 2.8798,29.1559 C2.8798,28.8239 3.1488,28.5559 3.4798,28.5559 L14.7578,28.5559 C15.0888,28.5559 15.3578,28.8239 15.3578,29.1559 C15.3578,29.4869 15.0888,29.7559 14.7578,29.7559" id="Fill-7" fill="#0C1423"></path>
                    <path d="M56.7441,7.228 C52.3781,7.228 48.8251,10.78 48.8251,15.147 C48.8251,19.514 52.3781,23.066 56.7441,23.066 C61.1111,23.066 64.6641,19.514 64.6641,15.147 C64.6641,10.78 61.1111,7.228 56.7441,7.228 M56.7441,24.266 C51.7161,24.266 47.6261,20.175 47.6261,15.147 C47.6261,10.119 51.7161,6.028 56.7441,6.028 C61.7721,6.028 65.8631,10.119 65.8631,15.147 C65.8631,20.175 61.7721,24.266 56.7441,24.266" id="Fill-9" fill="#0C1423"></path>
                    <g id="Group-13" transform="translate(62.000000, 0.000000)">
                        <mask id="mask-2" fill="white">
                            <use xlink:href="#path-1"></use>
                        </mask>
                        <g id="Clip-12"></g>
                        <path d="M0.7686,9.7231 C0.6156,9.7231 0.4616,9.6641 0.3446,9.5471 C0.1106,9.3131 0.1106,8.9331 0.3446,8.6991 L8.4566,0.5861 C8.6916,0.3511 9.0706,0.3511 9.3046,0.5861 C9.5396,0.8201 9.5396,1.2001 9.3046,1.4341 L1.1926,9.5471 C1.0756,9.6641 0.9216,9.7231 0.7686,9.7231" id="Fill-11" fill="#0C1423" mask="url(#mask-2)"></path>
                    </g>
                    <path d="M70.8662,8.2217 C70.5352,8.2217 70.2662,7.9527 70.2662,7.6217 L70.2662,1.6257 L64.2692,1.6257 C63.9382,1.6257 63.6702,1.3567 63.6702,1.0257 C63.6702,0.6937 63.9382,0.4257 64.2692,0.4257 L70.8662,0.4257 C71.1972,0.4257 71.4662,0.6937 71.4662,1.0257 L71.4662,7.6217 C71.4662,7.9527 71.1972,8.2217 70.8662,8.2217" id="Fill-14" fill="#0C1423"></path>
                    <mask id="mask-4" fill="white">
                        <use xlink:href="#path-3"></use>
                    </mask>
                    <g id="Clip-17"></g>
                    <path d="M27.335,12.716 L38.527,12.716 L38.527,10.174 L27.335,10.174 L27.335,12.716 Z M26.136,13.916 L39.727,13.916 L39.727,8.974 L26.136,8.974 L26.136,13.916 Z" id="Fill-16" fill="#0C1423" mask="url(#mask-4)"></path>
                    <path d="M27.335,19.776 L38.527,19.776 L38.527,17.234 L27.335,17.234 L27.335,19.776 Z M26.136,20.977 L39.727,20.977 L39.727,16.035 L26.136,16.035 L26.136,20.977 Z" id="Fill-18" fill="#0C1423" mask="url(#mask-4)"></path>
                </g>
            </g>
        </g>
    </g>
</svg>