<?xml version="1.0" encoding="UTF-8" standalone="no"?>
<svg width="100px" height="100px" viewBox="0 0 100 100" version="1.1" xmlns="http://www.w3.org/2000/svg" xmlns:xlink="http://www.w3.org/1999/xlink">
    <!-- Generator: Sketch 41.2 (35397) - http://www.bohemiancoding.com/sketch -->
    <title>Artboard Copy 53</title>
    <desc>Created with Sketch.</desc>
    <defs></defs>
    <g id="Welcome" stroke="none" stroke-width="1" fill="none" fill-rule="evenodd">
        <g id="Artboard-Copy-53">
            <g id="Page-1-Copy" transform="translate(11.000000, 27.000000)">
                <polygon id="Fill-1" fill="#307CBF" points="46.422 12.7584 34.449 12.7584 34.321 12.7584 25.521 12.7584 25.521 21.4484 17.881 21.4484 10.24 21.4484 2.599 21.4484 2.599 27.0324 2.599 42.6474 10.24 42.6474 17.881 42.6474 25.521 42.6474 34.449 42.6474 37.552 42.6474 43.328 42.6474 46.422 42.6474 55.35 42.6474 62.99 42.6474 70.631 42.6474 78.271 42.6474 78.271 21.4484 70.631 21.4484 62.99 21.4484 55.35 21.4484 55.35 12.7584"></polygon>
                <polygon id="Fill-2" fill="#3A6AA4" points="40.436 6.6074 46.422 6.6074 46.422 2.9334 40.436 2.9334"></polygon>
                <path d="M32.92,24.0994 L43.822,24.0994 L43.822,11.0254 L32.92,11.0254 L32.92,24.0994 Z M31.72,25.2994 L45.021,25.2994 L45.021,9.8254 L31.72,9.8254 L31.72,25.2994 Z" id="Fill-3" fill="#0C1423"></path>
                <path d="M33.049,39.7134 L43.822,39.7134 L43.822,25.2984 L33.049,25.2984 L33.049,39.7134 Z M31.849,40.9144 L45.021,40.9144 L45.021,24.0994 L31.849,24.0994 L31.849,40.9144 Z" id="Fill-4" fill="#0C1423"></path>
                <polygon id="Fill-5" fill="#0C1423" points="37.836 21.8644 39.035 21.8644 39.035 18.2614 37.836 18.2614"></polygon>
                <polygon id="Fill-6" fill="#0C1423" points="31.85 24.6994 33.049 24.6994 33.049 10.4254 31.85 10.4254"></polygon>
                <polygon id="Fill-7" fill="#0C1423" points="32.8281 15.7627 32.0701 14.8317 38.0571 9.9597 38.8141 10.8907"></polygon>
                <polygon id="Fill-8" fill="#0C1423" points="43.9785 15.7627 37.9925 10.8907 38.7495 9.9597 44.7365 14.8317"></polygon>
                <path d="M24.121,24.0994 L31.85,24.0994 L31.85,11.0254 L24.121,11.0254 L24.121,24.0994 Z M22.922,25.2994 L33.049,25.2994 L33.049,9.8254 L22.922,9.8254 L22.922,25.2994 Z" id="Fill-9" fill="#0C1423"></path>
                <path d="M24.121,39.7134 L31.85,39.7134 L31.85,25.2984 L24.121,25.2984 L24.121,39.7134 Z M22.922,40.9144 L33.049,40.9144 L33.049,24.0994 L22.922,24.0994 L22.922,40.9144 Z" id="Fill-10" fill="#0C1423"></path>
                <path d="M16.48,39.7134 L22.921,39.7134 L22.921,25.2984 L16.48,25.2984 L16.48,39.7134 Z M15.281,40.9144 L24.121,40.9144 L24.121,24.0994 L15.281,24.0994 L15.281,40.9144 Z" id="Fill-11" fill="#0C1423"></path>
                <path d="M8.84,39.7134 L15.281,39.7134 L15.281,25.2984 L8.84,25.2984 L8.84,39.7134 Z M7.64,40.9144 L16.48,40.9144 L16.48,24.0994 L7.64,24.0994 L7.64,40.9144 Z" id="Fill-12" fill="#0C1423"></path>
                <path d="M0,40.9144 L8.84,40.9144 L8.84,24.0994 L0,24.0994 L0,40.9144 Z M1.199,39.7144 L7.641,39.7144 L7.641,25.2994 L1.199,25.2994 L1.199,39.7144 Z" id="Fill-13" fill="#0C1423"></path>
                <polygon id="Fill-14" fill="#0C1423" points="27.386 32.6714 28.585 32.6714 28.585 29.0694 27.386 29.0694"></polygon>
                <polygon id="Fill-15" fill="#0C1423" points="27.386 37.4984 28.585 37.4984 28.585 33.8954 27.386 33.8954"></polygon>
                <polygon id="Fill-16" fill="#0C1423" points="27.386 21.8644 28.585 21.8644 28.585 18.2614 27.386 18.2614"></polygon>
                <polygon id="Fill-17" fill="#0C1423" points="19.102 32.6714 20.301 32.6714 20.301 29.0694 19.102 29.0694"></polygon>
                <polygon id="Fill-18" fill="#0C1423" points="19.102 37.4984 20.301 37.4984 20.301 33.8954 19.102 33.8954"></polygon>
                <polygon id="Fill-19" fill="#0C1423" points="11.461 32.6714 12.66 32.6714 12.66 29.0694 11.461 29.0694"></polygon>
                <polygon id="Fill-20" fill="#0C1423" points="11.461 37.4984 12.66 37.4984 12.66 33.8954 11.461 33.8954"></polygon>
                <polygon id="Fill-21" fill="#0C1423" points="3.821 32.6714 5.02 32.6714 5.02 29.0694 3.821 29.0694"></polygon>
                <polygon id="Fill-22" fill="#0C1423" points="3.821 37.4984 5.02 37.4984 5.02 33.8954 3.821 33.8954"></polygon>
                <path d="M0,25.2994 L8.84,25.2994 L8.84,18.5164 L0,18.5164 L0,25.2994 Z M1.199,24.0994 L7.641,24.0994 L7.641,19.7154 L1.199,19.7154 L1.199,24.0994 Z" id="Fill-23" fill="#0C1423"></path>
                <path d="M8.84,24.0994 L15.281,24.0994 L15.281,19.7164 L8.84,19.7164 L8.84,24.0994 Z M7.64,25.2994 L16.48,25.2994 L16.48,18.5154 L7.64,18.5154 L7.64,25.2994 Z" id="Fill-24" fill="#0C1423"></path>
                <path d="M16.48,24.0994 L22.921,24.0994 L22.921,19.7164 L16.48,19.7164 L16.48,24.0994 Z M15.281,25.2994 L24.121,25.2994 L24.121,18.5154 L15.281,18.5154 L15.281,25.2994 Z" id="Fill-25" fill="#0C1423"></path>
                <polygon id="Fill-26" fill="#0C1423" points="23.521 15.8974 32.449 15.8974 32.449 14.6974 23.521 14.6974"></polygon>
                <path d="M45.021,24.0994 L52.75,24.0994 L52.75,11.0254 L45.021,11.0254 L45.021,24.0994 Z M43.822,25.2994 L53.949,25.2994 L53.949,9.8254 L43.822,9.8254 L43.822,25.2994 Z" id="Fill-27" fill="#0C1423"></path>
                <path d="M45.021,39.7134 L52.75,39.7134 L52.75,25.2984 L45.021,25.2984 L45.021,39.7134 Z M43.822,40.9144 L53.949,40.9144 L53.949,24.0994 L43.822,24.0994 L43.822,40.9144 Z" id="Fill-28" fill="#0C1423"></path>
                <path d="M53.949,39.7134 L60.39,39.7134 L60.39,25.2984 L53.949,25.2984 L53.949,39.7134 Z M52.75,40.9144 L61.59,40.9144 L61.59,24.0994 L52.75,24.0994 L52.75,40.9144 Z" id="Fill-29" fill="#0C1423"></path>
                <path d="M61.59,39.7134 L68.031,39.7134 L68.031,25.2984 L61.59,25.2984 L61.59,39.7134 Z M60.39,40.9144 L69.23,40.9144 L69.23,24.0994 L60.39,24.0994 L60.39,40.9144 Z" id="Fill-30" fill="#0C1423"></path>
                <path d="M69.23,39.7134 L75.671,39.7134 L75.671,25.2984 L69.23,25.2984 L69.23,39.7134 Z M68.031,40.9144 L76.871,40.9144 L76.871,24.0994 L68.031,24.0994 L68.031,40.9144 Z" id="Fill-31" fill="#0C1423"></path>
                <polygon id="Fill-32" fill="#0C1423" points="48.286 32.6714 49.485 32.6714 49.485 29.0694 48.286 29.0694"></polygon>
                <polygon id="Fill-33" fill="#0C1423" points="48.286 37.4984 49.485 37.4984 49.485 33.8954 48.286 33.8954"></polygon>
                <polygon id="Fill-34" fill="#0C1423" points="48.286 21.8644 49.485 21.8644 49.485 18.2614 48.286 18.2614"></polygon>
                <polygon id="Fill-35" fill="#0C1423" points="56.571 32.6714 57.77 32.6714 57.77 29.0694 56.571 29.0694"></polygon>
                <polygon id="Fill-36" fill="#0C1423" points="56.571 37.4984 57.77 37.4984 57.77 33.8954 56.571 33.8954"></polygon>
                <polygon id="Fill-37" fill="#0C1423" points="64.211 32.6714 65.41 32.6714 65.41 29.0694 64.211 29.0694"></polygon>
                <polygon id="Fill-38" fill="#0C1423" points="64.211 37.4984 65.41 37.4984 65.41 33.8954 64.211 33.8954"></polygon>
                <polygon id="Fill-39" fill="#0C1423" points="71.852 32.6714 73.051 32.6714 73.051 29.0694 71.852 29.0694"></polygon>
                <polygon id="Fill-40" fill="#0C1423" points="71.852 37.4984 73.051 37.4984 73.051 33.8954 71.852 33.8954"></polygon>
                <path d="M69.23,24.0994 L75.671,24.0994 L75.671,19.7164 L69.23,19.7164 L69.23,24.0994 Z M68.031,25.2994 L76.871,25.2994 L76.871,18.5154 L68.031,18.5154 L68.031,25.2994 Z" id="Fill-41" fill="#0C1423"></path>
                <path d="M61.59,24.0994 L68.031,24.0994 L68.031,19.7164 L61.59,19.7164 L61.59,24.0994 Z M60.39,25.2994 L69.23,25.2994 L69.23,18.5154 L60.39,18.5154 L60.39,25.2994 Z" id="Fill-42" fill="#0C1423"></path>
                <path d="M53.949,24.0994 L60.39,24.0994 L60.39,19.7164 L53.949,19.7164 L53.949,24.0994 Z M52.75,25.2994 L61.59,25.2994 L61.59,18.5154 L52.75,18.5154 L52.75,25.2994 Z" id="Fill-43" fill="#0C1423"></path>
                <polygon id="Fill-44" fill="#0C1423" points="44.422 15.8974 53.35 15.8974 53.35 14.6974 44.422 14.6974"></polygon>
                <polygon id="Fill-45" fill="#0C1423" points="32.449 15.8974 44.357 15.8974 44.357 14.6974 32.449 14.6974"></polygon>
                <polygon id="Fill-46" fill="#0C1423" points="37.836 10.4254 39.035 10.4254 39.035 0.6004 37.836 0.6004"></polygon>
                <path d="M37.836,4.8744 L45.022,4.8744 L45.022,0.0004 L37.836,0.0004 L37.836,4.8744 Z M39.035,3.6744 L43.822,3.6744 L43.822,1.2004 L39.035,1.2004 L39.035,3.6744 Z" id="Fill-47" fill="#0C1423"></path>
                <path d="M36.1504,39.7139 L40.7284,39.7139 L40.7284,30.9069 C40.7284,29.6449 39.7014,28.6189 38.4394,28.6189 C37.1774,28.6189 36.1504,29.6449 36.1504,30.9069 L36.1504,39.7139 Z M41.9274,40.9139 L34.9514,40.9139 L34.9514,30.9069 C34.9514,28.9839 36.5154,27.4189 38.4394,27.4189 C40.3634,27.4189 41.9274,28.9839 41.9274,30.9069 L41.9274,40.9139 Z" id="Fill-48" fill="#0C1423"></path>
            </g>
        </g>
    </g>
</svg>