<svg width="110" height="110" viewBox="0 0 110 110" fill="none" xmlns="http://www.w3.org/2000/svg">
<g id="i-est">
<g id="Group">
<path id="Fill 1" fill-rule="evenodd" clip-rule="evenodd" d="M61.422 45.7584H49.449H49.321H40.521V54.4484H32.881H25.24H17.599V60.0324V75.6474H25.24H32.881H40.521H49.449H52.552H58.328H61.422H70.35H77.99H85.631H93.271V54.4484H85.631H77.99H70.35V45.7584H61.422Z" fill="#D7BFF9"/>
<path id="Fill 2" fill-rule="evenodd" clip-rule="evenodd" d="M55.436 39.6074H61.422V35.9334H55.436V39.6074Z" fill="#D7BFF9"/>
<path id="Fill 3" fill-rule="evenodd" clip-rule="evenodd" d="M47.92 57.0994H58.822V44.0254H47.92V57.0994ZM46.72 58.2994H60.021V42.8254H46.72V58.2994Z" fill="#465056"/>
<path id="Fill 4" fill-rule="evenodd" clip-rule="evenodd" d="M48.049 72.7134H58.822V58.2984H48.049V72.7134ZM46.849 73.9144H60.021V57.0994H46.849V73.9144Z" fill="#465056"/>
<path id="Fill 5" fill-rule="evenodd" clip-rule="evenodd" d="M52.836 54.8644H54.035V51.2614H52.836V54.8644Z" fill="#465056"/>
<path id="Fill 6" fill-rule="evenodd" clip-rule="evenodd" d="M46.85 57.6994H48.049V43.4254H46.85V57.6994Z" fill="#465056"/>
<path id="Fill 7" fill-rule="evenodd" clip-rule="evenodd" d="M47.8281 48.7627L47.0701 47.8317L53.0571 42.9597L53.8141 43.8907L47.8281 48.7627Z" fill="#465056"/>
<path id="Fill 8" fill-rule="evenodd" clip-rule="evenodd" d="M58.9785 48.7627L52.9925 43.8907L53.7495 42.9597L59.7365 47.8317L58.9785 48.7627Z" fill="#465056"/>
<path id="Fill 9" fill-rule="evenodd" clip-rule="evenodd" d="M39.121 57.0994H46.85V44.0254H39.121V57.0994ZM37.922 58.2994H48.049V42.8254H37.922V58.2994Z" fill="#465056"/>
<path id="Fill 10" fill-rule="evenodd" clip-rule="evenodd" d="M39.121 72.7134H46.85V58.2984H39.121V72.7134ZM37.922 73.9144H48.049V57.0994H37.922V73.9144Z" fill="#465056"/>
<path id="Fill 11" fill-rule="evenodd" clip-rule="evenodd" d="M31.48 72.7134H37.921V58.2984H31.48V72.7134ZM30.281 73.9144H39.121V57.0994H30.281V73.9144Z" fill="#465056"/>
<path id="Fill 12" fill-rule="evenodd" clip-rule="evenodd" d="M23.84 72.7134H30.281V58.2984H23.84V72.7134ZM22.64 73.9144H31.48V57.0994H22.64V73.9144Z" fill="#465056"/>
<path id="Fill 13" fill-rule="evenodd" clip-rule="evenodd" d="M15 73.9144H23.84V57.0994H15V73.9144ZM16.199 72.7144H22.641V58.2994H16.199V72.7144Z" fill="#465056"/>
<path id="Fill 14" fill-rule="evenodd" clip-rule="evenodd" d="M42.386 65.6714H43.585V62.0694H42.386V65.6714Z" fill="#465056"/>
<path id="Fill 15" fill-rule="evenodd" clip-rule="evenodd" d="M42.386 70.4984H43.585V66.8954H42.386V70.4984Z" fill="#465056"/>
<path id="Fill 16" fill-rule="evenodd" clip-rule="evenodd" d="M42.386 54.8644H43.585V51.2614H42.386V54.8644Z" fill="#465056"/>
<path id="Fill 17" fill-rule="evenodd" clip-rule="evenodd" d="M34.102 65.6714H35.301V62.0694H34.102V65.6714Z" fill="#465056"/>
<path id="Fill 18" fill-rule="evenodd" clip-rule="evenodd" d="M34.102 70.4984H35.301V66.8954H34.102V70.4984Z" fill="#465056"/>
<path id="Fill 19" fill-rule="evenodd" clip-rule="evenodd" d="M26.461 65.6714H27.66V62.0694H26.461V65.6714Z" fill="#465056"/>
<path id="Fill 20" fill-rule="evenodd" clip-rule="evenodd" d="M26.461 70.4984H27.66V66.8954H26.461V70.4984Z" fill="#465056"/>
<path id="Fill 21" fill-rule="evenodd" clip-rule="evenodd" d="M18.821 65.6714H20.02V62.0694H18.821V65.6714Z" fill="#465056"/>
<path id="Fill 22" fill-rule="evenodd" clip-rule="evenodd" d="M18.821 70.4984H20.02V66.8954H18.821V70.4984Z" fill="#465056"/>
<path id="Fill 23" fill-rule="evenodd" clip-rule="evenodd" d="M15 58.2994H23.84V51.5164H15V58.2994ZM16.199 57.0994H22.641V52.7154H16.199V57.0994Z" fill="#465056"/>
<path id="Fill 24" fill-rule="evenodd" clip-rule="evenodd" d="M23.84 57.0994H30.281V52.7164H23.84V57.0994ZM22.64 58.2994H31.48V51.5154H22.64V58.2994Z" fill="#465056"/>
<path id="Fill 25" fill-rule="evenodd" clip-rule="evenodd" d="M31.48 57.0994H37.921V52.7164H31.48V57.0994ZM30.281 58.2994H39.121V51.5154H30.281V58.2994Z" fill="#465056"/>
<path id="Fill 26" fill-rule="evenodd" clip-rule="evenodd" d="M38.521 48.8974H47.449V47.6974H38.521V48.8974Z" fill="#465056"/>
<path id="Fill 27" fill-rule="evenodd" clip-rule="evenodd" d="M60.021 57.0994H67.75V44.0254H60.021V57.0994ZM58.822 58.2994H68.949V42.8254H58.822V58.2994Z" fill="#465056"/>
<path id="Fill 28" fill-rule="evenodd" clip-rule="evenodd" d="M60.021 72.7134H67.75V58.2984H60.021V72.7134ZM58.822 73.9144H68.949V57.0994H58.822V73.9144Z" fill="#465056"/>
<path id="Fill 29" fill-rule="evenodd" clip-rule="evenodd" d="M68.949 72.7134H75.39V58.2984H68.949V72.7134ZM67.75 73.9144H76.59V57.0994H67.75V73.9144Z" fill="#465056"/>
<path id="Fill 30" fill-rule="evenodd" clip-rule="evenodd" d="M76.59 72.7134H83.031V58.2984H76.59V72.7134ZM75.39 73.9144H84.23V57.0994H75.39V73.9144Z" fill="#465056"/>
<path id="Fill 31" fill-rule="evenodd" clip-rule="evenodd" d="M84.23 72.7134H90.671V58.2984H84.23V72.7134ZM83.031 73.9144H91.871V57.0994H83.031V73.9144Z" fill="#465056"/>
<path id="Fill 32" fill-rule="evenodd" clip-rule="evenodd" d="M63.286 65.6714H64.485V62.0694H63.286V65.6714Z" fill="#465056"/>
<path id="Fill 33" fill-rule="evenodd" clip-rule="evenodd" d="M63.286 70.4984H64.485V66.8954H63.286V70.4984Z" fill="#465056"/>
<path id="Fill 34" fill-rule="evenodd" clip-rule="evenodd" d="M63.286 54.8644H64.485V51.2614H63.286V54.8644Z" fill="#465056"/>
<path id="Fill 35" fill-rule="evenodd" clip-rule="evenodd" d="M71.571 65.6714H72.77V62.0694H71.571V65.6714Z" fill="#465056"/>
<path id="Fill 36" fill-rule="evenodd" clip-rule="evenodd" d="M71.571 70.4984H72.77V66.8954H71.571V70.4984Z" fill="#465056"/>
<path id="Fill 37" fill-rule="evenodd" clip-rule="evenodd" d="M79.211 65.6714H80.41V62.0694H79.211V65.6714Z" fill="#465056"/>
<path id="Fill 38" fill-rule="evenodd" clip-rule="evenodd" d="M79.211 70.4984H80.41V66.8954H79.211V70.4984Z" fill="#465056"/>
<path id="Fill 39" fill-rule="evenodd" clip-rule="evenodd" d="M86.852 65.6714H88.051V62.0694H86.852V65.6714Z" fill="#465056"/>
<path id="Fill 40" fill-rule="evenodd" clip-rule="evenodd" d="M86.852 70.4984H88.051V66.8954H86.852V70.4984Z" fill="#465056"/>
<path id="Fill 41" fill-rule="evenodd" clip-rule="evenodd" d="M84.23 57.0994H90.671V52.7164H84.23V57.0994ZM83.031 58.2994H91.871V51.5154H83.031V58.2994Z" fill="#465056"/>
<path id="Fill 42" fill-rule="evenodd" clip-rule="evenodd" d="M76.59 57.0994H83.031V52.7164H76.59V57.0994ZM75.39 58.2994H84.23V51.5154H75.39V58.2994Z" fill="#465056"/>
<path id="Fill 43" fill-rule="evenodd" clip-rule="evenodd" d="M68.949 57.0994H75.39V52.7164H68.949V57.0994ZM67.75 58.2994H76.59V51.5154H67.75V58.2994Z" fill="#465056"/>
<path id="Fill 44" fill-rule="evenodd" clip-rule="evenodd" d="M59.422 48.8974H68.35V47.6974H59.422V48.8974Z" fill="#465056"/>
<path id="Fill 45" fill-rule="evenodd" clip-rule="evenodd" d="M47.449 48.8974H59.357V47.6974H47.449V48.8974Z" fill="#465056"/>
<path id="Fill 46" fill-rule="evenodd" clip-rule="evenodd" d="M52.836 43.4254H54.035V33.6004H52.836V43.4254Z" fill="#465056"/>
<path id="Fill 47" fill-rule="evenodd" clip-rule="evenodd" d="M52.836 37.8744H60.022V33.0004H52.836V37.8744ZM54.035 36.6744H58.822V34.2004H54.035V36.6744Z" fill="#465056"/>
<path id="Fill 48" fill-rule="evenodd" clip-rule="evenodd" d="M51.1504 72.7139H55.7284V63.9069C55.7284 62.6449 54.7014 61.6189 53.4394 61.6189C52.1774 61.6189 51.1504 62.6449 51.1504 63.9069V72.7139ZM56.9274 73.9139H49.9514V63.9069C49.9514 61.9839 51.5154 60.4189 53.4394 60.4189C55.3634 60.4189 56.9274 61.9839 56.9274 63.9069V73.9139Z" fill="#465056"/>
</g>
</g>
</svg>
