<?xml version="1.0" encoding="UTF-8" standalone="no"?>
<svg width="100px" height="100px" viewBox="0 0 100 100" version="1.1" xmlns="http://www.w3.org/2000/svg" xmlns:xlink="http://www.w3.org/1999/xlink">
    <!-- Generator: Sketch 41.2 (35397) - http://www.bohemiancoding.com/sketch -->
    <title>Artboard Copy 54</title>
    <desc>Created with Sketch.</desc>
    <defs>
        <polygon id="path-1" points="50.008 52.9997106 50.008 0.8042 0.1591 0.8042 0.1591 52.9997106 50.008 52.9997106"></polygon>
        <polygon id="path-3" points="0 0.4066 0 53.8016 51.2676 53.8016 51.2676 0.4066"></polygon>
    </defs>
    <g id="Welcome" stroke="none" stroke-width="1" fill="none" fill-rule="evenodd">
        <g id="Artboard-Copy-54">
            <g id="Page-1-Copy" transform="translate(24.000000, 20.000000)">
                <g id="Group-3" transform="translate(2.000000, 2.593900)">
                    <mask id="mask-2" fill="white">
                        <use xlink:href="#path-1"></use>
                    </mask>
                    <g id="Clip-2"></g>
                    <path d="M38.2461,23.6932 L35.7951,15.6782 C35.7951,15.6782 38.9441,17.3692 40.9791,22.1152 L38.2461,23.6932 Z M16.8241,33.1402 L15.7521,24.3512 C15.7521,24.3512 18.3561,27.3792 19.3811,32.1102 L16.8241,33.1402 Z M50.0081,25.5462 L46.2651,19.0642 L44.3291,20.1812 C42.6151,16.2352 39.5821,11.6262 34.2581,8.6442 L34.2551,8.6452 C34.7611,7.8532 35.0581,6.9152 35.0581,5.9052 C35.0581,3.0882 32.7731,0.8042 29.9561,0.8042 C27.1391,0.8042 24.8541,3.0882 24.8541,5.9052 C24.8541,8.0452 26.1731,9.8752 28.0411,10.6322 C26.6061,19.7562 19.6171,24.0742 19.6171,24.0742 L19.6171,24.0752 C19.5111,24.1462 19.4181,24.2332 19.3261,24.3222 C17.0761,20.6642 14.5751,18.6482 14.5751,18.6482 L14.5741,18.6482 C14.9731,18.0212 15.2061,17.2802 15.2061,16.4832 C15.2061,14.2462 13.3931,12.4342 11.1571,12.4342 C8.9211,12.4342 7.1081,14.2462 7.1081,16.4832 C7.1081,18.1502 8.1161,19.5812 9.5561,20.2012 C9.5561,20.2012 8.3961,28.9802 1.1601,32.9142 L1.1621,32.9192 C0.5781,33.1312 0.1591,33.6862 0.1591,34.3442 C0.1591,35.1842 0.8401,35.8652 1.6811,35.8652 C1.9531,35.8652 2.2051,35.7882 2.4261,35.6632 L2.4271,35.6652 C3.8621,35.2052 6.7921,32.3912 6.7921,32.3912 L6.7921,38.9382 L7.7681,38.9382 L5.9881,50.8122 L4.5841,50.8122 C4.0251,50.8122 3.5721,51.2652 3.5721,51.8242 C3.5721,52.3832 4.0251,52.8372 4.5841,52.8372 L9.0941,52.8372 L9.2111,50.8122 L12.9371,38.9382 L15.8661,50.0802 L14.4761,50.4672 C13.9211,50.5262 13.5171,51.0242 13.5771,51.5802 C13.6361,52.1362 14.1351,52.5392 14.6901,52.4802 L19.1741,52.0042 L19.0831,50.0802 L17.0721,38.9382 L17.5321,38.9382 L17.3511,37.4632 L19.8181,36.4692 C19.9531,37.1722 20.5691,37.7042 21.3111,37.7042 C22.1521,37.7042 22.8341,37.0232 22.8341,36.1822 C22.8311,35.8732 22.8191,35.5692 22.8051,35.2672 L24.8391,34.4482 L23.2671,30.5462 L22.1621,30.9902 C21.8691,29.8262 21.4961,28.7342 21.0711,27.7202 C21.3451,27.6712 21.5991,27.5692 21.8221,27.4222 L21.8221,27.4222 L21.8251,27.4212 C21.9431,27.3412 22.0531,27.2512 22.1521,27.1492 L26.2621,23.7432 L26.2621,32.3912 L27.5251,32.3912 L24.6391,50.8122 L23.0661,50.8122 C22.5081,50.8122 22.0551,51.2652 22.0551,51.8242 C22.0551,52.3832 22.5081,52.8372 23.0661,52.8372 L28.7311,52.8372 L28.7311,50.8122 L33.2541,32.3912 L39.3701,50.4672 L37.7751,50.9782 C37.2181,51.0172 36.7981,51.5012 36.8371,52.0592 C36.8761,52.6162 37.3601,53.0362 37.9181,52.9972 L43.5681,52.6002 L43.5051,50.4672 L39.3701,32.3912 L40.9061,32.3912 L40.4931,31.0392 L43.3301,29.4012 C43.6541,29.6262 44.0471,29.7602 44.4721,29.7602 C45.5791,29.7602 46.4771,28.8622 46.4771,27.7552 C46.4771,27.6992 46.4621,27.6502 46.4561,27.5962 L50.0081,25.5462 Z" id="Fill-1" fill="#307CBF" mask="url(#mask-2)"></path>
                </g>
                <g id="Group-6" transform="translate(0.000000, 0.593900)">
                    <mask id="mask-4" fill="white">
                        <use xlink:href="#path-3"></use>
                    </mask>
                    <g id="Clip-5"></g>
                    <path d="M37.3486,17.4686 L39.0396,22.9986 L40.6526,22.0686 C39.6026,19.8186 38.3116,18.3456 37.3486,17.4686 L37.3486,17.4686 Z M38.3326,24.7916 L35.2356,14.6626 L36.5196,15.3516 C36.6556,15.4256 39.8776,17.1976 41.9726,22.0806 L42.1826,22.5706 L38.3326,24.7916 Z M17.0876,26.9386 L17.7656,32.4936 L19.1206,31.9476 C18.6096,29.8706 17.7906,28.1536 17.0876,26.9386 L17.0876,26.9386 Z M16.7636,34.1916 L15.3576,22.6616 L16.6476,24.1616 C16.7576,24.2906 19.3636,27.3616 20.4076,32.1856 L20.5146,32.6806 L16.7636,34.1916 Z M33.6026,30.4496 L40.5746,51.0546 L38.2586,51.7786 C38.0316,51.7946 37.8606,51.9916 37.8756,52.2186 C37.8916,52.4456 38.0786,52.6186 38.3166,52.6006 L43.3926,52.2436 L43.3486,50.7466 L39.0576,31.9926 L40.5366,31.9926 L40.2196,30.9606 L43.8006,28.8926 L44.1136,29.1106 C44.3496,29.2756 44.6256,29.3626 44.9116,29.3626 C45.6876,29.3626 46.3186,28.7316 46.3186,27.9566 L46.2646,27.4706 L49.6286,25.5286 L46.4866,20.0856 L44.4886,21.2396 L44.2206,20.6226 C42.0606,15.6546 38.8286,11.9096 34.6116,9.4866 L33.3796,9.7946 L34.1906,8.5236 C34.6546,7.7986 34.8996,6.9636 34.8996,6.1076 C34.8996,3.6256 32.8786,1.6066 30.3966,1.6066 C27.9136,1.6066 25.8946,3.6256 25.8946,6.1076 C25.8946,7.9476 26.9986,9.5856 28.7066,10.2786 L29.1486,10.4576 L29.0746,10.9276 C27.6136,20.2176 20.6676,24.6046 20.3726,24.7866 C20.3166,24.8256 20.2496,24.8906 20.1836,24.9556 L19.6476,25.4746 L19.2556,24.8386 C17.0926,21.3216 14.6626,19.3366 14.6386,19.3166 L14.2226,18.9806 L14.5086,18.5286 C14.8606,17.9746 15.0466,17.3366 15.0466,16.6846 C15.0466,14.7826 13.4986,13.2366 11.5976,13.2366 C9.6966,13.2366 8.1486,14.7826 8.1486,16.6846 C8.1486,18.0626 8.9676,19.3056 10.2346,19.8526 L10.6556,20.0346 L10.5906,20.4896 C10.5386,20.8546 9.2796,29.2516 2.3916,33.3566 L2.4386,33.4496 L1.8076,33.6836 C1.4446,33.8166 1.1996,34.1626 1.1996,34.5456 C1.1996,35.2066 1.9406,35.7006 2.5716,35.3436 L2.6846,35.2936 C3.7536,34.9526 6.0306,32.9166 6.8176,32.1606 L7.8326,31.1846 L7.8326,38.5406 L8.9056,38.5406 L6.9456,51.6146 L5.0256,51.6146 C4.7976,51.6146 4.6126,51.7996 4.6126,52.0266 C4.6126,52.2536 4.7976,52.4386 5.0256,52.4386 L8.9676,52.4386 L9.0786,50.8346 L13.4286,36.9746 L17.0366,50.7016 L15.0776,51.2466 C14.7546,51.2896 14.5906,51.4926 14.6146,51.7196 C14.6256,51.8286 14.6796,51.9266 14.7646,51.9956 C14.8506,52.0656 14.9616,52.0976 15.0676,52.0856 L18.9886,51.6696 L18.9236,50.3106 L16.7946,38.5406 L17.2946,38.5406 L17.1416,37.2806 L20.7106,35.8426 L20.8476,36.5586 C20.9306,36.9916 21.3116,37.3066 21.7516,37.3066 C22.2606,37.3066 22.6746,36.8926 22.6746,36.3846 C22.6716,36.0896 22.6606,35.7926 22.6456,35.4976 L22.6246,35.0726 L24.4986,34.3176 L23.3756,31.5286 L22.1886,32.0066 L22.0206,31.3396 C21.7476,30.2576 21.3916,29.1856 20.9586,28.1546 L20.6706,27.4646 L21.4066,27.3316 C21.5986,27.2966 21.7756,27.2266 21.9326,27.1236 C22.0176,27.0676 22.0936,27.0046 22.1616,26.9336 L27.3016,22.6686 L27.3016,31.9926 L28.6666,31.9926 L25.5936,51.6146 L23.5076,51.6146 C23.2806,51.6146 23.0946,51.7996 23.0946,52.0266 C23.0946,52.2536 23.2806,52.4386 23.5076,52.4386 L28.5726,52.4386 L28.5886,50.8716 L33.6026,30.4496 Z M38.2866,53.8016 C37.4496,53.8016 36.7406,53.1516 36.6786,52.3036 C36.6186,51.4426 37.2476,50.6906 38.0946,50.5896 L39.0466,50.2846 L33.7856,34.7366 L29.7716,51.0876 L29.7716,53.6386 L23.5076,53.6386 C22.6186,53.6386 21.8956,52.9156 21.8956,52.0266 C21.8956,51.1376 22.6186,50.4146 23.5076,50.4146 L24.5666,50.4146 L27.2646,33.1936 L26.1026,33.1936 L26.1026,25.2216 L22.9756,27.8136 C22.8946,27.9026 22.7496,28.0216 22.5956,28.1236 C22.5026,28.1846 22.4066,28.2396 22.3066,28.2886 C22.5726,28.9746 22.8066,29.6756 23.0066,30.3836 L24.0396,29.9676 L26.0596,34.9826 L23.8626,35.8666 C23.8686,36.0366 23.8726,36.2066 23.8736,36.3786 C23.8736,37.5546 22.9216,38.5066 21.7516,38.5066 C20.9826,38.5066 20.2926,38.0906 19.9206,37.4546 L18.4446,38.0496 L18.6506,39.7406 L18.2306,39.7406 L20.1146,50.1756 L20.2406,52.7436 L15.1946,53.2786 C14.7666,53.3266 14.3466,53.2006 14.0106,52.9296 C13.6756,52.6586 13.4656,52.2736 13.4206,51.8456 C13.3276,50.9616 13.9706,50.1656 14.8536,50.0726 L15.5776,49.8656 L13.3276,41.3066 L10.2456,51.1236 L10.1006,53.6386 L5.0256,53.6386 C4.1356,53.6386 3.4126,52.9156 3.4126,52.0266 C3.4126,51.1376 4.1356,50.4146 5.0256,50.4146 L5.9116,50.4146 L7.5126,39.7406 L6.6336,39.7406 L6.6336,33.9556 C5.6276,34.8406 4.1156,36.0696 3.1066,36.4196 C2.7926,36.5846 2.4616,36.6676 2.1206,36.6676 C0.9516,36.6676 -0.0004,35.7156 -0.0004,34.5456 C-0.0004,33.8876 0.3096,33.2776 0.8126,32.8826 L0.8066,32.8706 L0.8896,32.8236 C1.0216,32.7306 1.1636,32.6506 1.3176,32.5876 C7.3196,29.3226 8.9916,22.4966 9.3286,20.7426 C7.8696,19.9266 6.9496,18.3816 6.9496,16.6846 C6.9496,14.1216 9.0346,12.0356 11.5976,12.0356 C14.1616,12.0356 16.2456,14.1216 16.2456,16.6846 C16.2456,17.3936 16.0836,18.0896 15.7726,18.7226 C16.7786,19.5726 18.4986,21.4706 19.9206,23.6486 C21.0056,22.9046 26.4286,18.8406 27.8136,11.1886 C25.9046,10.2206 24.6956,8.2766 24.6956,6.1076 C24.6956,2.9636 27.2526,0.4066 30.3966,0.4066 C33.5406,0.4066 36.0986,2.9636 36.0986,6.1076 C36.0986,6.9836 35.8976,7.8416 35.5106,8.6226 C39.6346,11.0756 42.8386,14.7416 45.0456,19.5316 L46.9256,18.4456 L51.2676,25.9676 L47.5116,28.1356 C47.4186,29.4896 46.2876,30.5626 44.9116,30.5626 C44.5126,30.5626 44.1236,30.4706 43.7686,30.2966 L41.6476,31.5216 L42.1596,33.1936 L40.5636,33.1936 L44.5456,50.6526 L44.6246,53.3606 L38.4006,53.7986 C38.3626,53.8006 38.3246,53.8016 38.2866,53.8016 L38.2866,53.8016 Z" id="Fill-4" fill="#0C1423" mask="url(#mask-4)"></path>
                </g>
            </g>
        </g>
    </g>
</svg>