<svg width="110" height="110" viewBox="0 0 110 110" fill="none" xmlns="http://www.w3.org/2000/svg">
<g id="i-jus">
<g id="Group 32">
<path id="Fill 1" fill-rule="evenodd" clip-rule="evenodd" d="M46.2593 60.273C46.2593 63.769 43.4253 66.603 39.9293 66.603C36.4343 66.603 33.6003 63.769 33.6003 60.273" fill="#D7BFF9"/>
<path id="Fill 3" fill-rule="evenodd" clip-rule="evenodd" d="M77.6597 60.273C77.6597 63.769 74.8257 66.603 71.3307 66.603C67.8347 66.603 65.0007 63.769 65.0007 60.273" fill="#D7BFF9"/>
<path id="Fill 5" fill-rule="evenodd" clip-rule="evenodd" d="M55.6294 74.7271C53.6244 74.7271 51.9994 76.3521 51.9994 78.3571V83.7641H59.2604V78.3571C59.2604 76.3521 57.6354 74.7271 55.6294 74.7271Z" fill="#D7BFF9"/>
<path id="Fill 7" fill-rule="evenodd" clip-rule="evenodd" d="M59.3608 37.8501C59.3608 35.7851 57.6868 34.1111 55.6218 34.1111C53.5568 34.1111 51.8828 35.7851 51.8828 37.8501C51.8828 39.9151 53.5568 41.5891 55.6218 41.5891C57.6868 41.5891 59.3608 39.9151 59.3608 37.8501Z" fill="#D7BFF9"/>
<path id="Fill 9" fill-rule="evenodd" clip-rule="evenodd" d="M53.6294 72.9942C53.2984 72.9942 53.0294 72.7252 53.0294 72.3942V39.2552C53.0294 38.9242 53.2984 38.6552 53.6294 38.6552C53.9604 38.6552 54.2294 38.9242 54.2294 39.2552V72.3942C54.2294 72.7252 53.9604 72.9942 53.6294 72.9942Z" fill="#465056"/>
<path id="Fill 11" fill-rule="evenodd" clip-rule="evenodd" d="M67.7348 82.0308H39.5078C39.1768 82.0308 38.9088 81.7618 38.9088 81.4308C38.9088 81.0988 39.1768 80.8308 39.5078 80.8308H67.7348C68.0658 80.8308 68.3348 81.0988 68.3348 81.4308C68.3348 81.7618 68.0658 82.0308 67.7348 82.0308Z" fill="#465056"/>
<path id="Fill 13" fill-rule="evenodd" clip-rule="evenodd" d="M49.8833 36.1167H37.9293C37.5983 36.1167 37.3293 35.8477 37.3293 35.5167C37.3293 35.1847 37.5983 34.9167 37.9293 34.9167H49.8833C50.2143 34.9167 50.4833 35.1847 50.4833 35.5167C50.4833 35.8477 50.2143 36.1167 49.8833 36.1167Z" fill="#465056"/>
<path id="Fill 15" fill-rule="evenodd" clip-rule="evenodd" d="M69.3139 36.1167H57.3609C57.0299 36.1167 56.7609 35.8477 56.7609 35.5167C56.7609 35.1847 57.0299 34.9167 57.3609 34.9167H69.3139C69.6449 34.9167 69.9139 35.1847 69.9139 35.5167C69.9139 35.8477 69.6449 36.1167 69.3139 36.1167Z" fill="#465056"/>
<path id="Fill 17" fill-rule="evenodd" clip-rule="evenodd" d="M32.3931 57.3394H43.4661L37.9291 37.7254L32.3931 57.3394ZM44.2591 58.5394H31.6001C31.4131 58.5394 31.2351 58.4514 31.1221 58.3014C31.0081 58.1514 30.9711 57.9574 31.0231 57.7764L37.3521 35.3534C37.4241 35.0954 37.6611 34.9164 37.9291 34.9164C38.1981 34.9164 38.4341 35.0954 38.5061 35.3534L44.8361 57.7764C44.8881 57.9574 44.8511 58.1514 44.7381 58.3014C44.6241 58.4514 44.4471 58.5394 44.2591 58.5394Z" fill="#465056"/>
<path id="Fill 19" fill-rule="evenodd" clip-rule="evenodd" d="M63.7934 57.3394H74.8664L69.3304 37.7254L63.7934 57.3394ZM75.6594 58.5394H63.0004C62.8134 58.5394 62.6354 58.4514 62.5224 58.3014C62.4084 58.1514 62.3714 57.9574 62.4234 57.7764L68.7534 35.3534C68.8254 35.0954 69.0624 34.9164 69.3304 34.9164C69.5994 34.9164 69.8354 35.0954 69.9074 35.3534L76.2364 57.7764C76.2884 57.9574 76.2514 58.1514 76.1384 58.3014C76.0244 58.4514 75.8474 58.5394 75.6594 58.5394Z" fill="#465056"/>
<path id="Fill 21" fill-rule="evenodd" clip-rule="evenodd" d="M37.9292 64.8696C34.1092 64.8696 31.0002 61.7606 31.0002 57.9396C31.0002 57.6076 31.2692 57.3396 31.6002 57.3396C31.9312 57.3396 32.2002 57.6076 32.2002 57.9396C32.2002 61.0986 34.7702 63.6696 37.9292 63.6696C41.0882 63.6696 43.6592 61.0986 43.6592 57.9396C43.6592 57.6076 43.9282 57.3396 44.2592 57.3396C44.5902 57.3396 44.8592 57.6076 44.8592 57.9396C44.8592 61.7606 41.7502 64.8696 37.9292 64.8696Z" fill="#465056"/>
<path id="Fill 23" fill-rule="evenodd" clip-rule="evenodd" d="M69.3306 64.8696C65.5096 64.8696 62.4006 61.7606 62.4006 57.9396C62.4006 57.6076 62.6696 57.3396 63.0006 57.3396C63.3316 57.3396 63.6006 57.6076 63.6006 57.9396C63.6006 61.0986 66.1716 63.6696 69.3306 63.6696C72.4896 63.6696 75.0596 61.0986 75.0596 57.9396C75.0596 57.6076 75.3286 57.3396 75.6596 57.3396C75.9906 57.3396 76.2596 57.6076 76.2596 57.9396C76.2596 61.7606 73.1506 64.8696 69.3306 64.8696Z" fill="#465056"/>
<path id="Fill 25" fill-rule="evenodd" clip-rule="evenodd" d="M50.5991 80.8306H56.6611V76.0246C56.6611 74.3536 55.3001 72.9946 53.6291 72.9946C51.9581 72.9946 50.5991 74.3536 50.5991 76.0246V80.8306ZM57.2601 82.0306H49.9991C49.6681 82.0306 49.4001 81.7626 49.4001 81.4306V76.0246C49.4001 73.6916 51.2971 71.7936 53.6291 71.7936C55.9621 71.7936 57.8601 73.6916 57.8601 76.0246V81.4306C57.8601 81.7626 57.5911 82.0306 57.2601 82.0306Z" fill="#465056"/>
<path id="Fill 27" fill-rule="evenodd" clip-rule="evenodd" d="M53.6216 32.3779C51.8916 32.3779 50.4826 33.7859 50.4826 35.5169C50.4826 37.2479 51.8916 38.6549 53.6216 38.6549C55.3526 38.6549 56.7616 37.2479 56.7616 35.5169C56.7616 33.7859 55.3526 32.3779 53.6216 32.3779ZM53.6216 39.8559C51.2286 39.8559 49.2836 37.9089 49.2836 35.5169C49.2836 33.1239 51.2286 31.1779 53.6216 31.1779C56.0146 31.1779 57.9606 33.1239 57.9606 35.5169C57.9606 37.9089 56.0146 39.8559 53.6216 39.8559Z" fill="#465056"/>
<g id="Group 31">
<mask id="mask0" mask-type="alpha" maskUnits="userSpaceOnUse" x="53" y="26" width="2" height="7">
<path id="Clip 30" fill-rule="evenodd" clip-rule="evenodd" d="M54.2216 26.0001H53.0216L53.0216 32.3779H54.2216V26.0001Z" fill="white"/>
</mask>
<g mask="url(#mask0)">
<path id="Fill 29" fill-rule="evenodd" clip-rule="evenodd" d="M53.6216 32.3779C53.2906 32.3779 53.0216 32.1089 53.0216 31.7779V26.5999C53.0216 26.2689 53.2906 25.9999 53.6216 25.9999C53.9526 25.9999 54.2216 26.2689 54.2216 26.5999V31.7779C54.2216 32.1089 53.9526 32.3779 53.6216 32.3779Z" fill="#465056"/>
</g>
</g>
</g>
</g>
</svg>
