<svg width="110" height="110" viewBox="0 0 110 110" fill="none" xmlns="http://www.w3.org/2000/svg">
<g id="i-med">
<rect width="110" height="110" fill="white"/>
<g id="Group 2">
<g id="Group">
<path id="Fill 1" fill-rule="evenodd" clip-rule="evenodd" d="M84.0039 56.5107C84.0039 54.8327 82.6439 53.4717 80.9649 53.4717C79.2859 53.4717 77.9259 54.8327 77.9259 56.5107C77.9259 57.1817 78.1499 57.7957 78.5179 58.2987C78.1499 58.8007 77.9259 59.4147 77.9259 60.0857C77.9259 61.7637 79.2859 63.1247 80.9649 63.1247C82.6439 63.1247 84.0039 61.7637 84.0039 60.0857C84.0039 59.4147 83.7799 58.8007 83.4119 58.2987C83.7799 57.7957 84.0039 57.1817 84.0039 56.5107" fill="#FF483C"/>
<path id="Fill 3" fill-rule="evenodd" clip-rule="evenodd" d="M75.7402 56.5107C75.7402 54.8327 74.3802 53.4717 72.7012 53.4717C71.0232 53.4717 69.6622 54.8327 69.6622 56.5107C69.6622 57.1817 69.8862 57.7957 70.2542 58.2987C69.8862 58.8007 69.6622 59.4147 69.6622 60.0857C69.6622 61.7637 71.0232 63.1247 72.7012 63.1247C74.3802 63.1247 75.7402 61.7637 75.7402 60.0857C75.7402 59.4147 75.5162 58.8007 75.1482 58.2987C75.5162 57.7957 75.7402 57.1817 75.7402 56.5107" fill="#FF483C"/>
<path id="Fill 5" fill-rule="evenodd" clip-rule="evenodd" d="M34.4238 56.5107C34.4238 54.8327 33.0638 53.4717 31.3848 53.4717C29.7058 53.4717 28.3458 54.8327 28.3458 56.5107C28.3458 57.1817 28.5698 57.7957 28.9378 58.2987C28.5698 58.8007 28.3458 59.4147 28.3458 60.0857C28.3458 61.7637 29.7058 63.1247 31.3848 63.1247C33.0638 63.1247 34.4238 61.7637 34.4238 60.0857C34.4238 59.4147 34.1998 58.8007 33.8318 58.2987C34.1998 57.7957 34.4238 57.1817 34.4238 56.5107" fill="#FF483C"/>
<path id="Fill 7" fill-rule="evenodd" clip-rule="evenodd" d="M42.6875 56.5107C42.6875 54.8327 41.3275 53.4717 39.6485 53.4717C37.9695 53.4717 36.6095 54.8327 36.6095 56.5107C36.6095 57.1817 36.8335 57.7957 37.2015 58.2987C36.8335 58.8007 36.6095 59.4147 36.6095 60.0857C36.6095 61.7637 37.9695 63.1247 39.6485 63.1247C41.3275 63.1247 42.6875 61.7637 42.6875 60.0857C42.6875 59.4147 42.4635 58.8007 42.0955 58.2987C42.4635 57.7957 42.6875 57.1817 42.6875 56.5107" fill="#FF483C"/>
<path id="Fill 9" fill-rule="evenodd" clip-rule="evenodd" d="M50.9512 56.5107C50.9512 54.8327 49.5902 53.4717 47.9112 53.4717C46.2332 53.4717 44.8722 54.8327 44.8722 56.5107C44.8722 57.1817 45.0972 57.7957 45.4642 58.2987C45.0972 58.8007 44.8722 59.4147 44.8722 60.0857C44.8722 61.7637 46.2332 63.1247 47.9112 63.1247C49.5902 63.1247 50.9512 61.7637 50.9512 60.0857C50.9512 59.4147 50.7262 58.8007 50.3592 58.2987C50.7262 57.7957 50.9512 57.1817 50.9512 56.5107" fill="#FF483C"/>
<path id="Fill 11" fill-rule="evenodd" clip-rule="evenodd" d="M59.2139 56.5107C59.2139 54.8327 57.8539 53.4717 56.1749 53.4717C54.4959 53.4717 53.1359 54.8327 53.1359 56.5107C53.1359 57.1817 53.3599 57.7957 53.7279 58.2987C53.3599 58.8007 53.1359 59.4147 53.1359 60.0857C53.1359 61.7637 54.4959 63.1247 56.1749 63.1247C57.8539 63.1247 59.2139 61.7637 59.2139 60.0857C59.2139 59.4147 58.9899 58.8007 58.6219 58.2987C58.9899 57.7957 59.2139 57.1817 59.2139 56.5107" fill="#FF483C"/>
<path id="Fill 13" fill-rule="evenodd" clip-rule="evenodd" d="M67.4775 56.5107C67.4775 54.8327 66.1175 53.4717 64.4385 53.4717C62.7595 53.4717 61.3995 54.8327 61.3995 56.5107C61.3995 57.1817 61.6235 57.7957 61.9915 58.2987C61.6235 58.8007 61.3995 59.4147 61.3995 60.0857C61.3995 61.7637 62.7595 63.1247 64.4385 63.1247C66.1175 63.1247 67.4775 61.7637 67.4775 60.0857C67.4775 59.4147 67.2525 58.8007 66.8855 58.2987C67.2525 57.7957 67.4775 57.1817 67.4775 56.5107" fill="#FF483C"/>
<path id="Fill 15" fill-rule="evenodd" clip-rule="evenodd" d="M62.251 41.1494C58.692 36.5184 56.054 33.0914 56.054 33.0914C56.054 33.0914 53.53 36.3684 50.091 40.8444" fill="#FF483C"/>
<path id="Fill 17" fill-rule="evenodd" clip-rule="evenodd" d="M74.4561 40.9033C70.9941 36.3973 68.4491 33.0913 68.4491 33.0913C68.4491 33.0913 65.8101 36.5183 62.2511 41.1503" fill="#FF483C"/>
<path id="Fill 19" fill-rule="evenodd" clip-rule="evenodd" d="M37.7725 40.9004C41.2335 36.3964 43.7775 33.0914 43.7775 33.0914C43.7775 33.0914 46.4165 36.5184 49.9755 41.1504" fill="#FF483C"/>
<path id="Fill 21" fill-rule="evenodd" clip-rule="evenodd" d="M62.251 40.8442L59.205 44.9662L56.159 40.8442H56.067L53.022 44.9662L49.976 40.8442" fill="#FF483C"/>
<path id="Fill 23" fill-rule="evenodd" clip-rule="evenodd" d="M74.5313 40.8442L71.4853 44.9662L68.4393 40.8442H68.3473L65.3023 44.9662L62.2563 40.8442" fill="#FF483C"/>
<path id="Fill 25" fill-rule="evenodd" clip-rule="evenodd" d="M49.9756 40.8442L46.9286 44.9662L43.8826 40.8442H43.7916L40.7456 44.9662L37.6996 40.8442" fill="#FF483C"/>
</g>
<path id="Fill 27" fill-rule="evenodd" clip-rule="evenodd" d="M84.75 67.9853H23.6C23.269 67.9853 23 67.7163 23 67.3853C23 67.0533 23.269 66.7853 23.6 66.7853H84.75C85.081 66.7853 85.35 67.0533 85.35 67.3853C85.35 67.7163 85.081 67.9853 84.75 67.9853" fill="#263238"/>
<path id="Fill 29" fill-rule="evenodd" clip-rule="evenodd" d="M78.9648 67.9853C78.6338 67.9853 78.3648 67.7163 78.3648 67.3853V60.0583C78.3648 59.7273 78.6338 59.4583 78.9648 59.4583C79.2958 59.4583 79.5648 59.7273 79.5648 60.0583V67.3853C79.5648 67.7163 79.2958 67.9853 78.9648 67.9853" fill="#263238"/>
<path id="Fill 31" fill-rule="evenodd" clip-rule="evenodd" d="M78.9648 51.5615C77.6198 51.5615 76.5258 52.6555 76.5258 54.0005C76.5258 54.5125 76.6908 55.0085 77.0018 55.4335C77.1558 55.6445 77.1558 55.9315 77.0018 56.1425C76.6908 56.5675 76.5258 57.0625 76.5258 57.5755C76.5258 58.9205 77.6198 60.0145 78.9648 60.0145C80.3098 60.0145 81.4038 58.9205 81.4038 57.5755C81.4038 57.0625 81.2388 56.5675 80.9278 56.1425C80.7738 55.9315 80.7738 55.6445 80.9278 55.4335C81.2388 55.0085 81.4038 54.5125 81.4038 54.0005C81.4038 52.6555 80.3098 51.5615 78.9648 51.5615M78.9648 61.2145C76.9578 61.2145 75.3258 59.5825 75.3258 57.5755C75.3258 56.9455 75.4888 56.3355 75.8028 55.7885C75.4888 55.2405 75.3258 54.6295 75.3258 54.0005C75.3258 51.9945 76.9578 50.3615 78.9648 50.3615C80.9718 50.3615 82.6038 51.9945 82.6038 54.0005C82.6038 54.6295 82.4408 55.2405 82.1268 55.7885C82.4408 56.3355 82.6038 56.9455 82.6038 57.5755C82.6038 59.5825 80.9718 61.2145 78.9648 61.2145" fill="#263238"/>
<path id="Fill 33" fill-rule="evenodd" clip-rule="evenodd" d="M70.7012 67.9853C70.3702 67.9853 70.1012 67.7163 70.1012 67.3853V60.0583C70.1012 59.7273 70.3702 59.4583 70.7012 59.4583C71.0322 59.4583 71.3012 59.7273 71.3012 60.0583V67.3853C71.3012 67.7163 71.0322 67.9853 70.7012 67.9853" fill="#263238"/>
<path id="Fill 35" fill-rule="evenodd" clip-rule="evenodd" d="M70.7012 51.5615C69.3562 51.5615 68.2622 52.6555 68.2622 54.0005C68.2622 54.5115 68.4272 55.0075 68.7382 55.4345C68.8922 55.6445 68.8922 55.9315 68.7382 56.1425C68.4272 56.5685 68.2622 57.0635 68.2622 57.5755C68.2622 58.9205 69.3562 60.0145 70.7012 60.0145C72.0462 60.0145 73.1402 58.9205 73.1402 57.5755C73.1402 57.0625 72.9752 56.5675 72.6642 56.1425C72.5102 55.9315 72.5102 55.6445 72.6642 55.4335C72.9752 55.0085 73.1402 54.5125 73.1402 54.0005C73.1402 52.6555 72.0462 51.5615 70.7012 51.5615M70.7012 61.2145C68.6942 61.2145 67.0622 59.5825 67.0622 57.5755C67.0622 56.9465 67.2262 56.3365 67.5402 55.7885C67.2262 55.2395 67.0622 54.6285 67.0622 54.0005C67.0622 51.9945 68.6942 50.3615 70.7012 50.3615C72.7082 50.3615 74.3402 51.9945 74.3402 54.0005C74.3402 54.6295 74.1772 55.2405 73.8632 55.7885C74.1772 56.3355 74.3402 56.9455 74.3402 57.5755C74.3402 59.5825 72.7082 61.2145 70.7012 61.2145" fill="#263238"/>
<path id="Fill 37" fill-rule="evenodd" clip-rule="evenodd" d="M29.3848 67.9853C29.0538 67.9853 28.7848 67.7163 28.7848 67.3853V60.0583C28.7848 59.7273 29.0538 59.4583 29.3848 59.4583C29.7158 59.4583 29.9848 59.7273 29.9848 60.0583V67.3853C29.9848 67.7163 29.7158 67.9853 29.3848 67.9853" fill="#263238"/>
<path id="Fill 39" fill-rule="evenodd" clip-rule="evenodd" d="M29.3848 51.5615C28.0398 51.5615 26.9458 52.6555 26.9458 54.0005C26.9458 54.5125 27.1108 55.0085 27.4218 55.4335C27.5758 55.6445 27.5758 55.9315 27.4218 56.1425C27.1108 56.5675 26.9458 57.0625 26.9458 57.5755C26.9458 58.9205 28.0398 60.0145 29.3848 60.0145C30.7298 60.0145 31.8238 58.9205 31.8238 57.5755C31.8238 57.0625 31.6588 56.5675 31.3478 56.1425C31.1938 55.9315 31.1938 55.6445 31.3478 55.4335C31.6588 55.0085 31.8238 54.5125 31.8238 54.0005C31.8238 52.6555 30.7298 51.5615 29.3848 51.5615M29.3848 61.2145C27.3778 61.2145 25.7458 59.5825 25.7458 57.5755C25.7458 56.9455 25.9088 56.3355 26.2228 55.7885C25.9088 55.2405 25.7458 54.6295 25.7458 54.0005C25.7458 51.9945 27.3778 50.3615 29.3848 50.3615C31.3918 50.3615 33.0238 51.9945 33.0238 54.0005C33.0238 54.6295 32.8608 55.2405 32.5468 55.7885C32.8608 56.3355 33.0238 56.9455 33.0238 57.5755C33.0238 59.5825 31.3918 61.2145 29.3848 61.2145" fill="#263238"/>
<path id="Fill 41" fill-rule="evenodd" clip-rule="evenodd" d="M37.6484 67.9853C37.3174 67.9853 37.0484 67.7163 37.0484 67.3853V60.0583C37.0484 59.7273 37.3174 59.4583 37.6484 59.4583C37.9794 59.4583 38.2484 59.7273 38.2484 60.0583V67.3853C38.2484 67.7163 37.9794 67.9853 37.6484 67.9853" fill="#263238"/>
<path id="Fill 43" fill-rule="evenodd" clip-rule="evenodd" d="M37.6484 51.5615C36.3034 51.5615 35.2094 52.6555 35.2094 54.0005C35.2094 54.5125 35.3744 55.0085 35.6854 55.4335C35.8394 55.6445 35.8394 55.9315 35.6854 56.1425C35.3744 56.5675 35.2094 57.0625 35.2094 57.5755C35.2094 58.9205 36.3034 60.0145 37.6484 60.0145C38.9934 60.0145 40.0874 58.9205 40.0874 57.5755C40.0874 57.0625 39.9224 56.5675 39.6114 56.1425C39.4574 55.9315 39.4574 55.6445 39.6114 55.4335C39.9224 55.0085 40.0874 54.5125 40.0874 54.0005C40.0874 52.6555 38.9934 51.5615 37.6484 51.5615M37.6484 61.2145C35.6414 61.2145 34.0094 59.5825 34.0094 57.5755C34.0094 56.9455 34.1724 56.3355 34.4864 55.7885C34.1724 55.2405 34.0094 54.6295 34.0094 54.0005C34.0094 51.9945 35.6414 50.3615 37.6484 50.3615C39.6554 50.3615 41.2874 51.9945 41.2874 54.0005C41.2874 54.6295 41.1244 55.2405 40.8104 55.7885C41.1244 56.3355 41.2874 56.9455 41.2874 57.5755C41.2874 59.5825 39.6554 61.2145 37.6484 61.2145" fill="#263238"/>
<path id="Fill 45" fill-rule="evenodd" clip-rule="evenodd" d="M45.9111 67.9853C45.5801 67.9853 45.3111 67.7163 45.3111 67.3853V60.0583C45.3111 59.7273 45.5801 59.4583 45.9111 59.4583C46.2421 59.4583 46.5111 59.7273 46.5111 60.0583V67.3853C46.5111 67.7163 46.2421 67.9853 45.9111 67.9853" fill="#263238"/>
<path id="Fill 47" fill-rule="evenodd" clip-rule="evenodd" d="M45.9111 51.5615C44.5661 51.5615 43.4721 52.6555 43.4721 54.0005C43.4721 54.5115 43.6371 55.0075 43.9481 55.4345C44.1021 55.6445 44.1021 55.9315 43.9481 56.1425C43.6371 56.5685 43.4721 57.0635 43.4721 57.5755C43.4721 58.9205 44.5661 60.0145 45.9111 60.0145C47.2571 60.0145 48.3511 58.9205 48.3511 57.5755C48.3511 57.0635 48.1861 56.5685 47.8751 56.1425C47.7211 55.9315 47.7211 55.6445 47.8751 55.4345C48.1861 55.0075 48.3511 54.5115 48.3511 54.0005C48.3511 52.6555 47.2571 51.5615 45.9111 51.5615M45.9111 61.2145C43.9041 61.2145 42.2721 59.5825 42.2721 57.5755C42.2721 56.9465 42.4361 56.3365 42.7501 55.7885C42.4361 55.2395 42.2721 54.6285 42.2721 54.0005C42.2721 51.9945 43.9041 50.3615 45.9111 50.3615C47.9181 50.3615 49.5511 51.9945 49.5511 54.0005C49.5511 54.6285 49.3871 55.2395 49.0731 55.7885C49.3871 56.3365 49.5511 56.9465 49.5511 57.5755C49.5511 59.5825 47.9181 61.2145 45.9111 61.2145" fill="#263238"/>
<path id="Fill 49" fill-rule="evenodd" clip-rule="evenodd" d="M54.1748 67.9853C53.8438 67.9853 53.5748 67.7163 53.5748 67.3853V60.0583C53.5748 59.7273 53.8438 59.4583 54.1748 59.4583C54.5058 59.4583 54.7748 59.7273 54.7748 60.0583V67.3853C54.7748 67.7163 54.5058 67.9853 54.1748 67.9853" fill="#263238"/>
<path id="Fill 51" fill-rule="evenodd" clip-rule="evenodd" d="M54.1748 51.5615C52.8298 51.5615 51.7358 52.6555 51.7358 54.0005C51.7358 54.5125 51.9008 55.0085 52.2118 55.4335C52.3658 55.6445 52.3658 55.9315 52.2118 56.1425C51.9008 56.5675 51.7358 57.0625 51.7358 57.5755C51.7358 58.9205 52.8298 60.0145 54.1748 60.0145C55.5198 60.0145 56.6138 58.9205 56.6138 57.5755C56.6138 57.0625 56.4488 56.5675 56.1378 56.1425C55.9838 55.9315 55.9838 55.6445 56.1378 55.4335C56.4488 55.0085 56.6138 54.5125 56.6138 54.0005C56.6138 52.6555 55.5198 51.5615 54.1748 51.5615M54.1748 61.2145C52.1678 61.2145 50.5358 59.5825 50.5358 57.5755C50.5358 56.9455 50.6988 56.3355 51.0128 55.7885C50.6988 55.2405 50.5358 54.6295 50.5358 54.0005C50.5358 51.9945 52.1678 50.3615 54.1748 50.3615C56.1818 50.3615 57.8138 51.9945 57.8138 54.0005C57.8138 54.6295 57.6508 55.2405 57.3368 55.7885C57.6508 56.3355 57.8138 56.9455 57.8138 57.5755C57.8138 59.5825 56.1818 61.2145 54.1748 61.2145" fill="#263238"/>
<path id="Fill 53" fill-rule="evenodd" clip-rule="evenodd" d="M62.4385 67.9853C62.1075 67.9853 61.8385 67.7163 61.8385 67.3853V60.0583C61.8385 59.7273 62.1075 59.4583 62.4385 59.4583C62.7695 59.4583 63.0385 59.7273 63.0385 60.0583V67.3853C63.0385 67.7163 62.7695 67.9853 62.4385 67.9853" fill="#263238"/>
<path id="Fill 55" fill-rule="evenodd" clip-rule="evenodd" d="M62.4385 51.5615C61.0935 51.5615 59.9995 52.6555 59.9995 54.0005C59.9995 54.5125 60.1645 55.0085 60.4755 55.4335C60.6295 55.6445 60.6295 55.9315 60.4755 56.1425C60.1645 56.5675 59.9995 57.0625 59.9995 57.5755C59.9995 58.9205 61.0935 60.0145 62.4385 60.0145C63.7835 60.0145 64.8775 58.9205 64.8775 57.5755C64.8775 57.0635 64.7125 56.5685 64.4015 56.1425C64.2475 55.9315 64.2475 55.6445 64.4015 55.4345C64.7125 55.0075 64.8775 54.5115 64.8775 54.0005C64.8775 52.6555 63.7835 51.5615 62.4385 51.5615M62.4385 61.2145C60.4315 61.2145 58.7995 59.5825 58.7995 57.5755C58.7995 56.9455 58.9625 56.3355 59.2765 55.7885C58.9625 55.2405 58.7995 54.6295 58.7995 54.0005C58.7995 51.9945 60.4315 50.3615 62.4385 50.3615C64.4455 50.3615 66.0775 51.9945 66.0775 54.0005C66.0775 54.6285 65.9135 55.2395 65.5995 55.7885C65.9135 56.3365 66.0775 56.9465 66.0775 57.5755C66.0775 59.5825 64.4455 61.2145 62.4385 61.2145" fill="#263238"/>
<path id="Fill 57" fill-rule="evenodd" clip-rule="evenodd" d="M29.2217 73.7095C27.1707 73.7095 25.5027 72.0415 25.5027 69.9905C25.5027 69.6585 25.7717 69.3905 26.1027 69.3905C26.4337 69.3905 26.7017 69.6585 26.7017 69.9905C26.7017 71.3795 27.8327 72.5095 29.2217 72.5095C30.6107 72.5095 31.7417 71.3795 31.7417 69.9905C31.7417 69.6585 32.0097 69.3905 32.3407 69.3905C32.6717 69.3905 32.9407 69.6585 32.9407 69.9905C32.9407 72.0415 31.2727 73.7095 29.2217 73.7095" fill="#263238"/>
<path id="Fill 59" fill-rule="evenodd" clip-rule="evenodd" d="M35.46 73.7095C33.409 73.7095 31.741 72.0415 31.741 69.9905C31.741 69.6585 32.01 69.3905 32.341 69.3905C32.672 69.3905 32.94 69.6585 32.94 69.9905C32.94 71.3795 34.071 72.5095 35.46 72.5095C36.849 72.5095 37.98 71.3795 37.98 69.9905C37.98 69.6585 38.248 69.3905 38.579 69.3905C38.91 69.3905 39.179 69.6585 39.179 69.9905C39.179 72.0415 37.511 73.7095 35.46 73.7095" fill="#263238"/>
<path id="Fill 61" fill-rule="evenodd" clip-rule="evenodd" d="M41.6982 73.7095C39.6472 73.7095 37.9792 72.0415 37.9792 69.9905C37.9792 69.6585 38.2482 69.3905 38.5792 69.3905C38.9102 69.3905 39.1782 69.6585 39.1782 69.9905C39.1782 71.3795 40.3092 72.5095 41.6982 72.5095C43.0872 72.5095 44.2182 71.3795 44.2182 69.9905C44.2182 69.6585 44.4862 69.3905 44.8172 69.3905C45.1482 69.3905 45.4172 69.6585 45.4172 69.9905C45.4172 72.0415 43.7492 73.7095 41.6982 73.7095" fill="#263238"/>
<path id="Fill 63" fill-rule="evenodd" clip-rule="evenodd" d="M47.9365 73.7095C45.8855 73.7095 44.2175 72.0415 44.2175 69.9905C44.2175 69.6585 44.4865 69.3905 44.8175 69.3905C45.1485 69.3905 45.4165 69.6585 45.4165 69.9905C45.4165 71.3795 46.5475 72.5095 47.9365 72.5095C49.3255 72.5095 50.4565 71.3795 50.4565 69.9905C50.4565 69.6585 50.7245 69.3905 51.0555 69.3905C51.3865 69.3905 51.6555 69.6585 51.6555 69.9905C51.6555 72.0415 49.9875 73.7095 47.9365 73.7095" fill="#263238"/>
<path id="Fill 65" fill-rule="evenodd" clip-rule="evenodd" d="M54.1748 73.7095C52.1238 73.7095 50.4558 72.0415 50.4558 69.9905C50.4558 69.6585 50.7248 69.3905 51.0558 69.3905C51.3868 69.3905 51.6548 69.6585 51.6548 69.9905C51.6548 71.3795 52.7858 72.5095 54.1748 72.5095C55.5638 72.5095 56.6948 71.3795 56.6948 69.9905C56.6948 69.6585 56.9628 69.3905 57.2938 69.3905C57.6248 69.3905 57.8938 69.6585 57.8938 69.9905C57.8938 72.0415 56.2258 73.7095 54.1748 73.7095" fill="#263238"/>
<path id="Fill 67" fill-rule="evenodd" clip-rule="evenodd" d="M60.4131 73.7095C58.3621 73.7095 56.6941 72.0415 56.6941 69.9905C56.6941 69.6585 56.9631 69.3905 57.2941 69.3905C57.6251 69.3905 57.8931 69.6585 57.8931 69.9905C57.8931 71.3795 59.0241 72.5095 60.4131 72.5095C61.8021 72.5095 62.9331 71.3795 62.9331 69.9905C62.9331 69.6585 63.2011 69.3905 63.5321 69.3905C63.8631 69.3905 64.1321 69.6585 64.1321 69.9905C64.1321 72.0415 62.4641 73.7095 60.4131 73.7095" fill="#263238"/>
<path id="Fill 69" fill-rule="evenodd" clip-rule="evenodd" d="M66.6514 73.7095C64.6004 73.7095 62.9324 72.0415 62.9324 69.9905C62.9324 69.6585 63.2014 69.3905 63.5324 69.3905C63.8634 69.3905 64.1314 69.6585 64.1314 69.9905C64.1314 71.3795 65.2624 72.5095 66.6514 72.5095C68.0404 72.5095 69.1714 71.3795 69.1714 69.9905C69.1714 69.6585 69.4394 69.3905 69.7704 69.3905C70.1014 69.3905 70.3704 69.6585 70.3704 69.9905C70.3704 72.0415 68.7024 73.7095 66.6514 73.7095" fill="#263238"/>
<path id="Fill 71" fill-rule="evenodd" clip-rule="evenodd" d="M72.8896 73.7095C70.8386 73.7095 69.1706 72.0415 69.1706 69.9905C69.1706 69.6585 69.4396 69.3905 69.7706 69.3905C70.1016 69.3905 70.3696 69.6585 70.3696 69.9905C70.3696 71.3795 71.5006 72.5095 72.8896 72.5095C74.2786 72.5095 75.4096 71.3795 75.4096 69.9905C75.4096 69.6585 75.6776 69.3905 76.0086 69.3905C76.3396 69.3905 76.6086 69.6585 76.6086 69.9905C76.6086 72.0415 74.9406 73.7095 72.8896 73.7095" fill="#263238"/>
<path id="Fill 73" fill-rule="evenodd" clip-rule="evenodd" d="M79.1279 73.7095C77.0769 73.7095 75.4089 72.0415 75.4089 69.9905C75.4089 69.6585 75.6779 69.3905 76.0089 69.3905C76.3399 69.3905 76.6079 69.6585 76.6079 69.9905C76.6079 71.3795 77.7389 72.5095 79.1279 72.5095C80.5179 72.5095 81.6489 71.3795 81.6489 69.9905C81.6489 69.6585 81.9169 69.3905 82.2479 69.3905C82.5789 69.3905 82.8479 69.6585 82.8479 69.9905C82.8479 72.0415 81.1799 73.7095 79.1279 73.7095" fill="#263238"/>
<path id="Fill 75" fill-rule="evenodd" clip-rule="evenodd" d="M32.3408 79.4331C30.2898 79.4331 28.6218 77.7651 28.6218 75.7141C28.6218 75.3821 28.8908 75.1141 29.2218 75.1141C29.5528 75.1141 29.8208 75.3821 29.8208 75.7141C29.8208 77.1031 30.9518 78.2331 32.3408 78.2331C33.7298 78.2331 34.8608 77.1031 34.8608 75.7141C34.8608 75.3821 35.1288 75.1141 35.4598 75.1141C35.7908 75.1141 36.0598 75.3821 36.0598 75.7141C36.0598 77.7651 34.3918 79.4331 32.3408 79.4331" fill="#263238"/>
<path id="Fill 77" fill-rule="evenodd" clip-rule="evenodd" d="M38.5791 79.4331C36.5281 79.4331 34.8601 77.7651 34.8601 75.7141C34.8601 75.3821 35.1291 75.1141 35.4601 75.1141C35.7911 75.1141 36.0591 75.3821 36.0591 75.7141C36.0591 77.1031 37.1901 78.2331 38.5791 78.2331C39.9681 78.2331 41.0991 77.1031 41.0991 75.7141C41.0991 75.3821 41.3671 75.1141 41.6981 75.1141C42.0291 75.1141 42.2981 75.3821 42.2981 75.7141C42.2981 77.7651 40.6301 79.4331 38.5791 79.4331" fill="#263238"/>
<path id="Fill 79" fill-rule="evenodd" clip-rule="evenodd" d="M44.8174 79.4331C42.7664 79.4331 41.0984 77.7651 41.0984 75.7141C41.0984 75.3821 41.3674 75.1141 41.6984 75.1141C42.0294 75.1141 42.2974 75.3821 42.2974 75.7141C42.2974 77.1031 43.4284 78.2331 44.8174 78.2331C46.2064 78.2331 47.3374 77.1031 47.3374 75.7141C47.3374 75.3821 47.6054 75.1141 47.9364 75.1141C48.2674 75.1141 48.5364 75.3821 48.5364 75.7141C48.5364 77.7651 46.8684 79.4331 44.8174 79.4331" fill="#263238"/>
<path id="Fill 81" fill-rule="evenodd" clip-rule="evenodd" d="M51.0557 79.4331C49.0047 79.4331 47.3367 77.7651 47.3367 75.7141C47.3367 75.3821 47.6057 75.1141 47.9367 75.1141C48.2677 75.1141 48.5357 75.3821 48.5357 75.7141C48.5357 77.1031 49.6667 78.2331 51.0557 78.2331C52.4447 78.2331 53.5757 77.1031 53.5757 75.7141C53.5757 75.3821 53.8437 75.1141 54.1747 75.1141C54.5057 75.1141 54.7747 75.3821 54.7747 75.7141C54.7747 77.7651 53.1067 79.4331 51.0557 79.4331" fill="#263238"/>
<path id="Fill 83" fill-rule="evenodd" clip-rule="evenodd" d="M57.2939 79.4331C55.2429 79.4331 53.5749 77.7651 53.5749 75.7141C53.5749 75.3821 53.8439 75.1141 54.1749 75.1141C54.5059 75.1141 54.7739 75.3821 54.7739 75.7141C54.7739 77.1031 55.9049 78.2331 57.2939 78.2331C58.6829 78.2331 59.8139 77.1031 59.8139 75.7141C59.8139 75.3821 60.0819 75.1141 60.4129 75.1141C60.7439 75.1141 61.0129 75.3821 61.0129 75.7141C61.0129 77.7651 59.3449 79.4331 57.2939 79.4331" fill="#263238"/>
<path id="Fill 85" fill-rule="evenodd" clip-rule="evenodd" d="M63.5322 79.4331C61.4812 79.4331 59.8132 77.7651 59.8132 75.7141C59.8132 75.3821 60.0822 75.1141 60.4132 75.1141C60.7442 75.1141 61.0122 75.3821 61.0122 75.7141C61.0122 77.1031 62.1432 78.2331 63.5322 78.2331C64.9212 78.2331 66.0522 77.1031 66.0522 75.7141C66.0522 75.3821 66.3202 75.1141 66.6512 75.1141C66.9822 75.1141 67.2512 75.3821 67.2512 75.7141C67.2512 77.7651 65.5832 79.4331 63.5322 79.4331" fill="#263238"/>
<path id="Fill 87" fill-rule="evenodd" clip-rule="evenodd" d="M69.7705 79.4331C67.7195 79.4331 66.0515 77.7651 66.0515 75.7141C66.0515 75.3821 66.3205 75.1141 66.6515 75.1141C66.9825 75.1141 67.2505 75.3821 67.2505 75.7141C67.2505 77.1031 68.3815 78.2331 69.7705 78.2331C71.1595 78.2331 72.2905 77.1031 72.2905 75.7141C72.2905 75.3821 72.5585 75.1141 72.8895 75.1141C73.2205 75.1141 73.4895 75.3821 73.4895 75.7141C73.4895 77.7651 71.8215 79.4331 69.7705 79.4331" fill="#263238"/>
<path id="Fill 89" fill-rule="evenodd" clip-rule="evenodd" d="M76.0088 79.4331C73.9578 79.4331 72.2898 77.7651 72.2898 75.7141C72.2898 75.3821 72.5588 75.1141 72.8898 75.1141C73.2208 75.1141 73.4888 75.3821 73.4888 75.7141C73.4888 77.1031 74.6198 78.2331 76.0088 78.2331C77.3978 78.2331 78.5288 77.1031 78.5288 75.7141C78.5288 75.3821 78.7968 75.1141 79.1278 75.1141C79.4588 75.1141 79.7278 75.3821 79.7278 75.7141C79.7278 77.7651 78.0598 79.4331 76.0088 79.4331" fill="#263238"/>
<path id="Fill 91" fill-rule="evenodd" clip-rule="evenodd" d="M40.1836 49.3374C40.0556 49.3374 39.9276 49.2964 39.8186 49.2134C39.5556 49.0124 39.5056 48.6354 39.7066 48.3724C46.3846 39.6574 53.6396 30.2334 53.6396 30.2334C53.8666 29.9394 54.3646 29.9394 54.5906 30.2334C54.5906 30.2334 61.8456 39.6574 68.5246 48.3724C68.7256 48.6354 68.6756 49.0124 68.4126 49.2134C68.1516 49.4144 67.7746 49.3664 67.5716 49.1024C61.9096 41.7124 55.8316 33.8144 54.1156 31.5834C52.3986 33.8144 46.3216 41.7124 40.6606 49.1024C40.5416 49.2564 40.3636 49.3374 40.1836 49.3374" fill="#263238"/>
<path id="Fill 93" fill-rule="evenodd" clip-rule="evenodd" d="M80.4424 49.3374C80.2624 49.3374 80.0844 49.2564 79.9654 49.1024C74.3044 41.7124 68.2274 33.8154 66.5104 31.5844L60.7884 39.0244C60.5864 39.2884 60.2084 39.3364 59.9474 39.1344C59.6844 38.9324 59.6344 38.5554 59.8374 38.2934L66.0354 30.2334C66.2634 29.9394 66.7594 29.9394 66.9864 30.2334C66.9864 30.2334 74.2414 39.6574 80.9194 48.3724C81.1204 48.6354 81.0704 49.0124 80.8074 49.2134C80.6984 49.2964 80.5704 49.3374 80.4424 49.3374" fill="#263238"/>
<path id="Fill 95" fill-rule="evenodd" clip-rule="evenodd" d="M27.9072 49.3374C27.7792 49.3374 27.6512 49.2964 27.5422 49.2134C27.2792 49.0124 27.2292 48.6354 27.4302 48.3724C34.1082 39.6574 41.3642 30.2334 41.3642 30.2334C41.4782 30.0864 41.6532 30.0004 41.8402 30.0004C42.0262 30.0004 42.2022 30.0864 42.3152 30.2334L48.5122 38.2934C48.7152 38.5554 48.6652 38.9324 48.4022 39.1344C48.1422 39.3374 47.7632 39.2884 47.5612 39.0244L41.8402 31.5844C40.1222 33.8154 34.0452 41.7124 28.3842 49.1024C28.2652 49.2564 28.0872 49.3374 27.9072 49.3374" fill="#263238"/>
<path id="Fill 97" fill-rule="evenodd" clip-rule="evenodd" d="M57.2666 43.0747C57.0766 43.0747 56.8976 42.9847 56.7846 42.8307L54.1746 39.2997L51.5656 42.8307C51.3386 43.1377 50.8276 43.1377 50.6006 42.8307L47.5546 38.7087C47.3576 38.4427 47.4136 38.0667 47.6806 37.8697C47.9466 37.6717 48.3226 37.7287 48.5196 37.9957L51.0826 41.4647L53.6466 37.9957C53.7596 37.8427 53.9386 37.7527 54.1286 37.7527C54.3196 37.7527 54.5896 37.8427 54.7036 37.9957L57.2666 41.4647L59.8296 37.9957C60.0266 37.7297 60.4036 37.6727 60.6686 37.8697C60.9356 38.0667 60.9926 38.4427 60.7946 38.7087L57.7486 42.8307C57.6356 42.9847 57.4566 43.0747 57.2666 43.0747" fill="#263238"/>
<path id="Fill 99" fill-rule="evenodd" clip-rule="evenodd" d="M69.5469 43.0747V43.0747C69.3569 43.0747 69.1779 42.9847 69.0649 42.8307L66.4549 39.3007L63.8459 42.8307C63.7329 42.9847 63.5539 43.0747 63.3629 43.0747C63.1729 43.0747 62.9939 42.9847 62.8809 42.8307L59.8349 38.7087C59.6379 38.4427 59.6939 38.0667 59.9609 37.8697C60.2269 37.6717 60.6039 37.7287 60.7999 37.9957L63.3629 41.4657L65.9279 37.9957C66.0409 37.8427 66.2199 37.7527 66.4099 37.7527C66.6009 37.7527 66.8699 37.8427 66.9839 37.9957L69.5469 41.4657L72.1109 37.9957C72.3089 37.7297 72.6849 37.6727 72.9499 37.8697C73.2169 38.0667 73.2739 38.4427 73.0759 38.7087L70.0289 42.8307C69.9159 42.9847 69.7369 43.0747 69.5469 43.0747" fill="#263238"/>
<path id="Fill 101" fill-rule="evenodd" clip-rule="evenodd" d="M44.9912 43.0747C44.8012 43.0747 44.6222 42.9847 44.5092 42.8307L41.8992 39.3007L39.2902 42.8307C39.0632 43.1377 38.5522 43.1377 38.3252 42.8307L35.2782 38.7087C35.0812 38.4427 35.1372 38.0667 35.4042 37.8697C35.6712 37.6717 36.0462 37.7287 36.2432 37.9957L38.8072 41.4657L41.3712 37.9957C41.4842 37.8427 41.6632 37.7527 41.8532 37.7527C42.0442 37.7527 42.3132 37.8427 42.4272 37.9957L44.9912 41.4657L47.5542 37.9957C47.7512 37.7297 48.1282 37.6727 48.3932 37.8697C48.6602 38.0667 48.7172 38.4427 48.5192 38.7087L45.4732 42.8307C45.3602 42.9847 45.1812 43.0747 44.9912 43.0747" fill="#263238"/>
</g>
</g>
</svg>
