<?xml version="1.0" encoding="UTF-8" standalone="no"?>
<svg width="100px" height="100px" viewBox="0 0 100 100" version="1.1" xmlns="http://www.w3.org/2000/svg" xmlns:xlink="http://www.w3.org/1999/xlink">
    <!-- Generator: Sketch 41.2 (35397) - http://www.bohemiancoding.com/sketch -->
    <title>Artboard Copy 57</title>
    <desc>Created with Sketch.</desc>
    <defs>
        <polygon id="path-1" points="0.5919 39 59.3059 39 59.3059 0.0551110956 0.5919 0.0551110956 0.5919 39"></polygon>
        <polygon id="path-3" points="15.0184901 0.125 0.878709901 0.125 0.878709901 15.147 15.0184901 15.147 15.0184901 0.125"></polygon>
    </defs>
    <g id="Welcome" stroke="none" stroke-width="1" fill="none" fill-rule="evenodd">
        <g id="Artboard-Copy-57">
            <g id="Page-1-Copy" transform="translate(19.000000, 29.000000)">
                <g id="Group-3" transform="translate(2.000000, 3.874800)">
                    <mask id="mask-2" fill="white">
                        <use xlink:href="#path-1"></use>
                    </mask>
                    <g id="Clip-2"></g>
                    <path d="M56.7949,32.3132 L56.7889,30.2372 L56.7759,30.2372 C56.6289,17.6252 47.7999,7.1102 35.9939,4.3872 L36.3339,0.8572 C34.2569,0.3472 32.0969,0.0492 29.8609,0.0552 C27.6259,0.0602 25.4679,0.3692 23.3939,0.8892 L23.7509,4.4162 C11.9579,7.1982 3.1809,17.7562 3.0949,30.3692 L3.0819,30.3692 L3.0869,32.4452 L0.5919,32.4512 L0.6069,39.0002 L59.3059,38.8562 L59.2889,32.3072 L56.7949,32.3132 Z" id="Fill-1" fill="#307CBF" mask="url(#mask-2)"></path>
                </g>
                <path d="M3.0947,34.5205 C2.7637,34.5205 2.4947,34.2515 2.4947,33.9205 L2.4947,31.8445 C2.4947,31.7995 2.4997,31.7555 2.5087,31.7145 C2.6817,19.0585 11.3757,8.2305 23.6907,5.3575 C24.0097,5.2845 24.3357,5.4825 24.4107,5.8065 C24.4867,6.1285 24.2857,6.4515 23.9637,6.5265 C12.1497,9.2825 3.8197,19.6955 3.7067,31.8495 C3.7067,31.8905 3.7027,31.9295 3.6947,31.9675 L3.6947,33.9205 C3.6947,34.2515 3.4257,34.5205 3.0947,34.5205" id="Fill-4" fill="#0C1423"></path>
                <path d="M56.8027,34.5205 C56.4717,34.5205 56.2027,34.2515 56.2027,33.9205 L56.2027,31.9655 C56.1947,31.9275 56.1907,31.8895 56.1907,31.8495 C56.0767,19.6905 47.7427,9.2765 35.9237,6.5245 C35.6007,6.4495 35.4007,6.1265 35.4757,5.8035 C35.5507,5.4805 35.8767,5.2805 36.1957,5.3555 C48.5177,8.2255 57.2167,19.0545 57.3887,31.7165 C57.3977,31.7575 57.4027,31.8005 57.4027,31.8445 L57.4027,33.9205 C57.4027,34.2515 57.1337,34.5205 56.8027,34.5205" id="Fill-6" fill="#0C1423"></path>
                <g id="Group-10" transform="translate(0.000000, 32.874800)" fill="#0C1423">
                    <path d="M59.2979,8.195 L0.5999,8.195 C0.2689,8.195 -0.0001,7.926 -0.0001,7.595 L-0.0001,1.046 C-0.0001,0.714 0.2689,0.445 0.5999,0.445 L23.3309,0.445 C23.6619,0.445 23.9309,0.714 23.9309,1.046 C23.9309,1.377 23.6619,1.646 23.3309,1.646 L1.1989,1.646 L1.1989,6.995 L58.6979,6.995 L58.6979,1.646 L36.5669,1.646 C36.2359,1.646 35.9669,1.377 35.9669,1.046 C35.9669,0.714 36.2359,0.445 36.5669,0.445 L59.2979,0.445 C59.6289,0.445 59.8979,0.714 59.8979,1.046 L59.8979,7.595 C59.8979,7.926 59.6289,8.195 59.2979,8.195" id="Fill-8"></path>
                </g>
                <path d="M29.9482,21.1025 C25.6772,21.1025 22.2022,24.5775 22.2022,28.8485 C22.2022,33.1205 25.6772,36.5955 29.9482,36.5955 C34.2192,36.5955 37.6952,33.1205 37.6952,28.8485 C37.6952,24.5775 34.2192,21.1025 29.9482,21.1025 M29.9482,37.7955 C25.0152,37.7955 21.0032,33.7815 21.0032,28.8485 C21.0032,23.9155 25.0152,19.9025 29.9482,19.9025 C34.8822,19.9025 38.8942,23.9155 38.8942,28.8485 C38.8942,33.7815 34.8822,37.7955 29.9482,37.7955" id="Fill-11" fill="#0C1423"></path>
                <path d="M29.9482,25.2759 C27.9782,25.2759 26.3752,26.8789 26.3752,28.8489 C26.3752,30.8189 27.9782,32.4219 29.9482,32.4219 C31.9192,32.4219 33.5222,30.8189 33.5222,28.8489 C33.5222,26.8789 31.9192,25.2759 29.9482,25.2759 M29.9482,33.6219 C27.3162,33.6219 25.1762,31.4809 25.1762,28.8489 C25.1762,26.2169 27.3162,24.0759 29.9482,24.0759 C32.5802,24.0759 34.7212,26.2169 34.7212,28.8489 C34.7212,31.4809 32.5802,33.6219 29.9482,33.6219" id="Fill-13" fill="#0C1423"></path>
                <g id="Group-17" transform="translate(22.000000, 0.874800)">
                    <mask id="mask-4" fill="white">
                        <use xlink:href="#path-3"></use>
                    </mask>
                    <g id="Clip-16"></g>
                    <path d="M3.3066,13.947 L12.5896,13.947 L13.7706,2.002 C9.8256,1.098 6.0646,1.098 2.1266,2.002 L3.3066,13.947 Z M13.1336,15.147 L2.7626,15.147 C2.4536,15.147 2.1966,14.913 2.1656,14.606 L0.8816,1.599 C0.8526,1.302 1.0446,1.029 1.3336,0.957 C5.8016,-0.152 10.0916,-0.153 14.5636,0.957 C14.8526,1.029 15.0446,1.302 15.0156,1.599 L13.7306,14.606 C13.7006,14.913 13.4426,15.147 13.1336,15.147 L13.1336,15.147 Z" id="Fill-15" fill="#0C1423" mask="url(#mask-4)"></path>
                </g>
            </g>
        </g>
    </g>
</svg>