<?xml version="1.0" encoding="UTF-8" standalone="no"?>
<svg width="100px" height="100px" viewBox="0 0 100 100" version="1.1" xmlns="http://www.w3.org/2000/svg" xmlns:xlink="http://www.w3.org/1999/xlink">
    <!-- Generator: Sketch 41.2 (35397) - http://www.bohemiancoding.com/sketch -->
    <title>Artboard Copy 58</title>
    <desc>Created with Sketch.</desc>
    <defs>
        <polygon id="path-1" points="0.6435 58 60.494 58 60.494 0.5762 0.6435 0.5762 0.6435 58"></polygon>
        <polygon id="path-3" points="34.8194 0.643 0.317584609 0.643 0.317584609 45.6874 34.8194 45.6874 34.8194 0.643"></polygon>
    </defs>
    <g id="Welcome" stroke="none" stroke-width="1" fill="none" fill-rule="evenodd">
        <g id="Artboard-Copy-58">
            <g id="Page-1-Copy" transform="translate(19.000000, 17.000000)">
                <g id="Group-3" transform="translate(2.000000, 3.357300)">
                    <mask id="mask-2" fill="white">
                        <use xlink:href="#path-1"></use>
                    </mask>
                    <g id="Clip-2"></g>
                    <path d="M44.0435,30.8452 L44.0365,30.8452 L36.6025,11.9962 L36.6085,11.9962 L36.6025,11.9962 L32.0975,0.5762 L29.0395,0.5762 C29.0395,0.5762 27.9835,3.2532 26.4375,7.1742 L26.3715,7.1742 C26.3925,7.1762 26.4145,7.1772 26.4365,7.1782 C25.4535,9.6682 24.2745,12.6552 23.0355,15.7992 L23.0315,15.7992 C23.0315,15.7992 23.0335,15.7992 23.0355,15.8002 C21.0035,20.9512 18.8205,26.4842 17.1025,30.8402 L0.6435,39.9182 L30.5685,58.0002 L60.4945,39.9182 L44.0435,30.8452 Z" id="Fill-1" fill="#307CBF" mask="url(#mask-2)"></path>
                </g>
                <path d="M30.5259,59.6239 C30.4189,59.6239 30.3109,59.5949 30.2149,59.5379 L0.2899,41.4559 C0.1059,41.3449 -0.0041,41.1449 0.0009,40.9309 C0.0049,40.7159 0.1229,40.5199 0.3099,40.4169 L16.7689,31.3389 C17.0599,31.1779 17.4239,31.2849 17.5849,31.5749 C17.7449,31.8649 17.6389,32.2289 17.3489,32.3899 L1.7989,40.9659 L30.5259,58.3229 L59.2519,40.9659 L43.7109,32.3949 C43.4209,32.2339 43.3149,31.8699 43.4749,31.5799 C43.6349,31.2889 43.9989,31.1819 44.2909,31.3439 L60.7409,40.4169 C60.9279,40.5199 61.0469,40.7159 61.0499,40.9309 C61.0549,41.1449 60.9449,41.3449 60.7609,41.4559 L30.8369,59.5379 C30.7409,59.5949 30.6329,59.6239 30.5259,59.6239" id="Fill-4" fill="#0C1423"></path>
                <g id="Group-8" transform="translate(13.000000, 0.357300)">
                    <mask id="mask-4" fill="white">
                        <use xlink:href="#path-3"></use>
                    </mask>
                    <g id="Clip-7"></g>
                    <path d="M1.5894,39.4024 C1.5994,39.4454 1.6044,39.4894 1.6044,39.5344 C1.6044,41.8774 8.1794,44.4864 17.6124,44.4864 C26.7574,44.4864 33.2144,42.0344 33.6024,39.7504 C33.5924,39.7314 33.5834,39.7124 33.5744,39.6924 L18.6464,1.8424 L16.4044,1.8424 L1.5894,39.4024 Z M17.6124,45.6874 C9.4604,45.6874 0.8084,43.6274 0.4184,39.8044 C0.3124,39.6444 0.2854,39.4384 0.3594,39.2514 L15.4384,1.0224 C15.5284,0.7934 15.7504,0.6424 15.9964,0.6424 L19.0544,0.6424 C19.3004,0.6424 19.5224,0.7934 19.6124,1.0224 L34.6304,39.0964 C34.7504,39.2084 34.8194,39.3674 34.8194,39.5344 C34.8194,43.5304 25.9544,45.6874 17.6124,45.6874 L17.6124,45.6874 Z" id="Fill-6" fill="#0C1423" mask="url(#mask-4)"></path>
                </g>
                <path d="M30.6129,24.122 C26.9959,24.122 23.5449,23.743 20.6329,23.026 C20.3109,22.947 20.1139,22.622 20.1929,22.3 C20.2719,21.979 20.5999,21.784 20.9199,21.861 C23.7389,22.555 27.0919,22.922 30.6129,22.922 C34.0649,22.922 37.3629,22.568 40.1509,21.899 C40.4689,21.824 40.7979,22.02 40.8739,22.342 C40.9519,22.664 40.7529,22.988 40.4299,23.066 C37.5519,23.757 34.1579,24.122 30.6129,24.122" id="Fill-9" fill="#0C1423"></path>
                <path d="M30.6129,18.0414 C27.8899,18.0414 25.2919,17.8304 22.8859,17.4144 C22.5599,17.3574 22.3419,17.0474 22.3979,16.7214 C22.4539,16.3944 22.7549,16.1734 23.0919,16.2314 C25.3949,16.6304 27.9969,16.8414 30.6129,16.8414 C33.1929,16.8414 35.6629,16.6464 37.9509,16.2634 C38.2829,16.2114 38.5889,16.4284 38.6419,16.7554 C38.6969,17.0824 38.4759,17.3924 38.1499,17.4464 C35.7959,17.8414 33.2589,18.0414 30.6129,18.0414" id="Fill-11" fill="#0C1423"></path>
                <path d="M30.6129,13.9872 C28.4739,13.9872 26.3909,13.8552 24.4229,13.5942 C24.0939,13.5502 23.8629,13.2492 23.9069,12.9212 C23.9499,12.5922 24.2449,12.3612 24.5809,12.4042 C28.3579,12.9052 32.6889,12.9142 36.4899,12.4252 C36.8109,12.3802 37.1199,12.6142 37.1609,12.9442 C37.2039,13.2722 36.9709,13.5722 36.6419,13.6152 C34.7189,13.8622 32.6899,13.9872 30.6129,13.9872" id="Fill-13" fill="#0C1423"></path>
                <path d="M30.6129,8.9848 C29.1439,8.9848 27.6849,8.9218 26.2759,8.7958 C25.9459,8.7668 25.7019,8.4748 25.7309,8.1448 C25.7589,7.8148 26.0809,7.5798 26.3819,7.6008 C29.0529,7.8378 31.9309,7.8448 34.6089,7.6208 C34.9469,7.6078 35.2289,7.8388 35.2569,8.1688 C35.2849,8.4988 35.0389,8.7888 34.7089,8.8168 C33.3769,8.9278 31.9989,8.9848 30.6129,8.9848" id="Fill-15" fill="#0C1423"></path>
            </g>
        </g>
    </g>
</svg>