<svg width="110" height="110" viewBox="0 0 110 110" fill="none" xmlns="http://www.w3.org/2000/svg">
<g id="i-obr">
<rect width="110" height="110" fill="white"/>
<g id="Group 9">
<path id="Fill 1" fill-rule="evenodd" clip-rule="evenodd" d="M69.0435 58.2025H69.0365L61.6025 39.3535H61.6085H61.6025L57.0975 27.9335H54.0395C54.0395 27.9335 52.9835 30.6105 51.4375 34.5315H51.3715C51.3925 34.5335 51.4145 34.5345 51.4365 34.5355C50.4535 37.0255 49.2745 40.0125 48.0355 43.1565H48.0315C48.0315 43.1565 48.0335 43.1565 48.0355 43.1575C46.0035 48.3085 43.8205 53.8415 42.1025 58.1975L25.6435 67.2755L55.5685 85.3575L85.4945 67.2755L69.0435 58.2025Z" fill="#FF483C"/>
<path id="Fill 4" fill-rule="evenodd" clip-rule="evenodd" d="M53.5259 83.6239C53.4189 83.6239 53.3109 83.5949 53.2149 83.5379L23.2899 65.4559C23.1059 65.3449 22.9959 65.1449 23.0009 64.9309C23.0049 64.7159 23.1229 64.5199 23.3099 64.4169L39.7689 55.3389C40.0599 55.1779 40.4239 55.2849 40.5849 55.5749C40.7449 55.8649 40.6389 56.2289 40.3489 56.3899L24.7989 64.9659L53.5259 82.3229L82.2519 64.9659L66.7109 56.3949C66.4209 56.2339 66.3149 55.8699 66.4749 55.5799C66.6349 55.2889 66.9989 55.1819 67.2909 55.3439L83.7409 64.4169C83.9279 64.5199 84.0469 64.7159 84.0499 64.9309C84.0549 65.1449 83.9449 65.3449 83.7609 65.4559L53.8369 83.5379C53.7409 83.5949 53.6329 83.6239 53.5259 83.6239" fill="#303030"/>
<g id="Group 8">
<mask id="mask0" mask-type="alpha" maskUnits="userSpaceOnUse" x="36" y="25" width="35" height="46">
<path id="Clip 7" fill-rule="evenodd" clip-rule="evenodd" d="M70.8194 25.0003H36.3176V70.0447H70.8194V25.0003V25.0003Z" fill="white"/>
</mask>
<g mask="url(#mask0)">
<path id="Fill 6" fill-rule="evenodd" clip-rule="evenodd" d="M37.5894 63.7597C37.5994 63.8027 37.6044 63.8467 37.6044 63.8917C37.6044 66.2347 44.1794 68.8437 53.6124 68.8437C62.7574 68.8437 69.2144 66.3917 69.6024 64.1077C69.5924 64.0887 69.5834 64.0697 69.5744 64.0497L54.6464 26.1997H52.4044L37.5894 63.7597ZM53.6124 70.0447C45.4604 70.0447 36.8084 67.9847 36.4184 64.1617C36.3124 64.0017 36.2854 63.7957 36.3594 63.6087L51.4384 25.3797C51.5284 25.1507 51.7504 24.9997 51.9964 24.9997H55.0544C55.3004 24.9997 55.5224 25.1507 55.6124 25.3797L70.6304 63.4537C70.7504 63.5657 70.8194 63.7247 70.8194 63.8917C70.8194 67.8877 61.9544 70.0447 53.6124 70.0447V70.0447Z" fill="#303030"/>
</g>
</g>
<path id="Fill 9" fill-rule="evenodd" clip-rule="evenodd" d="M53.6129 48.122C49.9959 48.122 46.5449 47.743 43.6329 47.026C43.3109 46.947 43.1139 46.622 43.1929 46.3C43.2719 45.979 43.5999 45.784 43.9199 45.861C46.7389 46.555 50.0919 46.922 53.6129 46.922C57.0649 46.922 60.3629 46.568 63.1509 45.899C63.4689 45.824 63.7979 46.02 63.8739 46.342C63.9519 46.664 63.7529 46.988 63.4299 47.066C60.5519 47.757 57.1579 48.122 53.6129 48.122" fill="#303030"/>
<path id="Fill 11" fill-rule="evenodd" clip-rule="evenodd" d="M53.6129 42.0414C50.8899 42.0414 48.2919 41.8304 45.8859 41.4144C45.5599 41.3574 45.3419 41.0474 45.3979 40.7214C45.4539 40.3944 45.7549 40.1734 46.0919 40.2314C48.3949 40.6304 50.9969 40.8414 53.6129 40.8414C56.1929 40.8414 58.6629 40.6464 60.9509 40.2634C61.2829 40.2114 61.5889 40.4284 61.6419 40.7554C61.6969 41.0824 61.4759 41.3924 61.1499 41.4464C58.7959 41.8414 56.2589 42.0414 53.6129 42.0414" fill="#303030"/>
<path id="Fill 13" fill-rule="evenodd" clip-rule="evenodd" d="M53.6129 37.9872C51.4739 37.9872 49.3909 37.8552 47.4229 37.5942C47.0939 37.5502 46.8629 37.2492 46.9069 36.9212C46.9499 36.5922 47.2449 36.3612 47.5809 36.4042C51.3579 36.9052 55.6889 36.9142 59.4899 36.4252C59.8109 36.3802 60.1199 36.6142 60.1609 36.9442C60.2039 37.2722 59.9709 37.5722 59.6419 37.6152C57.7189 37.8622 55.6899 37.9872 53.6129 37.9872" fill="#303030"/>
<path id="Fill 15" fill-rule="evenodd" clip-rule="evenodd" d="M53.6129 32.9848C52.1439 32.9848 50.6849 32.9218 49.2759 32.7958C48.9459 32.7668 48.7019 32.4748 48.7309 32.1448C48.7589 31.8148 49.0809 31.5798 49.3819 31.6008C52.0529 31.8378 54.9309 31.8448 57.6089 31.6208C57.9469 31.6078 58.2289 31.8388 58.2569 32.1688C58.2849 32.4988 58.0389 32.7888 57.7089 32.8168C56.3769 32.9278 54.9989 32.9848 53.6129 32.9848" fill="#303030"/>
</g>
</g>
</svg>
