<?xml version="1.0" encoding="UTF-8" standalone="no"?>
<svg width="100px" height="100px" viewBox="0 0 100 100" version="1.1" xmlns="http://www.w3.org/2000/svg" xmlns:xlink="http://www.w3.org/1999/xlink">
    <!-- Generator: Sketch 41.2 (35397) - http://www.bohemiancoding.com/sketch -->
    <title>Artboard Copy 59</title>
    <desc>Created with Sketch.</desc>
    <defs>
        <polygon id="path-1" points="51.98 51.9997 51.98 0.6197 0.5991 0.6197 0.5991 51.9997 51.98 51.9997"></polygon>
        <polygon id="path-3" points="0 54.2978 53.98 54.2978 53.98 -0.0002 0 -0.0002"></polygon>
    </defs>
    <g id="Welcome" stroke="none" stroke-width="1" fill="none" fill-rule="evenodd">
        <g id="Artboard-Copy-59">
            <g id="Page-1-Copy" transform="translate(23.000000, 23.000000)">
                <g id="Group-3" transform="translate(2.000000, 2.297800)">
                    <mask id="mask-2" fill="white">
                        <use xlink:href="#path-1"></use>
                    </mask>
                    <g id="Clip-2"></g>
                    <path d="M51.9111,24.6857 C51.7641,22.4047 51.3251,20.2047 50.6241,18.1207 C50.2301,16.9497 49.7521,15.8187 49.2001,14.7297 C46.7271,9.8487 42.7511,5.8717 37.8691,3.3987 C36.7801,2.8477 35.6501,2.3697 34.4781,1.9757 C32.3951,1.2737 30.1941,0.8357 27.9141,0.6877 C27.3761,0.6527 26.8371,0.6197 26.2901,0.6197 C25.7421,0.6197 25.2041,0.6527 24.6661,0.6877 C22.3851,0.8357 20.1841,1.2737 18.1001,1.9757 C16.9301,2.3697 15.7991,2.8477 14.7101,3.3987 C9.8281,5.8717 5.8511,9.8487 3.3791,14.7297 C2.8281,15.8187 2.3491,16.9497 1.9551,18.1207 C1.2541,20.2047 0.8161,22.4047 0.6681,24.6857 C0.6331,25.2237 0.5991,25.7627 0.5991,26.3097 C0.5991,26.8567 0.6331,27.3957 0.6681,27.9337 C0.8161,30.2147 1.2541,32.4147 1.9551,34.4987 C2.3491,35.6697 2.8271,36.8007 3.3791,37.8897 C5.8511,42.7707 9.8281,46.7477 14.7101,49.2207 C15.7991,49.7717 16.9301,50.2497 18.1001,50.6437 C20.1841,51.3447 22.3851,51.7837 24.6661,51.9317 C25.2041,51.9667 25.7421,51.9997 26.2901,51.9997 C26.8371,51.9997 27.3761,51.9667 27.9141,51.9317 C30.1941,51.7837 32.3951,51.3447 34.4781,50.6437 C35.6501,50.2497 36.7801,49.7717 37.8691,49.2207 C42.7511,46.7477 46.7271,42.7707 49.2001,37.8897 C49.7521,36.8007 50.2301,35.6697 50.6241,34.4987 C51.3251,32.4147 51.7641,30.2147 51.9111,27.9337 C51.9461,27.3957 51.9801,26.8567 51.9801,26.3097 C51.9801,25.7627 51.9461,25.2237 51.9111,24.6857" id="Fill-1" fill="#307CBF" mask="url(#mask-2)"></path>
                </g>
                <path d="M26.29,19.7349 C22.684,19.7349 19.75,22.6689 19.75,26.2739 C19.75,29.8799 22.684,32.8129 26.29,32.8129 C29.895,32.8129 32.829,29.8799 32.829,26.2739 C32.829,22.6689 29.895,19.7349 26.29,19.7349 M26.29,34.0129 C22.022,34.0129 18.551,30.5419 18.551,26.2739 C18.551,22.0059 22.022,18.5349 26.29,18.5349 C30.558,18.5349 34.028,22.0059 34.028,26.2739 C34.028,30.5419 30.558,34.0129 26.29,34.0129" id="Fill-4" fill="#0C1423"></path>
                <path d="M24.666,40.1661 L24.676,40.1661 L24.666,40.1661 Z M4.258,38.2361 C6.562,42.4651 10.099,46.0011 14.328,48.3061 C15.689,43.8641 19.485,40.4821 24.066,39.6541 L24.066,28.4981 L12.909,28.4981 C12.082,33.0791 8.699,36.8741 4.258,38.2361 L4.258,38.2361 Z M14.71,49.7851 C14.617,49.7851 14.524,49.7631 14.438,49.7201 C9.476,47.2061 5.357,43.0881 2.844,38.1241 C2.761,37.9611 2.757,37.7681 2.834,37.6021 C2.911,37.4351 3.061,37.3121 3.239,37.2701 C7.735,36.1941 11.177,32.3951 11.803,27.8171 C11.844,27.5201 12.098,27.2981 12.397,27.2981 L24.666,27.2981 C24.997,27.2981 25.266,27.5661 25.266,27.8981 L25.266,40.1661 C25.266,40.4661 25.045,40.7201 24.747,40.7601 C20.169,41.3871 16.369,44.8281 15.294,49.3241 C15.251,49.5031 15.129,49.6521 14.962,49.7291 C14.882,49.7661 14.796,49.7851 14.71,49.7851 L14.71,49.7851 Z" id="Fill-6" fill="#0C1423"></path>
                <path d="M28.5137,24.0499 L39.6697,24.0499 C40.4977,19.4699 43.8797,15.6739 48.3217,14.3129 C46.0177,10.0829 42.4807,6.5469 38.2507,4.2419 C36.8897,8.6839 33.0937,12.0659 28.5137,12.8939 L28.5137,24.0499 Z M40.1817,25.2499 L27.9137,25.2499 C27.5827,25.2499 27.3147,24.9819 27.3147,24.6499 L27.3147,12.3819 C27.3147,12.0819 27.5347,11.8279 27.8327,11.7879 C32.4107,11.1609 36.2097,7.7199 37.2847,3.2239 C37.3277,3.0449 37.4507,2.8959 37.6177,2.8189 C37.7837,2.7409 37.9747,2.7439 38.1407,2.8279 C43.1037,5.3419 47.2217,9.4599 49.7357,14.4239 C49.8187,14.5869 49.8227,14.7799 49.7447,14.9459 C49.6677,15.1129 49.5187,15.2359 49.3397,15.2779 C44.8447,16.3539 41.4037,20.1529 40.7767,24.7319 C40.7357,25.0289 40.4817,25.2499 40.1817,25.2499 L40.1817,25.2499 Z" id="Fill-8" fill="#0C1423"></path>
                <path d="M28.5137,39.6539 C33.0937,40.4819 36.8897,43.8639 38.2507,48.3059 C42.4807,46.0019 46.0177,42.4649 48.3217,38.2359 C43.8797,36.8749 40.4977,33.0779 39.6697,28.4979 L28.5137,28.4979 L28.5137,39.6539 Z M37.8687,49.7849 C37.7837,49.7849 37.6977,49.7659 37.6177,49.7289 C37.4507,49.6519 37.3277,49.5029 37.2847,49.3239 C36.2097,44.8279 32.4107,41.3869 27.8327,40.7599 C27.5347,40.7199 27.3147,40.4659 27.3147,40.1659 L27.3147,27.8979 C27.3147,27.5669 27.5827,27.2979 27.9137,27.2979 L40.1817,27.2979 C40.4817,27.2979 40.7357,27.5199 40.7767,27.8169 C41.4037,32.3949 44.8447,36.1939 49.3397,37.2699 C49.5187,37.3129 49.6677,37.4349 49.7447,37.6019 C49.8227,37.7679 49.8187,37.9609 49.7357,38.1249 C47.2217,43.0879 43.1037,47.2059 38.1407,49.7199 C38.0547,49.7629 37.9617,49.7849 37.8687,49.7849 L37.8687,49.7849 Z" id="Fill-10" fill="#0C1423"></path>
                <path d="M12.9092,24.0499 L24.0662,24.0499 L24.0662,12.8939 C19.4852,12.0659 15.6892,8.6839 14.3282,4.2419 C10.0982,6.5469 6.5612,10.0829 4.2582,14.3119 C8.6992,15.6739 12.0822,19.4689 12.9092,24.0499 M24.6662,25.2499 L12.3972,25.2499 C12.0972,25.2499 11.8442,25.0289 11.8032,24.7309 C11.1772,20.1529 7.7352,16.3539 3.2392,15.2779 C3.0602,15.2359 2.9112,15.1129 2.8342,14.9459 C2.7572,14.7799 2.7612,14.5869 2.8442,14.4239 C5.3572,9.4599 9.4752,5.3419 14.4382,2.8279 C14.6032,2.7439 14.7952,2.7409 14.9622,2.8189 C15.1292,2.8959 15.2512,3.0449 15.2942,3.2239 C16.3692,7.7199 20.1692,11.1609 24.7472,11.7879 C25.0452,11.8279 25.2652,12.0819 25.2652,12.3819 L25.2652,24.6499 C25.2652,24.9819 24.9972,25.2499 24.6662,25.2499" id="Fill-12" fill="#0C1423"></path>
                <path d="M28.5137,27.2979 L39.5097,27.2979 C39.4777,26.9389 39.4617,26.5999 39.4617,26.2739 C39.4617,25.9479 39.4777,25.6089 39.5097,25.2499 L28.5137,25.2499 L28.5137,27.2979 Z M40.1817,28.4979 L27.9137,28.4979 C27.5827,28.4979 27.3147,28.2299 27.3147,27.8979 L27.3147,24.6499 C27.3147,24.3189 27.5827,24.0499 27.9137,24.0499 L40.1817,24.0499 C40.3547,24.0499 40.5197,24.1249 40.6337,24.2559 C40.7467,24.3859 40.7997,24.5589 40.7767,24.7309 C40.6997,25.2989 40.6607,25.8039 40.6607,26.2739 C40.6607,26.7439 40.6997,27.2489 40.7767,27.8179 C40.7997,27.9889 40.7467,28.1619 40.6337,28.2929 C40.5197,28.4229 40.3547,28.4979 40.1817,28.4979 L40.1817,28.4979 Z" id="Fill-14" fill="#0C1423"></path>
                <path d="M13.0703,27.2979 L24.0663,27.2979 L24.0663,25.2499 L13.0703,25.2499 C13.1023,25.6079 13.1183,25.9459 13.1183,26.2739 C13.1183,26.6019 13.1023,26.9399 13.0703,27.2979 M24.6663,28.4979 L12.3973,28.4979 C12.2233,28.4979 12.0593,28.4229 11.9453,28.2919 C11.8313,28.1619 11.7793,27.9879 11.8023,27.8159 C11.8813,27.2519 11.9193,26.7469 11.9193,26.2739 C11.9193,25.8009 11.8813,25.2969 11.8023,24.7319 C11.7793,24.5599 11.8313,24.3859 11.9453,24.2559 C12.0593,24.1249 12.2233,24.0499 12.3973,24.0499 L24.6663,24.0499 C24.9973,24.0499 25.2653,24.3189 25.2653,24.6499 L25.2653,27.8979 C25.2653,28.2299 24.9973,28.4979 24.6663,28.4979" id="Fill-16" fill="#0C1423"></path>
                <path d="M26.29,39.4454 C26.617,39.4454 26.956,39.4614 27.314,39.4934 L27.314,28.4984 L25.266,28.4984 L25.266,39.4934 C25.624,39.4614 25.963,39.4454 26.29,39.4454 M24.666,40.7664 C24.521,40.7664 24.382,40.7144 24.271,40.6184 C24.141,40.5044 24.066,40.3394 24.066,40.1664 L24.066,27.8984 C24.066,27.5664 24.335,27.2984 24.666,27.2984 L27.914,27.2984 C28.245,27.2984 28.514,27.5664 28.514,27.8984 L28.514,40.1664 C28.514,40.3394 28.439,40.5044 28.309,40.6184 C28.177,40.7324 28.005,40.7824 27.833,40.7604 C26.699,40.6064 25.877,40.6064 24.747,40.7604 C24.721,40.7644 24.693,40.7664 24.666,40.7664" id="Fill-18" fill="#0C1423"></path>
                <path d="M25.2656,24.0499 L27.3146,24.0499 L27.3146,13.0539 C26.5976,13.1189 25.9826,13.1189 25.2656,13.0539 L25.2656,24.0499 Z M27.9136,25.2499 L24.6656,25.2499 C24.3346,25.2499 24.0666,24.9819 24.0666,24.6499 L24.0666,12.3819 C24.0666,12.2089 24.1406,12.0439 24.2716,11.9299 C24.4026,11.8159 24.5786,11.7599 24.7466,11.7879 C25.8766,11.9419 26.6996,11.9419 27.8326,11.7879 C28.0046,11.7639 28.1766,11.8169 28.3086,11.9299 C28.4396,12.0439 28.5136,12.2089 28.5136,12.3819 L28.5136,24.6499 C28.5136,24.9819 28.2446,25.2499 27.9136,25.2499 L27.9136,25.2499 Z" id="Fill-20" fill="#0C1423"></path>
                <mask id="mask-4" fill="white">
                    <use xlink:href="#path-3"></use>
                </mask>
                <g id="Clip-23"></g>
                <path d="M25.266,27.2978 L27.315,27.2978 L27.315,25.2498 L25.266,25.2498 L25.266,27.2978 Z M27.914,28.4978 L24.666,28.4978 C24.335,28.4978 24.066,28.2298 24.066,27.8978 L24.066,24.6498 C24.066,24.3188 24.335,24.0498 24.666,24.0498 L27.914,24.0498 C28.245,24.0498 28.514,24.3188 28.514,24.6498 L28.514,27.8978 C28.514,28.2298 28.245,28.4978 27.914,28.4978 L27.914,28.4978 Z" id="Fill-22" fill="#0C1423" mask="url(#mask-4)"></path>
                <path d="M15.4141,3.6846 C16.5691,7.7316 19.9501,10.8456 24.0661,11.6726 L24.0661,9.2016 C20.9151,8.3886 18.4361,5.8806 17.6521,2.7336 C16.8991,3.0106 16.1491,3.3296 15.4141,3.6846 M24.6661,12.9816 C24.6391,12.9816 24.6121,12.9796 24.5851,12.9766 C19.5191,12.2836 15.3161,8.4766 14.1261,3.5026 C14.0611,3.2326 14.1911,2.9536 14.4381,2.8286 C15.5701,2.2556 16.7371,1.7656 17.9091,1.3706 C18.0751,1.3146 18.2591,1.3346 18.4101,1.4256 C18.5601,1.5166 18.6641,1.6686 18.6921,1.8416 C19.2101,4.9846 21.6571,7.5136 24.7831,8.1356 C25.0631,8.1906 25.2661,8.4376 25.2661,8.7236 L25.2661,12.3816 C25.2661,12.5556 25.1911,12.7206 25.0601,12.8336 C24.9501,12.9296 24.8101,12.9816 24.6661,12.9816" id="Fill-24" fill="#0C1423" mask="url(#mask-4)"></path>
                <path d="M28.5137,9.2017 L28.5137,11.6727 C32.6297,10.8457 36.0097,7.7317 37.1647,3.6837 C36.4307,3.3297 35.6817,3.0117 34.9267,2.7337 C34.1427,5.8807 31.6647,8.3887 28.5137,9.2017 M27.9137,12.9817 C27.7697,12.9817 27.6297,12.9297 27.5197,12.8337 C27.3887,12.7207 27.3147,12.5557 27.3147,12.3817 L27.3147,8.7237 C27.3147,8.4377 27.5167,8.1907 27.7967,8.1357 C30.9217,7.5137 33.3687,4.9847 33.8867,1.8417 C33.9147,1.6687 34.0187,1.5157 34.1687,1.4257 C34.3207,1.3347 34.5037,1.3147 34.6697,1.3707 C35.8447,1.7657 37.0117,2.2567 38.1407,2.8277 C38.3877,2.9537 38.5177,3.2327 38.4527,3.5027 C37.2627,8.4767 33.0597,12.2837 27.9947,12.9757 C27.9677,12.9797 27.9417,12.9817 27.9137,12.9817" id="Fill-25" fill="#0C1423" mask="url(#mask-4)"></path>
                <path d="M25.2656,11.8492 C25.9926,11.9202 26.5876,11.9212 27.3146,11.8492 L27.3146,9.4292 C26.6176,9.5152 25.9626,9.5152 25.2656,9.4292 L25.2656,11.8492 Z M27.9136,12.3822 L27.9236,12.3822 L27.9136,12.3822 Z M26.2896,13.1022 C25.7626,13.1022 25.2036,13.0612 24.5846,12.9762 C24.2866,12.9352 24.0666,12.6822 24.0666,12.3822 L24.0666,8.7242 C24.0666,8.5442 24.1466,8.3732 24.2856,8.2602 C24.4246,8.1462 24.6076,8.1002 24.7836,8.1352 C25.8456,8.3472 26.7346,8.3472 27.7966,8.1352 C27.9746,8.1002 28.1566,8.1462 28.2946,8.2602 C28.4336,8.3732 28.5136,8.5442 28.5136,8.7242 L28.5136,12.3822 C28.5136,12.6822 28.2926,12.9352 27.9946,12.9762 C27.3736,13.0612 26.8166,13.1022 26.2896,13.1022 L26.2896,13.1022 Z" id="Fill-26" fill="#0C1423" mask="url(#mask-4)"></path>
                <path d="M18.793,2.3458 C19.42,5.0128 21.451,7.1648 24.066,7.9558 L24.066,1.3008 C22.266,1.4628 20.497,1.8128 18.793,2.3458 M24.666,9.3238 C24.627,9.3238 24.588,9.3198 24.549,9.3118 C20.937,8.5938 18.106,5.6698 17.509,2.0368 C17.461,1.7468 17.631,1.4648 17.909,1.3708 C20.064,0.6458 22.325,0.2028 24.627,0.0538 C24.81,0.0428 24.955,0.1008 25.076,0.2148 C25.197,0.3278 25.266,0.4868 25.266,0.6528 L25.266,8.7238 C25.266,8.9038 25.186,9.0738 25.047,9.1878 C24.939,9.2768 24.804,9.3238 24.666,9.3238" id="Fill-27" fill="#0C1423" mask="url(#mask-4)"></path>
                <path d="M28.5137,1.3004 L28.5137,7.9564 C31.1287,7.1654 33.1597,5.0124 33.7857,2.3454 C32.0837,1.8134 30.3167,1.4624 28.5137,1.3004 M27.9137,9.3234 C27.7767,9.3234 27.6417,9.2764 27.5337,9.1874 C27.3947,9.0734 27.3147,8.9034 27.3147,8.7234 L27.3147,0.6524 C27.3147,0.4864 27.3827,0.3284 27.5037,0.2144 C27.6247,0.1014 27.7797,0.0424 27.9527,0.0534 C30.2577,0.2034 32.5177,0.6464 34.6697,1.3704 C34.9487,1.4654 35.1177,1.7464 35.0707,2.0374 C34.4727,5.6694 31.6437,8.5934 28.0317,9.3124 C27.9927,9.3204 27.9527,9.3234 27.9137,9.3234" id="Fill-28" fill="#0C1423" mask="url(#mask-4)"></path>
                <path d="M25.2656,8.2178 C25.9706,8.3188 26.6096,8.3188 27.3146,8.2178 L27.3146,1.2168 C26.6336,1.1778 25.9446,1.1778 25.2656,1.2168 L25.2656,8.2178 Z M26.2896,9.4928 C25.7276,9.4928 25.1586,9.4338 24.5486,9.3118 C24.2676,9.2558 24.0666,9.0098 24.0666,8.7238 L24.0666,0.6528 C24.0666,0.3358 24.3116,0.0738 24.6266,0.0538 C25.7276,-0.0182 26.8486,-0.0182 27.9536,0.0538 C28.2686,0.0738 28.5136,0.3358 28.5136,0.6528 L28.5136,8.7238 C28.5136,9.0098 28.3126,9.2558 28.0316,9.3118 C27.4216,9.4338 26.8526,9.4928 26.2896,9.4928 L26.2896,9.4928 Z" id="Fill-29" fill="#0C1423" mask="url(#mask-4)"></path>
                <path d="M40.8916,24.0499 L43.3616,24.0499 C44.1756,20.8989 46.6836,18.4219 49.8296,17.6369 C49.5516,16.8819 49.2336,16.1319 48.8786,15.3989 C44.8316,16.5529 41.7186,19.9339 40.8916,24.0499 M43.8396,25.2499 L40.1816,25.2499 C40.0086,25.2499 39.8436,25.1749 39.7296,25.0449 C39.6156,24.9139 39.5636,24.7399 39.5866,24.5689 C40.2806,19.5039 44.0876,15.3009 49.0606,14.1109 C49.3366,14.0469 49.6106,14.1759 49.7356,14.4239 C50.3056,15.5489 50.7956,16.7169 51.1926,17.8939 C51.2486,18.0609 51.2286,18.2439 51.1386,18.3949 C51.0476,18.5459 50.8956,18.6489 50.7216,18.6779 C47.5786,19.1949 45.0506,21.6419 44.4286,24.7669 C44.3716,25.0479 44.1256,25.2499 43.8396,25.2499" id="Fill-30" fill="#0C1423" mask="url(#mask-4)"></path>
                <path d="M40.8916,28.4981 C41.7186,32.6141 44.8316,35.9951 48.8786,37.1491 C49.2356,36.4131 49.5536,35.6641 49.8296,34.9111 C46.6836,34.1271 44.1756,31.6491 43.3616,28.4981 L40.8916,28.4981 Z M49.2006,38.4541 C49.1546,38.4541 49.1076,38.4481 49.0606,38.4371 C44.0876,37.2471 40.2806,33.0441 39.5866,27.9791 C39.5636,27.8081 39.6156,27.6341 39.7296,27.5031 C39.8436,27.3731 40.0086,27.2981 40.1816,27.2981 L43.8396,27.2981 C44.1256,27.2981 44.3716,27.5001 44.4286,27.7811 C45.0506,30.9061 47.5786,33.3531 50.7216,33.8701 C50.8956,33.8991 51.0466,34.0021 51.1376,34.1531 C51.2286,34.3041 51.2486,34.4871 51.1926,34.6531 C50.7996,35.8251 50.3096,36.9921 49.7356,38.1241 C49.6316,38.3301 49.4226,38.4541 49.2006,38.4541 L49.2006,38.4541 Z" id="Fill-31" fill="#0C1423" mask="url(#mask-4)"></path>
                <path d="M40.7148,27.2979 L43.1348,27.2979 C43.0918,26.9489 43.0708,26.6099 43.0708,26.2739 C43.0708,25.9389 43.0918,25.5989 43.1348,25.2499 L40.7148,25.2499 C40.6788,25.6139 40.6608,25.9519 40.6608,26.2739 C40.6608,26.5959 40.6788,26.9339 40.7148,27.2979 M43.8398,28.4979 L40.1818,28.4979 C39.8818,28.4979 39.6278,28.2759 39.5868,27.9789 C39.5028,27.3569 39.4618,26.7989 39.4618,26.2739 C39.4618,25.7489 39.5028,25.1919 39.5868,24.5689 C39.6278,24.2719 39.8818,24.0499 40.1818,24.0499 L43.8398,24.0499 C44.0198,24.0499 44.1898,24.1309 44.3038,24.2689 C44.4178,24.4079 44.4628,24.5899 44.4288,24.7669 C44.3218,25.2999 44.2708,25.7939 44.2708,26.2739 C44.2708,26.7549 44.3218,27.2479 44.4288,27.7809 C44.4628,27.9579 44.4178,28.1399 44.3038,28.2789 C44.1898,28.4179 44.0198,28.4979 43.8398,28.4979" id="Fill-32" fill="#0C1423" mask="url(#mask-4)"></path>
                <path d="M44.6074,24.0499 L51.2624,24.0499 C51.1014,22.2499 50.7514,20.4809 50.2174,18.7779 C47.5514,19.4039 45.3984,21.4349 44.6074,24.0499 M51.9114,25.2499 L43.8394,25.2499 C43.6604,25.2499 43.4904,25.1699 43.3764,25.0299 C43.2614,24.8919 43.2164,24.7089 43.2514,24.5329 C43.9704,20.9199 46.8944,18.0909 50.5264,17.4929 C50.8204,17.4459 51.0984,17.6159 51.1924,17.8939 C51.9184,20.0489 52.3614,22.3079 52.5094,24.6119 C52.5204,24.7769 52.4614,24.9399 52.3484,25.0599 C52.2354,25.1809 52.0774,25.2499 51.9114,25.2499" id="Fill-33" fill="#0C1423" mask="url(#mask-4)"></path>
                <path d="M44.6074,28.4981 C45.3984,31.1131 47.5514,33.1441 50.2174,33.7701 C50.7514,32.0671 51.1014,30.2991 51.2624,28.4981 L44.6074,28.4981 Z M50.6244,35.0621 C50.5914,35.0621 50.5594,35.0601 50.5264,35.0551 C46.8944,34.4571 43.9704,31.6281 43.2514,28.0151 C43.2164,27.8391 43.2614,27.6561 43.3764,27.5181 C43.4904,27.3781 43.6604,27.2981 43.8394,27.2981 L51.9114,27.2981 C52.0774,27.2981 52.2354,27.3671 52.3484,27.4881 C52.4614,27.6081 52.5204,27.7711 52.5094,27.9361 C52.3614,30.2401 51.9184,32.4991 51.1924,34.6541 C51.1094,34.9011 50.8784,35.0621 50.6244,35.0621 L50.6244,35.0621 Z" id="Fill-34" fill="#0C1423" mask="url(#mask-4)"></path>
                <path d="M44.3457,27.2979 L51.3477,27.2979 C51.3667,26.9589 51.3807,26.6179 51.3807,26.2739 C51.3807,25.9299 51.3667,25.5899 51.3477,25.2499 L44.3457,25.2499 C44.2957,25.6039 44.2707,25.9419 44.2707,26.2739 C44.2707,26.6059 44.2957,26.9439 44.3457,27.2979 M51.9107,28.4979 L43.8397,28.4979 C43.5537,28.4979 43.3067,28.2959 43.2507,28.0149 C43.1297,27.4029 43.0717,26.8339 43.0717,26.2739 C43.0717,25.7139 43.1297,25.1449 43.2507,24.5329 C43.3067,24.2529 43.5537,24.0499 43.8397,24.0499 L51.9107,24.0499 C52.2277,24.0499 52.4897,24.2959 52.5097,24.6109 C52.5457,25.1619 52.5797,25.7139 52.5797,26.2739 C52.5797,26.8349 52.5457,27.3859 52.5097,27.9369 C52.4897,28.2529 52.2277,28.4979 51.9107,28.4979" id="Fill-35" fill="#0C1423" mask="url(#mask-4)"></path>
                <path d="M24.666,43.8243 L24.676,43.8243 L24.666,43.8243 Z M15.414,48.8633 C16.149,49.2193 16.899,49.5373 17.652,49.8143 C18.437,46.6683 20.915,44.1603 24.066,43.3463 L24.066,40.8753 C19.95,41.7023 16.569,44.8163 15.414,48.8633 L15.414,48.8633 Z M18.101,51.2083 C18.036,51.2083 17.972,51.1983 17.909,51.1773 C16.737,50.7823 15.57,50.2923 14.438,49.7203 C14.191,49.5943 14.062,49.3153 14.126,49.0453 C15.316,44.0713 19.52,40.2643 24.585,39.5723 C24.751,39.5493 24.93,39.6003 25.061,39.7143 C25.191,39.8273 25.266,39.9923 25.266,40.1663 L25.266,43.8243 C25.266,44.1103 25.063,44.3573 24.783,44.4123 C21.657,45.0343 19.21,47.5643 18.692,50.7063 C18.664,50.8793 18.561,51.0323 18.41,51.1223 C18.315,51.1793 18.208,51.2083 18.101,51.2083 L18.101,51.2083 Z" id="Fill-36" fill="#0C1423" mask="url(#mask-4)"></path>
                <path d="M28.5137,43.3463 C31.6647,44.1603 34.1427,46.6683 34.9267,49.8143 C35.6817,49.5363 36.4307,49.2183 37.1647,48.8643 C36.0097,44.8163 32.6297,41.7023 28.5137,40.8753 L28.5137,43.3463 Z M34.4787,51.2083 C34.3707,51.2083 34.2637,51.1793 34.1687,51.1223 C34.0187,51.0323 33.9147,50.8793 33.8867,50.7063 C33.3687,47.5643 30.9217,45.0353 27.7967,44.4123 C27.5167,44.3573 27.3147,44.1103 27.3147,43.8243 L27.3147,40.1663 C27.3147,39.9923 27.3887,39.8273 27.5197,39.7143 C27.6507,39.5993 27.8207,39.5463 27.9947,39.5723 C33.0597,40.2643 37.2627,44.0713 38.4527,49.0453 C38.5177,49.3153 38.3877,49.5943 38.1407,49.7203 C37.0117,50.2913 35.8447,50.7823 34.6697,51.1773 C34.6077,51.1983 34.5427,51.2083 34.4787,51.2083 L34.4787,51.2083 Z" id="Fill-37" fill="#0C1423" mask="url(#mask-4)"></path>
                <path d="M26.29,43.0552 C26.626,43.0552 26.965,43.0762 27.314,43.1192 L27.314,40.6992 C26.588,40.6272 25.992,40.6272 25.266,40.6992 L25.266,43.1192 C25.615,43.0762 25.954,43.0552 26.29,43.0552 M27.914,44.4242 C27.875,44.4242 27.836,44.4202 27.797,44.4122 C26.73,44.2012 25.85,44.2012 24.783,44.4122 C24.607,44.4482 24.425,44.4022 24.285,44.2882 C24.146,44.1742 24.066,44.0042 24.066,43.8242 L24.066,40.1662 C24.066,39.8662 24.287,39.6122 24.585,39.5722 C25.822,39.4022 26.752,39.4022 27.995,39.5722 C28.293,39.6122 28.514,39.8662 28.514,40.1662 L28.514,43.8242 C28.514,44.0042 28.434,44.1742 28.295,44.2882 C28.186,44.3772 28.052,44.4242 27.914,44.4242" id="Fill-38" fill="#0C1423" mask="url(#mask-4)"></path>
                <path d="M18.793,50.2027 C20.496,50.7347 22.265,51.0857 24.066,51.2477 L24.066,44.5927 C21.451,45.3837 19.42,47.5357 18.793,50.2027 M24.666,52.4957 C24.653,52.4957 24.641,52.4947 24.627,52.4947 C22.323,52.3447 20.063,51.9017 17.909,51.1777 C17.631,51.0837 17.461,50.8017 17.509,50.5107 C18.106,46.8787 20.936,43.9547 24.549,43.2357 C24.727,43.2007 24.907,43.2457 25.047,43.3607 C25.186,43.4737 25.266,43.6447 25.266,43.8247 L25.266,51.8957 C25.266,52.0617 25.197,52.2197 25.076,52.3337 C24.965,52.4377 24.818,52.4957 24.666,52.4957" id="Fill-39" fill="#0C1423" mask="url(#mask-4)"></path>
                <path d="M28.5137,44.5924 L28.5137,51.2474 C30.3167,51.0854 32.0837,50.7354 33.7857,50.2024 C33.1597,47.5354 31.1287,45.3834 28.5137,44.5924 M27.9137,52.4954 C27.7617,52.4954 27.6157,52.4384 27.5037,52.3334 C27.3827,52.2194 27.3147,52.0614 27.3147,51.8954 L27.3147,43.8244 C27.3147,43.6444 27.3947,43.4744 27.5337,43.3604 C27.6727,43.2464 27.8557,43.2004 28.0317,43.2364 C31.6437,43.9554 34.4727,46.8794 35.0707,50.5104 C35.1177,50.8014 34.9487,51.0834 34.6697,51.1774 C32.5177,51.9014 30.2577,52.3444 27.9527,52.4944 C27.9397,52.4954 27.9267,52.4954 27.9137,52.4954" id="Fill-40" fill="#0C1423" mask="url(#mask-4)"></path>
                <path d="M25.2656,51.3316 C25.9446,51.3696 26.6336,51.3696 27.3146,51.3316 L27.3146,44.3306 C26.6076,44.2296 25.9726,44.2296 25.2656,44.3306 L25.2656,51.3316 Z M26.2896,52.5646 C25.7286,52.5646 25.1776,52.5306 24.6266,52.4946 C24.3116,52.4736 24.0666,52.2116 24.0666,51.8956 L24.0666,43.8246 C24.0666,43.5386 24.2686,43.2916 24.5486,43.2356 C25.7736,42.9926 26.8066,42.9926 28.0316,43.2356 C28.3116,43.2916 28.5136,43.5386 28.5136,43.8246 L28.5136,51.8956 C28.5136,52.2116 28.2686,52.4736 27.9536,52.4946 C27.4016,52.5306 26.8496,52.5646 26.2896,52.5646 L26.2896,52.5646 Z" id="Fill-41" fill="#0C1423" mask="url(#mask-4)"></path>
                <path d="M2.749,34.9107 C3.027,35.6667 3.346,36.4157 3.7,37.1497 C7.748,35.9947 10.861,32.6137 11.688,28.4977 L9.218,28.4977 C8.403,31.6487 5.895,34.1267 2.749,34.9107 M3.379,38.4537 C3.156,38.4537 2.947,38.3297 2.844,38.1247 C2.272,36.9977 1.782,35.8307 1.387,34.6537 C1.33,34.4867 1.351,34.3047 1.44,34.1537 C1.531,34.0027 1.684,33.8987 1.857,33.8697 C5,33.3537 7.528,30.9067 8.15,27.7807 C8.207,27.4997 8.453,27.2977 8.739,27.2977 L12.397,27.2977 C12.57,27.2977 12.735,27.3727 12.85,27.5037 C12.964,27.6347 13.016,27.8077 12.992,27.9787 C12.3,33.0437 8.492,37.2467 3.519,38.4367 C3.472,38.4487 3.425,38.4537 3.379,38.4537" id="Fill-42" fill="#0C1423" mask="url(#mask-4)"></path>
                <path d="M9.2178,24.0499 L11.6888,24.0499 C10.8618,19.9339 7.7478,16.5529 3.6998,15.3989 C3.3458,16.1319 3.0278,16.8819 2.7488,17.6369 C5.8958,18.4219 8.4038,20.8989 9.2178,24.0499 M12.3978,25.2499 L8.7388,25.2499 C8.4528,25.2499 8.2068,25.0479 8.1508,24.7669 C7.5288,21.6419 4.9998,19.1949 1.8578,18.6779 C1.6838,18.6489 1.5308,18.5459 1.4408,18.3949 C1.3508,18.2439 1.3298,18.0609 1.3868,17.8939 C1.7828,16.7169 2.2738,15.5489 2.8438,14.4239 C2.9688,14.1769 3.2438,14.0479 3.5188,14.1109 C8.4918,15.3009 12.2998,19.5039 12.9918,24.5689 C13.0158,24.7399 12.9638,24.9139 12.8498,25.0449 C12.7358,25.1749 12.5708,25.2499 12.3978,25.2499" id="Fill-43" fill="#0C1423" mask="url(#mask-4)"></path>
                <path d="M9.4443,27.2979 L11.8653,27.2979 C11.9013,26.9359 11.9193,26.5979 11.9193,26.2739 C11.9193,25.9499 11.9013,25.6119 11.8653,25.2499 L9.4443,25.2499 C9.4873,25.5989 9.5073,25.9389 9.5073,26.2739 C9.5073,26.6099 9.4873,26.9489 9.4443,27.2979 M12.3973,28.4979 L8.7393,28.4979 C8.5593,28.4979 8.3893,28.4179 8.2753,28.2789 C8.1613,28.1399 8.1163,27.9579 8.1503,27.7809 C8.2573,27.2479 8.3083,26.7549 8.3083,26.2739 C8.3083,25.7939 8.2573,25.2999 8.1503,24.7669 C8.1163,24.5899 8.1613,24.4079 8.2753,24.2689 C8.3893,24.1309 8.5593,24.0499 8.7393,24.0499 L12.3973,24.0499 C12.6973,24.0499 12.9513,24.2709 12.9923,24.5679 C13.0773,25.1879 13.1183,25.7459 13.1183,26.2739 C13.1183,26.8019 13.0773,27.3599 12.9923,27.9799 C12.9513,28.2769 12.6973,28.4979 12.3973,28.4979" id="Fill-44" fill="#0C1423" mask="url(#mask-4)"></path>
                <path d="M1.3164,24.0499 L7.9714,24.0499 C7.1804,21.4349 5.0274,19.4039 2.3614,18.7779 C1.8284,20.4809 1.4774,22.2499 1.3164,24.0499 M8.7394,25.2499 L0.6684,25.2499 C0.5024,25.2499 0.3434,25.1809 0.2304,25.0599 C0.1174,24.9399 0.0584,24.7769 0.0694,24.6119 C0.2174,22.3079 0.6614,20.0489 1.3864,17.8939 C1.4804,17.6159 1.7614,17.4459 2.0524,17.4929 C5.6844,18.0909 8.6084,20.9199 9.3284,24.5329 C9.3624,24.7089 9.3174,24.8919 9.2034,25.0299 C9.0884,25.1699 8.9194,25.2499 8.7394,25.2499" id="Fill-45" fill="#0C1423" mask="url(#mask-4)"></path>
                <path d="M1.3164,28.4981 C1.4774,30.2991 1.8284,32.0671 2.3614,33.7701 C5.0274,33.1441 7.1804,31.1131 7.9714,28.4981 L1.3164,28.4981 Z M1.9554,35.0621 C1.7014,35.0621 1.4694,34.9011 1.3864,34.6541 C0.6614,32.4991 0.2174,30.2401 0.0694,27.9361 C0.0584,27.7711 0.1174,27.6081 0.2304,27.4881 C0.3434,27.3671 0.5024,27.2981 0.6684,27.2981 L8.7394,27.2981 C8.9194,27.2981 9.0884,27.3781 9.2034,27.5181 C9.3174,27.6561 9.3624,27.8391 9.3284,28.0151 C8.6084,31.6281 5.6844,34.4571 2.0524,35.0551 C2.0194,35.0601 1.9874,35.0621 1.9554,35.0621 L1.9554,35.0621 Z" id="Fill-46" fill="#0C1423" mask="url(#mask-4)"></path>
                <path d="M1.2324,27.2979 L8.2334,27.2979 C8.2834,26.9439 8.3084,26.6059 8.3084,26.2739 C8.3084,25.9419 8.2834,25.6039 8.2334,25.2499 L1.2324,25.2499 C1.2124,25.5899 1.1994,25.9299 1.1994,26.2739 C1.1994,26.6179 1.2124,26.9589 1.2324,27.2979 M8.7394,28.4979 L0.6684,28.4979 C0.3514,28.4979 0.0894,28.2529 0.0694,27.9369 C0.0334,27.3859 0.0004,26.8349 0.0004,26.2739 C0.0004,25.7139 0.0334,25.1619 0.0694,24.6109 C0.0894,24.2959 0.3514,24.0499 0.6684,24.0499 L8.7394,24.0499 C9.0254,24.0499 9.2724,24.2529 9.3284,24.5329 C9.4494,25.1449 9.5074,25.7139 9.5074,26.2739 C9.5074,26.8339 9.4494,27.4029 9.3284,28.0149 C9.2724,28.2959 9.0254,28.4979 8.7394,28.4979" id="Fill-47" fill="#0C1423" mask="url(#mask-4)"></path>
            </g>
        </g>
    </g>
</svg>