<svg width="110" height="110" viewBox="0 0 110 110" fill="none" xmlns="http://www.w3.org/2000/svg">
<g id="i-pue">
<rect width="110" height="110" fill="white"/>
<g id="Group">
<path id="Fill 1" fill-rule="evenodd" clip-rule="evenodd" d="M81.9111 53.9835C81.7641 51.7025 81.3251 49.5025 80.6241 47.4185C80.2301 46.2475 79.7521 45.1165 79.2001 44.0275C76.7271 39.1465 72.7511 35.1695 67.8691 32.6965C66.7801 32.1455 65.6501 31.6675 64.4781 31.2735C62.3951 30.5715 60.1941 30.1335 57.9141 29.9855C57.3761 29.9505 56.8371 29.9175 56.2901 29.9175C55.7421 29.9175 55.2041 29.9505 54.6661 29.9855C52.3851 30.1335 50.1841 30.5715 48.1001 31.2735C46.9301 31.6675 45.7991 32.1455 44.7101 32.6965C39.8281 35.1695 35.8511 39.1465 33.3791 44.0275C32.8281 45.1165 32.3491 46.2475 31.9551 47.4185C31.2541 49.5025 30.8161 51.7025 30.6681 53.9835C30.6331 54.5215 30.5991 55.0605 30.5991 55.6075C30.5991 56.1545 30.6331 56.6935 30.6681 57.2315C30.8161 59.5125 31.2541 61.7125 31.9551 63.7965C32.3491 64.9675 32.8271 66.0985 33.3791 67.1875C35.8511 72.0685 39.8281 76.0455 44.7101 78.5185C45.7991 79.0695 46.9301 79.5475 48.1001 79.9415C50.1841 80.6425 52.3851 81.0815 54.6661 81.2295C55.2041 81.2645 55.7421 81.2975 56.2901 81.2975C56.8371 81.2975 57.3761 81.2645 57.9141 81.2295C60.1941 81.0815 62.3951 80.6425 64.4781 79.9415C65.6501 79.5475 66.7801 79.0695 67.8691 78.5185C72.7511 76.0455 76.7271 72.0685 79.2001 67.1875C79.7521 66.0985 80.2301 64.9675 80.6241 63.7965C81.3251 61.7125 81.7641 59.5125 81.9111 57.2315C81.9461 56.6935 81.9801 56.1545 81.9801 55.6075C81.9801 55.0605 81.9461 54.5215 81.9111 53.9835" fill="#FF483C"/>
<path id="Fill 4" fill-rule="evenodd" clip-rule="evenodd" d="M54.29 46.7349C50.684 46.7349 47.75 49.6689 47.75 53.2739C47.75 56.8799 50.684 59.8129 54.29 59.8129C57.895 59.8129 60.829 56.8799 60.829 53.2739C60.829 49.6689 57.895 46.7349 54.29 46.7349M54.29 61.0129C50.022 61.0129 46.551 57.5419 46.551 53.2739C46.551 49.0059 50.022 45.5349 54.29 45.5349C58.558 45.5349 62.028 49.0059 62.028 53.2739C62.028 57.5419 58.558 61.0129 54.29 61.0129" fill="#263238"/>
<path id="Fill 6" fill-rule="evenodd" clip-rule="evenodd" d="M52.666 67.1661H52.676H52.666ZM32.258 65.2361C34.562 69.4651 38.099 73.0011 42.328 75.3061C43.689 70.8641 47.485 67.4821 52.066 66.6541V55.4981H40.909C40.082 60.0791 36.699 63.8741 32.258 65.2361V65.2361ZM42.71 76.7851C42.617 76.7851 42.524 76.7631 42.438 76.7201C37.476 74.2061 33.357 70.0881 30.844 65.1241C30.761 64.9611 30.757 64.7681 30.834 64.6021C30.911 64.4351 31.061 64.3121 31.239 64.2701C35.735 63.1941 39.177 59.3951 39.803 54.8171C39.844 54.5201 40.098 54.2981 40.397 54.2981H52.666C52.997 54.2981 53.266 54.5661 53.266 54.8981V67.1661C53.266 67.4661 53.045 67.7201 52.747 67.7601C48.169 68.3871 44.369 71.8281 43.294 76.3241C43.251 76.5031 43.129 76.6521 42.962 76.7291C42.882 76.7661 42.796 76.7851 42.71 76.7851V76.7851Z" fill="#263238"/>
<path id="Fill 8" fill-rule="evenodd" clip-rule="evenodd" d="M56.5137 51.0499H67.6697C68.4977 46.4699 71.8797 42.6739 76.3217 41.3129C74.0177 37.0829 70.4807 33.5469 66.2507 31.2419C64.8897 35.6839 61.0937 39.0659 56.5137 39.8939V51.0499ZM68.1817 52.2499H55.9137C55.5827 52.2499 55.3147 51.9819 55.3147 51.6499V39.3819C55.3147 39.0819 55.5347 38.8279 55.8327 38.7879C60.4107 38.1609 64.2097 34.7199 65.2847 30.2239C65.3277 30.0449 65.4507 29.8959 65.6177 29.8189C65.7837 29.7409 65.9747 29.7439 66.1407 29.8279C71.1037 32.3419 75.2217 36.4599 77.7357 41.4239C77.8187 41.5869 77.8227 41.7799 77.7447 41.9459C77.6677 42.1129 77.5187 42.2359 77.3397 42.2779C72.8447 43.3539 69.4037 47.1529 68.7767 51.7319C68.7357 52.0289 68.4817 52.2499 68.1817 52.2499V52.2499Z" fill="#263238"/>
<path id="Fill 10" fill-rule="evenodd" clip-rule="evenodd" d="M56.5137 66.6539C61.0937 67.4819 64.8897 70.8639 66.2507 75.3059C70.4807 73.0019 74.0177 69.4649 76.3217 65.2359C71.8797 63.8749 68.4977 60.0779 67.6697 55.4979H56.5137V66.6539ZM65.8687 76.7849C65.7837 76.7849 65.6977 76.7659 65.6177 76.7289C65.4507 76.6519 65.3277 76.5029 65.2847 76.3239C64.2097 71.8279 60.4107 68.3869 55.8327 67.7599C55.5347 67.7199 55.3147 67.4659 55.3147 67.1659V54.8979C55.3147 54.5669 55.5827 54.2979 55.9137 54.2979H68.1817C68.4817 54.2979 68.7357 54.5199 68.7767 54.8169C69.4037 59.3949 72.8447 63.1939 77.3397 64.2699C77.5187 64.3129 77.6677 64.4349 77.7447 64.6019C77.8227 64.7679 77.8187 64.9609 77.7357 65.1249C75.2217 70.0879 71.1037 74.2059 66.1407 76.7199C66.0547 76.7629 65.9617 76.7849 65.8687 76.7849V76.7849Z" fill="#263238"/>
<path id="Fill 12" fill-rule="evenodd" clip-rule="evenodd" d="M40.9092 51.0499H52.0662V39.8939C47.4852 39.0659 43.6892 35.6839 42.3282 31.2419C38.0982 33.5469 34.5612 37.0829 32.2582 41.3119C36.6992 42.6739 40.0822 46.4689 40.9092 51.0499M52.6662 52.2499H40.3972C40.0972 52.2499 39.8442 52.0289 39.8032 51.7309C39.1772 47.1529 35.7352 43.3539 31.2392 42.2779C31.0602 42.2359 30.9112 42.1129 30.8342 41.9459C30.7572 41.7799 30.7612 41.5869 30.8442 41.4239C33.3572 36.4599 37.4752 32.3419 42.4382 29.8279C42.6032 29.7439 42.7952 29.7409 42.9622 29.8189C43.1292 29.8959 43.2512 30.0449 43.2942 30.2239C44.3692 34.7199 48.1692 38.1609 52.7472 38.7879C53.0452 38.8279 53.2652 39.0819 53.2652 39.3819V51.6499C53.2652 51.9819 52.9972 52.2499 52.6662 52.2499" fill="#263238"/>
<path id="Fill 14" fill-rule="evenodd" clip-rule="evenodd" d="M56.5137 54.2979H67.5097C67.4777 53.9389 67.4617 53.5999 67.4617 53.2739C67.4617 52.9479 67.4777 52.6089 67.5097 52.2499H56.5137V54.2979ZM68.1817 55.4979H55.9137C55.5827 55.4979 55.3147 55.2299 55.3147 54.8979V51.6499C55.3147 51.3189 55.5827 51.0499 55.9137 51.0499H68.1817C68.3547 51.0499 68.5197 51.1249 68.6337 51.2559C68.7467 51.3859 68.7997 51.5589 68.7767 51.7309C68.6997 52.2989 68.6607 52.8039 68.6607 53.2739C68.6607 53.7439 68.6997 54.2489 68.7767 54.8179C68.7997 54.9889 68.7467 55.1619 68.6337 55.2929C68.5197 55.4229 68.3547 55.4979 68.1817 55.4979V55.4979Z" fill="#263238"/>
<path id="Fill 16" fill-rule="evenodd" clip-rule="evenodd" d="M41.0703 54.2979H52.0663V52.2499H41.0703C41.1023 52.6079 41.1183 52.9459 41.1183 53.2739C41.1183 53.6019 41.1023 53.9399 41.0703 54.2979M52.6663 55.4979H40.3973C40.2233 55.4979 40.0593 55.4229 39.9453 55.2919C39.8313 55.1619 39.7793 54.9879 39.8023 54.8159C39.8813 54.2519 39.9193 53.7469 39.9193 53.2739C39.9193 52.8009 39.8813 52.2969 39.8023 51.7319C39.7793 51.5599 39.8313 51.3859 39.9453 51.2559C40.0593 51.1249 40.2233 51.0499 40.3973 51.0499H52.6663C52.9973 51.0499 53.2653 51.3189 53.2653 51.6499V54.8979C53.2653 55.2299 52.9973 55.4979 52.6663 55.4979" fill="#263238"/>
<path id="Fill 18" fill-rule="evenodd" clip-rule="evenodd" d="M54.29 66.4454C54.617 66.4454 54.956 66.4614 55.314 66.4934V55.4984H53.266V66.4934C53.624 66.4614 53.963 66.4454 54.29 66.4454M52.666 67.7664C52.521 67.7664 52.382 67.7144 52.271 67.6184C52.141 67.5044 52.066 67.3394 52.066 67.1664V54.8984C52.066 54.5664 52.335 54.2984 52.666 54.2984H55.914C56.245 54.2984 56.514 54.5664 56.514 54.8984V67.1664C56.514 67.3394 56.439 67.5044 56.309 67.6184C56.177 67.7324 56.005 67.7824 55.833 67.7604C54.699 67.6064 53.877 67.6064 52.747 67.7604C52.721 67.7644 52.693 67.7664 52.666 67.7664" fill="#263238"/>
<path id="Fill 20" fill-rule="evenodd" clip-rule="evenodd" d="M53.2656 51.0499H55.3146V40.0539C54.5976 40.1189 53.9826 40.1189 53.2656 40.0539V51.0499ZM55.9136 52.2499H52.6656C52.3346 52.2499 52.0666 51.9819 52.0666 51.6499V39.3819C52.0666 39.2089 52.1406 39.0439 52.2716 38.9299C52.4026 38.8159 52.5786 38.7599 52.7466 38.7879C53.8766 38.9419 54.6996 38.9419 55.8326 38.7879C56.0046 38.7639 56.1766 38.8169 56.3086 38.9299C56.4396 39.0439 56.5136 39.2089 56.5136 39.3819V51.6499C56.5136 51.9819 56.2446 52.2499 55.9136 52.2499V52.2499Z" fill="#263238"/>
<path id="Fill 22" fill-rule="evenodd" clip-rule="evenodd" d="M53.266 54.2978H55.315V52.2498H53.266V54.2978ZM55.914 55.4978H52.666C52.335 55.4978 52.066 55.2298 52.066 54.8978V51.6498C52.066 51.3188 52.335 51.0498 52.666 51.0498H55.914C56.245 51.0498 56.514 51.3188 56.514 51.6498V54.8978C56.514 55.2298 56.245 55.4978 55.914 55.4978V55.4978Z" fill="#263238"/>
<path id="Fill 24" fill-rule="evenodd" clip-rule="evenodd" d="M43.4141 30.6846C44.5691 34.7316 47.9501 37.8456 52.0661 38.6726V36.2016C48.9151 35.3886 46.4361 32.8806 45.6521 29.7336C44.8991 30.0106 44.1491 30.3296 43.4141 30.6846M52.6661 39.9816C52.6391 39.9816 52.6121 39.9796 52.5851 39.9766C47.5191 39.2836 43.3161 35.4766 42.1261 30.5026C42.0611 30.2326 42.1911 29.9536 42.4381 29.8286C43.5701 29.2556 44.7371 28.7656 45.9091 28.3706C46.0751 28.3146 46.2591 28.3346 46.4101 28.4256C46.5601 28.5166 46.6641 28.6686 46.6921 28.8416C47.2101 31.9846 49.6571 34.5136 52.7831 35.1356C53.0631 35.1906 53.2661 35.4376 53.2661 35.7236V39.3816C53.2661 39.5556 53.1911 39.7206 53.0601 39.8336C52.9501 39.9296 52.8101 39.9816 52.6661 39.9816" fill="#263238"/>
<path id="Fill 25" fill-rule="evenodd" clip-rule="evenodd" d="M56.5137 36.2017V38.6727C60.6297 37.8457 64.0097 34.7317 65.1647 30.6837C64.4307 30.3297 63.6817 30.0117 62.9267 29.7337C62.1427 32.8807 59.6647 35.3887 56.5137 36.2017M55.9137 39.9817C55.7697 39.9817 55.6297 39.9297 55.5197 39.8337C55.3887 39.7207 55.3147 39.5557 55.3147 39.3817V35.7237C55.3147 35.4377 55.5167 35.1907 55.7967 35.1357C58.9217 34.5137 61.3687 31.9847 61.8867 28.8417C61.9147 28.6687 62.0187 28.5157 62.1687 28.4257C62.3207 28.3347 62.5037 28.3147 62.6697 28.3707C63.8447 28.7657 65.0117 29.2567 66.1407 29.8277C66.3877 29.9537 66.5177 30.2327 66.4527 30.5027C65.2627 35.4767 61.0597 39.2837 55.9947 39.9757C55.9677 39.9797 55.9417 39.9817 55.9137 39.9817" fill="#263238"/>
<path id="Fill 26" fill-rule="evenodd" clip-rule="evenodd" d="M53.2656 38.8492C53.9926 38.9202 54.5876 38.9212 55.3146 38.8492V36.4292C54.6176 36.5152 53.9626 36.5152 53.2656 36.4292V38.8492ZM55.9136 39.3822H55.9236H55.9136ZM54.2896 40.1022C53.7626 40.1022 53.2036 40.0612 52.5846 39.9762C52.2866 39.9352 52.0666 39.6822 52.0666 39.3822V35.7242C52.0666 35.5442 52.1466 35.3732 52.2856 35.2602C52.4246 35.1462 52.6076 35.1002 52.7836 35.1352C53.8456 35.3472 54.7346 35.3472 55.7966 35.1352C55.9746 35.1002 56.1566 35.1462 56.2946 35.2602C56.4336 35.3732 56.5136 35.5442 56.5136 35.7242V39.3822C56.5136 39.6822 56.2926 39.9352 55.9946 39.9762C55.3736 40.0612 54.8166 40.1022 54.2896 40.1022V40.1022Z" fill="#263238"/>
<path id="Fill 27" fill-rule="evenodd" clip-rule="evenodd" d="M46.793 29.3458C47.42 32.0128 49.451 34.1648 52.066 34.9558V28.3008C50.266 28.4628 48.497 28.8128 46.793 29.3458M52.666 36.3238C52.627 36.3238 52.588 36.3198 52.549 36.3118C48.937 35.5938 46.106 32.6698 45.509 29.0368C45.461 28.7468 45.631 28.4648 45.909 28.3708C48.064 27.6458 50.325 27.2028 52.627 27.0538C52.81 27.0428 52.955 27.1008 53.076 27.2148C53.197 27.3278 53.266 27.4868 53.266 27.6528V35.7238C53.266 35.9038 53.186 36.0738 53.047 36.1878C52.939 36.2768 52.804 36.3238 52.666 36.3238" fill="#263238"/>
<path id="Fill 28" fill-rule="evenodd" clip-rule="evenodd" d="M56.5137 28.3004V34.9564C59.1287 34.1654 61.1597 32.0124 61.7857 29.3454C60.0837 28.8134 58.3167 28.4624 56.5137 28.3004M55.9137 36.3234C55.7767 36.3234 55.6417 36.2764 55.5337 36.1874C55.3947 36.0734 55.3147 35.9034 55.3147 35.7234V27.6524C55.3147 27.4864 55.3827 27.3284 55.5037 27.2144C55.6247 27.1014 55.7797 27.0424 55.9527 27.0534C58.2577 27.2034 60.5177 27.6464 62.6697 28.3704C62.9487 28.4654 63.1177 28.7464 63.0707 29.0374C62.4727 32.6694 59.6437 35.5934 56.0317 36.3124C55.9927 36.3204 55.9527 36.3234 55.9137 36.3234" fill="#263238"/>
<path id="Fill 29" fill-rule="evenodd" clip-rule="evenodd" d="M53.2656 35.2178C53.9706 35.3188 54.6096 35.3188 55.3146 35.2178V28.2168C54.6336 28.1778 53.9446 28.1778 53.2656 28.2168V35.2178ZM54.2896 36.4928C53.7276 36.4928 53.1586 36.4338 52.5486 36.3118C52.2676 36.2558 52.0666 36.0098 52.0666 35.7238V27.6528C52.0666 27.3358 52.3116 27.0738 52.6266 27.0538C53.7276 26.9818 54.8486 26.9818 55.9536 27.0538C56.2686 27.0738 56.5136 27.3358 56.5136 27.6528V35.7238C56.5136 36.0098 56.3126 36.2558 56.0316 36.3118C55.4216 36.4338 54.8526 36.4928 54.2896 36.4928V36.4928Z" fill="#263238"/>
<path id="Fill 30" fill-rule="evenodd" clip-rule="evenodd" d="M68.8916 51.0499H71.3616C72.1756 47.8989 74.6836 45.4219 77.8296 44.6369C77.5516 43.8819 77.2336 43.1319 76.8786 42.3989C72.8316 43.5529 69.7186 46.9339 68.8916 51.0499M71.8396 52.2499H68.1816C68.0086 52.2499 67.8436 52.1749 67.7296 52.0449C67.6156 51.9139 67.5636 51.7399 67.5866 51.5689C68.2806 46.5039 72.0876 42.3009 77.0606 41.1109C77.3366 41.0469 77.6106 41.1759 77.7356 41.4239C78.3056 42.5489 78.7956 43.7169 79.1926 44.8939C79.2486 45.0609 79.2286 45.2439 79.1386 45.3949C79.0476 45.5459 78.8956 45.6489 78.7216 45.6779C75.5786 46.1949 73.0506 48.6419 72.4286 51.7669C72.3716 52.0479 72.1256 52.2499 71.8396 52.2499" fill="#263238"/>
<path id="Fill 31" fill-rule="evenodd" clip-rule="evenodd" d="M68.8916 55.4981C69.7186 59.6141 72.8316 62.9951 76.8786 64.1491C77.2356 63.4131 77.5536 62.6641 77.8296 61.9111C74.6836 61.1271 72.1756 58.6491 71.3616 55.4981H68.8916ZM77.2006 65.4541C77.1546 65.4541 77.1076 65.4481 77.0606 65.4371C72.0876 64.2471 68.2806 60.0441 67.5866 54.9791C67.5636 54.8081 67.6156 54.6341 67.7296 54.5031C67.8436 54.3731 68.0086 54.2981 68.1816 54.2981H71.8396C72.1256 54.2981 72.3716 54.5001 72.4286 54.7811C73.0506 57.9061 75.5786 60.3531 78.7216 60.8701C78.8956 60.8991 79.0466 61.0021 79.1376 61.1531C79.2286 61.3041 79.2486 61.4871 79.1926 61.6531C78.7996 62.8251 78.3096 63.9921 77.7356 65.1241C77.6316 65.3301 77.4226 65.4541 77.2006 65.4541V65.4541Z" fill="#263238"/>
<path id="Fill 32" fill-rule="evenodd" clip-rule="evenodd" d="M68.7148 54.2979H71.1348C71.0918 53.9489 71.0708 53.6099 71.0708 53.2739C71.0708 52.9389 71.0918 52.5989 71.1348 52.2499H68.7148C68.6788 52.6139 68.6608 52.9519 68.6608 53.2739C68.6608 53.5959 68.6788 53.9339 68.7148 54.2979M71.8398 55.4979H68.1818C67.8818 55.4979 67.6278 55.2759 67.5868 54.9789C67.5028 54.3569 67.4618 53.7989 67.4618 53.2739C67.4618 52.7489 67.5028 52.1919 67.5868 51.5689C67.6278 51.2719 67.8818 51.0499 68.1818 51.0499H71.8398C72.0198 51.0499 72.1898 51.1309 72.3038 51.2689C72.4178 51.4079 72.4628 51.5899 72.4288 51.7669C72.3218 52.2999 72.2708 52.7939 72.2708 53.2739C72.2708 53.7549 72.3218 54.2479 72.4288 54.7809C72.4628 54.9579 72.4178 55.1399 72.3038 55.2789C72.1898 55.4179 72.0198 55.4979 71.8398 55.4979" fill="#263238"/>
<path id="Fill 33" fill-rule="evenodd" clip-rule="evenodd" d="M72.6074 51.0499H79.2624C79.1014 49.2499 78.7514 47.4809 78.2174 45.7779C75.5514 46.4039 73.3984 48.4349 72.6074 51.0499M79.9114 52.2499H71.8394C71.6604 52.2499 71.4904 52.1699 71.3764 52.0299C71.2614 51.8919 71.2164 51.7089 71.2514 51.5329C71.9704 47.9199 74.8944 45.0909 78.5264 44.4929C78.8204 44.4459 79.0984 44.6159 79.1924 44.8939C79.9184 47.0489 80.3614 49.3079 80.5094 51.6119C80.5204 51.7769 80.4614 51.9399 80.3484 52.0599C80.2354 52.1809 80.0774 52.2499 79.9114 52.2499" fill="#263238"/>
<path id="Fill 34" fill-rule="evenodd" clip-rule="evenodd" d="M72.6074 55.4981C73.3984 58.1131 75.5514 60.1441 78.2174 60.7701C78.7514 59.0671 79.1014 57.2991 79.2624 55.4981H72.6074ZM78.6244 62.0621C78.5914 62.0621 78.5594 62.0601 78.5264 62.0551C74.8944 61.4571 71.9704 58.6281 71.2514 55.0151C71.2164 54.8391 71.2614 54.6561 71.3764 54.5181C71.4904 54.3781 71.6604 54.2981 71.8394 54.2981H79.9114C80.0774 54.2981 80.2354 54.3671 80.3484 54.4881C80.4614 54.6081 80.5204 54.7711 80.5094 54.9361C80.3614 57.2401 79.9184 59.4991 79.1924 61.6541C79.1094 61.9011 78.8784 62.0621 78.6244 62.0621V62.0621Z" fill="#263238"/>
<path id="Fill 35" fill-rule="evenodd" clip-rule="evenodd" d="M72.3457 54.2979H79.3477C79.3667 53.9589 79.3807 53.6179 79.3807 53.2739C79.3807 52.9299 79.3667 52.5899 79.3477 52.2499H72.3457C72.2957 52.6039 72.2707 52.9419 72.2707 53.2739C72.2707 53.6059 72.2957 53.9439 72.3457 54.2979M79.9107 55.4979H71.8397C71.5537 55.4979 71.3067 55.2959 71.2507 55.0149C71.1297 54.4029 71.0717 53.8339 71.0717 53.2739C71.0717 52.7139 71.1297 52.1449 71.2507 51.5329C71.3067 51.2529 71.5537 51.0499 71.8397 51.0499H79.9107C80.2277 51.0499 80.4897 51.2959 80.5097 51.6109C80.5457 52.1619 80.5797 52.7139 80.5797 53.2739C80.5797 53.8349 80.5457 54.3859 80.5097 54.9369C80.4897 55.2529 80.2277 55.4979 79.9107 55.4979" fill="#263238"/>
<path id="Fill 36" fill-rule="evenodd" clip-rule="evenodd" d="M52.666 70.8243H52.676H52.666ZM43.414 75.8633C44.149 76.2193 44.899 76.5373 45.652 76.8143C46.437 73.6683 48.915 71.1603 52.066 70.3463V67.8753C47.95 68.7023 44.569 71.8163 43.414 75.8633V75.8633ZM46.101 78.2083C46.036 78.2083 45.972 78.1983 45.909 78.1773C44.737 77.7823 43.57 77.2923 42.438 76.7203C42.191 76.5943 42.062 76.3153 42.126 76.0453C43.316 71.0713 47.52 67.2643 52.585 66.5723C52.751 66.5493 52.93 66.6003 53.061 66.7143C53.191 66.8273 53.266 66.9923 53.266 67.1663V70.8243C53.266 71.1103 53.063 71.3573 52.783 71.4123C49.657 72.0343 47.21 74.5643 46.692 77.7063C46.664 77.8793 46.561 78.0323 46.41 78.1223C46.315 78.1793 46.208 78.2083 46.101 78.2083V78.2083Z" fill="#263238"/>
<path id="Fill 37" fill-rule="evenodd" clip-rule="evenodd" d="M56.5137 70.3463C59.6647 71.1603 62.1427 73.6683 62.9267 76.8143C63.6817 76.5363 64.4307 76.2183 65.1647 75.8643C64.0097 71.8163 60.6297 68.7023 56.5137 67.8753V70.3463ZM62.4787 78.2083C62.3707 78.2083 62.2637 78.1793 62.1687 78.1223C62.0187 78.0323 61.9147 77.8793 61.8867 77.7063C61.3687 74.5643 58.9217 72.0353 55.7967 71.4123C55.5167 71.3573 55.3147 71.1103 55.3147 70.8243V67.1663C55.3147 66.9923 55.3887 66.8273 55.5197 66.7143C55.6507 66.5993 55.8207 66.5463 55.9947 66.5723C61.0597 67.2643 65.2627 71.0713 66.4527 76.0453C66.5177 76.3153 66.3877 76.5943 66.1407 76.7203C65.0117 77.2913 63.8447 77.7823 62.6697 78.1773C62.6077 78.1983 62.5427 78.2083 62.4787 78.2083V78.2083Z" fill="#263238"/>
<path id="Fill 38" fill-rule="evenodd" clip-rule="evenodd" d="M54.29 70.0552C54.626 70.0552 54.965 70.0762 55.314 70.1192V67.6992C54.588 67.6272 53.992 67.6272 53.266 67.6992V70.1192C53.615 70.0762 53.954 70.0552 54.29 70.0552M55.914 71.4242C55.875 71.4242 55.836 71.4202 55.797 71.4122C54.73 71.2012 53.85 71.2012 52.783 71.4122C52.607 71.4482 52.425 71.4022 52.285 71.2882C52.146 71.1742 52.066 71.0042 52.066 70.8242V67.1662C52.066 66.8662 52.287 66.6122 52.585 66.5722C53.822 66.4022 54.752 66.4022 55.995 66.5722C56.293 66.6122 56.514 66.8662 56.514 67.1662V70.8242C56.514 71.0042 56.434 71.1742 56.295 71.2882C56.186 71.3772 56.052 71.4242 55.914 71.4242" fill="#263238"/>
<path id="Fill 39" fill-rule="evenodd" clip-rule="evenodd" d="M46.793 77.2027C48.496 77.7347 50.265 78.0857 52.066 78.2477V71.5927C49.451 72.3837 47.42 74.5357 46.793 77.2027M52.666 79.4957C52.653 79.4957 52.641 79.4947 52.627 79.4947C50.323 79.3447 48.063 78.9017 45.909 78.1777C45.631 78.0837 45.461 77.8017 45.509 77.5107C46.106 73.8787 48.936 70.9547 52.549 70.2357C52.727 70.2007 52.907 70.2457 53.047 70.3607C53.186 70.4737 53.266 70.6447 53.266 70.8247V78.8957C53.266 79.0617 53.197 79.2197 53.076 79.3337C52.965 79.4377 52.818 79.4957 52.666 79.4957" fill="#263238"/>
<path id="Fill 40" fill-rule="evenodd" clip-rule="evenodd" d="M56.5137 71.5924V78.2474C58.3167 78.0854 60.0837 77.7354 61.7857 77.2024C61.1597 74.5354 59.1287 72.3834 56.5137 71.5924M55.9137 79.4954C55.7617 79.4954 55.6157 79.4384 55.5037 79.3334C55.3827 79.2194 55.3147 79.0614 55.3147 78.8954V70.8244C55.3147 70.6444 55.3947 70.4744 55.5337 70.3604C55.6727 70.2464 55.8557 70.2004 56.0317 70.2364C59.6437 70.9554 62.4727 73.8794 63.0707 77.5104C63.1177 77.8014 62.9487 78.0834 62.6697 78.1774C60.5177 78.9014 58.2577 79.3444 55.9527 79.4944C55.9397 79.4954 55.9267 79.4954 55.9137 79.4954" fill="#263238"/>
<path id="Fill 41" fill-rule="evenodd" clip-rule="evenodd" d="M53.2656 78.3316C53.9446 78.3696 54.6336 78.3696 55.3146 78.3316V71.3306C54.6076 71.2296 53.9726 71.2296 53.2656 71.3306V78.3316ZM54.2896 79.5646C53.7286 79.5646 53.1776 79.5306 52.6266 79.4946C52.3116 79.4736 52.0666 79.2116 52.0666 78.8956V70.8246C52.0666 70.5386 52.2686 70.2916 52.5486 70.2356C53.7736 69.9926 54.8066 69.9926 56.0316 70.2356C56.3116 70.2916 56.5136 70.5386 56.5136 70.8246V78.8956C56.5136 79.2116 56.2686 79.4736 55.9536 79.4946C55.4016 79.5306 54.8496 79.5646 54.2896 79.5646V79.5646Z" fill="#263238"/>
<path id="Fill 42" fill-rule="evenodd" clip-rule="evenodd" d="M30.749 61.9107C31.027 62.6667 31.346 63.4157 31.7 64.1497C35.748 62.9947 38.861 59.6137 39.688 55.4977H37.218C36.403 58.6487 33.895 61.1267 30.749 61.9107M31.379 65.4537C31.156 65.4537 30.947 65.3297 30.844 65.1247C30.272 63.9977 29.782 62.8307 29.387 61.6537C29.33 61.4867 29.351 61.3047 29.44 61.1537C29.531 61.0027 29.684 60.8987 29.857 60.8697C33 60.3537 35.528 57.9067 36.15 54.7807C36.207 54.4997 36.453 54.2977 36.739 54.2977H40.397C40.57 54.2977 40.735 54.3727 40.85 54.5037C40.964 54.6347 41.016 54.8077 40.992 54.9787C40.3 60.0437 36.492 64.2467 31.519 65.4367C31.472 65.4487 31.425 65.4537 31.379 65.4537" fill="#263238"/>
<path id="Fill 43" fill-rule="evenodd" clip-rule="evenodd" d="M37.2178 51.0499H39.6888C38.8618 46.9339 35.7478 43.5529 31.6998 42.3989C31.3458 43.1319 31.0278 43.8819 30.7488 44.6369C33.8958 45.4219 36.4038 47.8989 37.2178 51.0499M40.3978 52.2499H36.7388C36.4528 52.2499 36.2068 52.0479 36.1508 51.7669C35.5288 48.6419 32.9998 46.1949 29.8578 45.6779C29.6838 45.6489 29.5308 45.5459 29.4408 45.3949C29.3508 45.2439 29.3298 45.0609 29.3868 44.8939C29.7828 43.7169 30.2738 42.5489 30.8438 41.4239C30.9688 41.1769 31.2438 41.0479 31.5188 41.1109C36.4918 42.3009 40.2998 46.5039 40.9918 51.5689C41.0158 51.7399 40.9638 51.9139 40.8498 52.0449C40.7358 52.1749 40.5708 52.2499 40.3978 52.2499" fill="#263238"/>
<path id="Fill 44" fill-rule="evenodd" clip-rule="evenodd" d="M37.4443 54.2979H39.8653C39.9013 53.9359 39.9193 53.5979 39.9193 53.2739C39.9193 52.9499 39.9013 52.6119 39.8653 52.2499H37.4443C37.4873 52.5989 37.5073 52.9389 37.5073 53.2739C37.5073 53.6099 37.4873 53.9489 37.4443 54.2979M40.3973 55.4979H36.7393C36.5593 55.4979 36.3893 55.4179 36.2753 55.2789C36.1613 55.1399 36.1163 54.9579 36.1503 54.7809C36.2573 54.2479 36.3083 53.7549 36.3083 53.2739C36.3083 52.7939 36.2573 52.2999 36.1503 51.7669C36.1163 51.5899 36.1613 51.4079 36.2753 51.2689C36.3893 51.1309 36.5593 51.0499 36.7393 51.0499H40.3973C40.6973 51.0499 40.9513 51.2709 40.9923 51.5679C41.0773 52.1879 41.1183 52.7459 41.1183 53.2739C41.1183 53.8019 41.0773 54.3599 40.9923 54.9799C40.9513 55.2769 40.6973 55.4979 40.3973 55.4979" fill="#263238"/>
<path id="Fill 45" fill-rule="evenodd" clip-rule="evenodd" d="M29.3164 51.0499H35.9714C35.1804 48.4349 33.0274 46.4039 30.3614 45.7779C29.8284 47.4809 29.4774 49.2499 29.3164 51.0499M36.7394 52.2499H28.6684C28.5024 52.2499 28.3434 52.1809 28.2304 52.0599C28.1174 51.9399 28.0584 51.7769 28.0694 51.6119C28.2174 49.3079 28.6614 47.0489 29.3864 44.8939C29.4804 44.6159 29.7614 44.4459 30.0524 44.4929C33.6844 45.0909 36.6084 47.9199 37.3284 51.5329C37.3624 51.7089 37.3174 51.8919 37.2034 52.0299C37.0884 52.1699 36.9194 52.2499 36.7394 52.2499" fill="#263238"/>
<path id="Fill 46" fill-rule="evenodd" clip-rule="evenodd" d="M29.3164 55.4981C29.4774 57.2991 29.8284 59.0671 30.3614 60.7701C33.0274 60.1441 35.1804 58.1131 35.9714 55.4981H29.3164ZM29.9554 62.0621C29.7014 62.0621 29.4694 61.9011 29.3864 61.6541C28.6614 59.4991 28.2174 57.2401 28.0694 54.9361C28.0584 54.7711 28.1174 54.6081 28.2304 54.4881C28.3434 54.3671 28.5024 54.2981 28.6684 54.2981H36.7394C36.9194 54.2981 37.0884 54.3781 37.2034 54.5181C37.3174 54.6561 37.3624 54.8391 37.3284 55.0151C36.6084 58.6281 33.6844 61.4571 30.0524 62.0551C30.0194 62.0601 29.9874 62.0621 29.9554 62.0621V62.0621Z" fill="#263238"/>
<path id="Fill 47" fill-rule="evenodd" clip-rule="evenodd" d="M29.2324 54.2979H36.2334C36.2834 53.9439 36.3084 53.6059 36.3084 53.2739C36.3084 52.9419 36.2834 52.6039 36.2334 52.2499H29.2324C29.2124 52.5899 29.1994 52.9299 29.1994 53.2739C29.1994 53.6179 29.2124 53.9589 29.2324 54.2979M36.7394 55.4979H28.6684C28.3514 55.4979 28.0894 55.2529 28.0694 54.9369C28.0334 54.3859 28.0004 53.8349 28.0004 53.2739C28.0004 52.7139 28.0334 52.1619 28.0694 51.6109C28.0894 51.2959 28.3514 51.0499 28.6684 51.0499H36.7394C37.0254 51.0499 37.2724 51.2529 37.3284 51.5329C37.4494 52.1449 37.5074 52.7139 37.5074 53.2739C37.5074 53.8339 37.4494 54.4029 37.3284 55.0149C37.2724 55.2959 37.0254 55.4979 36.7394 55.4979" fill="#263238"/>
</g>
</g>
</svg>
