<?xml version="1.0" encoding="UTF-8" standalone="no"?>
<svg width="100px" height="100px" viewBox="0 0 100 100" version="1.1" xmlns="http://www.w3.org/2000/svg" xmlns:xlink="http://www.w3.org/1999/xlink">
    <!-- Generator: Sketch 41.2 (35397) - http://www.bohemiancoding.com/sketch -->
    <title>Artboard Copy 60</title>
    <desc>Created with Sketch.</desc>
    <defs>
        <polygon id="path-1" points="13.013 13.2307 13.013 0.9187 0.7007 0.9187 0.7007 13.2307 13.013 13.2307"></polygon>
    </defs>
    <g id="Welcome" stroke="none" stroke-width="1" fill="none" fill-rule="evenodd">
        <g id="Artboard-Copy-60">
            <g id="Page-1-Copy" transform="translate(18.000000, 17.000000)">
                <path d="M15.0781,5.8647 C15.0781,4.2457 13.7661,2.9337 12.1461,2.9337 C10.5281,2.9337 9.2161,4.2457 9.2161,5.8647 C9.2161,7.4837 10.5281,8.7967 12.1461,8.7967 C13.7661,8.7967 15.0781,7.4837 15.0781,5.8647" id="Fill-1" fill="#307CBF"></path>
                <path d="M17.8633,42.2143 C12.4803,42.2143 7.7093,38.8503 4.4303,32.7413 L7.5293,31.0773 C9.0563,33.9233 12.4303,38.6963 17.8633,38.6963 L17.8633,42.2143 Z" id="Fill-3" fill="#307CBF"></path>
                <path d="M20.6475,5.8647 C20.6475,4.2457 21.9595,2.9337 23.5795,2.9337 C25.1985,2.9337 26.5105,4.2457 26.5105,5.8647 C26.5105,7.4837 25.1985,8.7967 23.5795,8.7967 C21.9595,8.7967 20.6475,7.4837 20.6475,5.8647" id="Fill-5" fill="#307CBF"></path>
                <path d="M17.8633,42.2143 C23.2463,42.2143 28.0163,38.8503 31.2963,32.7413 L28.1973,31.0773 C26.6693,33.9233 23.2963,38.6963 17.8633,38.6963 L17.8633,42.2143 Z" id="Fill-7" fill="#307CBF"></path>
                <g id="Group-11" transform="translate(51.000000, 18.952100)">
                    <mask id="mask-2" fill="white">
                        <use xlink:href="#path-1"></use>
                    </mask>
                    <g id="Clip-10"></g>
                    <path d="M13.0137,7.0747 C13.0137,3.6747 10.2567,0.9187 6.8577,0.9187 C3.4567,0.9187 0.7007,3.6747 0.7007,7.0747 C0.7007,10.4747 3.4567,13.2307 6.8577,13.2307 C10.2567,13.2307 13.0137,10.4747 13.0137,7.0747" id="Fill-9" fill="#307CBF" mask="url(#mask-2)"></path>
                </g>
                <path d="M60.9551,26.0268 C60.9551,24.3158 59.5681,22.9288 57.8571,22.9288 C56.1461,22.9288 54.7601,24.3158 54.7601,26.0268 C54.7601,27.7368 56.1461,29.1238 57.8571,29.1238 C59.5681,29.1238 60.9551,27.7368 60.9551,26.0268" id="Fill-12" fill="#307CBF"></path>
                <path d="M10.1465,1.2001 C8.8615,1.2001 7.8155,2.2461 7.8155,3.5311 C7.8155,4.8171 8.8615,5.8631 10.1465,5.8631 C11.4325,5.8631 12.4785,4.8171 12.4785,3.5311 C12.4785,2.2461 11.4325,1.2001 10.1465,1.2001 M10.1465,7.0631 C8.1995,7.0631 6.6165,5.4781 6.6165,3.5311 C6.6165,1.5841 8.1995,0.0001 10.1465,0.0001 C12.0935,0.0001 13.6775,1.5841 13.6775,3.5311 C13.6775,5.4781 12.0935,7.0631 10.1465,7.0631" id="Fill-14" fill="#0C1423"></path>
                <path d="M3.9814,30.1767 C3.7664,30.1767 3.5604,30.0617 3.4524,29.8607 C1.2574,25.7737 0.0004,20.7177 0.0004,15.9897 C0.0004,7.4747 4.4274,4.5517 7.0664,3.5687 C7.3814,3.4527 7.7234,3.6107 7.8384,3.9207 C7.9544,4.2317 7.7964,4.5767 7.4864,4.6927 C4.6184,5.7617 1.1994,8.5897 1.1994,15.9897 C1.1994,20.5257 2.4064,25.3747 4.5084,29.2927 C4.6664,29.5847 4.5564,29.9487 4.2644,30.1057 C4.1734,30.1537 4.0774,30.1767 3.9814,30.1767" id="Fill-16" fill="#0C1423"></path>
                <path d="M3.249,30.6503 C6.277,35.9983 10.509,39.0313 15.264,39.2663 L15.264,36.9443 C10.189,36.6343 6.937,32.4303 5.292,29.5523 L3.249,30.6503 Z M15.863,40.4813 C10.248,40.4813 5.29,37.0043 1.902,30.6923 C1.745,30.4003 1.854,30.0373 2.146,29.8803 L5.245,28.2153 C5.385,28.1403 5.551,28.1233 5.702,28.1693 C5.854,28.2153 5.982,28.3203 6.058,28.4603 C7.521,31.1883 10.741,35.7633 15.863,35.7633 C16.194,35.7633 16.463,36.0313 16.463,36.3633 L16.463,39.8813 C16.463,40.2133 16.194,40.4813 15.863,40.4813 L15.863,40.4813 Z" id="Fill-18" fill="#0C1423"></path>
                <path d="M21.5791,1.2001 C20.2931,1.2001 19.2471,2.2461 19.2471,3.5311 C19.2471,4.8171 20.2931,5.8631 21.5791,5.8631 C22.8651,5.8631 23.9111,4.8171 23.9111,3.5311 C23.9111,2.2461 22.8651,1.2001 21.5791,1.2001 M21.5791,7.0631 C19.6321,7.0631 18.0481,5.4781 18.0481,3.5311 C18.0481,1.5841 19.6321,0.0001 21.5791,0.0001 C23.5261,0.0001 25.1101,1.5841 25.1101,3.5311 C25.1101,5.4781 23.5261,7.0631 21.5791,7.0631" id="Fill-20" fill="#0C1423"></path>
                <path d="M27.7451,30.1767 C27.6491,30.1767 27.5531,30.1537 27.4621,30.1057 C27.1701,29.9487 27.0601,29.5847 27.2181,29.2927 C29.3201,25.3747 30.5271,20.5257 30.5271,15.9897 C30.5271,8.5907 27.1071,5.7617 24.2391,4.6927 C23.9291,4.5767 23.7711,4.2317 23.8871,3.9207 C24.0021,3.6107 24.3491,3.4527 24.6591,3.5687 C27.2991,4.5517 31.7261,7.4747 31.7261,15.9897 C31.7261,20.7177 30.4691,25.7737 28.2741,29.8607 C28.1661,30.0617 27.9591,30.1767 27.7451,30.1767" id="Fill-22" fill="#0C1423"></path>
                <path d="M16.4629,36.9448 L16.4629,39.2668 C21.2159,39.0308 25.4479,35.9978 28.4779,30.6508 L26.4349,29.5528 C24.7889,32.4298 21.5349,36.6338 16.4629,36.9448 M15.8629,40.4818 C15.5319,40.4818 15.2639,40.2128 15.2639,39.8818 L15.2639,36.3628 C15.2639,36.0318 15.5319,35.7628 15.8629,35.7628 C20.9829,35.7628 24.2039,31.1878 25.6689,28.4608 C25.7439,28.3198 25.8719,28.2158 26.0249,28.1698 C26.1789,28.1238 26.3419,28.1408 26.4819,28.2158 L29.5799,29.8808 C29.8719,30.0368 29.9819,30.4008 29.8239,30.6928 C26.4359,37.0048 21.4779,40.4818 15.8629,40.4818" id="Fill-24" fill="#0C1423"></path>
                <path d="M27.1494,65.9521 C20.5954,65.9521 15.2634,60.6201 15.2634,54.0661 C15.2634,53.7351 15.5324,53.4661 15.8634,53.4661 C16.1944,53.4661 16.4624,53.7351 16.4624,54.0661 C16.4624,59.9581 21.2564,64.7521 27.1494,64.7521 C33.0414,64.7521 37.8354,59.9581 37.8354,54.0661 C37.8354,53.7351 38.1034,53.4661 38.4344,53.4661 C38.7654,53.4661 39.0344,53.7351 39.0344,54.0661 C39.0344,60.6201 33.7034,65.9521 27.1494,65.9521" id="Fill-26" fill="#0C1423"></path>
                <path d="M15.8633,54.6665 C15.5323,54.6665 15.2633,54.3975 15.2633,54.0665 L15.2633,39.8815 C15.2633,39.5495 15.5323,39.2815 15.8633,39.2815 C16.1943,39.2815 16.4633,39.5495 16.4633,39.8815 L16.4633,54.0665 C16.4633,54.3975 16.1943,54.6665 15.8633,54.6665" id="Fill-28" fill="#0C1423"></path>
                <path d="M38.4346,29.35 C38.1036,29.35 37.8346,29.081 37.8346,28.75 C37.8346,25.631 40.3716,23.093 43.4916,23.093 C43.8226,23.093 44.0906,23.362 44.0906,23.693 C44.0906,24.025 43.8226,24.293 43.4916,24.293 C41.0346,24.293 39.0346,26.292 39.0346,28.75 C39.0346,29.081 38.7656,29.35 38.4346,29.35" id="Fill-30" fill="#0C1423"></path>
                <path d="M38.4346,54.6665 C38.1036,54.6665 37.8346,54.3975 37.8346,54.0665 L37.8346,28.7495 C37.8346,28.4185 38.1036,28.1495 38.4346,28.1495 C38.7656,28.1495 39.0346,28.4185 39.0346,28.7495 L39.0346,54.0665 C39.0346,54.3975 38.7656,54.6665 38.4346,54.6665" id="Fill-32" fill="#0C1423"></path>
                <path d="M49.1348,24.2934 L43.4908,24.2934 C43.1598,24.2934 42.8918,24.0244 42.8918,23.6934 C42.8918,23.3614 43.1598,23.0934 43.4908,23.0934 L49.1348,23.0934 C49.4658,23.0934 49.7348,23.3614 49.7348,23.6934 C49.7348,24.0244 49.4658,24.2934 49.1348,24.2934" id="Fill-34" fill="#0C1423"></path>
                <path d="M55.8574,18.1376 C52.7944,18.1376 50.3004,20.6296 50.3004,23.6936 C50.3004,26.7576 52.7944,29.2496 55.8574,29.2496 C58.9204,29.2496 61.4144,26.7576 61.4144,23.6936 C61.4144,20.6296 58.9204,18.1376 55.8574,18.1376 M55.8574,30.4496 C52.1314,30.4496 49.1014,27.4186 49.1014,23.6936 C49.1014,19.9686 52.1314,16.9376 55.8574,16.9376 C59.5834,16.9376 62.6134,19.9686 62.6134,23.6936 C62.6134,27.4186 59.5834,30.4496 55.8574,30.4496" id="Fill-36" fill="#0C1423"></path>
                <path d="M55.8574,21.1962 C54.4804,21.1962 53.3594,22.3162 53.3594,23.6932 C53.3594,25.0712 54.4804,26.1912 55.8574,26.1912 C57.2344,26.1912 58.3554,25.0712 58.3554,23.6932 C58.3554,22.3162 57.2344,21.1962 55.8574,21.1962 M55.8574,27.3912 C53.8184,27.3912 52.1604,25.7322 52.1604,23.6932 C52.1604,21.6542 53.8184,19.9962 55.8574,19.9962 C57.8964,19.9962 59.5544,21.6542 59.5544,23.6932 C59.5544,25.7322 57.8964,27.3912 55.8574,27.3912" id="Fill-38" fill="#0C1423"></path>
            </g>
        </g>
    </g>
</svg>