<svg width="110" height="110" viewBox="0 0 110 110" fill="none" xmlns="http://www.w3.org/2000/svg">
<g id="i-sal">
<rect width="110" height="110" fill="white"/>
<g id="Group">
<path id="Fill 1" fill-rule="evenodd" clip-rule="evenodd" d="M37.0781 27.8647C37.0781 26.2457 35.7661 24.9337 34.1461 24.9337C32.5281 24.9337 31.2161 26.2457 31.2161 27.8647C31.2161 29.4837 32.5281 30.7967 34.1461 30.7967C35.7661 30.7967 37.0781 29.4837 37.0781 27.8647" fill="#FF483C"/>
<path id="Fill 3" fill-rule="evenodd" clip-rule="evenodd" d="M39.8633 64.2143C34.4803 64.2143 29.7093 60.8503 26.4303 54.7413L29.5293 53.0773C31.0563 55.9233 34.4303 60.6963 39.8633 60.6963V64.2143Z" fill="#FF483C"/>
<path id="Fill 5" fill-rule="evenodd" clip-rule="evenodd" d="M42.6475 27.8647C42.6475 26.2457 43.9595 24.9337 45.5795 24.9337C47.1985 24.9337 48.5105 26.2457 48.5105 27.8647C48.5105 29.4837 47.1985 30.7967 45.5795 30.7967C43.9595 30.7967 42.6475 29.4837 42.6475 27.8647" fill="#FF483C"/>
<path id="Fill 7" fill-rule="evenodd" clip-rule="evenodd" d="M39.8633 64.2143C45.2463 64.2143 50.0163 60.8503 53.2963 54.7413L50.1973 53.0773C48.6693 55.9233 45.2963 60.6963 39.8633 60.6963V64.2143Z" fill="#FF483C"/>
<path id="Exclude" fill-rule="evenodd" clip-rule="evenodd" d="M86.0137 48.0268C86.0137 44.6268 83.2567 41.8708 79.8577 41.8708C76.4567 41.8708 73.7007 44.6268 73.7007 48.0268C73.7007 51.4268 76.4567 54.1828 79.8577 54.1828C83.2567 54.1828 86.0137 51.4268 86.0137 48.0268M82.9551 48.0268C82.9551 46.3158 81.5681 44.9288 79.8571 44.9288C78.1461 44.9288 76.7601 46.3158 76.7601 48.0268C76.7601 49.7368 78.1461 51.1238 79.8571 51.1238C81.5681 51.1238 82.9551 49.7368 82.9551 48.0268" fill="#FF483C"/>
<path id="Fill 14" fill-rule="evenodd" clip-rule="evenodd" d="M32.1465 23.2001C30.8615 23.2001 29.8155 24.2461 29.8155 25.5311C29.8155 26.8171 30.8615 27.8631 32.1465 27.8631C33.4325 27.8631 34.4785 26.8171 34.4785 25.5311C34.4785 24.2461 33.4325 23.2001 32.1465 23.2001M32.1465 29.0631C30.1995 29.0631 28.6165 27.4781 28.6165 25.5311C28.6165 23.5841 30.1995 22.0001 32.1465 22.0001C34.0935 22.0001 35.6775 23.5841 35.6775 25.5311C35.6775 27.4781 34.0935 29.0631 32.1465 29.0631" fill="#232323"/>
<path id="Fill 16" fill-rule="evenodd" clip-rule="evenodd" d="M25.9814 52.1767C25.7664 52.1767 25.5604 52.0617 25.4524 51.8607C23.2574 47.7737 22.0004 42.7177 22.0004 37.9897C22.0004 29.4747 26.4274 26.5517 29.0664 25.5687C29.3814 25.4527 29.7234 25.6107 29.8384 25.9207C29.9544 26.2317 29.7964 26.5767 29.4864 26.6927C26.6184 27.7617 23.1994 30.5897 23.1994 37.9897C23.1994 42.5257 24.4064 47.3747 26.5084 51.2927C26.6664 51.5847 26.5564 51.9487 26.2644 52.1057C26.1734 52.1537 26.0774 52.1767 25.9814 52.1767" fill="#232323"/>
<path id="Fill 18" fill-rule="evenodd" clip-rule="evenodd" d="M25.249 52.6503C28.277 57.9983 32.509 61.0313 37.264 61.2663V58.9443C32.189 58.6343 28.937 54.4303 27.292 51.5523L25.249 52.6503ZM37.863 62.4813C32.248 62.4813 27.29 59.0043 23.902 52.6923C23.745 52.4003 23.854 52.0373 24.146 51.8803L27.245 50.2153C27.385 50.1403 27.551 50.1233 27.702 50.1693C27.854 50.2153 27.982 50.3203 28.058 50.4603C29.521 53.1883 32.741 57.7633 37.863 57.7633C38.194 57.7633 38.463 58.0313 38.463 58.3633V61.8813C38.463 62.2133 38.194 62.4813 37.863 62.4813V62.4813Z" fill="#232323"/>
<path id="Fill 20" fill-rule="evenodd" clip-rule="evenodd" d="M43.5791 23.2001C42.2931 23.2001 41.2471 24.2461 41.2471 25.5311C41.2471 26.8171 42.2931 27.8631 43.5791 27.8631C44.8651 27.8631 45.9111 26.8171 45.9111 25.5311C45.9111 24.2461 44.8651 23.2001 43.5791 23.2001M43.5791 29.0631C41.6321 29.0631 40.0481 27.4781 40.0481 25.5311C40.0481 23.5841 41.6321 22.0001 43.5791 22.0001C45.5261 22.0001 47.1101 23.5841 47.1101 25.5311C47.1101 27.4781 45.5261 29.0631 43.5791 29.0631" fill="#232323"/>
<path id="Fill 22" fill-rule="evenodd" clip-rule="evenodd" d="M49.7451 52.1767C49.6491 52.1767 49.5531 52.1537 49.4621 52.1057C49.1701 51.9487 49.0601 51.5847 49.2181 51.2927C51.3201 47.3747 52.5271 42.5257 52.5271 37.9897C52.5271 30.5907 49.1071 27.7617 46.2391 26.6927C45.9291 26.5767 45.7711 26.2317 45.8871 25.9207C46.0021 25.6107 46.3491 25.4527 46.6591 25.5687C49.2991 26.5517 53.7261 29.4747 53.7261 37.9897C53.7261 42.7177 52.4691 47.7737 50.2741 51.8607C50.1661 52.0617 49.9591 52.1767 49.7451 52.1767" fill="#232323"/>
<path id="Fill 24" fill-rule="evenodd" clip-rule="evenodd" d="M38.4629 58.9448V61.2668C43.2159 61.0308 47.4479 57.9978 50.4779 52.6508L48.4349 51.5528C46.7889 54.4298 43.5349 58.6338 38.4629 58.9448M37.8629 62.4818C37.5319 62.4818 37.2639 62.2128 37.2639 61.8818V58.3628C37.2639 58.0318 37.5319 57.7628 37.8629 57.7628C42.9829 57.7628 46.2039 53.1878 47.6689 50.4608C47.7439 50.3198 47.8719 50.2158 48.0249 50.1698C48.1789 50.1238 48.3419 50.1408 48.4819 50.2158L51.5799 51.8808C51.8719 52.0368 51.9819 52.4008 51.8239 52.6928C48.4359 59.0048 43.4779 62.4818 37.8629 62.4818" fill="#232323"/>
<path id="Fill 26" fill-rule="evenodd" clip-rule="evenodd" d="M49.1494 87.9521C42.5954 87.9521 37.2634 82.6201 37.2634 76.0661C37.2634 75.7351 37.5324 75.4661 37.8634 75.4661C38.1944 75.4661 38.4624 75.7351 38.4624 76.0661C38.4624 81.9581 43.2564 86.7521 49.1494 86.7521C55.0414 86.7521 59.8354 81.9581 59.8354 76.0661C59.8354 75.7351 60.1034 75.4661 60.4344 75.4661C60.7654 75.4661 61.0344 75.7351 61.0344 76.0661C61.0344 82.6201 55.7034 87.9521 49.1494 87.9521" fill="#232323"/>
<path id="Fill 28" fill-rule="evenodd" clip-rule="evenodd" d="M37.8633 76.6665C37.5323 76.6665 37.2633 76.3975 37.2633 76.0665V61.8815C37.2633 61.5495 37.5323 61.2815 37.8633 61.2815C38.1943 61.2815 38.4633 61.5495 38.4633 61.8815V76.0665C38.4633 76.3975 38.1943 76.6665 37.8633 76.6665" fill="#232323"/>
<path id="Fill 30" fill-rule="evenodd" clip-rule="evenodd" d="M60.4346 51.35C60.1036 51.35 59.8346 51.081 59.8346 50.75C59.8346 47.631 62.3716 45.093 65.4916 45.093C65.8226 45.093 66.0906 45.362 66.0906 45.693C66.0906 46.025 65.8226 46.293 65.4916 46.293C63.0346 46.293 61.0346 48.292 61.0346 50.75C61.0346 51.081 60.7656 51.35 60.4346 51.35" fill="#232323"/>
<path id="Fill 32" fill-rule="evenodd" clip-rule="evenodd" d="M60.4346 76.6665C60.1036 76.6665 59.8346 76.3975 59.8346 76.0665V50.7495C59.8346 50.4185 60.1036 50.1495 60.4346 50.1495C60.7656 50.1495 61.0346 50.4185 61.0346 50.7495V76.0665C61.0346 76.3975 60.7656 76.6665 60.4346 76.6665" fill="#232323"/>
<path id="Fill 34" fill-rule="evenodd" clip-rule="evenodd" d="M71.1348 46.2934H65.4908C65.1598 46.2934 64.8918 46.0244 64.8918 45.6934C64.8918 45.3614 65.1598 45.0934 65.4908 45.0934H71.1348C71.4658 45.0934 71.7348 45.3614 71.7348 45.6934C71.7348 46.0244 71.4658 46.2934 71.1348 46.2934" fill="#232323"/>
<path id="Fill 36" fill-rule="evenodd" clip-rule="evenodd" d="M77.8574 40.1376C74.7944 40.1376 72.3004 42.6296 72.3004 45.6936C72.3004 48.7576 74.7944 51.2496 77.8574 51.2496C80.9204 51.2496 83.4144 48.7576 83.4144 45.6936C83.4144 42.6296 80.9204 40.1376 77.8574 40.1376M77.8574 52.4496C74.1314 52.4496 71.1014 49.4186 71.1014 45.6936C71.1014 41.9686 74.1314 38.9376 77.8574 38.9376C81.5834 38.9376 84.6134 41.9686 84.6134 45.6936C84.6134 49.4186 81.5834 52.4496 77.8574 52.4496" fill="#232323"/>
<path id="Fill 38" fill-rule="evenodd" clip-rule="evenodd" d="M77.8574 43.1962C76.4804 43.1962 75.3594 44.3162 75.3594 45.6932C75.3594 47.0712 76.4804 48.1912 77.8574 48.1912C79.2344 48.1912 80.3554 47.0712 80.3554 45.6932C80.3554 44.3162 79.2344 43.1962 77.8574 43.1962M77.8574 49.3912C75.8184 49.3912 74.1604 47.7322 74.1604 45.6932C74.1604 43.6542 75.8184 41.9962 77.8574 41.9962C79.8964 41.9962 81.5544 43.6542 81.5544 45.6932C81.5544 47.7322 79.8964 49.3912 77.8574 49.3912" fill="#232323"/>
</g>
</g>
</svg>
