<?xml version="1.0" encoding="UTF-8" standalone="no"?>
<svg width="100px" height="100px" viewBox="0 0 100 100" version="1.1" xmlns="http://www.w3.org/2000/svg" xmlns:xlink="http://www.w3.org/1999/xlink">
    <!-- Generator: Sketch 41.2 (35397) - http://www.bohemiancoding.com/sketch -->
    <title>Artboard Copy 61</title>
    <desc>Created with Sketch.</desc>
    <defs>
        <polygon id="path-1" points="30.2584 0.998 0 0.998 0 30.126 60.5168 30.126 60.5168 0.998 30.2584 0.998"></polygon>
    </defs>
    <g id="Welcome" stroke="none" stroke-width="1" fill="none" fill-rule="evenodd">
        <g id="Artboard-Copy-61">
            <g id="Page-1-Copy" transform="translate(19.000000, 26.000000)">
                <g id="Group-3" transform="translate(2.000000, 3.001800)" fill="#307CBF">
                    <path d="M54.3125,28.7921 C57.8155,26.9761 59.8895,24.7501 59.8895,22.3421 C59.8895,20.5441 59.1085,17.4391 56.1065,15.6131 C49.0085,11.2961 30.2305,0.9321 30.2305,0.9321 C30.2305,0.9321 11.4525,11.2961 4.3545,15.6131 C1.3515,17.4391 0.5715,20.5441 0.5715,22.3421 C0.5715,24.7501 2.6445,26.9761 6.1475,28.7921 L6.1475,30.3361 C6.1475,30.4851 6.1945,30.6311 6.2365,30.7771 C5.0095,30.9871 4.0745,32.0501 4.0745,33.3361 C4.0745,34.4381 4.7605,35.3741 5.7275,35.7541 L5.7275,35.7581 L28.0755,44.5861 L28.0785,44.5821 C28.7245,44.8491 29.4315,45.0001 30.1735,45.0001 C30.1835,45.0001 30.1925,44.9971 30.2025,44.9971 C30.2115,44.9971 30.2205,45.0001 30.2305,45.0001 C30.9735,45.0001 31.6795,44.8491 32.3275,44.5821 L32.3305,44.5861 L54.6765,35.7581 L54.6765,35.7541 C55.6435,35.3741 56.3305,34.4381 56.3305,33.3361 C56.3305,32.0791 55.4385,31.0301 54.2515,30.7871 L54.2225,30.7871 C54.2665,30.6381 54.3125,30.4891 54.3125,30.3361 L54.3125,28.7921 Z" id="Fill-1"></path>
                </g>
                <path d="M30.2578,37.6513 C18.2928,37.6513 5.5758,35.3213 5.5758,31.0053 L5.5758,29.1783 C5.5758,28.8463 5.8448,28.5783 6.1758,28.5783 C6.5068,28.5783 6.7758,28.8463 6.7758,29.1783 L6.7758,31.0053 C6.7758,33.5813 16.4198,36.4513 30.2578,36.4513 C44.0968,36.4513 53.7408,33.5813 53.7408,31.0053 L53.7408,29.2253 C53.7408,28.8933 54.0098,28.6253 54.3408,28.6253 C54.6718,28.6253 54.9408,28.8933 54.9408,29.2253 L54.9408,31.0053 C54.9408,35.3213 42.2238,37.6513 30.2578,37.6513" id="Fill-4" fill="#0C1423"></path>
                <g id="Group-8" transform="translate(0.000000, 0.001800)">
                    <mask id="mask-2" fill="white">
                        <use xlink:href="#path-1"></use>
                    </mask>
                    <g id="Clip-7"></g>
                    <path d="M30.2578,23.774 C38.9598,23.774 47.4518,25.577 54.2118,28.854 C56.6028,27.593 59.3178,25.591 59.3178,23.009 C59.3178,22.326 59.1488,18.816 55.8218,16.793 C49.2968,12.824 32.6608,3.612 30.2578,2.284 C27.8548,3.612 11.2188,12.824 4.6938,16.793 C1.3678,18.816 1.1988,22.326 1.1988,23.009 C1.1988,25.591 3.9138,27.592 6.3038,28.854 C13.0638,25.577 21.5558,23.774 30.2578,23.774 M6.2958,30.126 C6.2018,30.126 6.1088,30.104 6.0238,30.06 C2.0818,28.047 -0.0002,25.609 -0.0002,23.009 C-0.0002,20.705 1.0698,17.593 4.0708,15.767 C11.0978,11.493 29.7798,1.177 29.9678,1.073 C30.1478,0.973 30.3658,0.973 30.5478,1.073 C30.7358,1.177 49.4178,11.493 56.4448,15.767 C59.4468,17.593 60.5168,20.705 60.5168,23.009 C60.5168,25.609 58.4338,28.048 54.4918,30.06 C54.3238,30.146 54.1238,30.147 53.9538,30.064 C47.3128,26.782 38.8978,24.974 30.2578,24.974 C21.6178,24.974 13.2028,26.782 6.5618,30.064 C6.4778,30.105 6.3868,30.126 6.2958,30.126" id="Fill-6" fill="#0C1423" mask="url(#mask-2)"></path>
                </g>
                <path d="M7.6904,29.5298 C13.2244,32.0108 21.5304,33.4738 30.2574,33.4738 C38.9864,33.4738 47.2924,32.0108 52.8254,29.5298 C46.3734,26.5878 38.4154,24.9758 30.2574,24.9758 C22.1004,24.9758 14.1424,26.5878 7.6904,29.5298 M30.2574,34.6748 C20.7374,34.6748 11.6774,32.9498 6.0234,30.0618 C5.8214,29.9588 5.6944,29.7508 5.6964,29.5238 C5.6974,29.2968 5.8274,29.0908 6.0304,28.9898 C12.8334,25.6278 21.4374,23.7758 30.2574,23.7758 C39.0784,23.7758 47.6824,25.6278 54.4854,28.9898 C54.6884,29.0908 54.8184,29.2968 54.8194,29.5238 C54.8214,29.7508 54.6944,29.9588 54.4924,30.0618 C48.8384,32.9498 39.7794,34.6748 30.2574,34.6748" id="Fill-9" fill="#0C1423"></path>
                <path d="M30.2578,46.2685 C30.2378,46.2685 30.2138,46.2675 30.1908,46.2645 C29.3898,46.2595 28.6508,46.1135 27.9448,45.8335 C27.9238,45.8275 27.9028,45.8205 27.8818,45.8125 L5.5348,36.9845 C5.5118,36.9755 5.4878,36.9645 5.4668,36.9525 C4.2708,36.4505 3.5028,35.3025 3.5028,34.0045 C3.5028,32.4185 4.6378,31.0885 6.2018,30.8415 C6.5278,30.7885 6.8358,31.0135 6.8888,31.3405 C6.9408,31.6685 6.7168,31.9755 6.3898,32.0275 C5.4118,32.1815 4.7018,33.0135 4.7018,34.0045 C4.7018,34.8305 5.2018,35.5605 5.9758,35.8635 C5.9978,35.8725 6.0198,35.8825 6.0398,35.8935 L28.2588,44.6705 C28.2838,44.6775 28.3088,44.6855 28.3338,44.6955 C28.9458,44.9475 29.5378,45.0775 30.2378,45.0675 C30.2708,45.0675 30.3038,45.0695 30.3318,45.0735 C30.8978,45.0685 31.5268,44.9435 32.1258,44.6965 C32.1518,44.6855 32.1768,44.6775 32.2018,44.6705 L54.4218,35.8935 C54.4428,35.8825 54.4638,35.8725 54.4858,35.8635 C55.2588,35.5605 55.7588,34.8305 55.7588,34.0045 C55.7588,33.0585 55.0858,32.2325 54.1598,32.0435 C53.8348,31.9765 53.6258,31.6595 53.6928,31.3355 C53.7588,31.0105 54.0838,30.7985 54.4008,30.8675 C55.8828,31.1705 56.9578,32.4905 56.9578,34.0045 C56.9578,35.3025 56.1898,36.4515 54.9928,36.9525 C54.9718,36.9645 54.9488,36.9755 54.9258,36.9845 L32.5778,45.8125 C32.5568,45.8205 32.5358,45.8275 32.5148,45.8335 C31.7888,46.1225 31.0298,46.2685 30.2578,46.2685" id="Fill-11" fill="#0C1423"></path>
                <path d="M30.2305,27.8711 C29.5095,27.8711 28.9225,28.4571 28.9225,29.1781 C28.9225,29.8991 29.5095,30.4851 30.2305,30.4851 C30.9515,30.4851 31.5385,29.8991 31.5385,29.1781 C31.5385,28.4571 30.9515,27.8711 30.2305,27.8711 M30.2305,31.6851 C28.8475,31.6851 27.7235,30.5601 27.7235,29.1781 C27.7235,27.7961 28.8475,26.6711 30.2305,26.6711 C31.6135,26.6711 32.7375,27.7961 32.7375,29.1781 C32.7375,30.5601 31.6135,31.6851 30.2305,31.6851" id="Fill-13" fill="#0C1423"></path>
            </g>
        </g>
    </g>
</svg>