<svg width="110" height="110" viewBox="0 0 110 110" fill="none" xmlns="http://www.w3.org/2000/svg">
<g id="i-seg">
<rect width="110" height="110" fill="white"/>
<g id="Group">
<path id="Fill 1" fill-rule="evenodd" clip-rule="evenodd" d="M80.3125 61.7939C83.8155 59.9779 85.8895 57.7519 85.8895 55.3439C85.8895 53.5459 85.1085 50.4409 82.1065 48.6149C75.0085 44.2979 56.2305 33.9339 56.2305 33.9339C56.2305 33.9339 37.4525 44.2979 30.3545 48.6149C27.3515 50.4409 26.5715 53.5459 26.5715 55.3439C26.5715 57.7519 28.6445 59.9779 32.1475 61.7939V63.3379C32.1475 63.4869 32.1945 63.6329 32.2365 63.7789C31.0095 63.9889 30.0745 65.0519 30.0745 66.3379C30.0745 67.4399 30.7605 68.3759 31.7275 68.7559V68.7599L54.0755 77.5879L54.0785 77.5839C54.7245 77.8509 55.4315 78.0019 56.1735 78.0019C56.1835 78.0019 56.1925 77.9989 56.2025 77.9989C56.2115 77.9989 56.2205 78.0019 56.2305 78.0019C56.9735 78.0019 57.6795 77.8509 58.3275 77.5839L58.3305 77.5879L80.6765 68.7599V68.7559C81.6435 68.3759 82.3305 67.4399 82.3305 66.3379C82.3305 65.0809 81.4385 64.0319 80.2515 63.7889H80.2225C80.2665 63.6399 80.3125 63.4909 80.3125 63.3379V61.7939Z" fill="#FF483C"/>
<path id="Fill 4" fill-rule="evenodd" clip-rule="evenodd" d="M54.2578 67.6513C42.2928 67.6513 29.5758 65.3213 29.5758 61.0053V59.1783C29.5758 58.8463 29.8448 58.5783 30.1758 58.5783C30.5068 58.5783 30.7758 58.8463 30.7758 59.1783V61.0053C30.7758 63.5813 40.4198 66.4513 54.2578 66.4513C68.0968 66.4513 77.7408 63.5813 77.7408 61.0053V59.2253C77.7408 58.8933 78.0098 58.6253 78.3408 58.6253C78.6718 58.6253 78.9408 58.8933 78.9408 59.2253V61.0053C78.9408 65.3213 66.2238 67.6513 54.2578 67.6513" fill="#263238"/>
<path id="Fill 6" fill-rule="evenodd" clip-rule="evenodd" d="M54.2578 53.7758C62.9598 53.7758 71.4518 55.5788 78.2118 58.8558C80.6028 57.5948 83.3178 55.5928 83.3178 53.0108C83.3178 52.3278 83.1488 48.8178 79.8218 46.7948C73.2968 42.8258 56.6608 33.6138 54.2578 32.2858C51.8548 33.6138 35.2188 42.8258 28.6938 46.7948C25.3678 48.8178 25.1988 52.3278 25.1988 53.0108C25.1988 55.5928 27.9138 57.5938 30.3038 58.8558C37.0638 55.5788 45.5558 53.7758 54.2578 53.7758M30.2958 60.1278C30.2018 60.1278 30.1088 60.1058 30.0238 60.0618C26.0818 58.0488 23.9998 55.6108 23.9998 53.0108C23.9998 50.7068 25.0698 47.5948 28.0708 45.7688C35.0978 41.4948 53.7798 31.1788 53.9678 31.0748C54.1478 30.9748 54.3658 30.9748 54.5478 31.0748C54.7358 31.1788 73.4178 41.4948 80.4448 45.7688C83.4468 47.5948 84.5168 50.7068 84.5168 53.0108C84.5168 55.6108 82.4338 58.0498 78.4918 60.0618C78.3238 60.1478 78.1238 60.1488 77.9538 60.0658C71.3128 56.7838 62.8978 54.9758 54.2578 54.9758C45.6178 54.9758 37.2028 56.7838 30.5618 60.0658C30.4778 60.1068 30.3868 60.1278 30.2958 60.1278" fill="#263238"/>
<path id="Fill 9" fill-rule="evenodd" clip-rule="evenodd" d="M31.6904 59.5298C37.2244 62.0108 45.5304 63.4738 54.2574 63.4738C62.9864 63.4738 71.2924 62.0108 76.8254 59.5298C70.3734 56.5878 62.4154 54.9758 54.2574 54.9758C46.1004 54.9758 38.1424 56.5878 31.6904 59.5298M54.2574 64.6748C44.7374 64.6748 35.6774 62.9498 30.0234 60.0618C29.8214 59.9588 29.6944 59.7508 29.6964 59.5238C29.6974 59.2968 29.8274 59.0908 30.0304 58.9898C36.8334 55.6278 45.4374 53.7758 54.2574 53.7758C63.0784 53.7758 71.6824 55.6278 78.4854 58.9898C78.6884 59.0908 78.8184 59.2968 78.8194 59.5238C78.8214 59.7508 78.6944 59.9588 78.4924 60.0618C72.8384 62.9498 63.7794 64.6748 54.2574 64.6748" fill="#263238"/>
<path id="Fill 11" fill-rule="evenodd" clip-rule="evenodd" d="M54.2578 76.2685C54.2378 76.2685 54.2138 76.2675 54.1908 76.2645C53.3898 76.2595 52.6508 76.1135 51.9448 75.8335C51.9238 75.8275 51.9028 75.8205 51.8818 75.8125L29.5348 66.9845C29.5118 66.9755 29.4878 66.9645 29.4668 66.9525C28.2708 66.4505 27.5028 65.3025 27.5028 64.0045C27.5028 62.4185 28.6378 61.0885 30.2018 60.8415C30.5278 60.7885 30.8358 61.0135 30.8888 61.3405C30.9408 61.6685 30.7168 61.9755 30.3898 62.0275C29.4118 62.1815 28.7018 63.0135 28.7018 64.0045C28.7018 64.8305 29.2018 65.5605 29.9758 65.8635C29.9978 65.8725 30.0198 65.8825 30.0398 65.8935L52.2588 74.6705C52.2838 74.6775 52.3088 74.6855 52.3338 74.6955C52.9458 74.9475 53.5378 75.0775 54.2378 75.0675C54.2708 75.0675 54.3038 75.0695 54.3318 75.0735C54.8978 75.0685 55.5268 74.9435 56.1258 74.6965C56.1518 74.6855 56.1768 74.6775 56.2018 74.6705L78.4218 65.8935C78.4428 65.8825 78.4638 65.8725 78.4858 65.8635C79.2588 65.5605 79.7588 64.8305 79.7588 64.0045C79.7588 63.0585 79.0858 62.2325 78.1598 62.0435C77.8348 61.9765 77.6258 61.6595 77.6928 61.3355C77.7588 61.0105 78.0838 60.7985 78.4008 60.8675C79.8828 61.1705 80.9578 62.4905 80.9578 64.0045C80.9578 65.3025 80.1898 66.4515 78.9928 66.9525C78.9718 66.9645 78.9488 66.9755 78.9258 66.9845L56.5778 75.8125C56.5568 75.8205 56.5358 75.8275 56.5148 75.8335C55.7888 76.1225 55.0298 76.2685 54.2578 76.2685" fill="#263238"/>
<path id="Fill 13" fill-rule="evenodd" clip-rule="evenodd" d="M54.2305 57.8711C53.5095 57.8711 52.9225 58.4571 52.9225 59.1781C52.9225 59.8991 53.5095 60.4851 54.2305 60.4851C54.9515 60.4851 55.5385 59.8991 55.5385 59.1781C55.5385 58.4571 54.9515 57.8711 54.2305 57.8711M54.2305 61.6851C52.8475 61.6851 51.7235 60.5601 51.7235 59.1781C51.7235 57.7961 52.8475 56.6711 54.2305 56.6711C55.6135 56.6711 56.7375 57.7961 56.7375 59.1781C56.7375 60.5601 55.6135 61.6851 54.2305 61.6851" fill="#263238"/>
</g>
</g>
</svg>
