<svg width="110" height="110" viewBox="0 0 110 110" fill="none" xmlns="http://www.w3.org/2000/svg">
<g id="i-tran">
<rect width="110" height="110" fill="white"/>
<g id="Group">
<path id="Fill 1" fill-rule="evenodd" clip-rule="evenodd" d="M79.6533 36.2988C79.6533 35.0308 78.6263 34.0038 77.3573 34.0038C76.0903 34.0038 75.0623 35.0308 75.0623 36.2988C75.0623 37.5668 76.0903 38.5948 77.3573 38.5948C78.6263 38.5948 79.6533 37.5668 79.6533 36.2988Z" fill="#FF483C"/>
<path id="Fill 3" fill-rule="evenodd" clip-rule="evenodd" d="M23.9 75.6729H60.979V43.5719H23.9V75.6729Z" fill="#FF483C"/>
<path id="Fill 5" fill-rule="evenodd" clip-rule="evenodd" d="M60.9785 43.5961C60.9785 40.5851 58.5385 38.1451 55.5275 38.1451H29.3505C26.3405 38.1451 23.8995 40.5851 23.8995 43.5961H34.8015C34.8015 43.5881 34.7995 43.5801 34.7995 43.5721H50.0795C50.0795 43.5801 50.0765 43.5881 50.0765 43.5961H60.9785Z" fill="#FF483C"/>
<path id="Fill 7" fill-rule="evenodd" clip-rule="evenodd" d="M25.4678 75.6723V79.2993C25.4678 81.3223 27.1078 82.9623 29.1298 82.9623C31.1528 82.9623 32.7918 81.3223 32.7918 79.2993V75.6723H25.4678Z" fill="#FF483C"/>
<path id="Fill 8" fill-rule="evenodd" clip-rule="evenodd" d="M52.0859 75.6723V79.2993C52.0859 81.3223 53.7259 82.9623 55.7479 82.9623C57.7709 82.9623 59.4099 81.3223 59.4099 79.2993V75.6723H52.0859Z" fill="#FF483C"/>
<path id="Fill 9" fill-rule="evenodd" clip-rule="evenodd" d="M29.1299 62.5688H23.8999V71.6098H29.1299C31.6269 71.6098 33.6509 69.5858 33.6509 67.0898C33.6509 64.5928 31.6269 62.5688 29.1299 62.5688" fill="#FF483C"/>
<path id="Fill 10" fill-rule="evenodd" clip-rule="evenodd" d="M55.748 62.5688H60.978V71.6098H55.748C53.251 71.6098 51.227 69.5858 51.227 67.0898C51.227 64.5928 53.251 62.5688 55.748 62.5688" fill="#FF483C"/>
<path id="Fill 13" fill-rule="evenodd" clip-rule="evenodd" d="M23.902 48.0569H60.979V43.5719H23.902V48.0569Z" fill="#FF483C"/>
<path id="Fill 15" fill-rule="evenodd" clip-rule="evenodd" d="M22.499 72.7719H58.379V41.8719H22.499V72.7719ZM58.979 73.9719H21.899C21.568 73.9719 21.3 73.7039 21.3 73.3719V41.2719C21.3 40.9399 21.568 40.6719 21.899 40.6719H58.979C59.31 40.6719 59.578 40.9399 59.578 41.2719V73.3719C59.578 73.7039 59.31 73.9719 58.979 73.9719V73.9719Z" fill="#232323"/>
<path id="Fill 16" fill-rule="evenodd" clip-rule="evenodd" d="M48.2471 40.6958H58.3421C58.0451 38.3028 55.9991 36.4458 53.5271 36.4458H27.3511C24.8791 36.4458 22.8331 38.3028 22.5361 40.6958H32.6381C32.6891 40.6798 32.7441 40.6718 32.8001 40.6718H48.0791C48.1381 40.6718 48.1941 40.6798 48.2471 40.6958M58.9781 41.8958H48.0761C48.0181 41.8958 47.9611 41.8878 47.9081 41.8718H32.9641C32.9121 41.8878 32.8571 41.8958 32.8021 41.8958H21.8991C21.5681 41.8958 21.3001 41.6278 21.3001 41.2958C21.3001 37.9598 24.0141 35.2448 27.3511 35.2448H53.5271C56.8641 35.2448 59.5781 37.9598 59.5781 41.2958C59.5781 41.6278 59.3101 41.8958 58.9781 41.8958" fill="#232323"/>
<path id="Fill 17" fill-rule="evenodd" clip-rule="evenodd" d="M21.9 56.3769H58.979V55.1769H21.9V56.3769Z" fill="#232323"/>
<path id="Fill 18" fill-rule="evenodd" clip-rule="evenodd" d="M24.0674 73.9721V77.0001C24.0674 78.6881 25.4414 80.0621 27.1304 80.0621C28.8184 80.0621 30.1924 78.6881 30.1924 77.0001V73.9721H24.0674ZM27.1304 81.2621C24.7794 81.2621 22.8684 79.3501 22.8684 77.0001V73.3721C22.8684 73.0401 23.1364 72.7721 23.4674 72.7721H30.7924C31.1234 72.7721 31.3914 73.0401 31.3914 73.3721V77.0001C31.3914 79.3501 29.4804 81.2621 27.1304 81.2621V81.2621Z" fill="#232323"/>
<path id="Fill 19" fill-rule="evenodd" clip-rule="evenodd" d="M50.6855 73.9721V77.0001C50.6855 78.6881 52.0595 80.0621 53.7485 80.0621C55.4365 80.0621 56.8105 78.6881 56.8105 77.0001V73.9721H50.6855ZM53.7485 81.2621C51.3975 81.2621 49.4865 79.3501 49.4865 77.0001V73.3721C49.4865 73.0401 49.7545 72.7721 50.0855 72.7721H57.4105C57.7415 72.7721 58.0095 73.0401 58.0095 73.3721V77.0001C58.0095 79.3501 56.0985 81.2621 53.7485 81.2621V81.2621Z" fill="#232323"/>
<path id="Fill 20" fill-rule="evenodd" clip-rule="evenodd" d="M22.499 68.7094H27.13C29.292 68.7094 31.051 66.9504 31.051 64.7894C31.051 62.6274 29.292 60.8694 27.13 60.8694H22.499V68.7094ZM27.13 69.9094H21.899C21.568 69.9094 21.3 69.6414 21.3 69.3094V60.2694C21.3 59.9374 21.568 59.6684 21.899 59.6684H27.13C29.953 59.6684 32.25 61.9654 32.25 64.7894C32.25 67.6124 29.953 69.9094 27.13 69.9094V69.9094Z" fill="#232323"/>
<path id="Fill 21" fill-rule="evenodd" clip-rule="evenodd" d="M53.748 60.8691C51.586 60.8691 49.827 62.6271 49.827 64.7891C49.827 66.9511 51.586 68.7091 53.748 68.7091H58.379V60.8691H53.748ZM58.978 69.9101H53.748C50.925 69.9101 48.628 67.6121 48.628 64.7891C48.628 61.9661 50.925 59.6691 53.748 59.6691H58.978C59.31 59.6691 59.578 59.9371 59.578 60.2691V69.3091C59.578 69.6411 59.31 69.9101 58.978 69.9101V69.9101Z" fill="#232323"/>
<path id="Fill 22" fill-rule="evenodd" clip-rule="evenodd" d="M35.728 63.2729H44.827V62.0729H35.728V63.2729Z" fill="#232323"/>
<path id="Fill 23" fill-rule="evenodd" clip-rule="evenodd" d="M35.728 67.2779H44.827V66.0779H35.728V67.2779Z" fill="#232323"/>
<path id="Fill 24" fill-rule="evenodd" clip-rule="evenodd" d="M62.8789 54.0893H61.6799V47.5363H58.9789V46.3363H62.2789C62.6099 46.3363 62.8789 46.6053 62.8789 46.9363V54.0893Z" fill="#232323"/>
<path id="Fill 25" fill-rule="evenodd" clip-rule="evenodd" d="M19.1992 54.0893H18.0002V46.9363C18.0002 46.6053 18.2682 46.3363 18.5992 46.3363H21.8992V47.5363H19.1992V54.0893Z" fill="#232323"/>
<path id="Fill 26" fill-rule="evenodd" clip-rule="evenodd" d="M22.501 45.1569H58.379V41.8719H22.501V45.1569ZM58.979 46.3569H21.901C21.57 46.3569 21.302 46.0879 21.302 45.7569V41.2719C21.302 40.9399 21.57 40.6719 21.901 40.6719H58.979C59.31 40.6719 59.578 40.9399 59.578 41.2719V45.7569C59.578 46.0879 59.31 46.3569 58.979 46.3569V46.3569Z" fill="#232323"/>
<path id="Fill 27" fill-rule="evenodd" clip-rule="evenodd" d="M39.678 55.7769H40.877V45.7559H39.678V55.7769Z" fill="#232323"/>
<path id="Fill 28" fill-rule="evenodd" clip-rule="evenodd" d="M67.8682 64.4189H82.8472L75.3572 38.5519L67.8682 64.4189ZM83.6462 65.6189H67.0692C66.8812 65.6189 66.7032 65.5299 66.5902 65.3789C66.4762 65.2289 66.4402 65.0329 66.4932 64.8519L74.7812 36.2279C74.8552 35.9709 75.0902 35.7939 75.3572 35.7939C75.6252 35.7939 75.8592 35.9709 75.9332 36.2279L84.2222 64.8519C84.2752 65.0329 84.2392 65.2289 84.1262 65.3789C84.0132 65.5299 83.8352 65.6189 83.6462 65.6189V65.6189Z" fill="#232323"/>
<path id="Fill 29" fill-rule="evenodd" clip-rule="evenodd" d="M75.374 32.2646C74.438 32.2646 73.678 33.0246 73.678 33.9596C73.678 34.8946 74.438 35.6556 75.374 35.6556C76.309 35.6556 77.069 34.8946 77.069 33.9596C77.069 33.0246 76.309 32.2646 75.374 32.2646M75.374 36.8556C73.777 36.8556 72.478 35.5566 72.478 33.9596C72.478 32.3636 73.777 31.0646 75.374 31.0646C76.971 31.0646 78.269 32.3636 78.269 33.9596C78.269 35.5566 76.971 36.8556 75.374 36.8556" fill="#232323"/>
<path id="Fill 30" fill-rule="evenodd" clip-rule="evenodd" d="M81.4092 37.7382L80.3932 37.1002C80.9822 36.1602 81.2952 35.0742 81.2952 33.9602C81.2952 32.8502 80.9852 31.7672 80.4002 30.8292L81.4182 30.1942C82.1222 31.3232 82.4942 32.6252 82.4942 33.9602C82.4942 35.3002 82.1192 36.6072 81.4092 37.7382" fill="#232323"/>
<path id="Fill 31" fill-rule="evenodd" clip-rule="evenodd" d="M84.8457 39.8886L83.8297 39.2506C84.8227 37.6686 85.3477 35.8396 85.3477 33.9596C85.3477 32.0806 84.8227 30.2506 83.8287 28.6666L84.8447 28.0296C85.9587 29.8046 86.5467 31.8546 86.5467 33.9596C86.5467 36.0656 85.9587 38.1156 84.8457 39.8886" fill="#232323"/>
<path id="Fill 32" fill-rule="evenodd" clip-rule="evenodd" d="M88.0947 41.9218L87.0787 41.2838C88.4527 39.0928 89.1797 36.5608 89.1797 33.9598C89.1797 31.3608 88.4527 28.8288 87.0797 26.6368L88.0977 26.0008C89.5897 28.3828 90.3787 31.1348 90.3787 33.9598C90.3787 36.7868 89.5897 39.5398 88.0947 41.9218" fill="#232323"/>
<path id="Fill 33" fill-rule="evenodd" clip-rule="evenodd" d="M69.3057 37.7382C68.5957 36.6082 68.2217 35.3012 68.2217 33.9602C68.2217 32.6232 68.5937 31.3212 69.2977 30.1942L70.3157 30.8292C69.7307 31.7662 69.4207 32.8482 69.4207 33.9602C69.4207 35.0752 69.7327 36.1612 70.3217 37.1002L69.3057 37.7382Z" fill="#232323"/>
<path id="Fill 34" fill-rule="evenodd" clip-rule="evenodd" d="M65.8682 39.8886C64.7562 38.1136 64.1682 36.0636 64.1682 33.9596C64.1682 31.8566 64.7562 29.8056 65.8692 28.0296L66.8872 28.6666C65.8922 30.2516 65.3672 32.0816 65.3672 33.9596C65.3672 35.8376 65.8922 37.6676 66.8862 39.2506L65.8682 39.8886Z" fill="#232323"/>
<path id="Fill 35" fill-rule="evenodd" clip-rule="evenodd" d="M62.6191 41.9218C61.1251 39.5378 60.3361 36.7848 60.3361 33.9598C60.3361 31.1348 61.1251 28.3818 62.6181 25.9998L63.6361 26.6378C62.2621 28.8288 61.5351 31.3598 61.5351 33.9598C61.5351 36.5588 62.2621 39.0918 63.6371 41.2838L62.6191 41.9218Z" fill="#232323"/>
<path id="Fill 36" fill-rule="evenodd" clip-rule="evenodd" d="M83.2676 65.4843L69.8556 54.5543L70.6136 53.6243L84.0256 64.5533L83.2676 65.4843Z" fill="#232323"/>
<path id="Fill 37" fill-rule="evenodd" clip-rule="evenodd" d="M70.6299 54.541L69.8389 53.638L78.0149 46.485L78.8059 47.388L70.6299 54.541Z" fill="#232323"/>
<path id="Fill 38" fill-rule="evenodd" clip-rule="evenodd" d="M67.4482 65.4843L66.6902 64.5533L80.1022 53.6243L80.8602 54.5543L67.4482 65.4843Z" fill="#232323"/>
<path id="Fill 39" fill-rule="evenodd" clip-rule="evenodd" d="M80.0859 54.541L71.9099 47.388L72.7009 46.485L80.8769 53.638L80.0859 54.541Z" fill="#232323"/>
</g>
</g>
</svg>
