<?xml version="1.0" encoding="UTF-8" standalone="no"?>
<svg width="100px" height="100px" viewBox="0 0 100 100" version="1.1" xmlns="http://www.w3.org/2000/svg" xmlns:xlink="http://www.w3.org/1999/xlink">
    <!-- Generator: Sketch 41.2 (35397) - http://www.bohemiancoding.com/sketch -->
    <title>Artboard Copy 62</title>
    <desc>Created with Sketch.</desc>
    <defs></defs>
    <g id="Welcome" stroke="none" stroke-width="1" fill="none" fill-rule="evenodd">
        <g id="Artboard-Copy-62">
            <g id="Page-1-Copy" transform="translate(22.000000, 27.000000)">
                <g id="Group-3" transform="translate(3.000000, 2.153800)" fill="#307CBF">
                    <path d="M34.2256,8.4961 C34.2256,4.2231 30.7606,0.7591 26.4886,0.7591 C22.2146,0.7591 18.7496,4.2231 18.7496,8.4961 L0.4746,8.4961 L0.4746,43.0001 L52.5016,43.0001 L52.5016,8.4961 L34.2256,8.4961 Z" id="Fill-1"></path>
                </g>
                <path d="M1.199,42.2408 L52.026,42.2408 L52.026,8.9378 L1.199,8.9378 L1.199,42.2408 Z M52.626,43.4418 L0.6,43.4418 C0.269,43.4418 0,43.1728 0,42.8418 L0,8.3378 C0,8.0068 0.269,7.7378 0.6,7.7378 L52.626,7.7378 C52.957,7.7378 53.226,8.0068 53.226,8.3378 L53.226,42.8418 C53.226,43.1728 52.957,43.4418 52.626,43.4418 L52.626,43.4418 Z" id="Fill-4" fill="#0C1423"></path>
                <path d="M34.9502,8.3379 L33.7512,8.3379 C33.7512,4.4019 30.5492,1.1999 26.6122,1.1999 C22.6772,1.1999 19.4742,4.4019 19.4742,8.3379 L18.2752,8.3379 C18.2752,3.7399 22.0142,-0.0001 26.6122,-0.0001 C31.2102,-0.0001 34.9502,3.7399 34.9502,8.3379" id="Fill-6" fill="#0C1423"></path>
                <polygon id="Fill-7" fill="#0C1423" points="0.6 23.2678 52.626 23.2678 52.626 22.0678 0.6 22.0678"></polygon>
                <path d="M12.902,25.5678 L16.578,25.5678 L16.578,20.3928 L12.902,20.3928 L12.902,25.5678 Z M17.178,26.7678 L12.303,26.7678 C11.972,26.7678 11.703,26.4988 11.703,26.1678 L11.703,19.7928 C11.703,19.4608 11.972,19.1928 12.303,19.1928 L17.178,19.1928 C17.509,19.1928 17.777,19.4608 17.777,19.7928 L17.777,26.1678 C17.777,26.4988 17.509,26.7678 17.178,26.7678 L17.178,26.7678 Z" id="Fill-8" fill="#0C1423"></path>
                <path d="M36.647,25.5678 L40.323,25.5678 L40.323,20.3928 L36.647,20.3928 L36.647,25.5678 Z M40.923,26.7678 L36.048,26.7678 C35.717,26.7678 35.448,26.4988 35.448,26.1678 L35.448,19.7928 C35.448,19.4608 35.717,19.1928 36.048,19.1928 L40.923,19.1928 C41.254,19.1928 41.522,19.4608 41.522,19.7928 L41.522,26.1678 C41.522,26.4988 41.254,26.7678 40.923,26.7678 L40.923,26.7678 Z" id="Fill-9" fill="#0C1423"></path>
            </g>
        </g>
    </g>
</svg>