<?xml version="1.0" encoding="UTF-8" standalone="no"?>
<svg width="100px" height="100px" viewBox="0 0 100 100" version="1.1" xmlns="http://www.w3.org/2000/svg" xmlns:xlink="http://www.w3.org/1999/xlink">
    <!-- Generator: Sketch 41.2 (35397) - http://www.bohemiancoding.com/sketch -->
    <title>Artboard Copy 63</title>
    <desc>Created with Sketch.</desc>
    <defs>
        <polygon id="path-1" points="0 56.9619 72.379 56.9619 72.379 -0.0001 0 -0.0001"></polygon>
    </defs>
    <g id="Welcome" stroke="none" stroke-width="1" fill="none" fill-rule="evenodd">
        <g id="Artboard-Copy-63">
            <g id="Page-1-Copy" transform="translate(14.000000, 20.000000)">
                <path d="M61.6533,10.2988 C61.6533,9.0308 60.6263,8.0038 59.3573,8.0038 C58.0903,8.0038 57.0623,9.0308 57.0623,10.2988 C57.0623,11.5668 58.0903,12.5948 59.3573,12.5948 C60.6263,12.5948 61.6533,11.5668 61.6533,10.2988 Z" id="Fill-1" fill="#307CBF"></path>
                <mask id="mask-2" fill="white">
                    <use xlink:href="#path-1"></use>
                </mask>
                <g id="Clip-4"></g>
                <polygon id="Fill-3" fill="#307CBF" mask="url(#mask-2)" points="5.9 49.6729 42.979 49.6729 42.979 17.5719 5.9 17.5719"></polygon>
                <path d="M42.9785,17.5961 C42.9785,14.5851 40.5385,12.1451 37.5275,12.1451 L11.3505,12.1451 C8.3405,12.1451 5.8995,14.5851 5.8995,17.5961 L16.8015,17.5961 C16.8015,17.5881 16.7995,17.5801 16.7995,17.5721 L32.0795,17.5721 C32.0795,17.5801 32.0765,17.5881 32.0765,17.5961 L42.9785,17.5961 Z" id="Fill-5" fill="#307CBF" mask="url(#mask-2)"></path>
                <path d="M5.8994,32.0771 L42.9784,32.0771" id="Fill-6" fill="#307CBF" mask="url(#mask-2)"></path>
                <path d="M7.4678,49.6723 L7.4678,53.2993 C7.4678,55.3223 9.1078,56.9623 11.1298,56.9623 C13.1528,56.9623 14.7918,55.3223 14.7918,53.2993 L14.7918,49.6723 L7.4678,49.6723 Z" id="Fill-7" fill="#307CBF" mask="url(#mask-2)"></path>
                <path d="M34.0859,49.6723 L34.0859,53.2993 C34.0859,55.3223 35.7259,56.9623 37.7479,56.9623 C39.7709,56.9623 41.4099,55.3223 41.4099,53.2993 L41.4099,49.6723 L34.0859,49.6723 Z" id="Fill-8" fill="#307CBF" mask="url(#mask-2)"></path>
                <path d="M11.1299,36.5688 L5.8999,36.5688 L5.8999,45.6098 L11.1299,45.6098 C13.6269,45.6098 15.6509,43.5858 15.6509,41.0898 C15.6509,38.5928 13.6269,36.5688 11.1299,36.5688" id="Fill-9" fill="#307CBF" mask="url(#mask-2)"></path>
                <path d="M37.748,36.5688 L42.978,36.5688 L42.978,45.6098 L37.748,45.6098 C35.251,45.6098 33.227,43.5858 33.227,41.0898 C33.227,38.5928 35.251,36.5688 37.748,36.5688" id="Fill-10" fill="#307CBF" mask="url(#mask-2)"></path>
                <path d="M19.7285,38.9721 L28.8275,38.9721" id="Fill-11" fill="#307CBF" mask="url(#mask-2)"></path>
                <path d="M19.7285,42.9775 L28.8275,42.9775" id="Fill-12" fill="#307CBF" mask="url(#mask-2)"></path>
                <polygon id="Fill-13" fill="#307CBF" mask="url(#mask-2)" points="5.902 22.0569 42.979 22.0569 42.979 17.5719 5.902 17.5719"></polygon>
                <path d="M24.2773,22.0566 L24.2773,32.0776" id="Fill-14" fill="#307CBF" mask="url(#mask-2)"></path>
                <path d="M4.499,46.7719 L40.379,46.7719 L40.379,15.8719 L4.499,15.8719 L4.499,46.7719 Z M40.979,47.9719 L3.899,47.9719 C3.568,47.9719 3.3,47.7039 3.3,47.3719 L3.3,15.2719 C3.3,14.9399 3.568,14.6719 3.899,14.6719 L40.979,14.6719 C41.31,14.6719 41.578,14.9399 41.578,15.2719 L41.578,47.3719 C41.578,47.7039 41.31,47.9719 40.979,47.9719 L40.979,47.9719 Z" id="Fill-15" fill="#0C1423" mask="url(#mask-2)"></path>
                <path d="M30.2471,14.6958 L40.3421,14.6958 C40.0451,12.3028 37.9991,10.4458 35.5271,10.4458 L9.3511,10.4458 C6.8791,10.4458 4.8331,12.3028 4.5361,14.6958 L14.6381,14.6958 C14.6891,14.6798 14.7441,14.6718 14.8001,14.6718 L30.0791,14.6718 C30.1381,14.6718 30.1941,14.6798 30.2471,14.6958 M40.9781,15.8958 L30.0761,15.8958 C30.0181,15.8958 29.9611,15.8878 29.9081,15.8718 L14.9641,15.8718 C14.9121,15.8878 14.8571,15.8958 14.8021,15.8958 L3.8991,15.8958 C3.5681,15.8958 3.3001,15.6278 3.3001,15.2958 C3.3001,11.9598 6.0141,9.2448 9.3511,9.2448 L35.5271,9.2448 C38.8641,9.2448 41.5781,11.9598 41.5781,15.2958 C41.5781,15.6278 41.3101,15.8958 40.9781,15.8958" id="Fill-16" fill="#0C1423" mask="url(#mask-2)"></path>
                <polygon id="Fill-17" fill="#0C1423" mask="url(#mask-2)" points="3.9 30.3769 40.979 30.3769 40.979 29.1769 3.9 29.1769"></polygon>
                <path d="M6.0674,47.9721 L6.0674,51.0001 C6.0674,52.6881 7.4414,54.0621 9.1304,54.0621 C10.8184,54.0621 12.1924,52.6881 12.1924,51.0001 L12.1924,47.9721 L6.0674,47.9721 Z M9.1304,55.2621 C6.7794,55.2621 4.8684,53.3501 4.8684,51.0001 L4.8684,47.3721 C4.8684,47.0401 5.1364,46.7721 5.4674,46.7721 L12.7924,46.7721 C13.1234,46.7721 13.3914,47.0401 13.3914,47.3721 L13.3914,51.0001 C13.3914,53.3501 11.4804,55.2621 9.1304,55.2621 L9.1304,55.2621 Z" id="Fill-18" fill="#0C1423" mask="url(#mask-2)"></path>
                <path d="M32.6855,47.9721 L32.6855,51.0001 C32.6855,52.6881 34.0595,54.0621 35.7485,54.0621 C37.4365,54.0621 38.8105,52.6881 38.8105,51.0001 L38.8105,47.9721 L32.6855,47.9721 Z M35.7485,55.2621 C33.3975,55.2621 31.4865,53.3501 31.4865,51.0001 L31.4865,47.3721 C31.4865,47.0401 31.7545,46.7721 32.0855,46.7721 L39.4105,46.7721 C39.7415,46.7721 40.0095,47.0401 40.0095,47.3721 L40.0095,51.0001 C40.0095,53.3501 38.0985,55.2621 35.7485,55.2621 L35.7485,55.2621 Z" id="Fill-19" fill="#0C1423" mask="url(#mask-2)"></path>
                <path d="M4.499,42.7094 L9.13,42.7094 C11.292,42.7094 13.051,40.9504 13.051,38.7894 C13.051,36.6274 11.292,34.8694 9.13,34.8694 L4.499,34.8694 L4.499,42.7094 Z M9.13,43.9094 L3.899,43.9094 C3.568,43.9094 3.3,43.6414 3.3,43.3094 L3.3,34.2694 C3.3,33.9374 3.568,33.6684 3.899,33.6684 L9.13,33.6684 C11.953,33.6684 14.25,35.9654 14.25,38.7894 C14.25,41.6124 11.953,43.9094 9.13,43.9094 L9.13,43.9094 Z" id="Fill-20" fill="#0C1423" mask="url(#mask-2)"></path>
                <path d="M35.748,34.8691 C33.586,34.8691 31.827,36.6271 31.827,38.7891 C31.827,40.9511 33.586,42.7091 35.748,42.7091 L40.379,42.7091 L40.379,34.8691 L35.748,34.8691 Z M40.978,43.9101 L35.748,43.9101 C32.925,43.9101 30.628,41.6121 30.628,38.7891 C30.628,35.9661 32.925,33.6691 35.748,33.6691 L40.978,33.6691 C41.31,33.6691 41.578,33.9371 41.578,34.2691 L41.578,43.3091 C41.578,43.6411 41.31,43.9101 40.978,43.9101 L40.978,43.9101 Z" id="Fill-21" fill="#0C1423" mask="url(#mask-2)"></path>
                <polygon id="Fill-22" fill="#0C1423" mask="url(#mask-2)" points="17.728 37.2729 26.827 37.2729 26.827 36.0729 17.728 36.0729"></polygon>
                <polygon id="Fill-23" fill="#0C1423" mask="url(#mask-2)" points="17.728 41.2779 26.827 41.2779 26.827 40.0779 17.728 40.0779"></polygon>
                <path d="M44.8789,28.0893 L43.6799,28.0893 L43.6799,21.5363 L40.9789,21.5363 L40.9789,20.3363 L44.2789,20.3363 C44.6099,20.3363 44.8789,20.6053 44.8789,20.9363 L44.8789,28.0893 Z" id="Fill-24" fill="#0C1423" mask="url(#mask-2)"></path>
                <path d="M1.1992,28.0893 L0.0002,28.0893 L0.0002,20.9363 C0.0002,20.6053 0.2682,20.3363 0.5992,20.3363 L3.8992,20.3363 L3.8992,21.5363 L1.1992,21.5363 L1.1992,28.0893 Z" id="Fill-25" fill="#0C1423" mask="url(#mask-2)"></path>
                <path d="M4.501,19.1569 L40.379,19.1569 L40.379,15.8719 L4.501,15.8719 L4.501,19.1569 Z M40.979,20.3569 L3.901,20.3569 C3.57,20.3569 3.302,20.0879 3.302,19.7569 L3.302,15.2719 C3.302,14.9399 3.57,14.6719 3.901,14.6719 L40.979,14.6719 C41.31,14.6719 41.578,14.9399 41.578,15.2719 L41.578,19.7569 C41.578,20.0879 41.31,20.3569 40.979,20.3569 L40.979,20.3569 Z" id="Fill-26" fill="#0C1423" mask="url(#mask-2)"></path>
                <polygon id="Fill-27" fill="#0C1423" mask="url(#mask-2)" points="21.678 29.7769 22.877 29.7769 22.877 19.7559 21.678 19.7559"></polygon>
                <path d="M49.8682,38.4189 L64.8472,38.4189 L57.3572,12.5519 L49.8682,38.4189 Z M65.6462,39.6189 L49.0692,39.6189 C48.8812,39.6189 48.7032,39.5299 48.5902,39.3789 C48.4762,39.2289 48.4402,39.0329 48.4932,38.8519 L56.7812,10.2279 C56.8552,9.9709 57.0902,9.7939 57.3572,9.7939 C57.6252,9.7939 57.8592,9.9709 57.9332,10.2279 L66.2222,38.8519 C66.2752,39.0329 66.2392,39.2289 66.1262,39.3789 C66.0132,39.5299 65.8352,39.6189 65.6462,39.6189 L65.6462,39.6189 Z" id="Fill-28" fill="#0C1423" mask="url(#mask-2)"></path>
                <path d="M57.374,6.2646 C56.438,6.2646 55.678,7.0246 55.678,7.9596 C55.678,8.8946 56.438,9.6556 57.374,9.6556 C58.309,9.6556 59.069,8.8946 59.069,7.9596 C59.069,7.0246 58.309,6.2646 57.374,6.2646 M57.374,10.8556 C55.777,10.8556 54.478,9.5566 54.478,7.9596 C54.478,6.3636 55.777,5.0646 57.374,5.0646 C58.971,5.0646 60.269,6.3636 60.269,7.9596 C60.269,9.5566 58.971,10.8556 57.374,10.8556" id="Fill-29" fill="#0C1423" mask="url(#mask-2)"></path>
                <path d="M63.4092,11.7382 L62.3932,11.1002 C62.9822,10.1602 63.2952,9.0742 63.2952,7.9602 C63.2952,6.8502 62.9852,5.7672 62.4002,4.8292 L63.4182,4.1942 C64.1222,5.3232 64.4942,6.6252 64.4942,7.9602 C64.4942,9.3002 64.1192,10.6072 63.4092,11.7382" id="Fill-30" fill="#0C1423" mask="url(#mask-2)"></path>
                <path d="M66.8457,13.8886 L65.8297,13.2506 C66.8227,11.6686 67.3477,9.8396 67.3477,7.9596 C67.3477,6.0806 66.8227,4.2506 65.8287,2.6666 L66.8447,2.0296 C67.9587,3.8046 68.5467,5.8546 68.5467,7.9596 C68.5467,10.0656 67.9587,12.1156 66.8457,13.8886" id="Fill-31" fill="#0C1423" mask="url(#mask-2)"></path>
                <path d="M70.0947,15.9218 L69.0787,15.2838 C70.4527,13.0928 71.1797,10.5608 71.1797,7.9598 C71.1797,5.3608 70.4527,2.8288 69.0797,0.6368 L70.0977,0.0008 C71.5897,2.3828 72.3787,5.1348 72.3787,7.9598 C72.3787,10.7868 71.5897,13.5398 70.0947,15.9218" id="Fill-32" fill="#0C1423" mask="url(#mask-2)"></path>
                <path d="M51.3057,11.7382 C50.5957,10.6082 50.2217,9.3012 50.2217,7.9602 C50.2217,6.6232 50.5937,5.3212 51.2977,4.1942 L52.3157,4.8292 C51.7307,5.7662 51.4207,6.8482 51.4207,7.9602 C51.4207,9.0752 51.7327,10.1612 52.3217,11.1002 L51.3057,11.7382 Z" id="Fill-33" fill="#0C1423" mask="url(#mask-2)"></path>
                <path d="M47.8682,13.8886 C46.7562,12.1136 46.1682,10.0636 46.1682,7.9596 C46.1682,5.8566 46.7562,3.8056 47.8692,2.0296 L48.8872,2.6666 C47.8922,4.2516 47.3672,6.0816 47.3672,7.9596 C47.3672,9.8376 47.8922,11.6676 48.8862,13.2506 L47.8682,13.8886 Z" id="Fill-34" fill="#0C1423" mask="url(#mask-2)"></path>
                <path d="M44.6191,15.9218 C43.1251,13.5378 42.3361,10.7848 42.3361,7.9598 C42.3361,5.1348 43.1251,2.3818 44.6181,-0.0002 L45.6361,0.6378 C44.2621,2.8288 43.5351,5.3598 43.5351,7.9598 C43.5351,10.5588 44.2621,13.0918 45.6371,15.2838 L44.6191,15.9218 Z" id="Fill-35" fill="#0C1423" mask="url(#mask-2)"></path>
                <polygon id="Fill-36" fill="#0C1423" mask="url(#mask-2)" points="65.2676 39.4843 51.8556 28.5543 52.6136 27.6243 66.0256 38.5533"></polygon>
                <polygon id="Fill-37" fill="#0C1423" mask="url(#mask-2)" points="52.6299 28.541 51.8389 27.638 60.0149 20.485 60.8059 21.388"></polygon>
                <polygon id="Fill-38" fill="#0C1423" mask="url(#mask-2)" points="49.4482 39.4843 48.6902 38.5533 62.1022 27.6243 62.8602 28.5543"></polygon>
                <polygon id="Fill-39" fill="#0C1423" mask="url(#mask-2)" points="62.0859 28.541 53.9099 21.388 54.7009 20.485 62.8769 27.638"></polygon>
            </g>
        </g>
    </g>
</svg>