<svg width="209" height="60" viewBox="0 0 209 60" fill="none" xmlns="http://www.w3.org/2000/svg">
<path d="M8.19849 19.8511C8.99732 19.8511 9.649 19.7359 10.1535 19.5056C10.6791 19.2543 11.0785 18.9297 11.3518 18.5319C11.6461 18.1131 11.8458 17.6419 11.9509 17.1184C12.056 16.574 12.1085 16.0191 12.1085 15.4537V14.8883H16.2709V15.4537C16.2709 18.0712 15.5771 20.0919 14.1897 21.5158C12.8233 22.9188 10.8262 23.6203 8.19849 23.6203C5.67588 23.6203 3.67881 22.856 2.20729 21.3274C0.735762 19.7987 0 17.5686 0 14.637V9.73709C0 8.33411 0.189196 7.07771 0.567588 5.96789C0.94598 4.83713 1.49255 3.89483 2.20729 3.141C2.92203 2.36622 3.78392 1.7799 4.79297 1.38204C5.80201 0.963239 6.93719 0.753839 8.19849 0.753839C9.50184 0.753839 10.658 0.942298 11.6671 1.31922C12.6761 1.69614 13.517 2.24058 14.1897 2.95254C14.8834 3.6645 15.3985 4.52303 15.7348 5.52815C16.0922 6.53327 16.2709 7.66403 16.2709 8.92043V9.48581H12.1085V8.92043C12.1085 8.39693 12.0455 7.87343 11.9193 7.34993C11.7932 6.82643 11.583 6.35528 11.2887 5.93648C10.9944 5.51768 10.595 5.18264 10.0905 4.93136C9.58593 4.65914 8.95528 4.52303 8.19849 4.52303C7.50478 4.52303 6.90565 4.65914 6.40113 4.93136C5.89661 5.18264 5.47617 5.53862 5.13982 5.9993C4.80348 6.43904 4.55122 6.96254 4.38304 7.5698C4.23589 8.15612 4.16231 8.77385 4.16231 9.42299V14.9511C4.16231 15.6631 4.23589 16.3227 4.38304 16.93C4.53019 17.5163 4.76143 18.0293 5.07676 18.4691C5.39209 18.9088 5.80201 19.2543 6.30653 19.5056C6.83208 19.7359 7.46273 19.8511 8.19849 19.8511Z" fill="white"/>
<path d="M20.5374 19.4114H25.8349V11.3704H20.9158V7.60121H29.808V19.4114H34.3487V23.1806H20.5374V19.4114ZM30.7855 2.98395C30.7855 3.40275 30.7014 3.80061 30.5332 4.17753C30.3861 4.5335 30.1759 4.8476 29.9026 5.11982C29.6293 5.3711 29.3035 5.5805 28.9251 5.74802C28.5677 5.8946 28.1893 5.96789 27.7899 5.96789C27.3694 5.96789 26.9806 5.8946 26.6232 5.74802C26.2658 5.5805 25.9505 5.3711 25.6772 5.11982C25.4039 4.8476 25.1832 4.5335 25.015 4.17753C24.8679 3.80061 24.7943 3.40275 24.7943 2.98395C24.7943 2.56515 24.8679 2.17776 25.015 1.82178C25.1832 1.44486 25.4039 1.13076 25.6772 0.879479C25.9505 0.607259 26.2658 0.397859 26.6232 0.25128C26.9806 0.0837601 27.3694 0 27.7899 0C28.1893 0 28.5677 0.0837601 28.9251 0.25128C29.3035 0.397859 29.6293 0.607259 29.9026 0.879479C30.1759 1.13076 30.3861 1.44486 30.5332 1.82178C30.7014 2.17776 30.7855 2.56515 30.7855 2.98395Z" fill="white"/>
<path d="M50.1562 7.60121H54.1293V23.1806H50.1562V20.919H49.5886C48.8948 22.7199 47.4023 23.6203 45.1109 23.6203C44.3331 23.6203 43.6079 23.4946 42.9352 23.2434C42.2625 22.9921 41.6739 22.6047 41.1693 22.0812C40.6648 21.5577 40.2654 20.9086 39.9711 20.1338C39.6978 19.3381 39.5612 18.4062 39.5612 17.3383V7.60121H43.5343V16.5216C43.5343 17.6315 43.7971 18.5005 44.3226 19.1287C44.8482 19.7359 45.6365 20.0396 46.6876 20.0396C47.8858 20.0396 48.7582 19.6626 49.3048 18.9088C49.8724 18.134 50.1562 17.087 50.1562 15.7678V7.60121Z" fill="white"/>
<path d="M70.0944 20.919H69.5268C69.3587 21.275 69.1484 21.6205 68.8962 21.9556C68.6649 22.2697 68.3496 22.5524 67.9502 22.8036C67.5718 23.0549 67.1093 23.2538 66.5628 23.4004C66.0372 23.547 65.396 23.6203 64.6393 23.6203C63.6723 23.6203 62.7683 23.4528 61.9275 23.1177C61.1076 22.7618 60.3824 22.2487 59.7517 21.5786C59.1421 20.8876 58.6586 20.05 58.3012 19.0658C57.9648 18.0817 57.7967 16.9509 57.7967 15.6736V15.1082C57.7967 13.8518 57.9754 12.7315 58.3327 11.7473C58.7111 10.7631 59.2156 9.93602 59.8463 9.26594C60.498 8.57492 61.2442 8.05142 62.0851 7.69544C62.947 7.33946 63.8509 7.16147 64.7969 7.16147C66.0582 7.16147 67.0568 7.40228 67.7925 7.8839C68.5283 8.34458 69.1064 9.00419 69.5268 9.86273H70.0944V1.19358H74.0675V23.1806H70.0944V20.919ZM65.9321 19.8511C67.1724 19.8511 68.1709 19.4637 68.9277 18.6889C69.7055 17.8932 70.0944 16.8567 70.0944 15.5793V15.2024C70.0944 13.9251 69.7055 12.899 68.9277 12.1242C68.1709 11.3285 67.1724 10.9307 65.9321 10.9307C64.6918 10.9307 63.6828 11.3181 62.905 12.0928C62.1482 12.8467 61.7698 13.8832 61.7698 15.2024V15.5793C61.7698 16.8986 62.1482 17.9456 62.905 18.7203C63.6828 19.4742 64.6918 19.8511 65.9321 19.8511Z" fill="white"/>
<path d="M88.2984 20.919C87.8779 21.9032 87.2893 22.6047 86.5325 23.0235C85.7758 23.4214 84.8928 23.6203 83.8838 23.6203C82.9378 23.6203 82.0444 23.4423 81.2035 23.0863C80.3837 22.7303 79.6584 22.2068 79.0278 21.5158C78.3971 20.8248 77.8926 19.9872 77.5142 19.003C77.1568 18.0188 76.9781 16.8986 76.9781 15.6422V15.1396C76.9781 13.9041 77.1568 12.7943 77.5142 11.8101C77.8716 10.826 78.3551 9.98837 78.9647 9.29735C79.5743 8.60633 80.2786 8.08283 81.0774 7.72685C81.8972 7.34993 82.7696 7.16147 83.6946 7.16147C84.8088 7.16147 85.7022 7.34993 86.3749 7.72685C87.0686 8.10377 87.6152 8.69009 88.0146 9.48581H88.5822V7.60121H92.5553V18.4691C92.5553 19.0973 92.8391 19.4114 93.4067 19.4114H94.0058V23.1806H91.294C90.5792 23.1806 89.9906 22.9712 89.5281 22.5524C89.0867 22.1336 88.866 21.5891 88.866 20.919H88.2984ZM84.7667 19.8511C85.9229 19.8511 86.8479 19.4742 87.5416 18.7203C88.2353 17.9456 88.5822 16.8986 88.5822 15.5793V15.2024C88.5822 13.8832 88.2353 12.8467 87.5416 12.0928C86.8479 11.3181 85.9229 10.9307 84.7667 10.9307C83.6105 10.9307 82.6856 11.3181 81.9918 12.0928C81.2981 12.8467 80.9513 13.8832 80.9513 15.2024V15.5793C80.9513 16.8986 81.2981 17.9456 81.9918 18.7203C82.6856 19.4742 83.6105 19.8511 84.7667 19.8511Z" fill="white"/>
<path d="M108.71 20.919H108.142C107.974 21.275 107.764 21.6205 107.511 21.9556C107.28 22.2697 106.965 22.5524 106.565 22.8036C106.187 23.0549 105.725 23.2538 105.178 23.4004C104.652 23.547 104.011 23.6203 103.254 23.6203C102.287 23.6203 101.384 23.4528 100.543 23.1177C99.7228 22.7618 98.9976 22.2487 98.3669 21.5786C97.7573 20.8876 97.2738 20.05 96.9164 19.0658C96.58 18.0817 96.4119 16.9509 96.4119 15.6736V15.1082C96.4119 13.8518 96.5906 12.7315 96.9479 11.7473C97.3263 10.7631 97.8308 9.93602 98.4615 9.26594C99.1132 8.57492 99.8594 8.05142 100.7 7.69544C101.562 7.33946 102.466 7.16147 103.412 7.16147C104.673 7.16147 105.672 7.40228 106.408 7.8839C107.143 8.34458 107.722 9.00419 108.142 9.86273H108.71V1.19358H112.683V23.1806H108.71V20.919ZM104.547 19.8511C105.788 19.8511 106.786 19.4637 107.543 18.6889C108.321 17.8932 108.71 16.8567 108.71 15.5793V15.2024C108.71 13.9251 108.321 12.899 107.543 12.1242C106.786 11.3285 105.788 10.9307 104.547 10.9307C103.307 10.9307 102.298 11.3181 101.52 12.0928C100.763 12.8467 100.385 13.8832 100.385 15.2024V15.5793C100.385 16.8986 100.763 17.9456 101.52 18.7203C102.298 19.4742 103.307 19.8511 104.547 19.8511Z" fill="white"/>
<path d="M126.914 20.919C126.493 21.9032 125.905 22.6047 125.148 23.0235C124.391 23.4214 123.508 23.6203 122.499 23.6203C121.553 23.6203 120.66 23.4423 119.819 23.0863C118.999 22.7303 118.274 22.2068 117.643 21.5158C117.012 20.8248 116.508 19.9872 116.129 19.003C115.772 18.0188 115.593 16.8986 115.593 15.6422V15.1396C115.593 13.9041 115.772 12.7943 116.129 11.8101C116.487 10.826 116.97 9.98837 117.58 9.29735C118.19 8.60633 118.894 8.08283 119.693 7.72685C120.512 7.34993 121.385 7.16147 122.31 7.16147C123.424 7.16147 124.317 7.34993 124.99 7.72685C125.684 8.10377 126.23 8.69009 126.63 9.48581H127.197V7.60121H131.17V18.4691C131.17 19.0973 131.454 19.4114 132.022 19.4114H132.621V23.1806H129.909C129.194 23.1806 128.606 22.9712 128.143 22.5524C127.702 22.1336 127.481 21.5891 127.481 20.919H126.914ZM123.382 19.8511C124.538 19.8511 125.463 19.4742 126.157 18.7203C126.851 17.9456 127.197 16.8986 127.197 15.5793V15.2024C127.197 13.8832 126.851 12.8467 126.157 12.0928C125.463 11.3181 124.538 10.9307 123.382 10.9307C122.226 10.9307 121.301 11.3181 120.607 12.0928C119.913 12.8467 119.566 13.8832 119.566 15.2024V15.5793C119.566 16.8986 119.913 17.9456 120.607 18.7203C121.301 19.4742 122.226 19.8511 123.382 19.8511Z" fill="white"/>
<path d="M140.072 23.1806H136.099V7.60121H140.072V9.92555H140.64C140.997 9.04607 141.575 8.36552 142.374 7.8839C143.173 7.40228 144.108 7.16147 145.181 7.16147C145.937 7.16147 146.642 7.28711 147.293 7.53839C147.966 7.76873 148.555 8.13518 149.059 8.63774C149.564 9.1403 149.953 9.77897 150.226 10.5537C150.52 11.3285 150.667 12.2499 150.667 13.3178V23.1806H146.694V14.3229C146.694 13.2131 146.421 12.3441 145.874 11.7159C145.349 11.0668 144.581 10.7422 143.572 10.7422C142.395 10.7422 141.512 11.1401 140.924 11.9358C140.356 12.7106 140.072 13.7576 140.072 15.0768V23.1806Z" fill="white"/>
<path d="M155.691 19.4114H160.988V11.3704H156.069V7.60121H164.961V19.4114H169.502V23.1806H155.691V19.4114ZM163.006 1.00512H167.232L164.583 5.27687H161.366L163.006 1.00512Z" fill="white"/>
<path d="M184.836 20.919C184.416 21.9032 183.827 22.6047 183.071 23.0235C182.314 23.4214 181.431 23.6203 180.422 23.6203C179.476 23.6203 178.582 23.4423 177.742 23.0863C176.922 22.7303 176.196 22.2068 175.566 21.5158C174.935 20.8248 174.431 19.9872 174.052 19.003C173.695 18.0188 173.516 16.8986 173.516 15.6422V15.1396C173.516 13.9041 173.695 12.7943 174.052 11.8101C174.41 10.826 174.893 9.98837 175.503 9.29735C176.112 8.60633 176.817 8.08283 177.615 7.72685C178.435 7.34993 179.308 7.16147 180.233 7.16147C181.347 7.16147 182.24 7.34993 182.913 7.72685C183.607 8.10377 184.153 8.69009 184.553 9.48581H185.12V7.60121H189.093V18.4691C189.093 19.0973 189.377 19.4114 189.945 19.4114H190.544V23.1806H187.832C187.117 23.1806 186.529 22.9712 186.066 22.5524C185.625 22.1336 185.404 21.5891 185.404 20.919H184.836ZM181.305 19.8511C182.461 19.8511 183.386 19.4742 184.08 18.7203C184.773 17.9456 185.12 16.8986 185.12 15.5793V15.2024C185.12 13.8832 184.773 12.8467 184.08 12.0928C183.386 11.3181 182.461 10.9307 181.305 10.9307C180.149 10.9307 179.224 11.3181 178.53 12.0928C177.836 12.8467 177.489 13.8832 177.489 15.2024V15.5793C177.489 16.8986 177.836 17.9456 178.53 18.7203C179.224 19.4742 180.149 19.8511 181.305 19.8511Z" fill="white"/>
<path d="M193.486 24.6882H208.937V28.269H193.486V24.6882Z" fill="white"/>
<path d="M0.756784 31.731H15.5141V35.6887H10.2166V49.7604H15.5141V53.718H0.756784V49.7604H6.05427V35.6887H0.756784V31.731Z" fill="white"/>
<path d="M24.2267 53.718H20.2536V38.1387H24.2267V40.463H24.7943C25.1517 39.5835 25.7298 38.903 26.5286 38.4214C27.3274 37.9397 28.2629 37.6989 29.335 37.6989C30.0918 37.6989 30.796 37.8246 31.4477 38.0759C32.1204 38.3062 32.709 38.6726 33.2135 39.1752C33.718 39.6778 34.1069 40.3164 34.3802 41.0912C34.6745 41.866 34.8217 42.7873 34.8217 43.8553V53.718H30.8486V44.8604C30.8486 43.7506 30.5753 42.8816 30.0287 42.2534C29.5032 41.6042 28.7359 41.2797 27.7268 41.2797C26.5496 41.2797 25.6667 41.6775 25.0781 42.4732C24.5105 43.248 24.2267 44.295 24.2267 45.6142V53.718Z" fill="white"/>
<path d="M39.1197 38.1387H43.755V31.731H47.7281V38.1387H53.3725V41.9079H47.7281V49.0065C47.7281 49.6347 48.0119 49.9488 48.5795 49.9488H52.8049V53.718H46.183C45.4683 53.718 44.8797 53.4877 44.4172 53.027C43.9758 52.5663 43.755 51.98 43.755 51.268V41.9079H39.1197V38.1387Z" fill="white"/>
<path d="M62.3689 47.2161C62.3899 47.6768 62.495 48.1061 62.6842 48.504C62.8945 48.8809 63.1677 49.2159 63.5041 49.5091C63.8615 49.7813 64.2609 50.0012 64.7023 50.1687C65.1648 50.3153 65.6483 50.3886 66.1528 50.3886C67.1409 50.3886 67.8976 50.221 68.4232 49.886C68.9487 49.53 69.3271 49.1112 69.5584 48.6296L72.9639 50.5142C72.7747 50.9121 72.5119 51.3309 72.1756 51.7706C71.8392 52.1894 71.3978 52.5768 70.8512 52.9328C70.3257 53.2887 69.674 53.5819 68.8962 53.8122C68.1394 54.0426 67.246 54.1577 66.2159 54.1577C65.0387 54.1577 63.9666 53.9693 62.9996 53.5924C62.0326 53.2155 61.1917 52.671 60.4769 51.9591C59.7832 51.2471 59.2367 50.3781 58.8373 49.352C58.4589 48.326 58.2697 47.1638 58.2697 45.8655V45.6771C58.2697 44.4835 58.4694 43.3946 58.8688 42.4104C59.2892 41.4262 59.8568 40.5886 60.5715 39.8976C61.2863 39.2066 62.1166 38.6726 63.0626 38.2957C64.0296 37.8979 65.0597 37.6989 66.1528 37.6989C67.4982 37.6989 68.6544 37.9397 69.6214 38.4214C70.5884 38.882 71.3873 39.4788 72.0179 40.2117C72.6486 40.9237 73.111 41.7194 73.4053 42.5989C73.6996 43.4574 73.8468 44.295 73.8468 45.1117V47.2161H62.3689ZM66.1213 41.2797C65.1123 41.2797 64.2924 41.5414 63.6617 42.0649C63.0311 42.5675 62.6212 43.1538 62.432 43.8239H69.8106C69.6845 43.091 69.2851 42.4837 68.6124 42.0021C67.9607 41.5205 67.1303 41.2797 66.1213 41.2797Z" fill="white"/>
<path d="M78.0818 49.9488H83.5685V35.5002H78.271V31.731H87.5416V49.9488H92.6499V53.718H78.0818V49.9488Z" fill="white"/>
<path d="M97.7678 49.9488H103.065V41.9079H98.1462V38.1387H107.038V49.9488H111.579V53.718H97.7678V49.9488ZM108.016 33.5214C108.016 33.9402 107.932 34.3381 107.764 34.715C107.616 35.071 107.406 35.3851 107.133 35.6573C106.86 35.9086 106.534 36.118 106.155 36.2855C105.798 36.4321 105.42 36.5054 105.02 36.5054C104.6 36.5054 104.211 36.4321 103.854 36.2855C103.496 36.118 103.181 35.9086 102.908 35.6573C102.634 35.3851 102.414 35.071 102.245 34.715C102.098 34.3381 102.025 33.9402 102.025 33.5214C102.025 33.1026 102.098 32.7152 102.245 32.3592C102.414 31.9823 102.634 31.6682 102.908 31.4169C103.181 31.1447 103.496 30.9353 103.854 30.7887C104.211 30.6212 104.6 30.5375 105.02 30.5375C105.42 30.5375 105.798 30.6212 106.155 30.7887C106.534 30.9353 106.86 31.1447 107.133 31.4169C107.406 31.6682 107.616 31.9823 107.764 32.3592C107.932 32.7152 108.016 33.1026 108.016 33.5214Z" fill="white"/>
<path d="M127.954 51.4565H127.387C127.218 51.8125 127.008 52.158 126.756 52.493C126.525 52.8071 126.209 53.0898 125.81 53.3411C125.432 53.5924 124.969 53.7913 124.422 53.9379C123.897 54.0845 123.256 54.1577 122.499 54.1577C121.532 54.1577 120.628 53.9902 119.787 53.6552C118.967 53.2992 118.242 52.7862 117.611 52.1161C117.002 51.4251 116.518 50.5875 116.161 49.6033C115.825 48.6191 115.656 47.4884 115.656 46.211V45.6457C115.656 44.3893 115.835 43.269 116.192 42.2848C116.571 41.3006 117.075 40.4735 117.706 39.8034C118.358 39.1124 119.104 38.5889 119.945 38.2329C120.807 37.8769 121.711 37.6989 122.657 37.6989C123.918 37.6989 124.916 37.9397 125.652 38.4214C126.388 38.882 126.966 39.5416 127.387 40.4002H127.954V38.1387H131.927V57.55C131.927 58.262 131.696 58.8483 131.234 59.309C130.792 59.7697 130.214 60 129.499 60H118.967V56.2308H127.103C127.67 56.2308 127.954 55.9167 127.954 55.2885V51.4565ZM123.792 50.3886C125.032 50.3886 126.031 50.0012 126.787 49.2264C127.565 48.4307 127.954 47.3941 127.954 46.1168V45.7399C127.954 44.4625 127.565 43.4365 126.787 42.6617C126.031 41.866 125.032 41.4681 123.792 41.4681C122.552 41.4681 121.542 41.8555 120.765 42.6303C120.008 43.3841 119.63 44.4207 119.63 45.7399V46.1168C119.63 47.436 120.008 48.483 120.765 49.2578C121.542 50.0116 122.552 50.3886 123.792 50.3886Z" fill="white"/>
<path d="M139.599 47.2161C139.62 47.6768 139.725 48.1061 139.915 48.504C140.125 48.8809 140.398 49.2159 140.734 49.5091C141.092 49.7813 141.491 50.0012 141.933 50.1687C142.395 50.3153 142.879 50.3886 143.383 50.3886C144.371 50.3886 145.128 50.221 145.654 49.886C146.179 49.53 146.558 49.1112 146.789 48.6296L150.194 50.5142C150.005 50.9121 149.742 51.3309 149.406 51.7706C149.07 52.1894 148.628 52.5768 148.082 52.9328C147.556 53.2887 146.904 53.5819 146.127 53.8122C145.37 54.0426 144.476 54.1577 143.446 54.1577C142.269 54.1577 141.197 53.9693 140.23 53.5924C139.263 53.2155 138.422 52.671 137.707 51.9591C137.014 51.2471 136.467 50.3781 136.068 49.352C135.689 48.326 135.5 47.1638 135.5 45.8655V45.6771C135.5 44.4835 135.7 43.3946 136.099 42.4104C136.52 41.4262 137.087 40.5886 137.802 39.8976C138.517 39.2066 139.347 38.6726 140.293 38.2957C141.26 37.8979 142.29 37.6989 143.383 37.6989C144.729 37.6989 145.885 37.9397 146.852 38.4214C147.819 38.882 148.618 39.4788 149.248 40.2117C149.879 40.9237 150.341 41.7194 150.636 42.5989C150.93 43.4574 151.077 44.295 151.077 45.1117V47.2161H139.599ZM143.352 41.2797C142.343 41.2797 141.523 41.5414 140.892 42.0649C140.261 42.5675 139.852 43.1538 139.662 43.8239H147.041C146.915 43.091 146.515 42.4837 145.843 42.0021C145.191 41.5205 144.361 41.2797 143.352 41.2797Z" fill="white"/>
<path d="M159.38 53.718H155.407V38.1387H159.38V40.463H159.947C160.305 39.5835 160.883 38.903 161.682 38.4214C162.481 37.9397 163.416 37.6989 164.488 37.6989C165.245 37.6989 165.949 37.8246 166.601 38.0759C167.274 38.3062 167.862 38.6726 168.367 39.1752C168.871 39.6778 169.26 40.3164 169.533 41.0912C169.828 41.866 169.975 42.7873 169.975 43.8553V53.718H166.002V44.8604C166.002 43.7506 165.728 42.8816 165.182 42.2534C164.656 41.6042 163.889 41.2797 162.88 41.2797C161.703 41.2797 160.82 41.6775 160.231 42.4732C159.664 43.248 159.38 44.295 159.38 45.6142V53.718Z" fill="white"/>
<path d="M174.273 38.1387H178.908V31.731H182.881V38.1387H188.526V41.9079H182.881V49.0065C182.881 49.6347 183.165 49.9488 183.733 49.9488H187.958V53.718H181.336C180.622 53.718 180.033 53.4877 179.57 53.027C179.129 52.5663 178.908 51.98 178.908 51.268V41.9079H174.273V38.1387Z" fill="white"/>
<path d="M197.522 47.2161C197.543 47.6768 197.648 48.1061 197.837 48.504C198.048 48.8809 198.321 49.2159 198.657 49.5091C199.015 49.7813 199.414 50.0012 199.856 50.1687C200.318 50.3153 200.801 50.3886 201.306 50.3886C202.294 50.3886 203.051 50.221 203.576 49.886C204.102 49.53 204.48 49.1112 204.712 48.6296L208.117 50.5142C207.928 50.9121 207.665 51.3309 207.329 51.7706C206.992 52.1894 206.551 52.5768 206.004 52.9328C205.479 53.2887 204.827 53.5819 204.049 53.8122C203.293 54.0426 202.399 54.1577 201.369 54.1577C200.192 54.1577 199.12 53.9693 198.153 53.5924C197.186 53.2155 196.345 52.671 195.63 51.9591C194.936 51.2471 194.39 50.3781 193.99 49.352C193.612 48.326 193.423 47.1638 193.423 45.8655V45.6771C193.423 44.4835 193.623 43.3946 194.022 42.4104C194.442 41.4262 195.01 40.5886 195.725 39.8976C196.439 39.2066 197.27 38.6726 198.216 38.2957C199.183 37.8979 200.213 37.6989 201.306 37.6989C202.651 37.6989 203.808 37.9397 204.775 38.4214C205.742 38.882 206.54 39.4788 207.171 40.2117C207.802 40.9237 208.264 41.7194 208.559 42.5989C208.853 43.4574 209 44.295 209 45.1117V47.2161H197.522ZM201.274 41.2797C200.265 41.2797 199.446 41.5414 198.815 42.0649C198.184 42.5675 197.774 43.1538 197.585 43.8239H204.964C204.838 43.091 204.438 42.4837 203.766 42.0021C203.114 41.5205 202.284 41.2797 201.274 41.2797Z" fill="white"/>
</svg>
