<?xml version="1.0" encoding="UTF-8" standalone="no"?>
<svg width="261px" height="30px" viewBox="0 0 261 30" version="1.1" xmlns="http://www.w3.org/2000/svg" xmlns:xlink="http://www.w3.org/1999/xlink">
    <!-- Generator: Sketch 41.2 (35397) - http://www.bohemiancoding.com/sketch -->
    <title>Page 1 Copy</title>
    <desc>Created with Sketch.</desc>
    <defs>
        <polygon id="path-1" points="0 29.2587353 260.270085 29.2587353 260.270085 -8.82352941e-05 0 -8.82352941e-05"></polygon>
    </defs>
    <g id="Welcome" stroke="none" stroke-width="1" fill="none" fill-rule="evenodd">
        <g id="Page-1-Copy">
            <path d="M45.2525339,7.20794118 L42.1674254,7.20794118 L42.1674254,24.8629412 L45.0525814,24.8629412 C49.7001508,24.8629412 50.4229881,19.7585294 50.4229881,16.1576471 C50.4229881,12.6829412 49.8992186,7.20794118 45.2525339,7.20794118 Z M45.0525814,28.6208824 L37.8436729,28.6208824 L37.8436729,3.45176471 L45.4126729,3.45176471 C52.6640492,3.45176471 54.8272525,9.92558824 54.8272525,16.0729412 C54.8272525,22.3138235 52.1836322,28.6208824 45.0525814,28.6208824 Z" id="Fill-1" fill="#0F0F28"></path>
            <mask id="mask-2" fill="white">
                <use xlink:href="#path-1"></use>
            </mask>
            <g id="Clip-4"></g>
            <polygon id="Fill-3" fill="#0F0F28" mask="url(#mask-2)" points="59.4354508 28.6199118 63.7565492 28.6199118 63.7565492 3.45167647 59.4354508 3.45167647"></polygon>
            <path d="M78.2654949,29.2201765 C70.9300678,29.2201765 68.4483559,22.2284118 68.4483559,16.0342941 C68.4483559,10.2045882 71.5352339,2.85547059 78.3415831,2.85547059 C80.3818068,2.85547059 83.1882203,3.41311765 84.8718915,4.65105882 L83.1882203,7.65017647 C81.8672949,6.85164706 79.8226475,6.57105882 78.3415831,6.57105882 C74.6159186,6.57105882 72.815461,12.7616471 72.815461,16.1957647 C72.815461,19.7578235 73.7762949,25.4657647 78.4212102,25.4657647 C79.9854407,25.4657647 81.9071085,24.9054706 83.2271492,23.9472353 L85.2372915,26.9031176 C83.4695695,28.3828235 80.5861831,29.2201765 78.2654949,29.2201765" id="Fill-5" fill="#0F0F28" mask="url(#mask-2)"></path>
            <polygon id="Fill-6" fill="#0F0F28" mask="url(#mask-2)" points="100.89216 28.6205294 100.89216 17.4746471 93.6036244 17.4746471 93.6036244 28.6205294 89.2400583 28.6205294 89.2400583 3.45229412 93.6036244 3.45229412 93.6036244 13.5596471 100.89216 13.5596471 100.89216 3.45229412 105.263689 3.45229412 105.263689 28.6205294"></polygon>
            <path d="M119.199673,6.68832353 C115.558944,6.68832353 114.595456,12.1192059 114.595456,16.0342059 C114.595456,19.9509706 115.558944,25.3871471 119.199673,25.3871471 C122.84748,25.3871471 123.808314,19.9509706 123.808314,16.0342059 C123.808314,12.1192059 122.84748,6.68832353 119.199673,6.68832353 M119.199673,29.2200882 C112.672904,29.2200882 110.228351,21.9495 110.228351,16.0342059 C110.228351,10.1268529 112.794114,2.85538235 119.199673,2.85538235 C125.693707,2.85538235 128.177188,10.1268529 128.177188,16.0342059 C128.177188,21.9495 125.693707,29.2200882 119.199673,29.2200882" id="Fill-7" fill="#0F0F28" mask="url(#mask-2)"></path>
            <path d="M6.47580814,11.5395882 C3.0898861,11.5395882 2.00253356,15.7166471 2.00253356,18.4131176 C2.00253356,20.1760588 2.59796746,21.8878235 4.65500136,21.8878235 C7.22872678,21.8878235 7.67552339,18.9592941 8.00907254,17.0119412 L8.76906915,12.7051765 C8.24264542,11.9798824 7.33224203,11.5395882 6.47580814,11.5395882 M0.000353898305,18.2560588 C0.000353898305,14.3163529 2.2334522,9.95929412 6.65895051,9.95929412 C7.51538441,9.95929412 8.50187593,10.3484118 9.02387593,11.0437059 C9.23179119,9.93105882 9.44059119,8.76547059 9.44059119,7.65017647 C9.44059119,6.94694118 9.28310644,5.98605882 8.89470305,5.41782353 L10.4297369,4.74194118 C11.0552522,5.62429412 11.3666827,6.94694118 11.3666827,8.01194118 C11.3666827,8.35164706 11.3401403,8.68782353 11.2861708,8.99841176 L9.77679458,18.1272353 C9.31053356,20.979 7.70118102,23.4451765 4.52582847,23.4451765 C1.43010305,23.4451765 0.000353898305,21.1113529 0.000353898305,18.2560588" id="Fill-8" fill="#FFFFFF" mask="url(#mask-2)"></path>
            <path d="M19.1931437,11.5119706 C17.0087064,11.5119706 15.5789573,14.4175588 15.2427539,16.2360882 C17.0626759,15.8460882 20.65032,14.9875588 20.65032,12.6299118 C20.65032,11.7713824 19.9487166,11.5119706 19.1931437,11.5119706 M15.0843844,17.8163824 C15.0569573,18.0210882 15.0569573,18.2328529 15.0569573,18.4128529 C15.0569573,19.8140294 15.7107844,21.8875588 17.4280759,21.8875588 C18.6976861,21.8875588 20.1539776,20.9319706 20.9936014,20.0187353 L21.7721776,21.0863824 C20.4707166,22.4566765 18.9117946,23.4449118 16.9821641,23.4449118 C14.1492081,23.4449118 13.0025776,20.9319706 13.0025776,18.4693235 C13.0025776,14.6531471 15.2675268,9.95902941 19.6089742,9.95902941 C21.4315505,9.95902941 22.786981,10.8643235 22.786981,12.7825588 C22.786981,16.0516765 17.5820217,17.2984412 15.0843844,17.8163824" id="Fill-9" fill="#FFFFFF" mask="url(#mask-2)"></path>
            <path d="M27.0513671,17.9478529 C26.9168858,18.6987353 26.8461061,19.4769706 26.8461061,20.2534412 C26.8461061,20.9319706 26.9168858,22.1222647 27.2088519,22.7478529 L25.3632722,23.2896176 C25.047418,22.4055 24.9474417,21.1110882 24.9474417,20.2031471 C24.9474417,19.4496176 24.9978722,18.6987353 25.1270451,17.9478529 L27.18054,5.05579412 L29.104862,5.05579412 L27.0513671,17.9478529 Z" id="Fill-10" fill="#FFFFFF" mask="url(#mask-2)"></path>
            <path d="M43.8191573,4.3515 L40.7375878,4.3515 L40.7375878,22.0056176 L43.6192047,22.0056176 C48.2667742,22.0056176 48.9922658,16.9003235 48.9922658,13.3029706 C48.9922658,9.82473529 48.4667268,4.3515 43.8191573,4.3515 M43.6192047,25.7626765 L36.4094115,25.7626765 L36.4094115,0.597088235 L43.9828353,0.597088235 C51.2315573,0.597088235 53.3974149,7.07002941 53.3974149,13.2182647 C53.3974149,19.4556176 50.7502556,25.7626765 43.6192047,25.7626765" id="Fill-11" fill="#FFFFFF" mask="url(#mask-2)"></path>
            <polygon id="Fill-12" fill="#FFFFFF" mask="url(#mask-2)" points="58.0030475 25.7628529 62.3268 25.7628529 62.3268 0.597264706 58.0030475 0.597264706"></polygon>
            <path d="M76.8330031,26.3620588 C69.4966912,26.3620588 67.0158641,19.3711765 67.0158641,13.1797059 C67.0158641,7.34735294 70.1009725,0 76.9117454,0 C78.9493149,0 81.7548437,0.558529412 83.4385149,1.79647059 L81.7548437,4.79205882 C80.4348031,3.99529412 78.3892708,3.71647059 76.9117454,3.71647059 C73.186081,3.71647059 71.3820844,9.90352941 71.3820844,13.3411765 C71.3820844,16.8997059 72.3438031,22.6076471 76.9904878,22.6076471 C78.5520641,22.6076471 80.4737319,22.0491176 81.7946573,21.0908824 L83.8039149,24.0476471 C82.0397319,25.5273529 79.1536912,26.3620588 76.8330031,26.3620588" id="Fill-13" fill="#FFFFFF" mask="url(#mask-2)"></path>
            <polygon id="Fill-14" fill="#FFFFFF" mask="url(#mask-2)" points="99.4596681 25.7623235 99.4596681 14.6190882 92.1737868 14.6190882 92.1737868 25.7623235 87.8075664 25.7623235 87.8075664 0.596735294 92.1737868 0.596735294 92.1737868 10.7049706 99.4596681 10.7049706 99.4596681 0.596735294 103.831197 0.596735294 103.831197 25.7623235"></polygon>
            <path d="M117.767181,3.83364706 C114.126453,3.83364706 113.164734,9.261 113.164734,13.1795294 C113.164734,17.0954118 114.126453,22.5280588 117.767181,22.5280588 C121.416758,22.5280588 122.374937,17.0954118 122.374937,13.1795294 C122.374937,9.261 121.416758,3.83364706 117.767181,3.83364706 M117.767181,26.3618824 C111.243066,26.3618824 108.795859,19.0939412 108.795859,13.1795294 C108.795859,7.26952941 111.361622,-0.000176470588 117.767181,-0.000176470588 C124.260331,-0.000176470588 126.743812,7.26952941 126.743812,13.1795294 C126.743812,19.0939412 124.260331,26.3618824 117.767181,26.3618824" id="Fill-15" fill="#FFFFFF" mask="url(#mask-2)"></path>
            <path d="M142.337014,11.5890882 C139.220939,11.5890882 137.631051,17.2687941 137.631051,19.7349706 C137.631051,20.3587941 137.689444,21.7052647 138.595424,21.7052647 C140.517976,21.7052647 142.78381,18.5411471 143.070468,16.8037941 C143.328814,15.1423235 143.611932,13.4579118 143.875586,11.7682059 C143.379244,11.6402647 142.861668,11.5890882 142.337014,11.5890882 L142.337014,11.5890882 Z M144.340963,21.2623235 C144.340963,21.3408529 144.320614,21.4193824 144.320614,21.4749706 C144.320614,21.8649706 144.529414,22.0935 144.916047,22.0935 C145.121308,22.0935 145.354881,22.0158529 145.537139,21.9382059 L145.876881,22.9264412 C145.354881,23.2370294 144.753254,23.4161471 144.161359,23.4161471 C143.070468,23.4161471 142.31401,22.6352647 142.31401,21.5535 C142.31401,21.1079118 142.468841,20.6932059 142.521925,20.2502647 C141.772546,21.8085 139.583685,23.4452647 137.814193,23.4452647 C135.835017,23.4452647 135.526241,21.4749706 135.526241,19.9167353 C135.526241,16.1517353 137.738105,9.95320588 142.31401,9.95320588 C143.534075,9.95320588 144.736444,10.1367353 145.930851,10.3696765 L144.340963,21.2623235 Z" id="Fill-16" fill="#FFFFFF" mask="url(#mask-2)"></path>
            <path d="M150.951164,17.9447647 C150.821991,18.6956471 150.740594,19.4712353 150.740594,20.2503529 C150.740594,20.9288824 150.821991,22.1174118 151.105994,22.7412353 L149.25776,23.2882941 C148.948099,22.4050588 148.844584,21.108 148.844584,20.2000588 C148.844584,19.4491765 148.897669,18.6956471 149.028611,17.9447647 L151.080337,5.04917647 L153.004659,5.04917647 L150.951164,17.9447647 Z" id="Fill-17" fill="#FFFFFF" mask="url(#mask-2)"></path>
            <polygon id="Fill-18" fill="#0F0F28" mask="url(#mask-2)" points="172.944528 28.6613824 172.944528 17.5199118 165.656877 17.5199118 165.656877 28.6613824 161.285348 28.6613824 161.285348 3.49844118 165.656877 3.49844118 165.656877 13.6040294 172.944528 13.6040294 172.944528 3.49844118 177.308979 3.49844118 177.308979 28.6613824"></polygon>
            <polygon id="Fill-19" fill="#0F0F28" mask="url(#mask-2)" points="183.158829 28.6613824 183.158829 3.49844118 196.777721 3.49844118 196.777721 7.37461765 187.525049 7.37461765 187.525049 13.6040294 194.616287 13.6040294 194.616287 17.5199118 187.525049 17.5199118 187.525049 24.7084412 197.182049 24.7084412 197.182049 28.6613824"></polygon>
            <path d="M210.358745,29.2585588 C203.028626,29.2585588 200.547799,22.2729706 200.547799,16.0797353 C200.547799,10.2465 203.627599,2.8965 210.441026,2.8965 C212.480365,2.8965 215.280586,3.45767647 216.967796,4.69297059 L215.280586,7.69120588 C213.960545,6.89179412 211.92386,6.61208824 210.441026,6.61208824 C206.714477,6.61208824 204.911365,12.8053235 204.911365,16.2429706 C204.911365,19.7953235 205.872199,25.5094412 210.522423,25.5094412 C212.078691,25.5094412 214.003898,24.9456176 215.326593,23.9873824 L217.327003,26.9503235 C215.566359,28.4238529 212.682972,29.2585588 210.358745,29.2585588" id="Fill-20" fill="#0F0F28" mask="url(#mask-2)"></path>
            <polygon id="Fill-21" fill="#0F0F28" mask="url(#mask-2)" points="232.994081 28.6613824 232.994081 17.5199118 225.702891 17.5199118 225.702891 28.6613824 221.339325 28.6613824 221.339325 3.49844118 225.702891 3.49844118 225.702891 13.6040294 232.994081 13.6040294 232.994081 3.49844118 237.357647 3.49844118 237.357647 28.6613824"></polygon>
            <path d="M251.298055,6.73014706 C247.648479,6.73014706 246.696492,12.1689706 246.696492,16.0804412 C246.696492,19.9945588 247.648479,25.4280882 251.298055,25.4280882 C254.945862,25.4280882 255.904041,19.9945588 255.904041,16.0804412 C255.904041,12.1689706 254.945862,6.73014706 251.298055,6.73014706 M251.298055,29.2583824 C244.768631,29.2583824 242.324079,21.9957353 242.324079,16.0804412 C242.324079,10.1704412 244.892496,2.89632353 251.298055,2.89632353 C257.785896,2.89632353 260.270262,10.1704412 260.270262,16.0804412 C260.270262,21.9957353 257.785896,29.2583824 251.298055,29.2583824" id="Fill-22" fill="#0F0F28" mask="url(#mask-2)"></path>
            <path d="M258.331164,11.0703529 C258.331164,11.7788824 257.758734,12.3541765 257.050937,12.3541765 C256.338717,12.3541765 255.763632,11.7788824 255.763632,11.0703529 C255.763632,10.3671176 256.338717,9.79270588 257.050937,9.79270588 C257.758734,9.79270588 258.331164,10.3671176 258.331164,11.0703529" id="Fill-23" fill="#FFFFFF" mask="url(#mask-2)"></path>
            <polygon id="Fill-24" fill="#FFFFFF" mask="url(#mask-2)" points="171.512036 25.8067059 171.512036 14.6625882 164.224385 14.6625882 164.224385 25.8067059 159.854626 25.8067059 159.854626 0.643764706 164.224385 0.643764706 164.224385 10.7484706 171.512036 10.7484706 171.512036 0.643764706 175.876487 0.643764706 175.876487 25.8067059"></polygon>
            <polygon id="Fill-25" fill="#FFFFFF" mask="url(#mask-2)" points="181.725453 25.8067059 181.725453 0.643764706 195.346998 0.643764706 195.346998 4.51905882 186.091673 4.51905882 186.091673 10.7484706 193.183795 10.7484706 193.183795 14.6625882 186.091673 14.6625882 186.091673 21.8502353 195.748673 21.8502353 195.748673 25.8067059"></polygon>
            <path d="M208.926165,26.4038824 C201.596046,26.4038824 199.114334,19.4182941 199.114334,13.2241765 C199.114334,7.39094118 202.195019,0.0418235294 209.007561,0.0418235294 C211.0469,0.0418235294 213.85066,0.601235294 215.534331,1.83741176 L213.85066,4.83388235 C212.530619,4.03358824 210.49128,3.75741176 209.007561,3.75741176 C205.281897,3.75741176 203.4779,9.94976471 203.4779,13.3874118 C203.4779,16.9406471 204.438734,22.6538824 209.089843,22.6538824 C210.648765,22.6538824 212.572202,22.0909412 213.895782,21.1291765 L215.894422,24.0938824 C214.132009,25.5656471 211.252161,26.4038824 208.926165,26.4038824" id="Fill-26" fill="#FFFFFF" mask="url(#mask-2)"></path>
            <polygon id="Fill-27" fill="#FFFFFF" mask="url(#mask-2)" points="231.564155 25.8067059 231.564155 14.6625882 224.269426 14.6625882 224.269426 25.8067059 219.90586 25.8067059 219.90586 0.643764706 224.269426 0.643764706 224.269426 10.7484706 231.564155 10.7484706 231.564155 0.643764706 235.925066 0.643764706 235.925066 25.8067059"></polygon>
            <path d="M249.865563,3.8745 C246.218641,3.8745 245.264,9.31332353 245.264,13.2247941 C245.264,17.1397941 246.218641,22.5724412 249.865563,22.5724412 C253.51337,22.5724412 254.474204,17.1397941 254.474204,13.2247941 C254.474204,9.31332353 253.51337,3.8745 249.865563,3.8745 M249.865563,26.4036176 C243.336139,26.4036176 240.891587,19.1374412 240.891587,13.2247941 C240.891587,7.31214706 243.460004,0.0415588235 249.865563,0.0415588235 C256.356058,0.0415588235 258.840424,7.31214706 258.840424,13.2247941 C258.840424,19.1374412 256.356058,26.4036176 249.865563,26.4036176" id="Fill-28" fill="#FFFFFF" mask="url(#mask-2)"></path>
        </g>
    </g>
</svg>