<svg width="232" height="23" viewBox="0 0 232 23" fill="none" xmlns="http://www.w3.org/2000/svg">
<path d="M8.06388 20.4094C7.44384 21.6357 6.49313 22.2488 5.21173 22.2488C3.93033 22.2488 2.85561 21.7597 1.98757 20.7814C1.09197 19.7618 0.644165 18.4666 0.644165 16.8959C0.644165 15.3251 1.0713 14.0506 1.92556 13.0723C2.76605 12.1216 3.81321 11.6463 5.06706 11.6463C6.3209 11.6463 7.26472 12.1492 7.89853 13.155V7.7814H10.358V21.9595H8.35322L8.06388 20.4094ZM5.52175 13.837C4.83282 13.837 4.25413 14.1195 3.78566 14.6844C3.33097 15.2356 3.10362 15.9796 3.10362 16.9165C3.10362 17.8535 3.33786 18.6113 3.80633 19.19C4.27479 19.7549 4.86727 20.0374 5.58375 20.0374C6.17622 20.0374 6.70669 19.8031 7.17516 19.3347C7.65741 18.8524 7.89853 18.2462 7.89853 17.5159V16.2138C7.87098 15.4974 7.62985 14.9118 7.17516 14.4571C6.76181 14.0437 6.21067 13.837 5.52175 13.837Z" fill="white"/>
<path d="M21.2139 13.1137C21.5583 13.5546 21.8132 14.0644 21.9786 14.6431C22.1577 15.2218 22.2473 15.7523 22.2473 16.2345C22.2473 16.7167 22.2197 17.1508 22.1646 17.5366H15.6749C15.7025 18.3495 15.9023 19.0109 16.2743 19.5207C16.6463 20.0305 17.2112 20.2854 17.969 20.2854C18.9749 20.2854 19.5742 19.8445 19.7671 18.9626H22.2266C22.0612 19.9685 21.5997 20.7607 20.8419 21.3394C20.0565 21.9457 19.0989 22.2488 17.969 22.2488C16.6463 22.2488 15.5371 21.7666 14.6415 20.8021C13.7184 19.7962 13.2568 18.5079 13.2568 16.9372C13.2568 15.3251 13.7184 14.0299 14.6415 13.0517C15.5234 12.1147 16.6325 11.6463 17.969 11.6463C19.3607 11.6463 20.4423 12.1354 21.2139 13.1137ZM17.9897 13.589C17.3008 13.589 16.7634 13.8164 16.3776 14.2711C15.9918 14.712 15.7645 15.2838 15.6956 15.9865H19.9738C19.9738 14.898 19.6293 14.1677 18.9404 13.7957C18.6786 13.6579 18.3617 13.589 17.9897 13.589Z" fill="white"/>
<path d="M25.1671 7.7814H27.6058V21.9595H25.1671V7.7814Z" fill="white"/>
<path d="M124.91 16.0898C125.709 16.0898 126.632 16.2207 127.679 16.4825V15.4905C127.679 14.7878 127.535 14.2711 127.245 13.9404C126.97 13.5959 126.508 13.4237 125.86 13.4237C125.227 13.4237 124.737 13.5546 124.393 13.8164C124.049 14.0644 123.876 14.4226 123.876 14.8911H121.21C121.21 13.7475 121.61 12.9208 122.409 12.411C123.222 11.9012 124.352 11.6463 125.798 11.6463C127.865 11.6463 129.202 12.3696 129.808 13.8164C130.015 14.3124 130.118 14.898 130.118 15.5731V21.9595H127.989L127.803 20.6161C127.156 21.7046 126.164 22.2488 124.827 22.2488C123.532 22.2488 122.526 21.9319 121.81 21.2981C121.148 20.6918 120.818 19.9271 120.818 19.004C120.818 18.067 121.183 17.3506 121.913 16.8545C122.643 16.3447 123.642 16.0898 124.91 16.0898ZM127.679 18.0326C126.866 17.8121 126.108 17.7019 125.406 17.7019C124.083 17.7019 123.422 18.1428 123.422 19.0246C123.422 19.3967 123.573 19.7205 123.876 19.996C124.179 20.2578 124.662 20.3887 125.323 20.3887C125.998 20.3887 126.549 20.1683 126.976 19.7273C127.417 19.2727 127.652 18.7077 127.679 18.0326Z" fill="white"/>
<path d="M133.673 7.7814H136.111V21.9595H133.673V7.7814Z" fill="white"/>
<path d="M39.8923 18.3578H41.9967C43.8057 18.3578 45.227 17.804 46.2608 16.6965C47.2945 15.5889 47.8114 14.1029 47.8114 12.2386C47.8114 10.3742 47.2945 8.88818 46.2608 7.78062C45.227 6.67306 43.8057 6.11928 41.9967 6.11928H39.8923V18.3578ZM41.9967 2.5197C45.0978 2.5197 47.6452 3.42421 49.6388 5.23323C51.6324 7.02378 52.6292 9.35889 52.6292 12.2386C52.6292 15.0998 51.6324 17.4349 49.6388 19.2439C47.6452 21.0529 45.0978 21.9574 41.9967 21.9574H35.1575V2.5197H41.9967Z" fill="white"/>
<path d="M59.9463 4.76251C59.411 5.29783 58.7557 5.5655 57.9804 5.5655C57.2051 5.5655 56.5498 5.29783 56.0144 4.76251C55.4791 4.22719 55.2115 3.57189 55.2115 2.79659C55.2115 2.00284 55.4791 1.3383 56.0144 0.802982C56.5498 0.267661 57.2051 0 57.9804 0C58.7557 0 59.411 0.267661 59.9463 0.802982C60.4816 1.3383 60.7493 2.00284 60.7493 2.79659C60.7493 3.57189 60.4816 4.22719 59.9463 4.76251ZM55.6268 21.9574V6.50692H60.3616V21.9574H55.6268Z" fill="white"/>
<path d="M65.5198 19.9915C64.0984 18.5516 63.3877 16.6319 63.3877 14.2322C63.3877 11.8324 64.0984 9.9219 65.5198 8.50053C66.9596 7.0607 68.8148 6.34079 71.0853 6.34079C72.9681 6.34079 74.5649 6.8115 75.8755 7.75293C77.1861 8.6759 78.0537 10.005 78.4783 11.7401H73.3558C72.9128 10.8172 72.1836 10.3557 71.1684 10.3557C70.1715 10.3557 69.4239 10.7157 68.9255 11.4356C68.4456 12.137 68.2056 13.0692 68.2056 14.2322C68.2056 15.3951 68.4456 16.3365 68.9255 17.0564C69.4239 17.7579 70.1439 18.1086 71.0853 18.1086C71.676 18.1086 72.1375 18.0071 72.4697 17.804C72.802 17.601 73.0974 17.241 73.3558 16.7242H78.4783C78.0537 18.3855 77.1769 19.7054 75.8478 20.6837C74.5187 21.6621 72.9312 22.1512 71.0853 22.1512C68.8148 22.1512 66.9596 21.4313 65.5198 19.9915Z" fill="white"/>
<path d="M85.8604 1.46752V8.77742C86.8388 7.153 88.3986 6.34079 90.5399 6.34079C92.312 6.34079 93.7426 6.93149 94.8317 8.11289C95.9392 9.29429 96.493 10.9002 96.493 12.9308V21.9574H91.7859V13.5676C91.7859 12.5708 91.5182 11.8048 90.9829 11.2694C90.466 10.7157 89.7461 10.4388 88.8231 10.4388C87.9002 10.4388 87.171 10.7157 86.6357 11.2694C86.1188 11.8048 85.8604 12.5708 85.8604 13.5676V21.9574H81.1256V1.46752H85.8604Z" fill="white"/>
<path d="M109.789 17.1118C110.417 16.4473 110.731 15.4874 110.731 14.2322C110.731 12.9769 110.408 12.0263 109.761 11.3802C109.115 10.7157 108.349 10.3834 107.463 10.3834C106.577 10.3834 105.811 10.7157 105.165 11.3802C104.537 12.0263 104.224 12.9769 104.224 14.2322C104.224 15.4874 104.547 16.4473 105.193 17.1118C105.857 17.7764 106.633 18.1086 107.519 18.1086C108.405 18.1086 109.162 17.7764 109.789 17.1118ZM101.732 19.9638C100.181 18.5055 99.4058 16.5857 99.4058 14.2045C99.4058 11.8232 100.181 9.9219 101.732 8.50053C103.282 7.0607 105.202 6.34079 107.491 6.34079C109.78 6.34079 111.69 7.0607 113.223 8.50053C114.773 9.9219 115.548 11.8232 115.548 14.2045C115.548 16.5857 114.782 18.5055 113.25 19.9638C111.718 21.4221 109.808 22.1512 107.519 22.1512C105.23 22.1512 103.301 21.4221 101.732 19.9638Z" fill="white"/>
<path d="M154.6 2.48933H159.335V21.927H154.6V13.8695H147.096V21.927H142.361V2.48933H147.096V10.2699H154.6V2.48933Z" fill="white"/>
<path d="M170.042 22.1209C167.79 22.1209 165.944 21.4009 164.504 19.9611C163.064 18.5028 162.344 16.5738 162.344 14.1741C162.344 11.7744 163.055 9.86384 164.476 8.44247C165.916 7.0211 167.771 6.31042 170.042 6.31042C172.312 6.31042 174.195 7.01187 175.69 8.41478C177.186 9.81769 177.933 11.7652 177.933 14.2572C177.933 14.7925 177.896 15.2909 177.823 15.7524H167.19C167.282 16.4354 167.587 16.9984 168.104 17.4414C168.621 17.866 169.174 18.0783 169.765 18.0783C170.374 18.0783 170.826 18.0229 171.122 17.9121C171.417 17.7829 171.629 17.6629 171.759 17.5522C171.906 17.4229 172.091 17.2199 172.312 16.943H177.435C176.992 18.4936 176.106 19.7488 174.777 20.7087C173.448 21.6501 171.869 22.1209 170.042 22.1209ZM173.005 12.7896C172.931 12.0697 172.617 11.4883 172.063 11.0452C171.509 10.5838 170.854 10.353 170.097 10.353C169.34 10.353 168.704 10.5838 168.187 11.0452C167.67 11.4883 167.347 12.0697 167.218 12.7896H173.005Z" fill="white"/>
<path d="M181.971 19.9611C180.55 18.5213 179.839 16.6015 179.839 14.2018C179.839 11.8021 180.55 9.89153 181.971 8.47016C183.411 7.03033 185.266 6.31042 187.537 6.31042C189.42 6.31042 191.016 6.78113 192.327 7.72256C193.638 8.64553 194.505 9.9746 194.93 11.7098H189.807C189.364 10.7868 188.635 10.3253 187.62 10.3253C186.623 10.3253 185.875 10.6853 185.377 11.4052C184.897 12.1067 184.657 13.0389 184.657 14.2018C184.657 15.3647 184.897 16.3062 185.377 17.0261C185.875 17.7275 186.595 18.0783 187.537 18.0783C188.128 18.0783 188.589 17.9767 188.921 17.7737C189.254 17.5706 189.549 17.2107 189.807 16.6938H194.93C194.505 18.3551 193.628 19.675 192.299 20.6533C190.97 21.6317 189.383 22.1209 187.537 22.1209C185.266 22.1209 183.411 21.4009 181.971 19.9611Z" fill="white"/>
<path d="M202.312 1.43715V8.74705C203.29 7.12263 204.85 6.31042 206.991 6.31042C208.764 6.31042 210.194 6.90112 211.283 8.08252C212.391 9.26391 212.945 10.8699 212.945 12.9004V21.927H208.237V13.5373C208.237 12.5405 207.97 11.7744 207.434 11.2391C206.918 10.6853 206.198 10.4084 205.275 10.4084C204.352 10.4084 203.623 10.6853 203.087 11.2391C202.57 11.7744 202.312 12.5405 202.312 13.5373V21.927H197.577V1.43715H202.312Z" fill="white"/>
<path d="M226.241 17.0815C226.868 16.4169 227.182 15.457 227.182 14.2018C227.182 12.9466 226.859 11.9959 226.213 11.3498C225.567 10.6853 224.801 10.353 223.915 10.353C223.029 10.353 222.263 10.6853 221.617 11.3498C220.989 11.9959 220.675 12.9466 220.675 14.2018C220.675 15.457 220.998 16.4169 221.644 17.0815C222.309 17.746 223.084 18.0783 223.97 18.0783C224.856 18.0783 225.613 17.746 226.241 17.0815ZM218.183 19.9334C216.633 18.4751 215.857 16.5554 215.857 14.1741C215.857 11.7928 216.633 9.89153 218.183 8.47016C219.734 7.03033 221.654 6.31042 223.943 6.31042C226.231 6.31042 228.142 7.03033 229.674 8.47016C231.225 9.89153 232 11.7928 232 14.1741C232 16.5554 231.234 18.4751 229.702 19.9334C228.17 21.3917 226.259 22.1209 223.97 22.1209C221.681 22.1209 219.752 21.3917 218.183 19.9334Z" fill="white"/>
</svg>
