<?xml version="1.0" encoding="utf-8"?>
<!-- Generator: Adobe Illustrator 22.0.1, SVG Export Plug-In . SVG Version: 6.00 Build 0)  -->
<svg version="1.1" id="Capa_1" xmlns="http://www.w3.org/2000/svg" xmlns:xlink="http://www.w3.org/1999/xlink" x="0px" y="0px"
	 viewBox="0 0 222 89" style="enable-background:new 0 0 222 89;" xml:space="preserve">
<style type="text/css">
	.st0{fill:#FFFFFF;}
</style>
<title>logo-rectangular-blanco copy</title>
<desc>Created with Sketch.</desc>
<g>
	<g id="logo-fci">
		<g id="logo-ci" transform="translate(52.000000, 35.000000)">
			<path id="Ciudadanía-Inteligen" class="st0" d="M39.9-20.5c1.9,0,3.4,0.4,4.7,1.4c1.3,1,2,2.3,2.3,4h-3.7
				c-0.3-0.7-0.7-1.1-1.3-1.7c-0.6-0.4-1.3-0.6-2-0.6c-1,0-1.9,0.4-2.6,1.1c-0.7,0.7-1,1.7-1,3s0.3,2.3,1,3C38-9.5,38.7-9,39.9-9
				c0.7,0,1.4-0.1,2-0.6c0.6-0.3,1-0.9,1.3-1.6h3.7c-0.4,1.7-1.1,3-2.3,4c-1.3,1-2.7,1.4-4.7,1.4c-1.4,0-2.6-0.3-3.7-1
				c-1.1-0.7-2-1.4-2.6-2.6c-0.4-1.1-0.7-2.4-0.7-3.9s0.3-2.7,0.9-3.9c0.6-1.1,1.4-2,2.6-2.6C37.4-20.2,38.6-20.5,39.9-20.5z
				 M48.8-20.5c0-0.4,0.1-1,0.6-1.3c0.4-0.3,0.9-0.4,1.6-0.4s1.1,0.1,1.6,0.4c0.4,0.3,0.6,0.7,0.6,1.3c0,0.4-0.1,1-0.6,1.3
				c-0.4,0.3-0.9,0.4-1.6,0.4s-1.1-0.1-1.6-0.4C49.1-19.7,48.8-20,48.8-20.5z M52.8-17.4v11.6h-3.4v-11.6H52.8z M67-17.4v11.6h-3.4
				v-2C63.3-7,62.9-6.6,62.1-6c-0.7,0.4-1.4,0.6-2.3,0.6c-1.3,0-2.4-0.4-3.2-1.3s-1.1-2.2-1.1-3.6v-6.8H59v6.3
				c0,0.7,0.1,1.3,0.6,1.9c0.4,0.4,1,0.7,1.7,0.7c0.7,0,1.3-0.1,1.7-0.7c0.4-0.4,0.7-1,0.7-2v-6.2h3.4v-0.3H67z M74.1-17.5
				c0.9,0,1.7,0.1,2.3,0.6c0.7,0.4,1,1,1.3,1.7v-5.9h3.4v15.2h-3.4v-2c-0.3,0.7-0.7,1.3-1.3,1.7c-0.7,0.4-1.4,0.6-2.3,0.6
				c-1,0-1.7-0.1-2.6-0.7c-0.7-0.4-1.3-1.1-1.7-2c-0.4-0.9-0.7-2-0.7-3.2s0.1-2.3,0.7-3.2c0.4-0.9,1-1.6,1.7-2
				C72.2-17.2,73.1-17.5,74.1-17.5z M75.2-14.3c-0.7,0-1.3,0.3-1.9,0.7c-0.6,0.4-0.7,1.1-0.7,2c0,0.9,0.1,1.6,0.7,2
				c0.6,0.4,1,0.7,1.9,0.7c0.7,0,1.3-0.3,1.9-0.7c0.6-0.4,0.7-1.1,0.7-2s-0.1-1.6-0.7-2C76.5-14.2,75.9-14.3,75.2-14.3z M88.4-17.5
				c0.9,0,1.7,0.1,2.3,0.6c0.7,0.4,1,1,1.4,1.7v-2.2h3.4v11.6h-3.4v-2C91.9-7,91.4-6.4,90.7-6c-0.7,0.3-1.4,0.4-2.3,0.4
				c-1,0-1.7-0.1-2.6-0.7c-0.7-0.4-1.3-1.1-1.7-2s-0.7-2-0.7-3.2s0.1-2.3,0.7-3.2c0.6-0.9,1-1.6,1.7-2
				C86.6-17.2,87.4-17.5,88.4-17.5z M89.6-14.3c-0.7,0-1.3,0.3-1.9,0.7c-0.6,0.4-0.7,1.1-0.7,2c0,0.9,0.1,1.6,0.7,2
				c0.6,0.4,1,0.7,1.9,0.7s1.3-0.3,1.9-0.7c0.6-0.4,0.7-1.1,0.7-2s-0.1-1.6-0.7-2C90.9-14.2,90.3-14.3,89.6-14.3z M102.6-17.5
				c0.9,0,1.7,0.1,2.3,0.6c0.7,0.4,1,1,1.3,1.7v-5.9h3.4v15.2h-3.4v-2c-0.3,0.7-0.7,1.3-1.3,1.7c-0.7,0.4-1.3,0.6-2.3,0.6
				s-1.7-0.1-2.6-0.7c-0.7-0.4-1.3-1.1-1.7-2s-0.7-2-0.7-3.2s0.1-2.3,0.7-3.2c0.6-0.9,1-1.6,1.7-2C100.9-17.2,101.8-17.5,102.6-17.5
				z M103.9-14.3c-0.7,0-1.3,0.3-1.9,0.7c-0.4,0.4-0.7,1.1-0.7,2c0,0.9,0.1,1.6,0.7,2c0.4,0.4,1,0.7,1.9,0.7c0.7,0,1.3-0.3,1.9-0.7
				c0.6-0.4,0.7-1.1,0.7-2s-0.1-1.6-0.7-2C105.1-14.2,104.5-14.3,103.9-14.3z M117-17.5c0.9,0,1.7,0.1,2.3,0.6c0.7,0.4,1,1,1.4,1.7
				v-2.2h3.4v11.6h-3.4v-2C120.5-7,120-6.4,119.3-6c-0.7,0.3-1.4,0.4-2.3,0.4c-1,0-1.7-0.1-2.6-0.7c-0.7-0.4-1.3-1.1-1.7-2
				s-0.7-2-0.7-3.2s0.1-2.3,0.7-3.2c0.4-0.9,1-1.6,1.7-2C115.1-17.2,116-17.5,117-17.5z M118.2-14.3c-0.7,0-1.3,0.3-1.9,0.7
				c-0.4,0.4-0.7,1.1-0.7,2c0,0.9,0.1,1.6,0.7,2c0.4,0.4,1,0.7,1.9,0.7c0.7,0,1.3-0.3,1.9-0.7c0.6-0.4,0.7-1.1,0.7-2s-0.1-1.6-0.7-2
				C119.5-14.2,118.9-14.3,118.2-14.3z M134.2-17.5c1.3,0,2.4,0.4,3.2,1.3c0.7,0.9,1.1,2.2,1.1,3.6v6.8h-3.4V-12
				c0-0.7-0.1-1.3-0.6-1.7c-0.4-0.4-1-0.7-1.7-0.7s-1.3,0.1-1.7,0.7c-0.4,0.4-0.7,1-0.7,2v6.2h-3.4v-11.6h3.4v2.2
				c0.3-0.7,0.7-1.3,1.4-1.7C132.7-17.2,133.4-17.5,134.2-17.5z M145.2-17.4v11.6h-3.4v-11.6H145.2z M146.3-20.2l-5,2.2v-2.4l5-2.4
				V-20.2z M152.6-17.5c0.9,0,1.7,0.1,2.3,0.6c0.7,0.4,1,1,1.4,1.7v-2.2h3.4v11.6h-3.4v-2c-0.3,0.7-0.7,1.3-1.4,1.7
				c-0.7,0.3-1.4,0.4-2.3,0.4c-1,0-1.7-0.1-2.6-0.7c-0.7-0.4-1.3-1.1-1.7-2s-0.7-2-0.7-3.2s0.1-2.3,0.7-3.2c0.6-0.9,1-1.6,1.7-2
				C150.8-17.2,151.6-17.5,152.6-17.5z M153.8-14.3c-0.7,0-1.3,0.3-1.9,0.7c-0.6,0.4-0.7,1.1-0.7,2c0,0.9,0.1,1.6,0.7,2
				c0.6,0.4,1,0.7,1.9,0.7c0.7,0,1.3-0.3,1.9-0.7c0.6-0.4,0.7-1.1,0.7-2s-0.1-1.6-0.7-2C155.1-14.2,154.5-14.3,153.8-14.3z
				 M36.7,1.5v14.7h-3.4V1.5C33.1,1.5,36.7,1.5,36.7,1.5z M46.8,4.5c1.3,0,2.4,0.4,3.2,1.3c0.7,0.9,1.1,2.2,1.1,3.6v6.8h-3.4V9.6
				c0-0.7-0.1-1.3-0.6-1.7c-0.4-0.4-1-0.6-1.7-0.6S44,7.5,43.6,7.9c-0.4,0.6-0.7,1.1-0.7,2v6.2h-3.4V4.6h3.4v2.2
				C43.2,6,43.6,5.5,44.3,5C45,4.6,45.9,4.5,46.8,4.5z M60.3,13.1v3h-1.6c-1.3,0-2.4-0.3-3.2-1c-0.7-0.7-1.1-1.7-1.1-3.3V7.5h-1.6
				V4.6h1.6V1.7h3.4v2.9h2.3v3h-2.3v4.3c0,0.4,0.1,0.7,0.3,1c0.3,0,0.6,0.1,1,0.1H60.3L60.3,13.1z M73.6,10.1c0,0.3,0,0.6-0.1,1h-8
				c0,0.9,0.3,1.4,0.7,1.9c0.4,0.4,0.9,0.6,1.6,0.6c0.4,0,1-0.1,1.3-0.4c0.3-0.3,0.6-0.6,0.7-1h3.7c-0.1,0.7-0.4,1.6-1,2.2
				c-0.4,0.7-1.1,1.1-2,1.4c-0.7,0.4-1.7,0.6-2.6,0.6c-1.1,0-2.2-0.1-3-0.7c-0.9-0.4-1.6-1.1-2-2s-0.7-2-0.7-3.2s0.3-2.3,0.7-3.2
				s1.1-1.6,2-2c0.9-0.4,2-0.7,3-0.7c1.1,0,2.2,0.1,3,0.7c0.9,0.6,1.6,1.1,2,2C73.3,7.9,73.6,8.9,73.6,10.1z M70,9.4
				c0-0.7-0.1-1.3-0.6-1.7c-0.4-0.4-1-0.6-1.6-0.6c-0.7,0-1.1,0.1-1.7,0.6c-0.6,0.4-0.7,1.1-0.7,1.7H70L70,9.4z M79.2,0.7v15.4h-3.6
				V0.7H79.2z M81.5,1.3c0-0.4,0.1-1,0.6-1.3c0.4-0.3,0.9-0.4,1.6-0.4s1.1,0.1,1.6,0.4c0.4,0.3,0.6,0.7,0.6,1.3c0,0.4-0.1,1-0.6,1.3
				C84.8,2.9,84.4,3,83.7,3s-1.1-0.1-1.6-0.4C81.8,2.2,81.5,1.9,81.5,1.3z M85.4,4.6v11.6H82V4.6C82,4.6,85.4,4.6,85.4,4.6z
				 M92.6,4.5c0.9,0,1.7,0.1,2.3,0.6c0.7,0.4,1,1,1.4,1.7V4.6h3.4v11.5c0,1-0.1,2-0.7,2.9c-0.4,0.9-1,1.6-2,2
				c-0.9,0.4-2,0.7-3.2,0.7c-1.7,0-3.2-0.4-4.2-1.3c-1-0.7-1.7-2-1.9-3.3h3.4c0.1,0.4,0.4,0.7,0.7,1c0.4,0.3,0.9,0.4,1.6,0.4
				s1.3-0.1,1.7-0.7c0.7-0.3,0.9-0.9,0.9-1.9v-2c-0.3,0.7-0.7,1.3-1.4,1.7c-0.7,0.4-1.3,0.6-2.3,0.6c-1,0-1.7-0.1-2.6-0.7
				c-0.7-0.4-1.3-1.1-1.7-2s-0.7-2-0.7-3.2s0.1-2.3,0.7-3.2c0.4-0.9,1-1.6,1.7-2C90.9,4.6,91.7,4.5,92.6,4.5z M93.7,7.5
				c-0.7,0-1.3,0.3-1.9,0.7c-0.4,0.4-0.7,1.1-0.7,2s0.1,1.6,0.7,2c0.6,0.6,1.1,0.9,1.9,0.9s1.3-0.3,1.9-0.7c0.4-0.4,0.7-1.1,0.7-2
				c0-0.9-0.3-1.6-0.7-2.2S94.5,7.5,93.7,7.5z M113.6,10.1c0,0.3,0,0.6-0.1,1h-8c0,0.9,0.3,1.4,0.7,1.9c0.4,0.4,0.9,0.6,1.6,0.6
				c0.4,0,1-0.1,1.3-0.4c0.3-0.3,0.6-0.6,0.7-1h3.6c-0.1,0.7-0.4,1.6-1,2.2c-0.4,0.7-1.1,1.1-2,1.4c-0.7,0.4-1.7,0.6-2.6,0.6
				c-1.1,0-2.2-0.1-3-0.7c-0.9-0.4-1.6-1.1-2-2s-0.7-2-0.7-3.2s0.3-2.3,0.7-3.2s1.1-1.6,2-2c0.9-0.4,2-0.7,3-0.7
				c1.1,0,2.2,0.1,3,0.7c0.9,0.4,1.6,1.1,2,2C113.3,7.9,113.6,8.9,113.6,10.1z M110,9.4c0-0.7-0.1-1.3-0.6-1.7
				c-0.4-0.3-1-0.6-1.6-0.6c-0.7,0-1.1,0.1-1.7,0.6c-0.4,0.4-0.7,1-0.7,1.7H110L110,9.4z M122.9,4.5c1.3,0,2.4,0.4,3.2,1.3
				s1.1,2.2,1.1,3.6v6.8h-3.4V9.6c0-0.7-0.1-1.3-0.6-1.7c-0.4-0.4-1-0.6-1.7-0.6s-1.3,0.1-1.7,0.7c-0.4,0.4-0.7,1-0.7,1.9v6.2h-3.4
				V4.6h3.4v2.2c0.3-0.7,0.7-1.3,1.4-1.7C121.3,4.6,122,4.5,122.9,4.5z M136.5,13.1v3h-1.7c-1.3,0-2.4-0.3-3.2-1
				c-0.7-0.7-1.1-1.7-1.1-3.3V7.5h-1.4V4.6h1.4V1.7h3.4v2.9h2.3v3H134v4.3c0,0.4,0.1,0.7,0.3,1c0.3,0,0.6,0.1,1.1,0.1H136.5
				L136.5,13.1z M149.8,10.1c0,0.3,0,0.6-0.1,1h-8c0,0.9,0.3,1.4,0.7,1.9c0.4,0.4,0.9,0.6,1.6,0.6c0.4,0,1-0.1,1.3-0.4
				c0.3-0.3,0.6-0.6,0.7-1h3.7c-0.1,0.7-0.4,1.6-1,2.2c-0.4,0.7-1.1,1.1-2,1.4c-0.7,0.4-1.7,0.6-2.6,0.6c-1.1,0-2.2-0.1-3-0.7
				c-0.9-0.4-1.6-1.1-2-2c-0.4-0.9-0.7-2-0.7-3.2s0.3-2.3,0.7-3.2c0.4-0.9,1.1-1.6,2-2s2-0.7,3-0.7c1.1,0,2.2,0.1,3,0.7
				c0.9,0.4,1.6,1.1,2,2C149.5,7.9,149.8,8.9,149.8,10.1z M146.2,9.4c0-0.7-0.1-1.3-0.6-1.7s-1-0.6-1.6-0.6s-1.1,0.3-1.7,0.6
				c-0.4,0.4-0.7,1-0.7,1.7H146.2L146.2,9.4z"/>
		</g>
	</g>
	<g>
		<path class="st0" d="M29.7,14.5c0.1-0.1,0.4-0.4,0.4-0.6c1-1.7,0.6-4-1.1-5c-0.6-0.4-1.3-0.6-2-0.6l0,0c-1.3,0-2.4,0.7-3.2,1.7
			c-0.4,0.9-0.7,1.9-0.4,2.7c0.1,0.9,0.7,1.7,1.7,2.3c0.6,0.4,1.3,0.6,2,0.6C27.9,15.5,28.8,15,29.7,14.5z"/>
		<path class="st0" d="M20,21.9c-0.6-0.4-1.3-0.6-2-0.6c-1.3,0-2.4,0.7-3.2,1.7c-0.4,0.9-0.7,1.9-0.4,2.7c0.3,0.7,0.9,1.6,1.7,2.2
			c0.6,0.4,1.3,0.6,2,0.6c1,0,2-0.4,2.6-1c0.1-0.1,0.4-0.4,0.4-0.6C22.2,25.2,21.8,23,20,21.9z"/>
		<path class="st0" d="M36.1,17.2c-0.7-0.4-1.4-0.6-2.2-0.4c-0.7,0.1-1.4,0.6-1.7,1.3c-0.4,0.7-0.6,1.4-0.4,2.2
			c0.1,0.7,0.6,1.4,1.3,1.9c0.4,0.3,1,0.4,1.6,0.4c0.7,0,1.4-0.3,2-0.9c0.1-0.1,0.3-0.3,0.4-0.4C37.9,19.8,37.4,18.1,36.1,17.2z"/>
		<path class="st0" d="M29.7,26.5c-0.7-0.4-1.4-0.6-2.2-0.4c-0.7,0.1-1.4,0.6-1.7,1.3c-0.4,0.7-0.6,1.4-0.4,2.2
			c0.1,0.7,0.6,1.4,1.3,1.9c0.4,0.3,1,0.4,1.6,0.4c0.7,0,1.4-0.3,2-0.9c0.1-0.1,0.3-0.3,0.4-0.4C31.3,29.3,31,27.4,29.7,26.5z"/>
		<path class="st0" d="M27.5,38.3c-0.7-0.4-1.4-0.6-2.2-0.4c-0.7,0.1-1.4,0.6-1.7,1.3c-0.4,0.7-0.6,1.4-0.4,2.2s0.6,1.4,1.3,1.7
			c0.4,0.3,1,0.4,1.6,0.4c0.7,0,1.4-0.3,2-0.9c0.1-0.1,0.3-0.3,0.4-0.4C29.2,40.9,28.8,39,27.5,38.3z"/>
		<path class="st0" d="M29.7,49.2c-0.7-0.4-1.4-0.6-2.2-0.4c-0.7,0.1-1.4,0.6-1.7,1.3c-0.4,0.7-0.6,1.4-0.4,2.2
			c0.1,0.7,0.6,1.4,1.3,1.7c0.4,0.3,1,0.4,1.6,0.4c0.7,0,1.4-0.3,2-0.9c0.1-0.1,0.3-0.3,0.4-0.4C31.3,52,31,50.1,29.7,49.2z"/>
		<path class="st0" d="M20,52.8c-0.6-0.4-1.3-0.6-2-0.6c-1.3,0-2.4,0.7-3.2,1.7c-0.4,0.9-0.7,1.9-0.4,2.7c0.1,1,0.7,1.7,1.7,2.3
			c0.6,0.4,1.3,0.6,2,0.6c1,0,2-0.4,2.6-1c0.1-0.1,0.4-0.4,0.4-0.6C22.2,56.3,21.8,54,20,52.8z"/>
		<path class="st0" d="M18,43.2c0.1-0.1,0.4-0.4,0.4-0.6c1-1.7,0.6-4-1.1-5c-0.6-0.4-1.3-0.6-2-0.6l0,0c-1.3,0-2.4,0.7-3.2,1.7
			c-0.4,0.9-0.7,1.9-0.4,2.7c0.1,1,0.7,1.7,1.7,2.3c0.6,0.4,1.3,0.6,2,0.6C16.5,44.4,17.5,43.9,18,43.2z"/>
		<path class="st0" d="M72.6,74.7c-0.6-0.4-1.3-0.6-2-0.6c-1.3,0-2.4,0.7-3.2,1.7l0,0c-0.4,0.9-0.7,1.9-0.4,2.7
			c0.1,1,0.7,1.7,1.7,2.3c0.6,0.4,1.3,0.6,2,0.6c1,0,2-0.4,2.6-1c0.1-0.1,0.4-0.4,0.4-0.6C74.8,78,74.3,75.7,72.6,74.7z"/>
		<path class="st0" d="M41.3,74.7c-0.6-0.4-1.3-0.6-2-0.6l0,0c-1.3,0-2.4,0.7-3.2,1.7c-0.4,0.9-0.7,1.9-0.4,2.7
			c0.1,1,0.7,1.7,1.7,2.3c0.6,0.4,1.3,0.6,2,0.6c1,0,2-0.4,2.6-1c0.1-0.1,0.4-0.4,0.4-0.6C43.5,78,43,75.7,41.3,74.7z"/>
		<g id="_xF672_-copy_2_">
			<path class="st0" d="M55,52.3c0.4,0,0.9-0.1,1.1-0.4c0.3-0.3,0.4-0.7,0.4-1.1s-0.1-0.9-0.4-1.1c-0.3-0.3-0.7-0.4-1.1-0.4
				c-2.3,0-4.2-0.7-5.7-2.4c-1.7-1.7-2.4-3.4-2.4-5.7c0-0.4-0.1-0.9-0.4-1.1c-0.3-0.3-0.7-0.4-1.1-0.4s-0.9,0.1-1.1,0.4
				c-0.3,0.3-0.4,0.7-0.4,1.1c0,2,0.4,3.9,1.6,5.7c1,1.7,2.4,3.2,4.2,4.2C50.9,51.7,52.9,52.3,55,52.3z M55,58.6
				c3.3,0,6.3-0.7,9-2.4c2.7-1.7,5-3.7,6.5-6.6c1.7-2.7,2.4-5.9,2.4-9.2c0-2.3-0.4-4.5-1.1-6.5s-1.9-3.9-3.3-5.6
				C67.2,27,66,25.1,65,23c-1-2-1.7-3.3-1.9-4.2H46.8C46.6,19.6,46,21.1,45,23c-1.1,2.2-2.3,3.9-3.6,5.3c-1.4,1.7-2.6,3.4-3.3,5.6
				c-0.7,2-1.1,4.2-1.1,6.5c0,3.2,0.7,6.2,2.3,8.9c1.6,2.7,3.7,5,6.5,6.6C48.5,57.9,51.5,58.6,55,58.6z M66.2,30.7
				c1.3,1.3,2.2,2.9,2.7,4.6c0.6,1.7,1,3.4,1,5.2c0,2.6-0.7,5.2-2,7.5c-1.3,2.3-3.2,4-5.3,5.5c-2.3,1.3-4.7,2-7.5,2
				c-2.7,0-5.3-0.7-7.5-2c-2.2-1.3-4-3.2-5.3-5.5c-1.3-2.3-2-4.7-2-7.3c0-3.7,1.3-6.9,3.7-9.8c0.9-0.9,1.7-2,2.6-3.4
				c1-1.7,1.9-3.3,2.6-4.9h11.9c0.7,1.7,1.6,3.2,2.6,4.9C64.6,28.7,65.4,29.8,66.2,30.7z"/>
		</g>
		<g id="Rectangle-Copy-2_2_">
			<path class="st0" d="M49.6,6h10.8C61.9,6,63,7.1,63,8.6v1H47.1v-1C47.1,7.1,48.2,6,49.6,6z"/>
		</g>
		<g id="Rectangle-Copy_2_">
			<rect x="47.1" y="12.8" class="st0" width="15.9" height="3.7"/>
		</g>
		<path class="st0" d="M57,77.2c-0.6-0.4-1.3-0.6-2-0.6l0,0c-1.3,0-2.4,0.7-3.2,1.7c-0.4,0.9-0.7,1.9-0.4,2.7c0.1,1,0.7,1.7,1.7,2.3
			c0.6,0.4,1.3,0.6,2,0.6c1,0,2-0.4,2.6-1c0.1-0.1,0.4-0.4,0.4-0.6C59.1,80.7,58.7,78.3,57,77.2z"/>
		<path class="st0" d="M53.4,72.2c0.4,0.3,1,0.4,1.6,0.4c0.7,0,1.4-0.3,2-0.9c0.1-0.1,0.3-0.3,0.4-0.4c0.9-1.3,0.4-3.2-0.9-4
			c-0.7-0.4-1.4-0.6-2.2-0.4c-0.7,0.1-1.4,0.6-1.7,1.3c-0.4,0.7-0.6,1.4-0.4,2.2C52.4,71.2,52.8,71.9,53.4,72.2z"/>
		<path class="st0" d="M68.7,69.5c0.9-1.3,0.4-3.2-0.9-4c-0.7-0.4-1.4-0.6-2.2-0.4c-0.7,0.1-1.4,0.6-1.7,1.3
			c-0.4,0.7-0.6,1.4-0.4,2.2c0.1,0.7,0.6,1.4,1.3,1.7c0.4,0.3,1,0.4,1.6,0.4c0.7,0,1.4-0.3,2-0.9C68.6,69.8,68.7,69.6,68.7,69.5z"/>
		<path class="st0" d="M45.2,65.6c-0.7-0.4-1.4-0.6-2.2-0.4c-0.7,0.1-1.4,0.6-1.7,1.3c-0.4,0.7-0.6,1.4-0.4,2.2
			c0.1,0.7,0.6,1.4,1.3,1.7c0.4,0.3,1,0.4,1.6,0.4c0.7,0,1.4-0.3,2-0.9c0.1-0.1,0.3-0.3,0.4-0.4c0.4-0.7,0.6-1.4,0.4-2.2
			C46.2,66.6,45.8,65.9,45.2,65.6z"/>
		<path class="st0" d="M28.5,66c-0.6-0.4-1.3-0.6-2-0.6c-1.3,0-2.4,0.7-3.2,1.7c-0.3,0.9-0.6,1.7-0.3,2.6c0.1,1,0.7,1.7,1.7,2.3
			c0.6,0.4,1.3,0.6,2,0.6c1,0,2-0.4,2.6-1c0.1-0.1,0.4-0.4,0.4-0.6C30.8,69.5,30.4,67.2,28.5,66z"/>
		<path class="st0" d="M85.4,66c-0.6-0.4-1.3-0.6-2-0.6c-1.3,0-2.4,0.7-3.2,1.7c-0.4,0.9-0.7,1.9-0.4,2.7c0.1,1,0.7,1.7,1.7,2.3
			c0.6,0.4,1.3,0.6,2,0.6c1,0,2-0.4,2.6-1c0.1-0.1,0.4-0.4,0.4-0.6C87.6,69.5,87,67.2,85.4,66z"/>
		<path class="st0" d="M35.9,59.1c-0.7-0.4-1.4-0.6-2.2-0.4C33,58.9,32.3,59.3,32,60c-0.4,0.7-0.6,1.4-0.4,2.2
			c0.1,0.7,0.6,1.4,1.3,1.7c0.4,0.3,1,0.4,1.6,0.4c0.7,0,1.4-0.3,2-0.9c0.1-0.1,0.3-0.3,0.4-0.4C37.6,61.7,37.1,60,35.9,59.1z"/>
		<path class="st0" d="M77.2,59.1c-0.7-0.4-1.4-0.6-2.2-0.4c-0.7,0.1-1.4,0.6-1.7,1.3c-0.4,0.7-0.6,1.4-0.4,2.2
			c0.1,0.7,0.6,1.4,1.3,1.7c0.4,0.3,1,0.4,1.6,0.4c0.7,0,1.4-0.3,2-0.9c0.1-0.1,0.3-0.3,0.4-0.4C79.1,61.7,78.7,60,77.2,59.1z"/>
	</g>
</g>
</svg>
