<?xml version="1.0" encoding="UTF-8" standalone="no"?>
<svg width="167px" height="366px" viewBox="0 0 167 366" version="1.1" xmlns="http://www.w3.org/2000/svg" xmlns:xlink="http://www.w3.org/1999/xlink">
    <!-- Generator: Sketch 41.2 (35397) - http://www.bohemiancoding.com/sketch -->
    <title>Artboard Copy 2</title>
    <desc>Created with Sketch.</desc>
    <defs>
        <polygon id="path-1" points="0 217 147.832 217 147.832 0.654 0 0.654"></polygon>
        <polygon id="path-3" points="14.89 4.37 12.581 3.125 5.653 9.267 0.625 19.077 1.907 38.266 8.893 61.396 12.378 65.576 18.744 70.944 25.333 75.025 28.629 76.347 32.537 75.901 37.732 74.116 41.238 70.254 46.107 63.74 47.412 60.464 48.908 55.342 52.333 38.266 50.463 25.979 37.37 3.712 24.118 0.076"></polygon>
        <polygon id="path-5" points="0.968 0.151 0.968 0.378 2.226 1.231 2.338 0.151"></polygon>
        <path d="M24.996,0.877 L21.717,2.382 L19.057,2.008 L16.581,2.859 L16.08,3.581 L17.201,3.581 L12.937,8.243 L9.592,13.736 L11.571,8.821 L8.602,12.587 L10.025,9.777 L9.653,9.267 L8.351,11.118 L4.327,18.716 L1.661,26.314 L0.557,35.197 L1.189,35.588 L0.478,42.713 L0.478,47.189 L2.55,47.831 L2.55,47.189 L3.068,48.79 L3.068,51.212 L4.61,55.188 L6.708,58.49 L7.73,59.186 L7.73,60.405 L9.881,61.855 L11.2,61.855 L12.893,61.051 L12.871,56.135 L13.737,53.893 L12.931,50.19 L11.695,47.063 L11.757,43.616 L10.952,40.678 L12.005,38.031 L12.747,34.877 L14.787,30.59 L15.777,23.822 L17.015,19.928 L19.922,15.587 L20.356,12.203 L21.036,11.181 L21.964,12.587 L21.717,13.225 L22.279,13.545 L22.9,12.204 L21.717,11.054 L22.279,9.33 L24.067,10.99 L25.511,14.565 L28.167,18.076 L31.182,19.416 L32.971,21.758 L33.532,21.758 L32.913,20.43 L33.223,18.077 L37.615,21.078 L39.78,23.312 L39.533,23.504 L38.481,22.418 L38.171,22.802 L43.615,28.802 L44.146,28.547 L41.369,24.334 L41.883,24.271 L44.419,28.547 L41.369,30.782 L38.605,31.308 L37.802,31.995 L37.862,33.143 L40.152,33.08 L43.366,31.676 L47.818,31.803 L49.113,32.953 L49.6,32.698 L48.716,31.308 L45.836,29.505 L43.992,26.561 L43.992,24.399 L49.662,28.805 L51.906,32.829 L52.524,36.73 L53.7,37.505 L53.453,47.676 L53.391,53.335 L52.585,56.926 L51.412,60.785 L52.833,60.785 L53.575,59.636 L54.814,53.638 L53.453,52.678 L53.575,52.297 L55.06,52.678 L59.823,40.039 L59.452,34.357 L58.276,28.867 L57.41,24.269 L55.555,18.906 L49.617,9.267 C49.617,9.267 48.627,7.607 48.441,7.607 C48.256,7.607 41.372,3.712 41.372,3.712 L40.959,3.904 L41.952,4.734 L40.411,4.16 L39.192,4.862 L42.177,6.201 L42.158,6.585 L42.108,6.526 L36.739,4.171 L36.739,4.797 L41.941,7.095 L41.637,8.309 L37.677,6.521 L37.923,7.543 L42.07,9.777 L45.637,12.331 L41.823,11.566 L39.124,10.097 L40.337,12.203 L36.441,9.139 L37.678,9.01 L32.118,6.076 L31.118,4.797 L35.695,7.288 L36.064,6.457 L31.481,3.904 L35.12,4.542 L35.534,4.031 L31.348,2.435 L34.667,3.212 L34.667,2.691 L28.087,0.059 L24.996,0.877 Z" id="path-7"></path>
        <polygon id="path-9" points="2.389 2.307 1.585 1.842 0.124 2.271 0.638 7.443 8.071 12.678 8.781 10.573 10.171 9.424 10.171 5.591 10.783 5.337 11.628 3.678 13.162 2.274 12.85 1.438 9.875 3.55 9.999 2.975 7.71 2.073 5.439 2.073 5.668 0.997"></polygon>
        <polygon id="path-11" points="7.659 0.073 8.026 0.608 5.956 0.608 3.298 1.274 0.982 0.338 0.982 0.872 4.944 3.21 3.391 5.701 4.317 8.446 5.831 10.27 5.956 12.37 7.04 12.37 11.862 10.766 12.896 10.766 12.896 12.227 15.064 11.747 14.16 8.573 15.487 5.572 15.487 1.512 10.527 0.073"></polygon>
        <polygon id="path-13" points="0.163 0.113 0.163 2.146 2.749 7.576 4.181 6.937 2.069 2.149 0.802 0.905 0.73 0.113"></polygon>
        <path d="M7.592,0.131 L4.492,1.015 L3.853,2.697 L2.57,2.116 L1.425,0.689 L0.302,1.665 L1.412,4.308 L3.39,6.857 L5.368,7.877 L4.811,8.899 L6.119,9.281 L6.729,8.387 L12.365,8.196 L15.401,4.364 L15.401,3.338 L14.883,3.338 L14.883,2.781 L15.1,2.194 L16,2.13 L17.281,1.235 L15.995,0.342 L13.148,1.172 L11.318,0.908 L9.76,0.131 L7.592,0.131 Z M15.401,3.338 L15.401,2.641 L15.401,3.338 Z" id="path-15"></path>
        <polygon id="path-17" points="3.003 0.508 0.667 2.457 0.238 4.516 0.645 5.765 1.774 6.14 3.381 3.229 3.751 0.508"></polygon>
        <polygon id="path-19" points="0.263 1.131 3.232 6.543 4.284 7.804 5.279 7.804 4.717 6.471 0.757 0.747"></polygon>
        <polygon id="path-21" points="3.52 0.758 2.9 2.415 1.404 1.975 0.678 2.447 0.958 2.97 1.46 2.626 2.9 4.127 2.042 6.029 1.125 6.146 1.069 6.606 3.535 7.643 5.511 9.199 9.097 9.719 11.623 13.465 13.882 18.593 12.572 25.337 13.701 29.376 16.447 28.566 17.051 24.935 15.466 21.187 15.185 18.881 15.08 14.197 14.412 11.06 13.88 9.949 14.136 9.719 15.867 11.967 17.096 9.258 20.447 8.911 21.732 7.775 20.167 6.639 17.002 6.639 15.756 7.503 13.355 5.211 11.396 4.901 12.404 7.05 12.111 7.281 10.562 5.035 9.487 5.035 9.487 5.561 8.341 4.936 7.736 5.213 7.465 2.896 6.896 2.896 6.896 4.282 6.379 4.185 6.379 2.842 6.099 1.247 5.342 1.707 5.342 3.001 4.798 3.02 4.216 0.758"></polygon>
        <polygon id="path-23" points="0.885 1.678 5.421 1.356 4.637 0.426 2.184 0.027"></polygon>
        <polygon id="path-25" points="2.024 2.118 0.631 3.953 2.772 3.197 5.9 2.402 10.815 3.387 11.167 2.877 5.9 0.852"></polygon>
        <polygon id="path-27" points="0.871 1.012 1.282 2.043 4.202 2.043 5.156 1.514 1.891 0.583"></polygon>
        <polygon id="path-29" points="0.451 1.146 0.451 1.705 1.189 2.018 2.291 1.56 4.817 2.855 6.387 2.855 9.156 2.411 11.124 1.689 11.79 0.716 11.171 0.716 9.709 0.716 8.949 0.482"></polygon>
        <polygon id="path-31" points="3.607 0.992 0.871 0.992 1.437 1.527 3.644 1.527 4.256 1.114 4.699 0.471"></polygon>
        <polygon id="path-33" points="1.732 0.162 0.998 0.655 0.338 0.971 0.563 1.766 3.747 1.766 3.882 0.873 2.544 0.162"></polygon>
        <polygon id="path-35" points="2.855 0.898 0.572 3.954 0.572 4.935 4.04 4.935 7.832 4.45 9.896 3.699 9.896 4.401 11.167 4.401 10.037 3.019 8.119 2.217 4.161 1.617 4.331 0.588"></polygon>
        <polygon id="path-37" points="6.593 0.124 8.214 0.78 6.482 0.124 5.199 0.124 0.812 2.422 0.812 3.081 3.266 4.401 7.678 4.401 11.122 3.483 10.441 1.355 8.214 0.124"></polygon>
        <polygon id="path-39" points="0.171 2.214 0.124 2.953 4.615 1.421 3.007 0.915"></polygon>
        <polygon id="path-41" points="0.27 0.124 0.27 0.516 3.938 2.466 4.815 1.947 2.181 0.124"></polygon>
        <polygon id="path-43" points="0.126 0.916 1.232 0.916 8.853 2.358 10.487 2.117 10.487 0.998 5.139 0.381 0.772 0.381 0.126 0.038"></polygon>
        <polygon id="path-45" points="2.713 1.076 1.464 2.923 0.914 4.593 1.221 4.955 2.49 4.59 2.768 2.857 3.631 1.45 4.096 1.45 4.437 0.965 4.08 0.646"></polygon>
        <polygon id="path-47" points="15.212 1.281 13.426 2.646 9.352 2.646 5.83 2.113 3.773 2.113 0.535 2.821 2.936 5.842 7.298 7.775 8.305 6.92 5.451 5.172 5.451 3.665 6.549 3.218 10.856 3.668 15.324 2.646 17.1 2.646 16.112 6.395 15.293 7.024 15.293 7.992 16.479 7.992 22.238 1.472 18.732 0.794"></polygon>
        <polygon id="path-49" points="2.06 0.588 1.243 0.35 0.14 0.986 0.871 1.992 2.986 1.992 3.979 0.986 3.587 0.309 2.387 0.236"></polygon>
        <path d="M8.076,0.622 L5.605,1.465 L2.832,2.411 C1.415,2.896 0.596,4.203 1.004,5.334 L2.515,9.514 C2.923,10.645 4.404,11.168 5.822,10.684 L8.197,9.874 L8.596,9.74 C10.013,9.255 10.832,7.947 10.423,6.816 L9.881,5.318 L12.352,4.474 L11.382,1.792 C11.077,0.947 10.173,0.441 9.145,0.442 C8.797,0.442 8.434,0.499 8.076,0.622 Z" id="path-51"></path>
        <path d="M0.652,1.992 L0.139,4.839 L2.624,5.55 L2.337,7.142 C2.121,8.342 3.103,9.646 4.528,10.053 L4.93,10.168 L7.32,10.851 C8.746,11.257 10.077,10.618 10.294,9.417 L11.094,4.977 C11.309,3.778 10.327,2.474 8.901,2.067 L6.111,1.268 L3.625,0.558 C3.334,0.475 3.047,0.436 2.772,0.436 C1.702,0.436 0.824,1.036 0.652,1.992 Z" id="path-53"></path>
    </defs>
    <g id="Page-1" stroke="none" stroke-width="1" fill="none" fill-rule="evenodd">
        <g id="Artboard-Copy-2">
            <g id="Page-1" transform="translate(10.000000, 148.000000)">
                <g id="Group-29" transform="translate(0.000000, 0.346000)">
                    <path d="M40.6892,51.2617 C40.1412,52.6827 34.0322,51.6477 27.0452,48.9497 C20.0582,46.2527 14.8382,42.9147 15.3872,41.4937 L40.6892,51.2617 Z" id="Fill-1" fill="#6BC3EF"></path>
                    <path d="M15.387,41.4941 C15.935,40.0741 22.044,41.1091 29.031,43.8071 C36.018,46.5041 41.238,49.8421 40.689,51.2621" id="Fill-3" fill="#6BC3EF"></path>
                    <path d="M40.6892,51.2617 L27.6062,85.1537 C27.0582,86.5747 20.9492,85.5387 13.9622,82.8417 C6.9752,80.1447 1.7552,76.8067 2.3042,75.3857 L15.3872,41.4937" id="Fill-5" fill="#6BC3EF"></path>
                    <path d="M146.7751,102.5156 L35.6621,59.6216" id="Stroke-7" stroke="#0C1522" stroke-width="5.873"></path>
                    <mask id="mask-2" fill="white">
                        <use xlink:href="#path-1"></use>
                    </mask>
                    <g id="Clip-10"></g>
                    <polygon id="Fill-9" fill="#FBD2B4" mask="url(#mask-2)" points="72.617 95.836 88.069 95.836 88.069 76.386 72.617 76.386"></polygon>
                    <polygon id="Fill-11" fill="#FBD2B4" mask="url(#mask-2)" points="73.9504 205.8613 74.6004 206.4013 67.6934 214.2333 64.1344 213.5783 68.2604 205.8613 63.9054 166.8923 76.7684 166.8923"></polygon>
                    <path d="M59.6482,217 L68.3972,217 L72.8272,212.045 L72.8272,217 L74.3982,217 L75.8562,207.409 L74.1262,206.007 L67.7522,213.894 L64.1342,213.578 L59.3672,216.055 C59.3672,216.055 58.5822,216.774 59.6482,217" id="Fill-12" fill="#32425D" mask="url(#mask-2)"></path>
                    <polygon id="Fill-13" fill="#FBD2B4" mask="url(#mask-2)" points="86.552 205.8613 85.902 206.4013 92.809 214.2333 96.368 213.5783 92.242 205.8613 96.597 166.8923 83.734 166.8923"></polygon>
                    <path d="M100.8542,217 L92.1052,217 L87.6752,212.045 L87.6752,217 L86.1042,217 L84.6462,207.409 L86.3762,206.007 L92.7502,213.894 L96.3682,213.578 L101.1352,216.055 C101.1352,216.055 101.9202,216.774 100.8542,217" id="Fill-14" fill="#32425D" mask="url(#mask-2)"></path>
                    <path d="M84.8049,86.4433 C84.8049,86.7233 85.0879,86.9503 85.4369,86.9503 C85.7859,86.9503 86.0689,86.7233 86.0689,86.4433 C86.0689,86.1633 85.7859,85.9353 85.4369,85.9353 C85.0879,85.9353 84.8049,86.1633 84.8049,86.4433" id="Fill-15" fill="#F5F4F4" mask="url(#mask-2)"></path>
                    <path d="M83.7317,86.9502 C83.7317,87.2302 84.0147,87.4582 84.3637,87.4582 C84.7127,87.4582 84.9957,87.2302 84.9957,86.9502 C84.9957,86.6702 84.7127,86.4432 84.3637,86.4432 C84.0147,86.4432 83.7317,86.6702 83.7317,86.9502" id="Fill-16" fill="#F5F4F4" mask="url(#mask-2)"></path>
                    <path d="M82.5603,87.1504 C82.5603,87.4304 82.8433,87.6574 83.1923,87.6574 C83.5413,87.6574 83.8243,87.4304 83.8243,87.1504 C83.8243,86.8704 83.5413,86.6424 83.1923,86.6424 C82.8433,86.6424 82.5603,86.8704 82.5603,87.1504" id="Fill-17" fill="#F5F4F4" mask="url(#mask-2)"></path>
                    <path d="M81.3884,87.2422 C81.3884,87.5222 81.6714,87.7502 82.0204,87.7502 C82.3694,87.7502 82.6524,87.5222 82.6524,87.2422 C82.6524,86.9622 82.3694,86.7352 82.0204,86.7352 C81.6714,86.7352 81.3884,86.9622 81.3884,87.2422" id="Fill-18" fill="#F5F4F4" mask="url(#mask-2)"></path>
                    <path d="M80.2512,87.2422 C80.2512,87.5222 80.5342,87.7502 80.8832,87.7502 C81.2322,87.7502 81.5152,87.5222 81.5152,87.2422 C81.5152,86.9622 81.2322,86.7352 80.8832,86.7352 C80.5342,86.7352 80.2512,86.9622 80.2512,87.2422" id="Fill-19" fill="#F5F4F4" mask="url(#mask-2)"></path>
                    <path d="M79.0798,87.2422 C79.0798,87.5222 79.3628,87.7502 79.7118,87.7502 C80.0608,87.7502 80.3438,87.5222 80.3438,87.2422 C80.3438,86.9622 80.0608,86.7352 79.7118,86.7352 C79.3628,86.7352 79.0798,86.9622 79.0798,87.2422" id="Fill-20" fill="#F5F4F4" mask="url(#mask-2)"></path>
                    <path d="M77.908,87.1504 C77.908,87.4304 78.191,87.6574 78.54,87.6574 C78.889,87.6574 79.172,87.4304 79.172,87.1504 C79.172,86.8704 78.889,86.6424 78.54,86.6424 C78.191,86.6424 77.908,86.8704 77.908,87.1504" id="Fill-21" fill="#F5F4F4" mask="url(#mask-2)"></path>
                    <path d="M76.7595,87.0576 C76.7595,87.3376 77.0425,87.5656 77.3915,87.5656 C77.7405,87.5656 78.0235,87.3376 78.0235,87.0576 C78.0235,86.7776 77.7405,86.5506 77.3915,86.5506 C77.0425,86.5506 76.7595,86.7776 76.7595,87.0576" id="Fill-22" fill="#F5F4F4" mask="url(#mask-2)"></path>
                    <path d="M75.6453,86.8183 C75.6453,87.0983 75.9283,87.3253 76.2773,87.3253 C76.6263,87.3253 76.9093,87.0983 76.9093,86.8183 C76.9093,86.5383 76.6263,86.3103 76.2773,86.3103 C75.9283,86.3103 75.6453,86.5383 75.6453,86.8183" id="Fill-23" fill="#F5F4F4" mask="url(#mask-2)"></path>
                    <path d="M74.5774,86.4433 C74.5774,86.7233 74.8604,86.9503 75.2094,86.9503 C75.5584,86.9503 75.8414,86.7233 75.8414,86.4433 C75.8414,86.1633 75.5584,85.9353 75.2094,85.9353 C74.8604,85.9353 74.5774,86.1633 74.5774,86.4433" id="Fill-24" fill="#F5F4F4" mask="url(#mask-2)"></path>
                    <path d="M85.99,86.4404 L83.745,83.7274 L90.073,77.4694 L90.073,80.1994 C90.073,82.7874 88.459,85.0734 85.994,86.4434 L85.99,86.4404" id="Fill-25" fill="#ED7880" mask="url(#mask-2)"></path>
                    <path d="M74.845,86.4404 L77.09,83.7274 L70.762,77.4694 L70.762,80.1994 C70.762,82.7874 72.376,85.0734 74.841,86.4434 L74.845,86.4404" id="Fill-26" fill="#ED7880" mask="url(#mask-2)"></path>
                    <polygon id="Fill-27" fill="#F2A5AE" mask="url(#mask-2)" points="80.2136 137.0722 80.2516 137.0722 108.6726 137.0722 103.5276 182.7582 80.2516 182.7582 80.2136 182.7582 56.9376 182.7582 51.7916 137.0722"></polygon>
                    <path d="M48.6829,86.958 C50.5209,81.904 59.9459,81.313 59.9459,81.313 L70.7619,80.199 L80.2509,93.854 L85.5859,86.443 L90.0519,80.199 L100.8679,81.313 C100.8679,81.313 107.4259,81.904 109.2639,86.958 C110.3649,89.985 115.5409,103.422 115.5419,103.423 L118.2559,95.836 L129.1939,97.924 L123.4589,117.845 C123.4589,117.845 121.2539,123.255 116.2309,122.369 C116.2309,122.369 112.9179,122.101 111.7369,119.213 L106.2099,110.53 L109.1629,137.072 L80.2509,137.072 L51.7919,137.072 L55.0499,107.328 L49.8569,116.725 L55.0499,139.306 L44.6249,142.679 L36.0359,115.467 C36.0359,115.467 48.0939,88.576 48.6829,86.958" id="Fill-28" fill="#ED7880" mask="url(#mask-2)"></path>
                </g>
                <g id="Group-32" transform="translate(50.000000, 4.346000)">
                    <mask id="mask-4" fill="white">
                        <use xlink:href="#path-3"></use>
                    </mask>
                    <g id="Clip-31"></g>
                    <polygon id="Fill-30" fill="#F7C192" mask="url(#mask-4)" points="-2.781 79.753 55.739 79.753 55.739 -3.329 -2.781 -3.329"></polygon>
                </g>
                <g id="Group-35" transform="translate(74.000000, 78.346000)">
                    <mask id="mask-6" fill="white">
                        <use xlink:href="#path-5"></use>
                    </mask>
                    <g id="Clip-34"></g>
                    <polygon id="Fill-33" fill="#FBD2B4" mask="url(#mask-6)" points="-2.437 4.637 5.744 4.637 5.744 -3.256 -2.437 -3.256"></polygon>
                </g>
                <path d="M58.8933,65.3968 L57.2003,66.2008 L55.8813,66.2008 L53.7293,64.7508 L53.7293,63.5318 L52.7073,62.8358 L50.6093,59.5338 L49.0673,55.5578 L49.0673,53.1358 L48.5493,51.5358 L48.5493,52.1768 L46.4773,51.5358 L46.4773,47.0588 L47.1883,39.9348 L46.5573,39.5428 L47.6613,30.6598 L50.3273,23.0618 L54.3513,15.4638 L55.6533,13.6128 L56.0243,14.1238 L54.6013,16.9328 L57.5713,13.1668 L55.5923,18.0818 L58.9363,12.5888 L63.2003,7.9268 L62.0803,7.9268 L62.5813,7.2058 L65.0563,6.3548 L67.7173,6.7278 L70.9953,5.2228 L74.0863,4.4058 L80.6663,7.0368 L80.6663,7.5578 L77.3483,6.7818 L81.5343,8.3768 L81.1193,8.8878 L77.4813,8.2508 L82.0643,10.8028 L81.6943,11.6338 L77.1183,9.1428 L78.1183,10.4208 L83.6773,13.3568 L82.4403,13.4858 L86.3363,16.5488 L85.1233,14.4428 L87.8223,15.9118 L91.6373,16.6768 L88.0703,14.1238 L83.9233,11.8888 L83.6773,10.8678 L87.6373,12.6548 L87.9403,11.4418 L82.7393,9.1428 L82.7393,8.5168 L88.1083,10.8718 L88.1583,10.9308 L88.1763,10.5468 L85.1923,9.2088 L86.4113,8.5048 L87.9523,9.0798 L86.9583,8.2508 L87.3723,8.0578 C87.3723,8.0578 94.2563,11.9528 94.4413,11.9528 C94.6273,11.9528 95.6163,13.6128 95.6163,13.6128 L101.5553,23.2518 L103.4103,28.6158 L104.2763,33.2128 L105.4523,38.7038 L105.8233,44.3848 L101.0603,57.0248 L99.5753,56.6428 L99.4523,57.0248 L100.8133,57.9838 L99.5753,63.9828 L98.8323,65.1308 L97.4133,65.1308 L98.5853,61.2718 L99.3903,57.6808 L99.4523,52.0228 L99.7003,41.8508 L98.5233,41.0758 L97.9053,37.1748 L95.6623,33.1508 L89.9913,28.7448 L89.9913,30.9068 L91.8353,33.8508 L94.7163,35.6538 L95.6003,37.0428 L95.1133,37.2988 L93.8173,36.1488 L89.3663,36.0218 L86.1513,37.4258 L83.8613,37.4898 L83.8013,36.3408 L84.6043,35.6538 L87.3693,35.1278 L90.4193,32.8928 L87.8833,28.6168 L87.3693,28.6798 L90.1463,32.8928 L89.6153,33.1488 L84.1713,27.1478 L84.4813,26.7638 L85.5333,27.8498 L85.7803,27.6588 L83.6143,25.4238 L79.2233,22.4228 L78.9133,24.7758 L79.5323,26.1038 L78.9713,26.1038 L77.1823,23.7618 L74.1673,22.4218 L71.5113,18.9118 L70.0663,15.3348 L68.2793,13.6758 L67.7163,15.4008 L68.8993,16.5498 L68.2793,17.8908 L67.7163,17.5718 L67.9643,16.9328 L67.0363,15.5278 L66.3553,16.5488 L65.9223,19.9328 L63.0153,24.2748 L61.7773,28.1678 L60.7873,34.9358 L58.7473,39.2228 L58.0053,42.3768 L56.9523,45.0238 L57.7563,47.9608 L57.6943,51.4088 L58.9313,54.5368 L59.7363,58.2388 L58.8703,60.4808 L58.8933,65.3968" id="Fill-36" fill="#0C1522"></path>
                <g id="Group-40" transform="translate(46.000000, 4.346000)">
                    <mask id="mask-8" fill="white">
                        <use xlink:href="#path-7"></use>
                    </mask>
                    <g id="Clip-39"></g>
                    <polygon id="Fill-38" fill="#0C1522" mask="url(#mask-8)" points="-2.928 65.259 63.229 65.259 63.229 -3.346 -2.928 -3.346"></polygon>
                </g>
                <g id="Group-43" transform="translate(85.000000, 44.346000)">
                    <mask id="mask-10" fill="white">
                        <use xlink:href="#path-9"></use>
                    </mask>
                    <g id="Clip-42"></g>
                    <polygon id="Fill-41" fill="#FBD2B4" mask="url(#mask-10)" points="-3.282 16.085 16.569 16.085 16.569 -2.408 -3.282 -2.408"></polygon>
                </g>
                <g id="Group-46" transform="translate(60.000000, 46.346000)">
                    <mask id="mask-12" fill="white">
                        <use xlink:href="#path-11"></use>
                    </mask>
                    <g id="Clip-45"></g>
                    <polygon id="Fill-44" fill="#FBD2B4" mask="url(#mask-12)" points="-2.424 15.775 18.892 15.775 18.892 -3.332 -2.424 -3.332"></polygon>
                </g>
                <g id="Group-49" transform="translate(66.000000, 62.346000)">
                    <mask id="mask-14" fill="white">
                        <use xlink:href="#path-13"></use>
                    </mask>
                    <g id="Clip-48"></g>
                    <polygon id="Fill-47" fill="#FBD2B4" mask="url(#mask-14)" points="-3.243 10.982 7.588 10.982 7.588 -3.294 -3.243 -3.294"></polygon>
                </g>
                <g id="Group-52" transform="translate(72.000000, 70.346000)">
                    <mask id="mask-16" fill="white">
                        <use xlink:href="#path-15"></use>
                    </mask>
                    <g id="Clip-51"></g>
                    <polygon id="Fill-50" fill="#FBD2B4" mask="url(#mask-16)" points="-3.104 12.687 20.687 12.687 20.687 -3.274 -3.104 -3.274"></polygon>
                </g>
                <g id="Group-55" transform="translate(91.000000, 60.346000)">
                    <mask id="mask-18" fill="white">
                        <use xlink:href="#path-17"></use>
                    </mask>
                    <g id="Clip-54"></g>
                    <polygon id="Fill-53" fill="#FBD2B4" mask="url(#mask-18)" points="-3.168 9.546 7.158 9.546 7.158 -2.897 -3.168 -2.897"></polygon>
                </g>
                <g id="Group-58" transform="translate(63.000000, 65.346000)">
                    <mask id="mask-20" fill="white">
                        <use xlink:href="#path-19"></use>
                    </mask>
                    <g id="Clip-57"></g>
                    <polygon id="Fill-56" fill="#FBD2B4" mask="url(#mask-20)" points="-3.143 11.21 8.685 11.21 8.685 -2.659 -3.143 -2.659"></polygon>
                </g>
                <g id="Group-61" transform="translate(66.000000, 25.346000)">
                    <mask id="mask-22" fill="white">
                        <use xlink:href="#path-21"></use>
                    </mask>
                    <g id="Clip-60"></g>
                    <polygon id="Fill-59" fill="#FBD2B4" mask="url(#mask-22)" points="-2.728 32.782 25.138 32.782 25.138 -2.647 -2.728 -2.647"></polygon>
                </g>
                <g id="Group-64" transform="translate(87.000000, 36.346000)">
                    <mask id="mask-24" fill="white">
                        <use xlink:href="#path-23"></use>
                    </mask>
                    <g id="Clip-63"></g>
                    <polygon id="Fill-62" fill="#FBD2B4" mask="url(#mask-24)" points="-2.521 5.083 8.827 5.083 8.827 -3.378 -2.521 -3.378"></polygon>
                </g>
                <g id="Group-67" transform="translate(63.000000, 36.346000)">
                    <mask id="mask-26" fill="white">
                        <use xlink:href="#path-25"></use>
                    </mask>
                    <g id="Clip-66"></g>
                    <polygon id="Fill-65" fill="#FBD2B4" mask="url(#mask-26)" points="-2.775 7.359 14.573 7.359 14.573 -2.554 -2.775 -2.554"></polygon>
                </g>
                <g id="Group-70" transform="translate(78.000000, 59.346000)">
                    <mask id="mask-28" fill="white">
                        <use xlink:href="#path-27"></use>
                    </mask>
                    <g id="Clip-69"></g>
                    <polygon id="Fill-68" fill="#FBD2B4" mask="url(#mask-28)" points="-2.535 5.449 8.562 5.449 8.562 -2.822 -2.535 -2.822"></polygon>
                </g>
                <g id="Group-73" transform="translate(74.000000, 63.346000)">
                    <mask id="mask-30" fill="white">
                        <use xlink:href="#path-29"></use>
                    </mask>
                    <g id="Clip-72"></g>
                    <polygon id="Fill-71" fill="#FBD2B4" mask="url(#mask-30)" points="-2.955 6.26 15.196 6.26 15.196 -2.925 -2.955 -2.925"></polygon>
                </g>
                <g id="Group-76" transform="translate(78.000000, 67.346000)">
                    <mask id="mask-32" fill="white">
                        <use xlink:href="#path-31"></use>
                    </mask>
                    <g id="Clip-75"></g>
                    <polygon id="Fill-74" fill="#FBD2B4" mask="url(#mask-32)" points="-2.535 4.933 8.106 4.933 8.106 -2.935 -2.535 -2.935"></polygon>
                </g>
                <polygon id="Fill-77" fill="#0C1522" points="79.8826 56.219 78.5436 55.508 77.7326 55.508 76.9976 56.001 76.3376 56.317 76.5636 57.112 79.7476 57.112"></polygon>
                <g id="Group-81" transform="translate(76.000000, 55.346000)">
                    <mask id="mask-34" fill="white">
                        <use xlink:href="#path-33"></use>
                    </mask>
                    <g id="Clip-80"></g>
                    <polygon id="Fill-79" fill="#0C1522" mask="url(#mask-34)" points="-3.068 5.172 7.288 5.172 7.288 -3.244 -3.068 -3.244"></polygon>
                </g>
                <polygon id="Fill-82" fill="#0C1522" points="67.3308 39.9348 65.8548 40.2448 63.5718 43.2988 63.5718 44.2818 67.0398 44.2818 70.8318 43.7958 72.8968 43.0448 72.8968 43.7468 74.1668 43.7468 73.0368 42.3658 71.1188 41.5638 67.1608 40.9628"></polygon>
                <g id="Group-86" transform="translate(63.000000, 39.346000)">
                    <mask id="mask-36" fill="white">
                        <use xlink:href="#path-35"></use>
                    </mask>
                    <g id="Clip-85"></g>
                    <polygon id="Fill-84" fill="#0C1522" mask="url(#mask-36)" points="-2.834 8.341 14.573 8.341 14.573 -2.817 -2.834 -2.817"></polygon>
                </g>
                <polygon id="Fill-87" fill="#0C1522" points="84.8113 42.426 87.2653 43.746 91.6783 43.746 95.1223 42.828 94.4403 40.701 92.2143 39.47 90.5933 39.47 92.2143 40.126 90.4813 39.47 89.1993 39.47 84.8113 41.768"></polygon>
                <g id="Group-91" transform="translate(84.000000, 39.346000)">
                    <mask id="mask-38" fill="white">
                        <use xlink:href="#path-37"></use>
                    </mask>
                    <g id="Clip-90"></g>
                    <polygon id="Fill-89" fill="#0C1522" mask="url(#mask-38)" points="-2.595 7.807 14.528 7.807 14.528 -3.282 -2.595 -3.282"></polygon>
                </g>
                <polygon id="Fill-92" fill="#0C1522" points="85.1238 40.2991 85.1698 39.5601 88.0078 38.2611 89.6148 38.7671"></polygon>
                <g id="Group-96" transform="translate(85.000000, 37.346000)">
                    <mask id="mask-40" fill="white">
                        <use xlink:href="#path-39"></use>
                    </mask>
                    <g id="Clip-95"></g>
                    <polygon id="Fill-94" fill="#0C1522" mask="url(#mask-40)" points="-3.282 6.36 8.021 6.36 8.021 -2.49 -3.282 -2.49"></polygon>
                </g>
                <polygon id="Fill-97" fill="#0C1522" points="73.8152 41.2923 71.1812 39.4703 69.2702 39.4703 69.2702 39.8613 72.9382 41.8123"></polygon>
                <g id="Group-101" transform="translate(69.000000, 39.346000)">
                    <mask id="mask-42" fill="white">
                        <use xlink:href="#path-41"></use>
                    </mask>
                    <g id="Clip-100"></g>
                    <polygon id="Fill-99" fill="#0C1522" mask="url(#mask-42)" points="-3.135 5.872 8.221 5.872 8.221 -3.282 -3.135 -3.282"></polygon>
                </g>
                <polygon id="Fill-102" fill="#0C1522" points="75.4866 36.344 75.4866 37.463 73.8536 37.704 66.2326 36.262 65.1266 36.262 65.1266 35.384 65.7716 35.727 70.1386 35.727"></polygon>
                <g id="Group-106" transform="translate(65.000000, 35.346000)">
                    <mask id="mask-44" fill="white">
                        <use xlink:href="#path-43"></use>
                    </mask>
                    <g id="Clip-105"></g>
                    <polygon id="Fill-104" fill="#0C1522" mask="url(#mask-44)" points="-3.28 5.765 13.892 5.765 13.892 -3.368 -3.28 -3.368"></polygon>
                </g>
                <polygon id="Fill-107" fill="#0C1522" points="64.0803 35.9925 62.7133 36.4225 61.4643 38.2695 60.9133 39.9385 61.2213 40.3015 62.4893 39.9355 62.7683 38.2025 63.6303 36.7965 64.0963 36.7965 64.4373 36.3105"></polygon>
                <g id="Group-111" transform="translate(60.000000, 35.346000)">
                    <mask id="mask-46" fill="white">
                        <use xlink:href="#path-45"></use>
                    </mask>
                    <g id="Clip-110"></g>
                    <polygon id="Fill-109" fill="#0C1522" mask="url(#mask-46)" points="-2.492 8.361 7.843 8.361 7.843 -2.76 -2.492 -2.76"></polygon>
                </g>
                <polygon id="Fill-112" fill="#0C1522" points="84.2932 67.3704 84.2932 68.3384 85.4802 68.3384 91.2372 61.8174 87.7312 61.1404 84.2122 61.6274 82.4252 62.9924 78.3522 62.9924 74.8302 62.4584 72.7732 62.4584 69.5352 63.1674 71.9362 66.1884 76.2972 68.1214 77.3042 67.2664 74.4502 65.5174 74.4502 64.0114 75.5492 63.5634 79.8562 64.0144 84.3232 62.9924 86.1002 62.9924 85.1122 66.7404"></polygon>
                <g id="Group-116" transform="translate(69.000000, 60.346000)">
                    <mask id="mask-48" fill="white">
                        <use xlink:href="#path-47"></use>
                    </mask>
                    <g id="Clip-115"></g>
                    <polygon id="Fill-114" fill="#0C1522" mask="url(#mask-48)" points="-2.871 11.399 25.643 11.399 25.643 -2.612 -2.871 -2.612"></polygon>
                </g>
                <polygon id="Fill-117" fill="#0C1522" points="78.1394 67.3323 78.8704 68.3383 80.9854 68.3383 81.9794 67.3323 81.5874 66.6553 80.3874 66.5813 80.0594 66.9353 79.2434 66.6953"></polygon>
                <g id="Group-121" transform="translate(78.000000, 66.346000)">
                    <mask id="mask-50" fill="white">
                        <use xlink:href="#path-49"></use>
                    </mask>
                    <g id="Clip-120"></g>
                    <polygon id="Fill-119" fill="#0C1522" mask="url(#mask-50)" points="-3.266 5.398 7.385 5.398 7.385 -3.171 -3.266 -3.171"></polygon>
                </g>
                <g id="Group-136" transform="translate(33.000000, 76.346000)">
                    <path d="M50.6975,9.5312 L48.4525,6.8182 L54.7805,0.5602 L54.7805,3.2902 C54.7805,5.8792 53.1665,8.1652 50.7015,9.5342 L50.6975,9.5312" id="Stroke-122" stroke="#0C1522" stroke-width="1.773"></path>
                    <path d="M39.5525,9.5312 L41.7975,6.8182 L35.4695,0.5602 L35.4695,3.2902 C35.4695,5.8792 37.0835,8.1652 39.5485,9.5342 L39.5525,9.5312" id="Stroke-124" stroke="#0C1522" stroke-width="1.773"></path>
                    <polyline id="Stroke-126" stroke="#0C1522" stroke-width="1.773" points="19.2439 60.164 44.9209 60.164 44.9589 60.164 73.3809 60.164 68.2359 105.849 44.9589 105.849 44.9209 105.849 21.6449 105.849 16.8569 63.335"></polyline>
                    <path d="M54.7595,3.29 L65.5755,4.405 C65.5755,4.405 72.1335,4.995 73.9705,10.049 C75.0715,13.076 80.2485,26.513 80.2495,26.514 L82.9635,18.928 L93.9015,21.015 L88.1665,40.936 C88.1665,40.936 85.9615,46.346 80.9385,45.461 C80.9385,45.461 77.6255,45.191 76.4445,42.304 L70.9175,33.621 L73.8705,60.164 L44.9585,60.164 L19.2435,60.164" id="Stroke-128" stroke="#0C1522" stroke-width="1.773"></path>
                    <polyline id="Stroke-130" stroke="#0C1522" stroke-width="1.773" points="39.4456 9.0117 44.9586 16.9447 50.6976 9.5317"></polyline>
                    <path d="M17.2302,51.4072 L19.7572,30.4202 L14.5642,39.8152 L19.7572,62.3962 L9.3332,65.7692 L0.7432,38.5582 C0.7432,38.5582 12.8012,11.6682 13.3902,10.0492 C15.2282,4.9952 24.6532,4.4052 24.6532,4.4052 L35.4692,3.2902" id="Stroke-132" stroke="#0C1522" stroke-width="1.773"></path>
                    <path d="M20.8811,68.3174 L21.4231,69.8164 C21.8321,70.9464 21.0131,72.2554 19.5961,72.7394 L19.1971,72.8744 L16.8221,73.6834 C15.4041,74.1684 13.9231,73.6444 13.5151,72.5144 L12.0031,68.3344 C11.5961,67.2034 12.4151,65.8954 13.8321,65.4114 L16.6051,64.4644 L19.0761,63.6224 C20.4931,63.1384 21.9731,63.6614 22.3811,64.7934 L23.3511,67.4734 L20.8811,68.3174" id="Fill-134" fill="#FBD2B4"></path>
                </g>
                <g id="Group-139" transform="translate(44.000000, 139.346000)">
                    <mask id="mask-52" fill="white">
                        <use xlink:href="#path-51"></use>
                    </mask>
                    <g id="Clip-138"></g>
                    <polygon id="Fill-137" fill="#FBD2B4" mask="url(#mask-52)" points="-3.8523 -0.0869 14.9107 -4.0659 17.4307 11.4611 -1.3323 15.4401"></polygon>
                </g>
                <path d="M121.6238,93.8958 L121.3368,95.4878 C121.1208,96.6888 122.1028,97.9918 123.5278,98.3998 L123.9298,98.5138 L126.3198,99.1968 C127.7458,99.6038 129.0778,98.9628 129.2938,97.7628 L130.0938,93.3238 C130.3098,92.1238 129.3278,90.8208 127.9008,90.4128 L125.1108,89.6148 L122.6248,88.9048 C121.1998,88.4968 119.8678,89.1368 119.6518,90.3378 L119.1388,93.1848 L121.6238,93.8958" id="Fill-140" fill="#FBD2B4"></path>
                <g id="Group-144" transform="translate(119.000000, 88.346000)">
                    <mask id="mask-54" fill="white">
                        <use xlink:href="#path-53"></use>
                    </mask>
                    <g id="Clip-143"></g>
                    <polygon id="Fill-142" fill="#FBD2B4" mask="url(#mask-54)" points="14.8933 -0.9698 -3.6137 -3.8538 -3.6327 12.4272 14.8733 15.3102"></polygon>
                </g>
                <g id="Group-153" transform="translate(0.000000, 37.346000)" stroke="#0C1522">
                    <path d="M39.3113,11.1377 C38.7633,12.5587 32.6543,11.5237 25.6673,8.8257 C18.6803,6.1287 13.4603,2.7907 14.0093,1.3697" id="Stroke-145" stroke-width="1.773"></path>
                    <path d="M14.009,1.3701 C14.557,-0.0499 20.666,0.9851 27.653,3.6831 C34.64,6.3801 39.86,9.7181 39.311,11.1381" id="Stroke-147" stroke-width="1.773"></path>
                    <path d="M39.3113,11.1377 L26.2283,45.0307 C25.6803,46.4507 19.5713,45.4147 12.5843,42.7177 C5.5973,40.0207 0.3773,36.6827 0.9263,35.2627 L14.0093,1.3697" id="Stroke-149" stroke-width="1.773"></path>
                    <path d="M115.5559,53.4638 L87.7809,42.2898" id="Stroke-151" stroke-width="5.873"></path>
                </g>
            </g>
        </g>
    </g>
</svg>