<?xml version="1.0" encoding="UTF-8" standalone="no"?>
<svg width="100px" height="100px" viewBox="0 0 100 100" version="1.1" xmlns="http://www.w3.org/2000/svg" xmlns:xlink="http://www.w3.org/1999/xlink">
    <!-- Generator: Sketch 41.2 (35397) - http://www.bohemiancoding.com/sketch -->
    <title>Artboard Copy 47</title>
    <desc>Created with Sketch.</desc>
    <defs>
        <polygon id="path-1" points="0.5993 51 29.505 51 29.505 0.9422 0.5993 0.9422"></polygon>
        <polygon id="path-3" points="30.1042 0.01 0.0002 0.01 0.0002 51.2667 30.1042 51.2667 30.1042 0.01"></polygon>
        <polygon id="path-5" points="0 53.9904 31.505 53.9904 31.505 1.0004 0 1.0004"></polygon>
    </defs>
    <g id="Welcome" stroke="none" stroke-width="1" fill="none" fill-rule="evenodd">
        <g id="Artboard-Copy-47">
            <g id="Page-1-Copy" transform="translate(34.000000, 21.000000)">
                <g id="Group-3" transform="translate(2.000000, 2.990400)">
                    <mask id="mask-2" fill="white">
                        <use xlink:href="#path-1"></use>
                    </mask>
                    <g id="Clip-2"></g>
                    <path d="M26.6143,16.3142 C25.0173,16.3142 23.7233,17.6082 23.7233,19.2052 L23.7233,7.7232 C23.7233,6.1262 22.4293,4.8332 20.8333,4.8332 C19.2373,4.8332 17.9433,6.1262 17.9433,7.7232 L17.9433,3.8332 C17.9433,2.2372 16.6483,0.9422 15.0523,0.9422 C13.4563,0.9422 12.1623,2.2372 12.1623,3.8332 L12.1623,7.3482 C12.1623,5.7512 10.8683,4.4582 9.2713,4.4582 C7.6753,4.4582 6.3813,5.7512 6.3813,7.3482 L6.3813,14.2522 C6.3813,12.6562 5.0873,11.3612 3.4903,11.3612 C1.8943,11.3612 0.5993,12.6562 0.5993,14.2522 L0.5993,36.5472 C0.5993,44.5292 7.0703,51.0002 15.0523,51.0002 C23.0343,51.0002 29.5053,44.5292 29.5053,36.5472 L29.5053,19.2052 C29.5053,17.6082 28.2113,16.3142 26.6143,16.3142" id="Fill-1" fill="#307CBF" mask="url(#mask-2)"></path>
                </g>
                <path d="M8.3809,16.478 L8.3809,29.631" id="Fill-4" fill="#307CBF"></path>
                <polyline id="Fill-6" fill="#307CBF" points="14.1621 9.6982 14.1621 16.1592 14.1621 29.6312"></polyline>
                <path d="M19.9434,9.6982 L19.9434,29.6312" id="Fill-8" fill="#307CBF"></path>
                <path d="M25.7236,20.9941 L25.7236,29.6311" id="Fill-10" fill="#307CBF"></path>
                <g id="Group-14" transform="translate(0.000000, 0.990400)">
                    <mask id="mask-4" fill="white">
                        <use xlink:href="#path-3"></use>
                    </mask>
                    <g id="Clip-13"></g>
                    <path d="M3.4902,11.6287 C2.2272,11.6287 1.1992,12.6557 1.1992,13.9187 L1.1992,36.2137 C1.1992,43.8527 7.4142,50.0667 15.0532,50.0667 C22.6902,50.0667 28.9052,43.8527 28.9052,36.2137 L28.9052,18.8717 C28.9052,17.6077 27.8772,16.5807 26.6142,16.5807 C25.3512,16.5807 24.3232,17.6077 24.3232,18.8717 L23.1242,18.8717 L23.1242,7.3897 C23.1242,6.1267 22.0952,5.0997 20.8332,5.0997 C19.5702,5.0997 18.5432,6.1267 18.5432,7.3897 L17.3442,7.3897 L17.3442,3.5007 C17.3442,2.2367 16.3152,1.2097 15.0532,1.2097 C13.7902,1.2097 12.7612,2.2367 12.7612,3.5007 L12.7612,7.0147 L11.5622,7.0147 C11.5622,5.7517 10.5342,4.7247 9.2712,4.7247 C8.0092,4.7247 6.9802,5.7517 6.9802,7.0147 L6.9802,13.9187 L5.7812,13.9187 C5.7812,12.6557 4.7532,11.6287 3.4902,11.6287 M15.0532,51.2667 C6.7522,51.2667 0.0002,44.5147 0.0002,36.2137 L0.0002,13.9187 C0.0002,11.9947 1.5652,10.4287 3.4902,10.4287 C4.3662,10.4287 5.1672,10.7527 5.7812,11.2877 L5.7812,7.0147 C5.7812,5.0897 7.3462,3.5247 9.2712,3.5247 C10.1472,3.5247 10.9482,3.8487 11.5622,4.3827 L11.5622,3.5007 C11.5622,1.5757 13.1282,0.0097 15.0532,0.0097 C16.9772,0.0097 18.5432,1.5757 18.5432,3.5007 L18.5432,4.7577 C19.1562,4.2237 19.9582,3.8997 20.8332,3.8997 C22.7582,3.8997 24.3232,5.4647 24.3232,7.3897 L24.3232,16.2397 C24.9372,15.7047 25.7382,15.3807 26.6142,15.3807 C28.5392,15.3807 30.1042,16.9467 30.1042,18.8717 L30.1042,36.2137 C30.1042,44.5147 23.3522,51.2667 15.0532,51.2667" id="Fill-12" fill="#0C1423" mask="url(#mask-4)"></path>
                </g>
                <mask id="mask-6" fill="white">
                    <use xlink:href="#path-5"></use>
                </mask>
                <g id="Clip-16"></g>
                <polygon id="Fill-15" fill="#0C1423" mask="url(#mask-6)" points="5.781 27.2974 6.98 27.2974 6.98 14.1444 5.781 14.1444"></polygon>
                <polygon id="Fill-17" fill="#0C1423" mask="url(#mask-6)" points="11.563 27.2974 12.762 27.2974 12.762 7.3644 11.563 7.3644"></polygon>
                <polygon id="Fill-18" fill="#0C1423" mask="url(#mask-6)" points="17.344 27.2974 18.543 27.2974 18.543 7.3644 17.344 7.3644"></polygon>
                <polygon id="Fill-19" fill="#0C1423" mask="url(#mask-6)" points="23.124 27.2974 24.323 27.2974 24.323 18.6604 23.124 18.6604"></polygon>
            </g>
        </g>
    </g>
</svg>