<svg width="110" height="110" viewBox="0 0 110 110" fill="none" xmlns="http://www.w3.org/2000/svg">
<g id="i-eco">
<g id="Group 4">
<g id="Group 3">
<mask id="mask0" mask-type="alpha" maskUnits="userSpaceOnUse" x="77" y="52" width="13" height="21">
<path id="Clip 2" fill-rule="evenodd" clip-rule="evenodd" d="M77.6335 72.147H89.161V52.4644L77.6335 52.4644V72.147Z" fill="white"/>
</mask>
<g mask="url(#mask0)">
<path id="Fill 1" fill-rule="evenodd" clip-rule="evenodd" d="M83.3975 52.4644C80.2135 52.4644 77.6335 53.8184 77.6335 55.4904V69.1214C77.6335 70.7924 80.2135 72.1474 83.3975 72.1474C86.5805 72.1474 89.1615 70.7924 89.1615 69.1214V55.4904C89.1615 53.8184 86.5805 52.4644 83.3975 52.4644Z" fill="#D7BFF9"/>
</g>
</g>
<path id="Fill 4" fill-rule="evenodd" clip-rule="evenodd" d="M22.5 66.023H81.996V38.904H22.5V66.023Z" fill="#D7BFF9"/>
<path id="Fill 6" fill-rule="evenodd" clip-rule="evenodd" d="M81.3975 70.3135C77.8845 70.3135 75.1335 68.7645 75.1335 66.7875V53.1565H76.1335V66.7875C76.1335 68.0075 78.2495 69.3135 81.3975 69.3135C84.5455 69.3135 86.6615 68.0075 86.6615 66.7875V53.1565H87.6615V66.7875C87.6615 68.7645 84.9105 70.3135 81.3975 70.3135Z" fill="#465056"/>
<path id="Fill 7" fill-rule="evenodd" clip-rule="evenodd" d="M75.6338 64.1182H19.9998V36.0002H80.4958V50.0592H79.4958V37.0002H20.9998V63.1182H75.6338V64.1182Z" fill="#465056"/>
<path id="Fill 8" fill-rule="evenodd" clip-rule="evenodd" d="M81.3975 50.6309C78.2495 50.6309 76.1335 51.9369 76.1335 53.1569C76.1335 54.3769 78.2495 55.6829 81.3975 55.6829C84.5455 55.6829 86.6615 54.3769 86.6615 53.1569C86.6615 51.9369 84.5455 50.6309 81.3975 50.6309ZM81.3975 56.6829C77.8845 56.6829 75.1335 55.1339 75.1335 53.1569C75.1335 51.1799 77.8845 49.6309 81.3975 49.6309C84.9105 49.6309 87.6615 51.1799 87.6615 53.1569C87.6615 55.1339 84.9105 56.6829 81.3975 56.6829Z" fill="#465056"/>
<path id="Fill 9" fill-rule="evenodd" clip-rule="evenodd" d="M81.3975 66.9058C77.8845 66.9058 75.1335 65.3568 75.1335 63.3798H76.1335C76.1335 64.5998 78.2495 65.9058 81.3975 65.9058C84.5455 65.9058 86.6615 64.5998 86.6615 63.3798H87.6615C87.6615 65.3568 84.9105 66.9058 81.3975 66.9058Z" fill="#465056"/>
<path id="Fill 10" fill-rule="evenodd" clip-rule="evenodd" d="M81.3975 60.0904C77.8845 60.0904 75.1335 58.5414 75.1335 56.5644H76.1335C76.1335 57.7844 78.2495 59.0904 81.3975 59.0904C84.5455 59.0904 86.6615 57.7844 86.6615 56.5644H87.6615C87.6615 58.5414 84.9105 60.0904 81.3975 60.0904Z" fill="#465056"/>
<path id="Fill 11" fill-rule="evenodd" clip-rule="evenodd" d="M81.3975 63.4981C77.8845 63.4981 75.1335 61.9491 75.1335 59.9721H76.1335C76.1335 61.1921 78.2495 62.4981 81.3975 62.4981C84.5455 62.4981 86.6615 61.1921 86.6615 59.9721H87.6615C87.6615 61.9491 84.9105 63.4981 81.3975 63.4981Z" fill="#465056"/>
<path id="Fill 12" fill-rule="evenodd" clip-rule="evenodd" d="M50.248 42.6226C46.147 42.6226 42.811 45.9586 42.811 50.0596C42.811 54.1596 46.147 57.4956 50.248 57.4956C54.349 57.4956 57.685 54.1596 57.685 50.0596C57.685 45.9586 54.349 42.6226 50.248 42.6226ZM50.248 58.4956C45.596 58.4956 41.811 54.7106 41.811 50.0596C41.811 45.4076 45.596 41.6226 50.248 41.6226C54.9 41.6226 58.685 45.4076 58.685 50.0596C58.685 54.7106 54.9 58.4956 50.248 58.4956Z" fill="#465056"/>
<path id="Fill 13" fill-rule="evenodd" clip-rule="evenodd" d="M50.6416 52.5054C51.1926 52.3964 51.4676 52.0944 51.4676 51.6024C51.4676 51.3524 51.3966 51.1504 51.2526 50.9954C51.1106 50.8414 50.9066 50.7054 50.6416 50.5874V52.5054ZM49.1866 47.9644C49.1866 48.1854 49.2596 48.3594 49.4076 48.4874C49.5536 48.6164 49.7746 48.7394 50.0686 48.8574V47.1934C49.4806 47.2874 49.1866 47.5454 49.1866 47.9644ZM47.6426 52.4614C47.6426 52.2924 47.7046 52.1214 47.8296 51.9484C47.9546 51.7764 48.0986 51.6904 48.2606 51.6904C48.3706 51.6904 48.5006 51.7504 48.6516 51.8714C48.8016 51.9934 48.9916 52.1234 49.2196 52.2634C49.4476 52.4024 49.7006 52.4874 49.9806 52.5174V50.3224C49.7076 50.2204 49.5006 50.1394 49.3576 50.0804C49.2136 50.0224 49.0306 49.9264 48.8056 49.7944C48.5816 49.6614 48.4116 49.5264 48.2926 49.3864C48.1756 49.2464 48.0716 49.0674 47.9796 48.8464C47.8876 48.6254 47.8416 48.3794 47.8416 48.1074C47.8416 47.4534 48.0436 46.9514 48.4486 46.6034C48.8516 46.2534 49.3626 46.0384 49.9806 45.9574V45.6494C49.9806 45.5754 50.0166 45.5114 50.0896 45.4564C50.1636 45.4014 50.2516 45.3734 50.3546 45.3734C50.4506 45.3734 50.5376 45.4014 50.6146 45.4564C50.6916 45.5114 50.7296 45.5754 50.7296 45.6494V45.9364C51.1926 45.9504 51.6216 46.0274 52.0196 46.1674C52.4156 46.3074 52.6146 46.5204 52.6146 46.8074C52.6146 46.9684 52.5636 47.1354 52.4596 47.3084C52.3576 47.4814 52.2136 47.5674 52.0306 47.5674C51.9566 47.5674 51.7906 47.5054 51.5346 47.3794C51.2776 47.2554 51.0086 47.1814 50.7296 47.1594V49.0994C51.0316 49.2094 51.2816 49.3164 51.4796 49.4194C51.6776 49.5224 51.8926 49.6634 52.1236 49.8434C52.3556 50.0244 52.5286 50.2494 52.6426 50.5224C52.7556 50.7934 52.8136 51.1064 52.8136 51.4584C52.8136 52.1194 52.6256 52.6494 52.2506 53.0464C51.8756 53.4424 51.3696 53.6924 50.7296 53.7954V54.1374C50.7296 54.2104 50.6916 54.2754 50.6146 54.3304C50.5376 54.3854 50.4506 54.4124 50.3546 54.4124C50.2516 54.4124 50.1636 54.3854 50.0896 54.3304C50.0166 54.2754 49.9806 54.2104 49.9806 54.1374V53.8284C49.3406 53.8144 48.7906 53.6634 48.3316 53.3764C47.8726 53.0904 47.6426 52.7844 47.6426 52.4614Z" fill="#465056"/>
</g>
</g>
</svg>
