<svg width="110" height="110" viewBox="0 0 110 110" fill="none" xmlns="http://www.w3.org/2000/svg">
<g id="i-edu">
<g id="Group">
<path id="Fill 1" fill-rule="evenodd" clip-rule="evenodd" d="M67.911 38.082L77.784 76.31L85.347 74.357L75.474 36.129L67.911 38.082Z" fill="#D7BFF9"/>
<path id="Fill 2" fill-rule="evenodd" clip-rule="evenodd" d="M38.1309 36.0003H26.4979V75.4833H38.1309H49.7629H61.8749H69.7019V45.3053H61.8749V42.1103H49.7629V36.0003H38.1309Z" fill="#D7BFF9"/>
<path id="Fill 3" fill-rule="evenodd" clip-rule="evenodd" d="M24 73.6854H36.833V33.0024H24V73.6854ZM25.199 72.4854H35.634V34.2034H25.199V72.4854Z" fill="#465056"/>
<path id="Fill 4" fill-rule="evenodd" clip-rule="evenodd" d="M35.633 73.6854H48.466V33.0024H35.633V73.6854ZM36.833 72.4854H47.268V34.2034H36.833V72.4854Z" fill="#465056"/>
<path id="Fill 5" fill-rule="evenodd" clip-rule="evenodd" d="M74.0076 32.9997L65.2836 35.2537L75.4556 74.6437L84.1806 72.3897L74.0076 32.9997ZM66.7466 36.1147L73.1466 34.4617L82.7176 71.5287L76.3166 73.1817L66.7466 36.1147Z" fill="#465056"/>
<path id="Fill 6" fill-rule="evenodd" clip-rule="evenodd" d="M48.467 72.4854H59.378V40.3124H48.467V72.4854ZM47.267 73.6854H60.577V39.1124H47.267V73.6854Z" fill="#465056"/>
<path id="Fill 7" fill-rule="evenodd" clip-rule="evenodd" d="M60.577 72.4854H67.206V43.5084H60.577V72.4854ZM59.378 73.6854H68.405V42.3084H59.378V73.6854Z" fill="#465056"/>
<path id="Fill 8" fill-rule="evenodd" clip-rule="evenodd" d="M24.599 41.4584H36.233V40.2574H24.599V41.4584Z" fill="#465056"/>
<path id="Fill 9" fill-rule="evenodd" clip-rule="evenodd" d="M24.599 44.3404H36.233V43.1394H24.599V44.3404Z" fill="#465056"/>
<path id="Fill 10" fill-rule="evenodd" clip-rule="evenodd" d="M36.233 41.4584H47.867V40.2584H36.233V41.4584Z" fill="#465056"/>
<path id="Fill 11" fill-rule="evenodd" clip-rule="evenodd" d="M36.233 44.3404H47.867V43.1404H36.233V44.3404Z" fill="#465056"/>
<path id="Fill 12" fill-rule="evenodd" clip-rule="evenodd" d="M48.105 47.2224H59.738V46.0224H48.105V47.2224Z" fill="#465056"/>
<path id="Fill 13" fill-rule="evenodd" clip-rule="evenodd" d="M36.233 47.2224H47.867V46.0224H36.233V47.2224Z" fill="#465056"/>
<path id="Fill 14" fill-rule="evenodd" clip-rule="evenodd" d="M53.9219 63.7983C52.6669 63.7983 51.6459 64.8193 51.6459 66.0743C51.6459 67.3293 52.6669 68.3503 53.9219 68.3503C55.1779 68.3503 56.1989 67.3293 56.1989 66.0743C56.1989 64.8193 55.1779 63.7983 53.9219 63.7983ZM53.9219 69.5503C52.0049 69.5503 50.4459 67.9913 50.4459 66.0743C50.4459 64.1573 52.0049 62.5983 53.9219 62.5983C55.8389 62.5983 57.3989 64.1573 57.3989 66.0743C57.3989 67.9913 55.8389 69.5503 53.9219 69.5503Z" fill="#465056"/>
<path id="Fill 16" fill-rule="evenodd" clip-rule="evenodd" d="M59.978 69.5504H67.806V68.3504H59.978V69.5504Z" fill="#465056"/>
<path id="Fill 18" fill-rule="evenodd" clip-rule="evenodd" d="M59.978 66.6744H67.806V65.4744H59.978V66.6744Z" fill="#465056"/>
<path id="Fill 19" fill-rule="evenodd" clip-rule="evenodd" d="M72.1797 59.5542L71.8787 58.3922L79.4417 56.4392L79.7417 57.6012L72.1797 59.5542Z" fill="#465056"/>
<path id="Fill 20" fill-rule="evenodd" clip-rule="evenodd" d="M71.4307 56.6543L71.1297 55.4923L78.6927 53.5393L78.9927 54.7013L71.4307 56.6543Z" fill="#465056"/>
<path id="Fill 21" fill-rule="evenodd" clip-rule="evenodd" d="M70.6816 53.7544L70.3806 52.5924L77.9436 50.6394L78.2436 51.8014L70.6816 53.7544Z" fill="#465056"/>
</g>
</g>
</svg>
