<svg width="110" height="110" viewBox="0 0 110 110" fill="none" xmlns="http://www.w3.org/2000/svg">
<g id="i-equ">
<rect width="110" height="110" fill="white"/>
<g id="Group 14">
<path id="Fill 1" fill-rule="evenodd" clip-rule="evenodd" d="M47.735 50.4498H60.127V46.7088H47.735V50.4498Z" fill="#FF483C"/>
<path id="Fill 2" fill-rule="evenodd" clip-rule="evenodd" d="M47.735 57.5108H60.127V53.7688H47.735V57.5108Z" fill="#FF483C"/>
<path id="Fill 3" fill-rule="evenodd" clip-rule="evenodd" d="M28.1182 41.8178C23.7522 41.8178 20.1992 45.3698 20.1992 49.7368C20.1992 54.1038 23.7522 57.6558 28.1182 57.6558C32.4852 57.6558 36.0382 54.1038 36.0382 49.7368C36.0382 45.3698 32.4852 41.8178 28.1182 41.8178ZM28.1182 58.8558C23.0902 58.8558 19.0002 54.7648 19.0002 49.7368C19.0002 44.7088 23.0902 40.6178 28.1182 40.6178C33.1462 40.6178 37.2372 44.7088 37.2372 49.7368C37.2372 54.7648 33.1462 58.8558 28.1182 58.8558Z" fill="#303030"/>
<path id="Fill 5" fill-rule="evenodd" clip-rule="evenodd" d="M28.1182 74.5898C27.7872 74.5898 27.5182 74.3208 27.5182 73.9898V58.2558C27.5182 57.9238 27.7872 57.6558 28.1182 57.6558C28.4492 57.6558 28.7182 57.9238 28.7182 58.2558V73.9898C28.7182 74.3208 28.4492 74.5898 28.1182 74.5898" fill="#303030"/>
<path id="Fill 7" fill-rule="evenodd" clip-rule="evenodd" d="M33.7578 64.3457H22.4798C22.1488 64.3457 21.8798 64.0767 21.8798 63.7457C21.8798 63.4137 22.1488 63.1457 22.4798 63.1457H33.7578C34.0888 63.1457 34.3578 63.4137 34.3578 63.7457C34.3578 64.0767 34.0888 64.3457 33.7578 64.3457" fill="#303030"/>
<path id="Fill 9" fill-rule="evenodd" clip-rule="evenodd" d="M75.7441 41.8178C71.3781 41.8178 67.8251 45.3698 67.8251 49.7368C67.8251 54.1038 71.3781 57.6558 75.7441 57.6558C80.1111 57.6558 83.6641 54.1038 83.6641 49.7368C83.6641 45.3698 80.1111 41.8178 75.7441 41.8178M75.7441 58.8558C70.7161 58.8558 66.6261 54.7648 66.6261 49.7368C66.6261 44.7088 70.7161 40.6178 75.7441 40.6178C80.7721 40.6178 84.8631 44.7088 84.8631 49.7368C84.8631 54.7648 80.7721 58.8558 75.7441 58.8558" fill="#303030"/>
<g id="Group 13">
<mask id="mask0" mask-type="alpha" maskUnits="userSpaceOnUse" x="81" y="34" width="10" height="11">
<path id="Clip 12" fill-rule="evenodd" clip-rule="evenodd" d="M90.48 44.3129V34.9998H81.1691L81.1691 44.3129H90.48V44.3129Z" fill="white"/>
</mask>
<g mask="url(#mask0)">
<path id="Fill 11" fill-rule="evenodd" clip-rule="evenodd" d="M81.7686 44.3129C81.6156 44.3129 81.4616 44.2539 81.3446 44.1369C81.1106 43.9029 81.1106 43.5229 81.3446 43.2889L89.4566 35.1759C89.6916 34.9409 90.0706 34.9409 90.3046 35.1759C90.5396 35.4099 90.5396 35.7899 90.3046 36.0239L82.1926 44.1369C82.0756 44.2539 81.9216 44.3129 81.7686 44.3129" fill="#303030"/>
</g>
</g>
<path id="Fill 14" fill-rule="evenodd" clip-rule="evenodd" d="M89.8662 42.8115C89.5352 42.8115 89.2662 42.5425 89.2662 42.2115V36.2155H83.2692C82.9382 36.2155 82.6702 35.9465 82.6702 35.6155C82.6702 35.2835 82.9382 35.0155 83.2692 35.0155H89.8662C90.1972 35.0155 90.4662 35.2835 90.4662 35.6155V42.2115C90.4662 42.5425 90.1972 42.8115 89.8662 42.8115" fill="#303030"/>
<path id="Fill 16" fill-rule="evenodd" clip-rule="evenodd" d="M46.335 47.3058H57.527V44.7638H46.335V47.3058ZM45.136 48.5058H58.727V43.5638H45.136V48.5058Z" fill="#303030"/>
<path id="Fill 18" fill-rule="evenodd" clip-rule="evenodd" d="M46.335 54.3658H57.527V51.8238H46.335V54.3658ZM45.136 55.5668H58.727V50.6248H45.136V55.5668Z" fill="#303030"/>
</g>
</g>
</svg>
