<svg width="110" height="110" viewBox="0 0 110 110" fill="none" xmlns="http://www.w3.org/2000/svg">
<g id="i-inf">
<rect width="110" height="110" fill="white"/>
<g id="Group">
<path id="Fill 1" fill-rule="evenodd" clip-rule="evenodd" d="M68.2461 53.2871L65.7951 45.2721C65.7951 45.2721 68.9441 46.9631 70.9791 51.7091L68.2461 53.2871ZM46.8241 62.7341L45.7521 53.9451C45.7521 53.9451 48.3561 56.9731 49.3811 61.7041L46.8241 62.7341ZM80.0081 55.1401L76.2651 48.6581L74.3291 49.7751C72.6151 45.8291 69.5821 41.2201 64.2581 38.2381L64.2551 38.2391C64.7611 37.4471 65.0581 36.5091 65.0581 35.4991C65.0581 32.6821 62.7731 30.3981 59.9561 30.3981C57.1391 30.3981 54.8541 32.6821 54.8541 35.4991C54.8541 37.6391 56.1731 39.4691 58.0411 40.2261C56.6061 49.3501 49.6171 53.6681 49.6171 53.6681V53.6691C49.5111 53.7401 49.4181 53.8271 49.3261 53.9161C47.0761 50.2581 44.5751 48.2421 44.5751 48.2421H44.5741C44.9731 47.6151 45.2061 46.8741 45.2061 46.0771C45.2061 43.8401 43.3931 42.0281 41.1571 42.0281C38.9211 42.0281 37.1081 43.8401 37.1081 46.0771C37.1081 47.7441 38.1161 49.1751 39.5561 49.7951C39.5561 49.7951 38.3961 58.5741 31.1601 62.5081L31.1621 62.5131C30.5781 62.7251 30.1591 63.2801 30.1591 63.9381C30.1591 64.7781 30.8401 65.4591 31.6811 65.4591C31.9531 65.4591 32.2051 65.3821 32.4261 65.2571L32.4271 65.2591C33.8621 64.7991 36.7921 61.9851 36.7921 61.9851V68.5321H37.7681L35.9881 80.4061H34.5841C34.0251 80.4061 33.5721 80.8591 33.5721 81.4181C33.5721 81.9771 34.0251 82.4311 34.5841 82.4311H39.0941L39.2111 80.4061L42.9371 68.5321L45.8661 79.6741L44.4761 80.0611C43.9211 80.1201 43.5171 80.6181 43.5771 81.1741C43.6361 81.7301 44.1351 82.1331 44.6901 82.0741L49.1741 81.5981L49.0831 79.6741L47.0721 68.5321H47.5321L47.3511 67.0571L49.8181 66.0631C49.9531 66.7661 50.5691 67.2981 51.3111 67.2981C52.1521 67.2981 52.8341 66.6171 52.8341 65.7761C52.8311 65.4671 52.8191 65.1631 52.8051 64.8611L54.8391 64.0421L53.2671 60.1401L52.1621 60.5841C51.8691 59.4201 51.4961 58.3281 51.0711 57.3141C51.3451 57.2651 51.5991 57.1631 51.8221 57.0161V57.0161L51.8251 57.0151C51.9431 56.9351 52.0531 56.8451 52.1521 56.7431L56.2621 53.3371V61.9851H57.5251L54.6391 80.4061H53.0661C52.5081 80.4061 52.0551 80.8591 52.0551 81.4181C52.0551 81.9771 52.5081 82.4311 53.0661 82.4311H58.7311V80.4061L63.2541 61.9851L69.3701 80.0611L67.7751 80.5721C67.2181 80.6111 66.7981 81.0951 66.8371 81.6531C66.8761 82.2101 67.3601 82.6301 67.9181 82.5911L73.5681 82.1941L73.5051 80.0611L69.3701 61.9851H70.9061L70.4931 60.6331L73.3301 58.9951C73.6541 59.2201 74.0471 59.3541 74.4721 59.3541C75.5791 59.3541 76.4771 58.4561 76.4771 57.3491C76.4771 57.2931 76.4621 57.2441 76.4561 57.1901L80.0081 55.1401Z" fill="#FF483C"/>
<path id="Fill 4" fill-rule="evenodd" clip-rule="evenodd" d="M65.3486 45.0625L67.0396 50.5925L68.6526 49.6625C67.6026 47.4125 66.3116 45.9395 65.3486 45.0625V45.0625ZM66.3326 52.3855L63.2356 42.2565L64.5196 42.9455C64.6556 43.0195 67.8776 44.7915 69.9726 49.6745L70.1826 50.1645L66.3326 52.3855ZM45.0876 54.5325L45.7656 60.0875L47.1206 59.5415C46.6096 57.4645 45.7906 55.7475 45.0876 54.5325V54.5325ZM44.7636 61.7855L43.3576 50.2555L44.6476 51.7555C44.7576 51.8845 47.3636 54.9555 48.4076 59.7795L48.5146 60.2745L44.7636 61.7855ZM61.6026 58.0435L68.5746 78.6485L66.2586 79.3725C66.0316 79.3885 65.8606 79.5855 65.8756 79.8125C65.8916 80.0395 66.0786 80.2125 66.3166 80.1945L71.3926 79.8375L71.3486 78.3405L67.0576 59.5865H68.5366L68.2196 58.5545L71.8006 56.4865L72.1136 56.7045C72.3496 56.8695 72.6256 56.9565 72.9116 56.9565C73.6876 56.9565 74.3186 56.3255 74.3186 55.5505L74.2646 55.0645L77.6286 53.1225L74.4866 47.6795L72.4886 48.8335L72.2206 48.2165C70.0606 43.2485 66.8286 39.5035 62.6116 37.0805L61.3796 37.3885L62.1906 36.1175C62.6546 35.3925 62.8996 34.5575 62.8996 33.7015C62.8996 31.2195 60.8786 29.2005 58.3966 29.2005C55.9136 29.2005 53.8946 31.2195 53.8946 33.7015C53.8946 35.5415 54.9986 37.1795 56.7066 37.8725L57.1486 38.0515L57.0746 38.5215C55.6136 47.8115 48.6676 52.1985 48.3726 52.3805C48.3166 52.4195 48.2496 52.4845 48.1836 52.5495L47.6476 53.0685L47.2556 52.4325C45.0926 48.9155 42.6626 46.9305 42.6386 46.9105L42.2226 46.5745L42.5086 46.1225C42.8606 45.5685 43.0466 44.9305 43.0466 44.2785C43.0466 42.3765 41.4986 40.8305 39.5976 40.8305C37.6966 40.8305 36.1486 42.3765 36.1486 44.2785C36.1486 45.6565 36.9676 46.8995 38.2346 47.4465L38.6556 47.6285L38.5906 48.0835C38.5386 48.4485 37.2796 56.8455 30.3916 60.9505L30.4386 61.0435L29.8076 61.2775C29.4446 61.4105 29.1996 61.7565 29.1996 62.1395C29.1996 62.8005 29.9406 63.2945 30.5716 62.9375L30.6846 62.8875C31.7536 62.5465 34.0306 60.5105 34.8176 59.7545L35.8326 58.7785V66.1345H36.9056L34.9456 79.2085H33.0256C32.7976 79.2085 32.6126 79.3935 32.6126 79.6205C32.6126 79.8475 32.7976 80.0325 33.0256 80.0325H36.9676L37.0786 78.4285L41.4286 64.5685L45.0366 78.2955L43.0776 78.8405C42.7546 78.8835 42.5906 79.0865 42.6146 79.3135C42.6256 79.4225 42.6796 79.5205 42.7646 79.5895C42.8506 79.6595 42.9616 79.6915 43.0676 79.6795L46.9886 79.2635L46.9236 77.9045L44.7946 66.1345H45.2946L45.1416 64.8745L48.7106 63.4365L48.8476 64.1525C48.9306 64.5855 49.3116 64.9005 49.7516 64.9005C50.2606 64.9005 50.6746 64.4865 50.6746 63.9785C50.6716 63.6835 50.6606 63.3865 50.6456 63.0915L50.6246 62.6665L52.4986 61.9115L51.3756 59.1225L50.1886 59.6005L50.0206 58.9335C49.7476 57.8515 49.3916 56.7795 48.9586 55.7485L48.6706 55.0585L49.4066 54.9255C49.5986 54.8905 49.7756 54.8205 49.9326 54.7175C50.0176 54.6615 50.0936 54.5985 50.1616 54.5275L55.3016 50.2625V59.5865H56.6666L53.5936 79.2085H51.5076C51.2806 79.2085 51.0946 79.3935 51.0946 79.6205C51.0946 79.8475 51.2806 80.0325 51.5076 80.0325H56.5726L56.5886 78.4655L61.6026 58.0435ZM66.2866 81.3955C65.4496 81.3955 64.7406 80.7455 64.6786 79.8975C64.6186 79.0365 65.2476 78.2845 66.0946 78.1835L67.0466 77.8785L61.7856 62.3305L57.7716 78.6815V81.2325H51.5076C50.6186 81.2325 49.8956 80.5095 49.8956 79.6205C49.8956 78.7315 50.6186 78.0085 51.5076 78.0085H52.5666L55.2646 60.7875H54.1026V52.8155L50.9756 55.4075C50.8946 55.4965 50.7496 55.6155 50.5956 55.7175C50.5026 55.7785 50.4066 55.8335 50.3066 55.8825C50.5726 56.5685 50.8066 57.2695 51.0066 57.9775L52.0396 57.5615L54.0596 62.5765L51.8626 63.4605C51.8686 63.6305 51.8726 63.8005 51.8736 63.9725C51.8736 65.1485 50.9216 66.1005 49.7516 66.1005C48.9826 66.1005 48.2926 65.6845 47.9206 65.0485L46.4446 65.6435L46.6506 67.3345H46.2306L48.1146 77.7695L48.2406 80.3375L43.1946 80.8725C42.7666 80.9205 42.3466 80.7945 42.0106 80.5235C41.6756 80.2525 41.4656 79.8675 41.4206 79.4395C41.3276 78.5555 41.9706 77.7595 42.8536 77.6665L43.5776 77.4595L41.3276 68.9005L38.2456 78.7175L38.1006 81.2325H33.0256C32.1356 81.2325 31.4126 80.5095 31.4126 79.6205C31.4126 78.7315 32.1356 78.0085 33.0256 78.0085H33.9116L35.5126 67.3345H34.6336V61.5495C33.6276 62.4345 32.1156 63.6635 31.1066 64.0135C30.7926 64.1785 30.4616 64.2615 30.1206 64.2615C28.9516 64.2615 27.9996 63.3095 27.9996 62.1395C27.9996 61.4815 28.3096 60.8715 28.8126 60.4765L28.8066 60.4645L28.8896 60.4175C29.0216 60.3245 29.1636 60.2445 29.3176 60.1815C35.3196 56.9165 36.9916 50.0905 37.3286 48.3365C35.8696 47.5205 34.9496 45.9755 34.9496 44.2785C34.9496 41.7155 37.0346 39.6295 39.5976 39.6295C42.1616 39.6295 44.2456 41.7155 44.2456 44.2785C44.2456 44.9875 44.0836 45.6835 43.7726 46.3165C44.7786 47.1665 46.4986 49.0645 47.9206 51.2425C49.0056 50.4985 54.4286 46.4345 55.8136 38.7825C53.9046 37.8145 52.6956 35.8705 52.6956 33.7015C52.6956 30.5575 55.2526 28.0005 58.3966 28.0005C61.5406 28.0005 64.0986 30.5575 64.0986 33.7015C64.0986 34.5775 63.8976 35.4355 63.5106 36.2165C67.6346 38.6695 70.8386 42.3355 73.0456 47.1255L74.9256 46.0395L79.2676 53.5615L75.5116 55.7295C75.4186 57.0835 74.2876 58.1565 72.9116 58.1565C72.5126 58.1565 72.1236 58.0645 71.7686 57.8905L69.6476 59.1155L70.1596 60.7875H68.5636L72.5456 78.2465L72.6246 80.9545L66.4006 81.3925C66.3626 81.3945 66.3246 81.3955 66.2866 81.3955V81.3955Z" fill="#303030"/>
</g>
</g>
</svg>
