<?xml version="1.0" encoding="UTF-8" standalone="no"?>
<svg width="100px" height="100px" viewBox="0 0 100 100" version="1.1" xmlns="http://www.w3.org/2000/svg" xmlns:xlink="http://www.w3.org/1999/xlink">
    <!-- Generator: Sketch 41.2 (35397) - http://www.bohemiancoding.com/sketch -->
    <title>Artboard Copy 55</title>
    <desc>Created with Sketch.</desc>
    <defs>
        <polygon id="path-1" points="1.2216 0.236 0.0216 0.236 0.0216 6.6138 1.2216 6.6138 1.2216 0.236"></polygon>
    </defs>
    <g id="Welcome" stroke="none" stroke-width="1" fill="none" fill-rule="evenodd">
        <g id="Artboard-Copy-55">
            <g id="Page-1-Copy" transform="translate(27.000000, 19.000000)">
                <path d="M15.2593,35.273 C15.2593,38.769 12.4253,41.603 8.9293,41.603 C5.4343,41.603 2.6003,38.769 2.6003,35.273" id="Fill-1" fill="#307CBF"></path>
                <path d="M46.6597,35.273 C46.6597,38.769 43.8257,41.603 40.3307,41.603 C36.8347,41.603 34.0007,38.769 34.0007,35.273" id="Fill-3" fill="#307CBF"></path>
                <path d="M24.6294,49.7271 C22.6244,49.7271 20.9994,51.3521 20.9994,53.3571 L20.9994,58.7641 L28.2604,58.7641 L28.2604,53.3571 C28.2604,51.3521 26.6354,49.7271 24.6294,49.7271" id="Fill-5" fill="#307CBF"></path>
                <path d="M28.3608,12.8501 C28.3608,10.7851 26.6868,9.1111 24.6218,9.1111 C22.5568,9.1111 20.8828,10.7851 20.8828,12.8501 C20.8828,14.9151 22.5568,16.5891 24.6218,16.5891 C26.6868,16.5891 28.3608,14.9151 28.3608,12.8501" id="Fill-7" fill="#307CBF"></path>
                <path d="M22.6294,47.9942 C22.2984,47.9942 22.0294,47.7252 22.0294,47.3942 L22.0294,14.2552 C22.0294,13.9242 22.2984,13.6552 22.6294,13.6552 C22.9604,13.6552 23.2294,13.9242 23.2294,14.2552 L23.2294,47.3942 C23.2294,47.7252 22.9604,47.9942 22.6294,47.9942" id="Fill-9" fill="#0C1423"></path>
                <path d="M36.7348,57.0308 L8.5078,57.0308 C8.1768,57.0308 7.9088,56.7618 7.9088,56.4308 C7.9088,56.0988 8.1768,55.8308 8.5078,55.8308 L36.7348,55.8308 C37.0658,55.8308 37.3348,56.0988 37.3348,56.4308 C37.3348,56.7618 37.0658,57.0308 36.7348,57.0308" id="Fill-11" fill="#0C1423"></path>
                <path d="M18.8833,11.1167 L6.9293,11.1167 C6.5983,11.1167 6.3293,10.8477 6.3293,10.5167 C6.3293,10.1847 6.5983,9.9167 6.9293,9.9167 L18.8833,9.9167 C19.2143,9.9167 19.4833,10.1847 19.4833,10.5167 C19.4833,10.8477 19.2143,11.1167 18.8833,11.1167" id="Fill-13" fill="#0C1423"></path>
                <path d="M38.3139,11.1167 L26.3609,11.1167 C26.0299,11.1167 25.7609,10.8477 25.7609,10.5167 C25.7609,10.1847 26.0299,9.9167 26.3609,9.9167 L38.3139,9.9167 C38.6449,9.9167 38.9139,10.1847 38.9139,10.5167 C38.9139,10.8477 38.6449,11.1167 38.3139,11.1167" id="Fill-15" fill="#0C1423"></path>
                <path d="M1.3931,32.3394 L12.4661,32.3394 L6.9291,12.7254 L1.3931,32.3394 Z M13.2591,33.5394 L0.6001,33.5394 C0.4131,33.5394 0.2351,33.4514 0.1221,33.3014 C0.0081,33.1514 -0.0289,32.9574 0.0231,32.7764 L6.3521,10.3534 C6.4241,10.0954 6.6611,9.9164 6.9291,9.9164 C7.1981,9.9164 7.4341,10.0954 7.5061,10.3534 L13.8361,32.7764 C13.8881,32.9574 13.8511,33.1514 13.7381,33.3014 C13.6241,33.4514 13.4471,33.5394 13.2591,33.5394 L13.2591,33.5394 Z" id="Fill-17" fill="#0C1423"></path>
                <path d="M32.7934,32.3394 L43.8664,32.3394 L38.3304,12.7254 L32.7934,32.3394 Z M44.6594,33.5394 L32.0004,33.5394 C31.8134,33.5394 31.6354,33.4514 31.5224,33.3014 C31.4084,33.1514 31.3714,32.9574 31.4234,32.7764 L37.7534,10.3534 C37.8254,10.0954 38.0624,9.9164 38.3304,9.9164 C38.5994,9.9164 38.8354,10.0954 38.9074,10.3534 L45.2364,32.7764 C45.2884,32.9574 45.2514,33.1514 45.1384,33.3014 C45.0244,33.4514 44.8474,33.5394 44.6594,33.5394 L44.6594,33.5394 Z" id="Fill-19" fill="#0C1423"></path>
                <path d="M6.9292,39.8696 C3.1092,39.8696 0.0002,36.7606 0.0002,32.9396 C0.0002,32.6076 0.2692,32.3396 0.6002,32.3396 C0.9312,32.3396 1.2002,32.6076 1.2002,32.9396 C1.2002,36.0986 3.7702,38.6696 6.9292,38.6696 C10.0882,38.6696 12.6592,36.0986 12.6592,32.9396 C12.6592,32.6076 12.9282,32.3396 13.2592,32.3396 C13.5902,32.3396 13.8592,32.6076 13.8592,32.9396 C13.8592,36.7606 10.7502,39.8696 6.9292,39.8696" id="Fill-21" fill="#0C1423"></path>
                <path d="M38.3306,39.8696 C34.5096,39.8696 31.4006,36.7606 31.4006,32.9396 C31.4006,32.6076 31.6696,32.3396 32.0006,32.3396 C32.3316,32.3396 32.6006,32.6076 32.6006,32.9396 C32.6006,36.0986 35.1716,38.6696 38.3306,38.6696 C41.4896,38.6696 44.0596,36.0986 44.0596,32.9396 C44.0596,32.6076 44.3286,32.3396 44.6596,32.3396 C44.9906,32.3396 45.2596,32.6076 45.2596,32.9396 C45.2596,36.7606 42.1506,39.8696 38.3306,39.8696" id="Fill-23" fill="#0C1423"></path>
                <path d="M19.5991,55.8306 L25.6611,55.8306 L25.6611,51.0246 C25.6611,49.3536 24.3001,47.9946 22.6291,47.9946 C20.9581,47.9946 19.5991,49.3536 19.5991,51.0246 L19.5991,55.8306 Z M26.2601,57.0306 L18.9991,57.0306 C18.6681,57.0306 18.4001,56.7626 18.4001,56.4306 L18.4001,51.0246 C18.4001,48.6916 20.2971,46.7936 22.6291,46.7936 C24.9621,46.7936 26.8601,48.6916 26.8601,51.0246 L26.8601,56.4306 C26.8601,56.7626 26.5911,57.0306 26.2601,57.0306 L26.2601,57.0306 Z" id="Fill-25" fill="#0C1423"></path>
                <path d="M22.6216,7.3779 C20.8916,7.3779 19.4826,8.7859 19.4826,10.5169 C19.4826,12.2479 20.8916,13.6549 22.6216,13.6549 C24.3526,13.6549 25.7616,12.2479 25.7616,10.5169 C25.7616,8.7859 24.3526,7.3779 22.6216,7.3779 M22.6216,14.8559 C20.2286,14.8559 18.2836,12.9089 18.2836,10.5169 C18.2836,8.1239 20.2286,6.1779 22.6216,6.1779 C25.0146,6.1779 26.9606,8.1239 26.9606,10.5169 C26.9606,12.9089 25.0146,14.8559 22.6216,14.8559" id="Fill-27" fill="#0C1423"></path>
                <g id="Group-31" transform="translate(22.000000, 0.764100)">
                    <mask id="mask-2" fill="white">
                        <use xlink:href="#path-1"></use>
                    </mask>
                    <g id="Clip-30"></g>
                    <path d="M0.6216,6.6138 C0.2906,6.6138 0.0216,6.3448 0.0216,6.0138 L0.0216,0.8358 C0.0216,0.5048 0.2906,0.2358 0.6216,0.2358 C0.9526,0.2358 1.2216,0.5048 1.2216,0.8358 L1.2216,6.0138 C1.2216,6.3448 0.9526,6.6138 0.6216,6.6138" id="Fill-29" fill="#0C1423" mask="url(#mask-2)"></path>
                </g>
            </g>
        </g>
    </g>
</svg>