<?xml version="1.0" encoding="UTF-8" standalone="no"?>
<svg width="100px" height="100px" viewBox="0 0 100 100" version="1.1" xmlns="http://www.w3.org/2000/svg" xmlns:xlink="http://www.w3.org/1999/xlink">
    <!-- Generator: Sketch 41.2 (35397) - http://www.bohemiancoding.com/sketch -->
    <title>Artboard Copy 56</title>
    <desc>Created with Sketch.</desc>
    <defs></defs>
    <g id="Welcome" stroke="none" stroke-width="1" fill="none" fill-rule="evenodd">
        <g id="Artboard-Copy-56">
            <g id="Page-1-Copy" transform="translate(19.000000, 25.000000)">
                <path d="M61.0039,26.5107 C61.0039,24.8327 59.6439,23.4717 57.9649,23.4717 C56.2859,23.4717 54.9259,24.8327 54.9259,26.5107 C54.9259,27.1817 55.1499,27.7957 55.5179,28.2987 C55.1499,28.8007 54.9259,29.4147 54.9259,30.0857 C54.9259,31.7637 56.2859,33.1247 57.9649,33.1247 C59.6439,33.1247 61.0039,31.7637 61.0039,30.0857 C61.0039,29.4147 60.7799,28.8007 60.4119,28.2987 C60.7799,27.7957 61.0039,27.1817 61.0039,26.5107" id="Fill-1" fill="#307CBF"></path>
                <path d="M52.7402,26.5107 C52.7402,24.8327 51.3802,23.4717 49.7012,23.4717 C48.0232,23.4717 46.6622,24.8327 46.6622,26.5107 C46.6622,27.1817 46.8862,27.7957 47.2542,28.2987 C46.8862,28.8007 46.6622,29.4147 46.6622,30.0857 C46.6622,31.7637 48.0232,33.1247 49.7012,33.1247 C51.3802,33.1247 52.7402,31.7637 52.7402,30.0857 C52.7402,29.4147 52.5162,28.8007 52.1482,28.2987 C52.5162,27.7957 52.7402,27.1817 52.7402,26.5107" id="Fill-3" fill="#307CBF"></path>
                <path d="M11.4238,26.5107 C11.4238,24.8327 10.0638,23.4717 8.3848,23.4717 C6.7058,23.4717 5.3458,24.8327 5.3458,26.5107 C5.3458,27.1817 5.5698,27.7957 5.9378,28.2987 C5.5698,28.8007 5.3458,29.4147 5.3458,30.0857 C5.3458,31.7637 6.7058,33.1247 8.3848,33.1247 C10.0638,33.1247 11.4238,31.7637 11.4238,30.0857 C11.4238,29.4147 11.1998,28.8007 10.8318,28.2987 C11.1998,27.7957 11.4238,27.1817 11.4238,26.5107" id="Fill-5" fill="#307CBF"></path>
                <path d="M19.6875,26.5107 C19.6875,24.8327 18.3275,23.4717 16.6485,23.4717 C14.9695,23.4717 13.6095,24.8327 13.6095,26.5107 C13.6095,27.1817 13.8335,27.7957 14.2015,28.2987 C13.8335,28.8007 13.6095,29.4147 13.6095,30.0857 C13.6095,31.7637 14.9695,33.1247 16.6485,33.1247 C18.3275,33.1247 19.6875,31.7637 19.6875,30.0857 C19.6875,29.4147 19.4635,28.8007 19.0955,28.2987 C19.4635,27.7957 19.6875,27.1817 19.6875,26.5107" id="Fill-7" fill="#307CBF"></path>
                <path d="M27.9512,26.5107 C27.9512,24.8327 26.5902,23.4717 24.9112,23.4717 C23.2332,23.4717 21.8722,24.8327 21.8722,26.5107 C21.8722,27.1817 22.0972,27.7957 22.4642,28.2987 C22.0972,28.8007 21.8722,29.4147 21.8722,30.0857 C21.8722,31.7637 23.2332,33.1247 24.9112,33.1247 C26.5902,33.1247 27.9512,31.7637 27.9512,30.0857 C27.9512,29.4147 27.7262,28.8007 27.3592,28.2987 C27.7262,27.7957 27.9512,27.1817 27.9512,26.5107" id="Fill-9" fill="#307CBF"></path>
                <path d="M36.2139,26.5107 C36.2139,24.8327 34.8539,23.4717 33.1749,23.4717 C31.4959,23.4717 30.1359,24.8327 30.1359,26.5107 C30.1359,27.1817 30.3599,27.7957 30.7279,28.2987 C30.3599,28.8007 30.1359,29.4147 30.1359,30.0857 C30.1359,31.7637 31.4959,33.1247 33.1749,33.1247 C34.8539,33.1247 36.2139,31.7637 36.2139,30.0857 C36.2139,29.4147 35.9899,28.8007 35.6219,28.2987 C35.9899,27.7957 36.2139,27.1817 36.2139,26.5107" id="Fill-11" fill="#307CBF"></path>
                <path d="M44.4775,26.5107 C44.4775,24.8327 43.1175,23.4717 41.4385,23.4717 C39.7595,23.4717 38.3995,24.8327 38.3995,26.5107 C38.3995,27.1817 38.6235,27.7957 38.9915,28.2987 C38.6235,28.8007 38.3995,29.4147 38.3995,30.0857 C38.3995,31.7637 39.7595,33.1247 41.4385,33.1247 C43.1175,33.1247 44.4775,31.7637 44.4775,30.0857 C44.4775,29.4147 44.2525,28.8007 43.8855,28.2987 C44.2525,27.7957 44.4775,27.1817 44.4775,26.5107" id="Fill-13" fill="#307CBF"></path>
                <path d="M39.251,11.1494 C35.692,6.5184 33.054,3.0914 33.054,3.0914 C33.054,3.0914 30.53,6.3684 27.091,10.8444" id="Fill-15" fill="#307CBF"></path>
                <path d="M51.4561,10.9033 C47.9941,6.3973 45.4491,3.0913 45.4491,3.0913 C45.4491,3.0913 42.8101,6.5183 39.2511,11.1503" id="Fill-17" fill="#307CBF"></path>
                <path d="M14.7725,10.9004 C18.2335,6.3964 20.7775,3.0914 20.7775,3.0914 C20.7775,3.0914 23.4165,6.5184 26.9755,11.1504" id="Fill-19" fill="#307CBF"></path>
                <polyline id="Fill-21" fill="#307CBF" points="39.251 10.8442 36.205 14.9662 33.159 10.8442 33.067 10.8442 30.022 14.9662 26.976 10.8442"></polyline>
                <polyline id="Fill-23" fill="#307CBF" points="51.5313 10.8442 48.4853 14.9662 45.4393 10.8442 45.3473 10.8442 42.3023 14.9662 39.2563 10.8442"></polyline>
                <polyline id="Fill-25" fill="#307CBF" points="26.9756 10.8442 23.9286 14.9662 20.8826 10.8442 20.7916 10.8442 17.7456 14.9662 14.6996 10.8442"></polyline>
                <path d="M61.75,37.9853 L0.6,37.9853 C0.269,37.9853 0,37.7163 0,37.3853 C0,37.0533 0.269,36.7853 0.6,36.7853 L61.75,36.7853 C62.081,36.7853 62.35,37.0533 62.35,37.3853 C62.35,37.7163 62.081,37.9853 61.75,37.9853" id="Fill-27" fill="#0C1423"></path>
                <path d="M55.9648,37.9853 C55.6338,37.9853 55.3648,37.7163 55.3648,37.3853 L55.3648,30.0583 C55.3648,29.7273 55.6338,29.4583 55.9648,29.4583 C56.2958,29.4583 56.5648,29.7273 56.5648,30.0583 L56.5648,37.3853 C56.5648,37.7163 56.2958,37.9853 55.9648,37.9853" id="Fill-29" fill="#0C1423"></path>
                <path d="M55.9648,21.5615 C54.6198,21.5615 53.5258,22.6555 53.5258,24.0005 C53.5258,24.5125 53.6908,25.0085 54.0018,25.4335 C54.1558,25.6445 54.1558,25.9315 54.0018,26.1425 C53.6908,26.5675 53.5258,27.0625 53.5258,27.5755 C53.5258,28.9205 54.6198,30.0145 55.9648,30.0145 C57.3098,30.0145 58.4038,28.9205 58.4038,27.5755 C58.4038,27.0625 58.2388,26.5675 57.9278,26.1425 C57.7738,25.9315 57.7738,25.6445 57.9278,25.4335 C58.2388,25.0085 58.4038,24.5125 58.4038,24.0005 C58.4038,22.6555 57.3098,21.5615 55.9648,21.5615 M55.9648,31.2145 C53.9578,31.2145 52.3258,29.5825 52.3258,27.5755 C52.3258,26.9455 52.4888,26.3355 52.8028,25.7885 C52.4888,25.2405 52.3258,24.6295 52.3258,24.0005 C52.3258,21.9945 53.9578,20.3615 55.9648,20.3615 C57.9718,20.3615 59.6038,21.9945 59.6038,24.0005 C59.6038,24.6295 59.4408,25.2405 59.1268,25.7885 C59.4408,26.3355 59.6038,26.9455 59.6038,27.5755 C59.6038,29.5825 57.9718,31.2145 55.9648,31.2145" id="Fill-31" fill="#0C1423"></path>
                <path d="M47.7012,37.9853 C47.3702,37.9853 47.1012,37.7163 47.1012,37.3853 L47.1012,30.0583 C47.1012,29.7273 47.3702,29.4583 47.7012,29.4583 C48.0322,29.4583 48.3012,29.7273 48.3012,30.0583 L48.3012,37.3853 C48.3012,37.7163 48.0322,37.9853 47.7012,37.9853" id="Fill-33" fill="#0C1423"></path>
                <path d="M47.7012,21.5615 C46.3562,21.5615 45.2622,22.6555 45.2622,24.0005 C45.2622,24.5115 45.4272,25.0075 45.7382,25.4345 C45.8922,25.6445 45.8922,25.9315 45.7382,26.1425 C45.4272,26.5685 45.2622,27.0635 45.2622,27.5755 C45.2622,28.9205 46.3562,30.0145 47.7012,30.0145 C49.0462,30.0145 50.1402,28.9205 50.1402,27.5755 C50.1402,27.0625 49.9752,26.5675 49.6642,26.1425 C49.5102,25.9315 49.5102,25.6445 49.6642,25.4335 C49.9752,25.0085 50.1402,24.5125 50.1402,24.0005 C50.1402,22.6555 49.0462,21.5615 47.7012,21.5615 M47.7012,31.2145 C45.6942,31.2145 44.0622,29.5825 44.0622,27.5755 C44.0622,26.9465 44.2262,26.3365 44.5402,25.7885 C44.2262,25.2395 44.0622,24.6285 44.0622,24.0005 C44.0622,21.9945 45.6942,20.3615 47.7012,20.3615 C49.7082,20.3615 51.3402,21.9945 51.3402,24.0005 C51.3402,24.6295 51.1772,25.2405 50.8632,25.7885 C51.1772,26.3355 51.3402,26.9455 51.3402,27.5755 C51.3402,29.5825 49.7082,31.2145 47.7012,31.2145" id="Fill-35" fill="#0C1423"></path>
                <path d="M6.3848,37.9853 C6.0538,37.9853 5.7848,37.7163 5.7848,37.3853 L5.7848,30.0583 C5.7848,29.7273 6.0538,29.4583 6.3848,29.4583 C6.7158,29.4583 6.9848,29.7273 6.9848,30.0583 L6.9848,37.3853 C6.9848,37.7163 6.7158,37.9853 6.3848,37.9853" id="Fill-37" fill="#0C1423"></path>
                <path d="M6.3848,21.5615 C5.0398,21.5615 3.9458,22.6555 3.9458,24.0005 C3.9458,24.5125 4.1108,25.0085 4.4218,25.4335 C4.5758,25.6445 4.5758,25.9315 4.4218,26.1425 C4.1108,26.5675 3.9458,27.0625 3.9458,27.5755 C3.9458,28.9205 5.0398,30.0145 6.3848,30.0145 C7.7298,30.0145 8.8238,28.9205 8.8238,27.5755 C8.8238,27.0625 8.6588,26.5675 8.3478,26.1425 C8.1938,25.9315 8.1938,25.6445 8.3478,25.4335 C8.6588,25.0085 8.8238,24.5125 8.8238,24.0005 C8.8238,22.6555 7.7298,21.5615 6.3848,21.5615 M6.3848,31.2145 C4.3778,31.2145 2.7458,29.5825 2.7458,27.5755 C2.7458,26.9455 2.9088,26.3355 3.2228,25.7885 C2.9088,25.2405 2.7458,24.6295 2.7458,24.0005 C2.7458,21.9945 4.3778,20.3615 6.3848,20.3615 C8.3918,20.3615 10.0238,21.9945 10.0238,24.0005 C10.0238,24.6295 9.8608,25.2405 9.5468,25.7885 C9.8608,26.3355 10.0238,26.9455 10.0238,27.5755 C10.0238,29.5825 8.3918,31.2145 6.3848,31.2145" id="Fill-39" fill="#0C1423"></path>
                <path d="M14.6484,37.9853 C14.3174,37.9853 14.0484,37.7163 14.0484,37.3853 L14.0484,30.0583 C14.0484,29.7273 14.3174,29.4583 14.6484,29.4583 C14.9794,29.4583 15.2484,29.7273 15.2484,30.0583 L15.2484,37.3853 C15.2484,37.7163 14.9794,37.9853 14.6484,37.9853" id="Fill-41" fill="#0C1423"></path>
                <path d="M14.6484,21.5615 C13.3034,21.5615 12.2094,22.6555 12.2094,24.0005 C12.2094,24.5125 12.3744,25.0085 12.6854,25.4335 C12.8394,25.6445 12.8394,25.9315 12.6854,26.1425 C12.3744,26.5675 12.2094,27.0625 12.2094,27.5755 C12.2094,28.9205 13.3034,30.0145 14.6484,30.0145 C15.9934,30.0145 17.0874,28.9205 17.0874,27.5755 C17.0874,27.0625 16.9224,26.5675 16.6114,26.1425 C16.4574,25.9315 16.4574,25.6445 16.6114,25.4335 C16.9224,25.0085 17.0874,24.5125 17.0874,24.0005 C17.0874,22.6555 15.9934,21.5615 14.6484,21.5615 M14.6484,31.2145 C12.6414,31.2145 11.0094,29.5825 11.0094,27.5755 C11.0094,26.9455 11.1724,26.3355 11.4864,25.7885 C11.1724,25.2405 11.0094,24.6295 11.0094,24.0005 C11.0094,21.9945 12.6414,20.3615 14.6484,20.3615 C16.6554,20.3615 18.2874,21.9945 18.2874,24.0005 C18.2874,24.6295 18.1244,25.2405 17.8104,25.7885 C18.1244,26.3355 18.2874,26.9455 18.2874,27.5755 C18.2874,29.5825 16.6554,31.2145 14.6484,31.2145" id="Fill-43" fill="#0C1423"></path>
                <path d="M22.9111,37.9853 C22.5801,37.9853 22.3111,37.7163 22.3111,37.3853 L22.3111,30.0583 C22.3111,29.7273 22.5801,29.4583 22.9111,29.4583 C23.2421,29.4583 23.5111,29.7273 23.5111,30.0583 L23.5111,37.3853 C23.5111,37.7163 23.2421,37.9853 22.9111,37.9853" id="Fill-45" fill="#0C1423"></path>
                <path d="M22.9111,21.5615 C21.5661,21.5615 20.4721,22.6555 20.4721,24.0005 C20.4721,24.5115 20.6371,25.0075 20.9481,25.4345 C21.1021,25.6445 21.1021,25.9315 20.9481,26.1425 C20.6371,26.5685 20.4721,27.0635 20.4721,27.5755 C20.4721,28.9205 21.5661,30.0145 22.9111,30.0145 C24.2571,30.0145 25.3511,28.9205 25.3511,27.5755 C25.3511,27.0635 25.1861,26.5685 24.8751,26.1425 C24.7211,25.9315 24.7211,25.6445 24.8751,25.4345 C25.1861,25.0075 25.3511,24.5115 25.3511,24.0005 C25.3511,22.6555 24.2571,21.5615 22.9111,21.5615 M22.9111,31.2145 C20.9041,31.2145 19.2721,29.5825 19.2721,27.5755 C19.2721,26.9465 19.4361,26.3365 19.7501,25.7885 C19.4361,25.2395 19.2721,24.6285 19.2721,24.0005 C19.2721,21.9945 20.9041,20.3615 22.9111,20.3615 C24.9181,20.3615 26.5511,21.9945 26.5511,24.0005 C26.5511,24.6285 26.3871,25.2395 26.0731,25.7885 C26.3871,26.3365 26.5511,26.9465 26.5511,27.5755 C26.5511,29.5825 24.9181,31.2145 22.9111,31.2145" id="Fill-47" fill="#0C1423"></path>
                <path d="M31.1748,37.9853 C30.8438,37.9853 30.5748,37.7163 30.5748,37.3853 L30.5748,30.0583 C30.5748,29.7273 30.8438,29.4583 31.1748,29.4583 C31.5058,29.4583 31.7748,29.7273 31.7748,30.0583 L31.7748,37.3853 C31.7748,37.7163 31.5058,37.9853 31.1748,37.9853" id="Fill-49" fill="#0C1423"></path>
                <path d="M31.1748,21.5615 C29.8298,21.5615 28.7358,22.6555 28.7358,24.0005 C28.7358,24.5125 28.9008,25.0085 29.2118,25.4335 C29.3658,25.6445 29.3658,25.9315 29.2118,26.1425 C28.9008,26.5675 28.7358,27.0625 28.7358,27.5755 C28.7358,28.9205 29.8298,30.0145 31.1748,30.0145 C32.5198,30.0145 33.6138,28.9205 33.6138,27.5755 C33.6138,27.0625 33.4488,26.5675 33.1378,26.1425 C32.9838,25.9315 32.9838,25.6445 33.1378,25.4335 C33.4488,25.0085 33.6138,24.5125 33.6138,24.0005 C33.6138,22.6555 32.5198,21.5615 31.1748,21.5615 M31.1748,31.2145 C29.1678,31.2145 27.5358,29.5825 27.5358,27.5755 C27.5358,26.9455 27.6988,26.3355 28.0128,25.7885 C27.6988,25.2405 27.5358,24.6295 27.5358,24.0005 C27.5358,21.9945 29.1678,20.3615 31.1748,20.3615 C33.1818,20.3615 34.8138,21.9945 34.8138,24.0005 C34.8138,24.6295 34.6508,25.2405 34.3368,25.7885 C34.6508,26.3355 34.8138,26.9455 34.8138,27.5755 C34.8138,29.5825 33.1818,31.2145 31.1748,31.2145" id="Fill-51" fill="#0C1423"></path>
                <path d="M39.4385,37.9853 C39.1075,37.9853 38.8385,37.7163 38.8385,37.3853 L38.8385,30.0583 C38.8385,29.7273 39.1075,29.4583 39.4385,29.4583 C39.7695,29.4583 40.0385,29.7273 40.0385,30.0583 L40.0385,37.3853 C40.0385,37.7163 39.7695,37.9853 39.4385,37.9853" id="Fill-53" fill="#0C1423"></path>
                <path d="M39.4385,21.5615 C38.0935,21.5615 36.9995,22.6555 36.9995,24.0005 C36.9995,24.5125 37.1645,25.0085 37.4755,25.4335 C37.6295,25.6445 37.6295,25.9315 37.4755,26.1425 C37.1645,26.5675 36.9995,27.0625 36.9995,27.5755 C36.9995,28.9205 38.0935,30.0145 39.4385,30.0145 C40.7835,30.0145 41.8775,28.9205 41.8775,27.5755 C41.8775,27.0635 41.7125,26.5685 41.4015,26.1425 C41.2475,25.9315 41.2475,25.6445 41.4015,25.4345 C41.7125,25.0075 41.8775,24.5115 41.8775,24.0005 C41.8775,22.6555 40.7835,21.5615 39.4385,21.5615 M39.4385,31.2145 C37.4315,31.2145 35.7995,29.5825 35.7995,27.5755 C35.7995,26.9455 35.9625,26.3355 36.2765,25.7885 C35.9625,25.2405 35.7995,24.6295 35.7995,24.0005 C35.7995,21.9945 37.4315,20.3615 39.4385,20.3615 C41.4455,20.3615 43.0775,21.9945 43.0775,24.0005 C43.0775,24.6285 42.9135,25.2395 42.5995,25.7885 C42.9135,26.3365 43.0775,26.9465 43.0775,27.5755 C43.0775,29.5825 41.4455,31.2145 39.4385,31.2145" id="Fill-55" fill="#0C1423"></path>
                <path d="M6.2217,43.7095 C4.1707,43.7095 2.5027,42.0415 2.5027,39.9905 C2.5027,39.6585 2.7717,39.3905 3.1027,39.3905 C3.4337,39.3905 3.7017,39.6585 3.7017,39.9905 C3.7017,41.3795 4.8327,42.5095 6.2217,42.5095 C7.6107,42.5095 8.7417,41.3795 8.7417,39.9905 C8.7417,39.6585 9.0097,39.3905 9.3407,39.3905 C9.6717,39.3905 9.9407,39.6585 9.9407,39.9905 C9.9407,42.0415 8.2727,43.7095 6.2217,43.7095" id="Fill-57" fill="#0C1423"></path>
                <path d="M12.46,43.7095 C10.409,43.7095 8.741,42.0415 8.741,39.9905 C8.741,39.6585 9.01,39.3905 9.341,39.3905 C9.672,39.3905 9.94,39.6585 9.94,39.9905 C9.94,41.3795 11.071,42.5095 12.46,42.5095 C13.849,42.5095 14.98,41.3795 14.98,39.9905 C14.98,39.6585 15.248,39.3905 15.579,39.3905 C15.91,39.3905 16.179,39.6585 16.179,39.9905 C16.179,42.0415 14.511,43.7095 12.46,43.7095" id="Fill-59" fill="#0C1423"></path>
                <path d="M18.6982,43.7095 C16.6472,43.7095 14.9792,42.0415 14.9792,39.9905 C14.9792,39.6585 15.2482,39.3905 15.5792,39.3905 C15.9102,39.3905 16.1782,39.6585 16.1782,39.9905 C16.1782,41.3795 17.3092,42.5095 18.6982,42.5095 C20.0872,42.5095 21.2182,41.3795 21.2182,39.9905 C21.2182,39.6585 21.4862,39.3905 21.8172,39.3905 C22.1482,39.3905 22.4172,39.6585 22.4172,39.9905 C22.4172,42.0415 20.7492,43.7095 18.6982,43.7095" id="Fill-61" fill="#0C1423"></path>
                <path d="M24.9365,43.7095 C22.8855,43.7095 21.2175,42.0415 21.2175,39.9905 C21.2175,39.6585 21.4865,39.3905 21.8175,39.3905 C22.1485,39.3905 22.4165,39.6585 22.4165,39.9905 C22.4165,41.3795 23.5475,42.5095 24.9365,42.5095 C26.3255,42.5095 27.4565,41.3795 27.4565,39.9905 C27.4565,39.6585 27.7245,39.3905 28.0555,39.3905 C28.3865,39.3905 28.6555,39.6585 28.6555,39.9905 C28.6555,42.0415 26.9875,43.7095 24.9365,43.7095" id="Fill-63" fill="#0C1423"></path>
                <path d="M31.1748,43.7095 C29.1238,43.7095 27.4558,42.0415 27.4558,39.9905 C27.4558,39.6585 27.7248,39.3905 28.0558,39.3905 C28.3868,39.3905 28.6548,39.6585 28.6548,39.9905 C28.6548,41.3795 29.7858,42.5095 31.1748,42.5095 C32.5638,42.5095 33.6948,41.3795 33.6948,39.9905 C33.6948,39.6585 33.9628,39.3905 34.2938,39.3905 C34.6248,39.3905 34.8938,39.6585 34.8938,39.9905 C34.8938,42.0415 33.2258,43.7095 31.1748,43.7095" id="Fill-65" fill="#0C1423"></path>
                <path d="M37.4131,43.7095 C35.3621,43.7095 33.6941,42.0415 33.6941,39.9905 C33.6941,39.6585 33.9631,39.3905 34.2941,39.3905 C34.6251,39.3905 34.8931,39.6585 34.8931,39.9905 C34.8931,41.3795 36.0241,42.5095 37.4131,42.5095 C38.8021,42.5095 39.9331,41.3795 39.9331,39.9905 C39.9331,39.6585 40.2011,39.3905 40.5321,39.3905 C40.8631,39.3905 41.1321,39.6585 41.1321,39.9905 C41.1321,42.0415 39.4641,43.7095 37.4131,43.7095" id="Fill-67" fill="#0C1423"></path>
                <path d="M43.6514,43.7095 C41.6004,43.7095 39.9324,42.0415 39.9324,39.9905 C39.9324,39.6585 40.2014,39.3905 40.5324,39.3905 C40.8634,39.3905 41.1314,39.6585 41.1314,39.9905 C41.1314,41.3795 42.2624,42.5095 43.6514,42.5095 C45.0404,42.5095 46.1714,41.3795 46.1714,39.9905 C46.1714,39.6585 46.4394,39.3905 46.7704,39.3905 C47.1014,39.3905 47.3704,39.6585 47.3704,39.9905 C47.3704,42.0415 45.7024,43.7095 43.6514,43.7095" id="Fill-69" fill="#0C1423"></path>
                <path d="M49.8896,43.7095 C47.8386,43.7095 46.1706,42.0415 46.1706,39.9905 C46.1706,39.6585 46.4396,39.3905 46.7706,39.3905 C47.1016,39.3905 47.3696,39.6585 47.3696,39.9905 C47.3696,41.3795 48.5006,42.5095 49.8896,42.5095 C51.2786,42.5095 52.4096,41.3795 52.4096,39.9905 C52.4096,39.6585 52.6776,39.3905 53.0086,39.3905 C53.3396,39.3905 53.6086,39.6585 53.6086,39.9905 C53.6086,42.0415 51.9406,43.7095 49.8896,43.7095" id="Fill-71" fill="#0C1423"></path>
                <path d="M56.1279,43.7095 C54.0769,43.7095 52.4089,42.0415 52.4089,39.9905 C52.4089,39.6585 52.6779,39.3905 53.0089,39.3905 C53.3399,39.3905 53.6079,39.6585 53.6079,39.9905 C53.6079,41.3795 54.7389,42.5095 56.1279,42.5095 C57.5179,42.5095 58.6489,41.3795 58.6489,39.9905 C58.6489,39.6585 58.9169,39.3905 59.2479,39.3905 C59.5789,39.3905 59.8479,39.6585 59.8479,39.9905 C59.8479,42.0415 58.1799,43.7095 56.1279,43.7095" id="Fill-73" fill="#0C1423"></path>
                <path d="M9.3408,49.4331 C7.2898,49.4331 5.6218,47.7651 5.6218,45.7141 C5.6218,45.3821 5.8908,45.1141 6.2218,45.1141 C6.5528,45.1141 6.8208,45.3821 6.8208,45.7141 C6.8208,47.1031 7.9518,48.2331 9.3408,48.2331 C10.7298,48.2331 11.8608,47.1031 11.8608,45.7141 C11.8608,45.3821 12.1288,45.1141 12.4598,45.1141 C12.7908,45.1141 13.0598,45.3821 13.0598,45.7141 C13.0598,47.7651 11.3918,49.4331 9.3408,49.4331" id="Fill-75" fill="#0C1423"></path>
                <path d="M15.5791,49.4331 C13.5281,49.4331 11.8601,47.7651 11.8601,45.7141 C11.8601,45.3821 12.1291,45.1141 12.4601,45.1141 C12.7911,45.1141 13.0591,45.3821 13.0591,45.7141 C13.0591,47.1031 14.1901,48.2331 15.5791,48.2331 C16.9681,48.2331 18.0991,47.1031 18.0991,45.7141 C18.0991,45.3821 18.3671,45.1141 18.6981,45.1141 C19.0291,45.1141 19.2981,45.3821 19.2981,45.7141 C19.2981,47.7651 17.6301,49.4331 15.5791,49.4331" id="Fill-77" fill="#0C1423"></path>
                <path d="M21.8174,49.4331 C19.7664,49.4331 18.0984,47.7651 18.0984,45.7141 C18.0984,45.3821 18.3674,45.1141 18.6984,45.1141 C19.0294,45.1141 19.2974,45.3821 19.2974,45.7141 C19.2974,47.1031 20.4284,48.2331 21.8174,48.2331 C23.2064,48.2331 24.3374,47.1031 24.3374,45.7141 C24.3374,45.3821 24.6054,45.1141 24.9364,45.1141 C25.2674,45.1141 25.5364,45.3821 25.5364,45.7141 C25.5364,47.7651 23.8684,49.4331 21.8174,49.4331" id="Fill-79" fill="#0C1423"></path>
                <path d="M28.0557,49.4331 C26.0047,49.4331 24.3367,47.7651 24.3367,45.7141 C24.3367,45.3821 24.6057,45.1141 24.9367,45.1141 C25.2677,45.1141 25.5357,45.3821 25.5357,45.7141 C25.5357,47.1031 26.6667,48.2331 28.0557,48.2331 C29.4447,48.2331 30.5757,47.1031 30.5757,45.7141 C30.5757,45.3821 30.8437,45.1141 31.1747,45.1141 C31.5057,45.1141 31.7747,45.3821 31.7747,45.7141 C31.7747,47.7651 30.1067,49.4331 28.0557,49.4331" id="Fill-81" fill="#0C1423"></path>
                <path d="M34.2939,49.4331 C32.2429,49.4331 30.5749,47.7651 30.5749,45.7141 C30.5749,45.3821 30.8439,45.1141 31.1749,45.1141 C31.5059,45.1141 31.7739,45.3821 31.7739,45.7141 C31.7739,47.1031 32.9049,48.2331 34.2939,48.2331 C35.6829,48.2331 36.8139,47.1031 36.8139,45.7141 C36.8139,45.3821 37.0819,45.1141 37.4129,45.1141 C37.7439,45.1141 38.0129,45.3821 38.0129,45.7141 C38.0129,47.7651 36.3449,49.4331 34.2939,49.4331" id="Fill-83" fill="#0C1423"></path>
                <path d="M40.5322,49.4331 C38.4812,49.4331 36.8132,47.7651 36.8132,45.7141 C36.8132,45.3821 37.0822,45.1141 37.4132,45.1141 C37.7442,45.1141 38.0122,45.3821 38.0122,45.7141 C38.0122,47.1031 39.1432,48.2331 40.5322,48.2331 C41.9212,48.2331 43.0522,47.1031 43.0522,45.7141 C43.0522,45.3821 43.3202,45.1141 43.6512,45.1141 C43.9822,45.1141 44.2512,45.3821 44.2512,45.7141 C44.2512,47.7651 42.5832,49.4331 40.5322,49.4331" id="Fill-85" fill="#0C1423"></path>
                <path d="M46.7705,49.4331 C44.7195,49.4331 43.0515,47.7651 43.0515,45.7141 C43.0515,45.3821 43.3205,45.1141 43.6515,45.1141 C43.9825,45.1141 44.2505,45.3821 44.2505,45.7141 C44.2505,47.1031 45.3815,48.2331 46.7705,48.2331 C48.1595,48.2331 49.2905,47.1031 49.2905,45.7141 C49.2905,45.3821 49.5585,45.1141 49.8895,45.1141 C50.2205,45.1141 50.4895,45.3821 50.4895,45.7141 C50.4895,47.7651 48.8215,49.4331 46.7705,49.4331" id="Fill-87" fill="#0C1423"></path>
                <path d="M53.0088,49.4331 C50.9578,49.4331 49.2898,47.7651 49.2898,45.7141 C49.2898,45.3821 49.5588,45.1141 49.8898,45.1141 C50.2208,45.1141 50.4888,45.3821 50.4888,45.7141 C50.4888,47.1031 51.6198,48.2331 53.0088,48.2331 C54.3978,48.2331 55.5288,47.1031 55.5288,45.7141 C55.5288,45.3821 55.7968,45.1141 56.1278,45.1141 C56.4588,45.1141 56.7278,45.3821 56.7278,45.7141 C56.7278,47.7651 55.0598,49.4331 53.0088,49.4331" id="Fill-89" fill="#0C1423"></path>
                <path d="M17.1836,19.3374 C17.0556,19.3374 16.9276,19.2964 16.8186,19.2134 C16.5556,19.0124 16.5056,18.6354 16.7066,18.3724 C23.3846,9.6574 30.6396,0.2334 30.6396,0.2334 C30.8666,-0.0606 31.3646,-0.0606 31.5906,0.2334 C31.5906,0.2334 38.8456,9.6574 45.5246,18.3724 C45.7256,18.6354 45.6756,19.0124 45.4126,19.2134 C45.1516,19.4144 44.7746,19.3664 44.5716,19.1024 C38.9096,11.7124 32.8316,3.8144 31.1156,1.5834 C29.3986,3.8144 23.3216,11.7124 17.6606,19.1024 C17.5416,19.2564 17.3636,19.3374 17.1836,19.3374" id="Fill-91" fill="#0C1423"></path>
                <path d="M57.4424,19.3374 C57.2624,19.3374 57.0844,19.2564 56.9654,19.1024 C51.3044,11.7124 45.2274,3.8154 43.5104,1.5844 L37.7884,9.0244 C37.5864,9.2884 37.2084,9.3364 36.9474,9.1344 C36.6844,8.9324 36.6344,8.5554 36.8374,8.2934 L43.0354,0.2334 C43.2634,-0.0606 43.7594,-0.0606 43.9864,0.2334 C43.9864,0.2334 51.2414,9.6574 57.9194,18.3724 C58.1204,18.6354 58.0704,19.0124 57.8074,19.2134 C57.6984,19.2964 57.5704,19.3374 57.4424,19.3374" id="Fill-93" fill="#0C1423"></path>
                <path d="M4.9072,19.3374 C4.7792,19.3374 4.6512,19.2964 4.5422,19.2134 C4.2792,19.0124 4.2292,18.6354 4.4302,18.3724 C11.1082,9.6574 18.3642,0.2334 18.3642,0.2334 C18.4782,0.0864 18.6532,0.0004 18.8402,0.0004 C19.0262,0.0004 19.2022,0.0864 19.3152,0.2334 L25.5122,8.2934 C25.7152,8.5554 25.6652,8.9324 25.4022,9.1344 C25.1422,9.3374 24.7632,9.2884 24.5612,9.0244 L18.8402,1.5844 C17.1222,3.8154 11.0452,11.7124 5.3842,19.1024 C5.2652,19.2564 5.0872,19.3374 4.9072,19.3374" id="Fill-95" fill="#0C1423"></path>
                <path d="M34.2666,13.0747 C34.0766,13.0747 33.8976,12.9847 33.7846,12.8307 L31.1746,9.2997 L28.5656,12.8307 C28.3386,13.1377 27.8276,13.1377 27.6006,12.8307 L24.5546,8.7087 C24.3576,8.4427 24.4136,8.0667 24.6806,7.8697 C24.9466,7.6717 25.3226,7.7287 25.5196,7.9957 L28.0826,11.4647 L30.6466,7.9957 C30.7596,7.8427 30.9386,7.7527 31.1286,7.7527 C31.3196,7.7527 31.5896,7.8427 31.7036,7.9957 L34.2666,11.4647 L36.8296,7.9957 C37.0266,7.7297 37.4036,7.6727 37.6686,7.8697 C37.9356,8.0667 37.9926,8.4427 37.7946,8.7087 L34.7486,12.8307 C34.6356,12.9847 34.4566,13.0747 34.2666,13.0747" id="Fill-97" fill="#0C1423"></path>
                <path d="M46.5469,13.0747 L46.5469,13.0747 C46.3569,13.0747 46.1779,12.9847 46.0649,12.8307 L43.4549,9.3007 L40.8459,12.8307 C40.7329,12.9847 40.5539,13.0747 40.3629,13.0747 C40.1729,13.0747 39.9939,12.9847 39.8809,12.8307 L36.8349,8.7087 C36.6379,8.4427 36.6939,8.0667 36.9609,7.8697 C37.2269,7.6717 37.6039,7.7287 37.7999,7.9957 L40.3629,11.4657 L42.9279,7.9957 C43.0409,7.8427 43.2199,7.7527 43.4099,7.7527 C43.6009,7.7527 43.8699,7.8427 43.9839,7.9957 L46.5469,11.4657 L49.1109,7.9957 C49.3089,7.7297 49.6849,7.6727 49.9499,7.8697 C50.2169,8.0667 50.2739,8.4427 50.0759,8.7087 L47.0289,12.8307 C46.9159,12.9847 46.7369,13.0747 46.5469,13.0747" id="Fill-99" fill="#0C1423"></path>
                <path d="M21.9912,13.0747 C21.8012,13.0747 21.6222,12.9847 21.5092,12.8307 L18.8992,9.3007 L16.2902,12.8307 C16.0632,13.1377 15.5522,13.1377 15.3252,12.8307 L12.2782,8.7087 C12.0812,8.4427 12.1372,8.0667 12.4042,7.8697 C12.6712,7.6717 13.0462,7.7287 13.2432,7.9957 L15.8072,11.4657 L18.3712,7.9957 C18.4842,7.8427 18.6632,7.7527 18.8532,7.7527 C19.0442,7.7527 19.3132,7.8427 19.4272,7.9957 L21.9912,11.4657 L24.5542,7.9957 C24.7512,7.7297 25.1282,7.6727 25.3932,7.8697 C25.6602,8.0667 25.7172,8.4427 25.5192,8.7087 L22.4732,12.8307 C22.3602,12.9847 22.1812,13.0747 21.9912,13.0747" id="Fill-101" fill="#0C1423"></path>
            </g>
        </g>
    </g>
</svg>