<svg width="110" height="110" viewBox="0 0 110 110" fill="none" xmlns="http://www.w3.org/2000/svg">
<g id="i-min">
<rect width="110" height="110" fill="white"/>
<g id="Group 18">
<path id="Fill 1" fill-rule="evenodd" clip-rule="evenodd" d="M82.7949 69.188L82.7889 67.112H82.7759C82.6289 54.5 73.7999 43.985 61.9939 41.262L62.3339 37.732C60.2569 37.222 58.0969 36.924 55.8609 36.93C53.6259 36.935 51.4679 37.244 49.3939 37.764L49.7509 41.291C37.9579 44.073 29.1809 54.631 29.0949 67.244H29.0819L29.0869 69.32L26.5919 69.326L26.6069 75.875L85.3059 75.731L85.2889 69.182L82.7949 69.188Z" fill="#FF483C"/>
<path id="Fill 4" fill-rule="evenodd" clip-rule="evenodd" d="M27.0947 67.5205C26.7637 67.5205 26.4947 67.2515 26.4947 66.9205V64.8445C26.4947 64.7995 26.4997 64.7555 26.5087 64.7145C26.6817 52.0585 35.3757 41.2305 47.6907 38.3575C48.0097 38.2845 48.3357 38.4825 48.4107 38.8065C48.4867 39.1285 48.2857 39.4515 47.9637 39.5265C36.1497 42.2825 27.8197 52.6955 27.7067 64.8495C27.7067 64.8905 27.7027 64.9295 27.6947 64.9675V66.9205C27.6947 67.2515 27.4257 67.5205 27.0947 67.5205" fill="#303030"/>
<path id="Fill 6" fill-rule="evenodd" clip-rule="evenodd" d="M80.8027 67.5205C80.4717 67.5205 80.2027 67.2515 80.2027 66.9205V64.9655C80.1947 64.9275 80.1907 64.8895 80.1907 64.8495C80.0767 52.6905 71.7427 42.2765 59.9237 39.5245C59.6007 39.4495 59.4007 39.1265 59.4757 38.8035C59.5507 38.4805 59.8767 38.2805 60.1957 38.3555C72.5177 41.2255 81.2167 52.0545 81.3887 64.7165C81.3977 64.7575 81.4027 64.8005 81.4027 64.8445V66.9205C81.4027 67.2515 81.1337 67.5205 80.8027 67.5205" fill="#303030"/>
<g id="Group 10">
<path id="Fill 8" fill-rule="evenodd" clip-rule="evenodd" d="M83.2979 74.0698H24.5999C24.2689 74.0698 23.9999 73.8008 23.9999 73.4698V66.9208C23.9999 66.5888 24.2689 66.3198 24.5999 66.3198H47.3309C47.6619 66.3198 47.9309 66.5888 47.9309 66.9208C47.9309 67.2518 47.6619 67.5208 47.3309 67.5208H25.1989V72.8698H82.6979V67.5208H60.5669C60.2359 67.5208 59.9669 67.2518 59.9669 66.9208C59.9669 66.5888 60.2359 66.3198 60.5669 66.3198H83.2979C83.6289 66.3198 83.8979 66.5888 83.8979 66.9208V73.4698C83.8979 73.8008 83.6289 74.0698 83.2979 74.0698" fill="#303030"/>
</g>
<path id="Fill 11" fill-rule="evenodd" clip-rule="evenodd" d="M53.9482 54.1025C49.6772 54.1025 46.2022 57.5775 46.2022 61.8485C46.2022 66.1205 49.6772 69.5955 53.9482 69.5955C58.2192 69.5955 61.6952 66.1205 61.6952 61.8485C61.6952 57.5775 58.2192 54.1025 53.9482 54.1025M53.9482 70.7955C49.0152 70.7955 45.0032 66.7815 45.0032 61.8485C45.0032 56.9155 49.0152 52.9025 53.9482 52.9025C58.8822 52.9025 62.8942 56.9155 62.8942 61.8485C62.8942 66.7815 58.8822 70.7955 53.9482 70.7955" fill="#303030"/>
<path id="Fill 13" fill-rule="evenodd" clip-rule="evenodd" d="M53.9482 58.2759C51.9782 58.2759 50.3752 59.8789 50.3752 61.8489C50.3752 63.8189 51.9782 65.4219 53.9482 65.4219C55.9192 65.4219 57.5222 63.8189 57.5222 61.8489C57.5222 59.8789 55.9192 58.2759 53.9482 58.2759M53.9482 66.6219C51.3162 66.6219 49.1762 64.4809 49.1762 61.8489C49.1762 59.2169 51.3162 57.0759 53.9482 57.0759C56.5802 57.0759 58.7212 59.2169 58.7212 61.8489C58.7212 64.4809 56.5802 66.6219 53.9482 66.6219" fill="#303030"/>
<g id="Group 17">
<mask id="mask0" mask-type="alpha" maskUnits="userSpaceOnUse" x="46" y="33" width="16" height="17">
<path id="Clip 16" fill-rule="evenodd" clip-rule="evenodd" d="M61.0185 33.9998H46.8787L46.8787 49.0218H61.0185V33.9998V33.9998Z" fill="white"/>
</mask>
<g mask="url(#mask0)">
<path id="Fill 15" fill-rule="evenodd" clip-rule="evenodd" d="M49.3066 47.8218H58.5896L59.7706 35.8768C55.8256 34.9728 52.0646 34.9728 48.1266 35.8768L49.3066 47.8218ZM59.1336 49.0218H48.7626C48.4536 49.0218 48.1966 48.7878 48.1656 48.4808L46.8816 35.4738C46.8526 35.1768 47.0446 34.9038 47.3336 34.8318C51.8016 33.7228 56.0916 33.7218 60.5636 34.8318C60.8526 34.9038 61.0446 35.1768 61.0156 35.4738L59.7306 48.4808C59.7006 48.7878 59.4426 49.0218 59.1336 49.0218V49.0218Z" fill="#303030"/>
</g>
</g>
</g>
</g>
</svg>
