<svg width="110" height="110" viewBox="0 0 110 110" fill="none" xmlns="http://www.w3.org/2000/svg">
<g id="i-tra">
<rect width="110" height="110" fill="white"/>
<g id="Group 4">
<g id="Group 3">
<path id="Fill 1" fill-rule="evenodd" clip-rule="evenodd" d="M64.2256 42.6499C64.2256 38.3769 60.7606 34.9129 56.4886 34.9129C52.2146 34.9129 48.7496 38.3769 48.7496 42.6499H30.4746V77.1539H82.5016V42.6499H64.2256Z" fill="#FF483C"/>
</g>
<path id="Fill 4" fill-rule="evenodd" clip-rule="evenodd" d="M28.199 74.2408H79.026V40.9378H28.199V74.2408ZM79.626 75.4418H27.6C27.269 75.4418 27 75.1728 27 74.8418V40.3378C27 40.0068 27.269 39.7378 27.6 39.7378H79.626C79.957 39.7378 80.226 40.0068 80.226 40.3378V74.8418C80.226 75.1728 79.957 75.4418 79.626 75.4418V75.4418Z" fill="#232323"/>
<path id="Fill 6" fill-rule="evenodd" clip-rule="evenodd" d="M61.9502 40.3379H60.7512C60.7512 36.4019 57.5492 33.1999 53.6122 33.1999C49.6772 33.1999 46.4742 36.4019 46.4742 40.3379H45.2752C45.2752 35.7399 49.0142 31.9999 53.6122 31.9999C58.2102 31.9999 61.9502 35.7399 61.9502 40.3379" fill="#232323"/>
<path id="Fill 7" fill-rule="evenodd" clip-rule="evenodd" d="M27.6 55.2678H79.626V54.0678H27.6V55.2678Z" fill="#232323"/>
<path id="Fill 8" fill-rule="evenodd" clip-rule="evenodd" d="M39.902 57.5678H43.578V52.3928H39.902V57.5678ZM44.178 58.7678H39.303C38.972 58.7678 38.703 58.4988 38.703 58.1678V51.7928C38.703 51.4608 38.972 51.1928 39.303 51.1928H44.178C44.509 51.1928 44.777 51.4608 44.777 51.7928V58.1678C44.777 58.4988 44.509 58.7678 44.178 58.7678V58.7678Z" fill="#232323"/>
<path id="Fill 9" fill-rule="evenodd" clip-rule="evenodd" d="M63.647 57.5678H67.323V52.3928H63.647V57.5678ZM67.923 58.7678H63.048C62.717 58.7678 62.448 58.4988 62.448 58.1678V51.7928C62.448 51.4608 62.717 51.1928 63.048 51.1928H67.923C68.254 51.1928 68.522 51.4608 68.522 51.7928V58.1678C68.522 58.4988 68.254 58.7678 67.923 58.7678V58.7678Z" fill="#232323"/>
</g>
</g>
</svg>
