<?xml version="1.0" encoding="UTF-8" standalone="no"?>
<svg width="192px" height="22px" viewBox="0 0 192 22" version="1.1" xmlns="http://www.w3.org/2000/svg" xmlns:xlink="http://www.w3.org/1999/xlink">
    <!-- Generator: Sketch 41.2 (35397) - http://www.bohemiancoding.com/sketch -->
    <title>logo-ddah</title>
    <desc>Created with Sketch.</desc>
    <defs>
        <polygon id="path-1" points="0 21.4564059 191.463051 21.4564059 191.463051 -6.47058823e-05 0 -6.47058823e-05"></polygon>
        <polygon id="path-3" points="0 21.4564059 191.463051 21.4564059 191.463051 -6.47058823e-05 0 -6.47058823e-05"></polygon>
        <polygon id="path-5" points="0 21.4564059 191.463051 21.4564059 191.463051 -6.47058823e-05 0 -6.47058823e-05"></polygon>
        <polygon id="path-7" points="0 21.4564059 191.463051 21.4564059 191.463051 -6.47058823e-05 0 -6.47058823e-05"></polygon>
        <polygon id="path-9" points="0 21.4564059 191.463051 21.4564059 191.463051 -6.47058823e-05 0 -6.47058823e-05"></polygon>
        <polygon id="path-11" points="0 21.4564059 191.463051 21.4564059 191.463051 -6.47058823e-05 0 -6.47058823e-05"></polygon>
        <polygon id="path-13" points="0 21.4564059 191.463051 21.4564059 191.463051 -6.47058823e-05 0 -6.47058823e-05"></polygon>
        <polygon id="path-15" points="0 21.4564059 191.463051 21.4564059 191.463051 -6.47058823e-05 0 -6.47058823e-05"></polygon>
        <polygon id="path-17" points="0 21.4564059 191.463051 21.4564059 191.463051 -6.47058823e-05 0 -6.47058823e-05"></polygon>
        <polygon id="path-19" points="0 21.4564059 191.463051 21.4564059 191.463051 -6.47058823e-05 0 -6.47058823e-05"></polygon>
        <polygon id="path-21" points="0 21.4564059 191.463051 21.4564059 191.463051 -6.47058823e-05 0 -6.47058823e-05"></polygon>
        <polygon id="path-23" points="0 21.4564059 191.463051 21.4564059 191.463051 -6.47058823e-05 0 -6.47058823e-05"></polygon>
        <polygon id="path-25" points="0 21.4564059 191.463051 21.4564059 191.463051 -6.47058823e-05 0 -6.47058823e-05"></polygon>
        <polygon id="path-27" points="0 21.4564059 191.463051 21.4564059 191.463051 -6.47058823e-05 0 -6.47058823e-05"></polygon>
        <polygon id="path-29" points="0 21.4564059 191.463051 21.4564059 191.463051 -6.47058823e-05 0 -6.47058823e-05"></polygon>
        <polygon id="path-31" points="0 21.4564059 191.463051 21.4564059 191.463051 -6.47058823e-05 0 -6.47058823e-05"></polygon>
        <polygon id="path-33" points="0 21.4564059 191.463051 21.4564059 191.463051 -6.47058823e-05 0 -6.47058823e-05"></polygon>
        <polygon id="path-35" points="0 21.4564059 191.463051 21.4564059 191.463051 -6.47058823e-05 0 -6.47058823e-05"></polygon>
        <polygon id="path-37" points="0 21.4564059 191.463051 21.4564059 191.463051 -6.47058823e-05 0 -6.47058823e-05"></polygon>
        <polygon id="path-39" points="0 21.4564059 191.463051 21.4564059 191.463051 -6.47058823e-05 0 -6.47058823e-05"></polygon>
        <polygon id="path-41" points="0 21.4564059 191.463051 21.4564059 191.463051 -6.47058823e-05 0 -6.47058823e-05"></polygon>
        <polygon id="path-43" points="0 21.4564059 191.463051 21.4564059 191.463051 -6.47058823e-05 0 -6.47058823e-05"></polygon>
        <polygon id="path-45" points="0 21.4564059 191.463051 21.4564059 191.463051 -6.47058823e-05 0 -6.47058823e-05"></polygon>
        <polygon id="path-47" points="0 21.4564059 191.463051 21.4564059 191.463051 -6.47058823e-05 0 -6.47058823e-05"></polygon>
        <polygon id="path-49" points="0 21.4564059 191.463051 21.4564059 191.463051 -6.47058823e-05 0 -6.47058823e-05"></polygon>
    </defs>
    <g id="Welcome" stroke="none" stroke-width="1" fill="none" fill-rule="evenodd">
        <g id="logo-ddah">
            <g id="Page-1-Copy">
                <g id="Welcome">
                    <g id="Page-1-Copy">
                        <path d="M33.2892203,5.28582353 L31.0197152,5.28582353 L31.0197152,18.2328235 L33.1421288,18.2328235 C36.5610305,18.2328235 37.0927729,14.4895882 37.0927729,11.8489412 C37.0927729,9.30082355 36.7074712,5.28582353 33.2892203,5.28582353 Z M33.1421288,20.9886471 L27.8390237,20.9886471 L27.8390237,2.53129412 L33.4070237,2.53129412 C38.7413695,2.53129412 40.3326915,7.27876471 40.3326915,11.7868235 C40.3326915,16.3634706 38.3879593,20.9886471 33.1421288,20.9886471 Z" id="Fill-1" fill="#0F0F28"></path>
                        <g id="Fill-3-Clipped">
                            <mask id="mask-2" fill="white">
                                <use xlink:href="#path-1"></use>
                            </mask>
                            <g id="path-1"></g>
                            <polygon id="Fill-3" fill="#0F0F28" mask="url(#mask-2)" points="43.7226305 20.9879353 46.9013695 20.9879353 46.9013695 2.53122941 43.7226305 2.53122941"></polygon>
                        </g>
                        <g id="Fill-5-Clipped">
                            <mask id="mask-4" fill="white">
                                <use xlink:href="#path-3"></use>
                            </mask>
                            <g id="path-1"></g>
                            <path d="M57.5746169,21.4281294 C52.1784407,21.4281294 50.3528135,16.3008353 50.3528135,11.7584823 C50.3528135,7.48336468 52.6236203,2.09401177 57.6305899,2.09401177 C59.1314441,2.09401177 61.1959322,2.50295294 62.4344949,3.41077647 L61.1959322,5.61012941 C60.2242169,5.02454118 58.7201085,4.81877647 57.6305899,4.81877647 C54.8898712,4.81877647 53.5653966,9.35854121 53.5653966,11.8768941 C53.5653966,14.4890706 54.2722169,18.6748941 57.6891661,18.6748941 C58.8398644,18.6748941 60.2535051,18.2640118 61.2245695,17.5613059 L62.7032949,19.7289529 C61.4029017,20.8140706 59.2817899,21.4281294 57.5746169,21.4281294" id="Fill-5" fill="#0F0F28" mask="url(#mask-4)"></path>
                        </g>
                        <g id="Fill-6-Clipped">
                            <mask id="mask-6" fill="white">
                                <use xlink:href="#path-5"></use>
                            </mask>
                            <g id="path-1"></g>
                            <polygon id="Fill-6" fill="#0F0F28" mask="url(#mask-6)" points="74.21952 20.9883882 74.21952 12.8147412 68.8578386 12.8147412 68.8578386 20.9883882 65.647859 20.9883882 65.647859 2.53168235 68.8578386 2.53168235 68.8578386 9.94374121 74.21952 9.94374121 74.21952 2.53168235 77.4353574 2.53168235 77.4353574 20.9883882"></polygon>
                        </g>
                        <g id="Fill-7-Clipped">
                            <mask id="mask-8" fill="white">
                                <use xlink:href="#path-7"></use>
                            </mask>
                            <g id="path-1"></g>
                            <path d="M87.6871158,4.90477059 C85.0088783,4.90477059 84.3001056,8.88741766 84.3001056,11.7584177 C84.3001056,14.6307118 85.0088783,18.6172412 87.6871158,18.6172412 C90.37056,18.6172412 91.0773804,14.6307118 91.0773804,11.7584177 C91.0773804,8.88741766 90.37056,4.90477059 87.6871158,4.90477059 M87.6871158,21.4280647 C82.8858144,21.4280647 81.0875226,16.0963 81.0875226,11.7584177 C81.0875226,7.42635879 82.9749804,2.09394706 87.6871158,2.09394706 C92.4643362,2.09394706 94.2912647,7.42635879 94.2912647,11.7584177 C94.2912647,16.0963 92.4643362,21.4280647 87.6871158,21.4280647" id="Fill-7" fill="#0F0F28" mask="url(#mask-8)"></path>
                        </g>
                        <g id="Fill-8-Clipped">
                            <mask id="mask-10" fill="white">
                                <use xlink:href="#path-9"></use>
                            </mask>
                            <g id="path-1"></g>
                            <path d="M4.76381288,8.46236468 C2.27301966,8.46236468 1.47312814,11.5255412 1.47312814,13.5029529 C1.47312814,14.7957765 1.91114848,16.0510706 3.42436882,16.0510706 C5.31768407,16.0510706 5.64636203,13.9034823 5.89173152,12.4754235 L6.45080949,9.31712943 C6.06355525,8.78524709 5.39383322,8.46236468 4.76381288,8.46236468 M0.000260338983,13.3877765 C0.000260338983,10.4986588 1.64299932,7.30348235 4.89853831,7.30348235 C5.52855865,7.30348235 6.25425356,7.58883532 6.63825356,8.09871766 C6.79120271,7.28277647 6.94480271,6.42801177 6.94480271,5.61012941 C6.94480271,5.09442353 6.82895186,4.38977647 6.54322983,3.97307059 L7.67245013,3.47742353 C8.13259932,4.12448235 8.36169762,5.09442353 8.36169762,5.87542353 C8.36169762,6.12454118 8.34217217,6.37107059 8.30247047,6.59883529 L7.19212475,13.2933059 C6.84912814,15.3846 5.66523661,17.1931294 3.32934508,17.1931294 C1.05202983,17.1931294 0.000260338983,15.4816588 0.000260338983,13.3877765" id="Fill-8" fill="#FFFFFF" mask="url(#mask-10)"></path>
                        </g>
                        <g id="Fill-9-Clipped">
                            <mask id="mask-12" fill="white">
                                <use xlink:href="#path-11"></use>
                            </mask>
                            <g id="path-1"></g>
                            <path d="M14.1190942,8.44211177 C12.5121518,8.44211177 11.4603824,10.5728765 11.2130603,11.9064647 C12.5518535,11.6204647 15.19104,10.9908765 15.19104,9.26193532 C15.19104,8.63234709 14.674918,8.44211177 14.1190942,8.44211177 M11.0965586,13.0653471 C11.0763824,13.2154647 11.0763824,13.3707588 11.0763824,13.5027588 C11.0763824,14.5302882 11.5573586,16.0508765 12.8206535,16.0508765 C13.7546197,16.0508765 14.8259146,15.3501118 15.4435688,14.6804059 L16.0163146,15.4633471 C15.058918,16.4682294 13.9121248,17.1929353 12.4926265,17.1929353 C10.4086129,17.1929353 9.56511456,15.3501118 9.56511456,13.5441706 C9.56511456,10.7456412 11.2312841,7.30328823 14.4249925,7.30328823 C15.7657383,7.30328823 16.7628366,7.96717057 16.7628366,9.37387645 C16.7628366,11.7712294 12.933901,12.6855235 11.0965586,13.0653471" id="Fill-9" fill="#FFFFFF" mask="url(#mask-12)"></path>
                        </g>
                        <g id="Fill-10-Clipped">
                            <mask id="mask-14" fill="white">
                                <use xlink:href="#path-13"></use>
                            </mask>
                            <g id="path-1"></g>
                            <path d="M19.8998563,13.1617588 C19.8009275,13.7124059 19.7488597,14.2831118 19.7488597,14.8525235 C19.7488597,15.3501118 19.8009275,16.2229941 20.0157071,16.6817588 L18.6580393,17.0790529 C18.4256868,16.4307 18.352141,15.4814647 18.352141,14.8156412 C18.352141,14.2630529 18.3892393,13.7124059 18.4842631,13.1617588 L19.99488,3.70758235 L21.4104732,3.70758235 L19.8998563,13.1617588 Z" id="Fill-10" fill="#FFFFFF" mask="url(#mask-14)"></path>
                        </g>
                        <g id="Fill-11-Clipped">
                            <mask id="mask-16" fill="white">
                                <use xlink:href="#path-15"></use>
                            </mask>
                            <g id="path-1"></g>
                            <path d="M32.2347824,3.1911 L29.9678807,3.1911 L29.9678807,16.1374529 L32.0876908,16.1374529 C35.5065925,16.1374529 36.0402875,12.3935706 36.0402875,9.75551177 C36.0402875,7.20480588 35.6536841,3.1911 32.2347824,3.1911 M32.0876908,18.8926294 L26.7839349,18.8926294 L26.7839349,0.437864706 L32.3551892,0.437864706 C37.6875824,0.437864706 39.2808569,5.18468823 39.2808569,9.69339411 C39.2808569,14.2674529 37.3335214,18.8926294 32.0876908,18.8926294" id="Fill-11" fill="#FFFFFF" mask="url(#mask-16)"></path>
                        </g>
                        <g id="Fill-12-Clipped">
                            <mask id="mask-18" fill="white">
                                <use xlink:href="#path-17"></use>
                            </mask>
                            <g id="path-1"></g>
                            <polygon id="Fill-12" fill="#FFFFFF" mask="url(#mask-18)" points="42.6689085 18.8927588 45.8496 18.8927588 45.8496 0.437994118 42.6689085 0.437994118"></polygon>
                        </g>
                        <g id="Fill-13-Clipped">
                            <mask id="mask-20" fill="white">
                                <use xlink:href="#path-19"></use>
                            </mask>
                            <g id="path-1"></g>
                            <path d="M56.5208299,19.3321765 C51.1240027,19.3321765 49.2990265,14.2055294 49.2990265,9.66511766 C49.2990265,5.38805882 51.5685315,0 56.5787552,0 C58.0776569,0 60.1414942,0.409588235 61.3800569,1.31741177 L60.1414942,3.51417647 C59.1704299,2.92988235 57.6656705,2.72541177 56.5787552,2.72541177 C53.8380366,2.72541177 52.5109586,7.26258823 52.5109586,9.78352943 C52.5109586,12.3931177 53.2184299,16.5789412 56.6366807,16.5789412 C57.7854265,16.5789412 59.1990671,16.1693529 60.1707824,15.4666471 L61.6488569,17.6349412 C60.3510671,18.7200588 58.2280027,19.3321765 56.5208299,19.3321765" id="Fill-13" fill="#FFFFFF" mask="url(#mask-20)"></path>
                        </g>
                        <g id="Fill-14-Clipped">
                            <mask id="mask-22" fill="white">
                                <use xlink:href="#path-21"></use>
                            </mask>
                            <g id="path-1"></g>
                            <polygon id="Fill-14" fill="#FFFFFF" mask="url(#mask-22)" points="73.1657329 18.8923706 73.1657329 10.7206647 67.8060041 10.7206647 67.8060041 18.8923706 64.5940718 18.8923706 64.5940718 0.437605882 67.8060041 0.437605882 67.8060041 7.85031177 73.1657329 7.85031177 73.1657329 0.437605882 76.3815702 0.437605882 76.3815702 18.8923706"></polygon>
                        </g>
                        <g id="Fill-15-Clipped">
                            <mask id="mask-24" fill="white">
                                <use xlink:href="#path-23"></use>
                            </mask>
                            <g id="path-1"></g>
                            <path d="M86.6333286,2.81134118 C83.9550919,2.81134118 83.2476204,6.7914 83.2476204,9.66498823 C83.2476204,12.5366353 83.9550919,16.5205765 86.6333286,16.5205765 C89.3180749,16.5205765 90.0229422,12.5366353 90.0229422,9.66498823 C90.0229422,6.7914 89.3180749,2.81134118 86.6333286,2.81134118 M86.6333286,19.3320471 C81.8339796,19.3320471 80.0337354,14.0022235 80.0337354,9.66498823 C80.0337354,5.33098823 81.9211932,-0.000129411765 86.6333286,-0.000129411765 C91.4098987,-0.000129411765 93.2368272,5.33098823 93.2368272,9.66498823 C93.2368272,14.0022235 91.4098987,19.3320471 86.6333286,19.3320471" id="Fill-15" fill="#FFFFFF" mask="url(#mask-24)"></path>
                        </g>
                        <g id="Fill-16-Clipped">
                            <mask id="mask-26" fill="white">
                                <use xlink:href="#path-25"></use>
                            </mask>
                            <g id="path-1"></g>
                            <path d="M104.707688,8.49866468 C102.415403,8.49866468 101.245831,12.6637823 101.245831,14.4723118 C101.245831,14.9297823 101.288786,15.9171941 101.955254,15.9171941 C103.369546,15.9171941 105.036366,13.5968412 105.247241,12.3227823 C105.437288,11.1043706 105.645559,9.86913532 105.839512,8.63001766 C105.474386,8.53619411 105.093641,8.49866468 104.707688,8.49866468 L104.707688,8.49866468 Z M106.181858,15.5923706 C106.181858,15.6499588 106.166888,15.7075471 106.166888,15.7483118 C106.166888,16.0343118 106.320488,16.2019 106.604908,16.2019 C106.755905,16.2019 106.927729,16.1449588 107.061803,16.0880177 L107.311729,16.8127235 C106.927729,17.0404882 106.485152,17.1718412 106.049735,17.1718412 C105.247241,17.1718412 104.690766,16.5991941 104.690766,15.8059 C104.690766,15.4791353 104.804665,15.1750177 104.843715,14.8501941 C104.292448,15.9929 102.682251,17.1931941 101.380556,17.1931941 C99.9246102,17.1931941 99.6974646,15.7483118 99.6974646,14.6056059 C99.6974646,11.8446059 101.324583,7.29901765 104.690766,7.29901765 C105.588285,7.29901765 106.472786,7.43360589 107.351431,7.60442943 L106.181858,15.5923706 Z" id="Fill-16" fill="#FFFFFF" mask="url(#mask-26)"></path>
                        </g>
                        <g id="Fill-17-Clipped">
                            <mask id="mask-28" fill="white">
                                <use xlink:href="#path-27"></use>
                            </mask>
                            <g id="path-1"></g>
                            <path d="M111.044534,13.1594941 C110.949511,13.7101412 110.889632,14.2789059 110.889632,14.8502588 C110.889632,15.3478471 110.949511,16.2194353 111.158432,16.6769059 L109.798812,17.0780823 C109.571015,16.4303765 109.494866,15.4792 109.494866,14.8133765 C109.494866,14.2627294 109.533917,13.7101412 109.630243,13.1594941 L111.139558,3.70272941 L112.555151,3.70272941 L111.044534,13.1594941 Z" id="Fill-17" fill="#FFFFFF" mask="url(#mask-28)"></path>
                        </g>
                        <g id="Fill-18-Clipped">
                            <mask id="mask-30" fill="white">
                                <use xlink:href="#path-29"></use>
                            </mask>
                            <g id="path-1"></g>
                            <polygon id="Fill-18" fill="#0F0F28" mask="url(#mask-30)" points="127.223561 21.0183471 127.223561 12.8479353 121.86253 12.8479353 121.86253 21.0183471 118.646693 21.0183471 118.646693 2.56552353 121.86253 2.56552353 121.86253 9.97628823 127.223561 9.97628823 127.223561 2.56552353 130.434191 2.56552353 130.434191 21.0183471"></polygon>
                        </g>
                        <g id="Fill-19-Clipped">
                            <mask id="mask-32" fill="white">
                                <use xlink:href="#path-31"></use>
                            </mask>
                            <g id="path-1"></g>
                            <polygon id="Fill-19" fill="#0F0F28" mask="url(#mask-32)" points="134.737529 21.0183471 134.737529 2.56552353 144.756025 2.56552353 144.756025 5.40805294 137.949461 5.40805294 137.949461 9.97628823 143.166004 9.97628823 143.166004 12.8479353 137.949461 12.8479353 137.949461 18.1195235 145.053461 18.1195235 145.053461 21.0183471"></polygon>
                        </g>
                        <g id="Fill-20-Clipped">
                            <mask id="mask-34" fill="white">
                                <use xlink:href="#path-33"></use>
                            </mask>
                            <g id="path-1"></g>
                            <path d="M154.746663,21.4562765 C149.354392,21.4562765 147.529415,16.3335118 147.529415,11.7918059 C147.529415,7.5141 149.795015,2.1241 154.807192,2.1241 C156.307395,2.1241 158.367328,2.53562941 159.608494,3.44151177 L158.367328,5.64021765 C157.396263,5.05398235 155.898012,4.84886471 154.807192,4.84886471 C152.065822,4.84886471 150.739395,9.39057057 150.739395,11.9115118 C150.739395,14.5165706 151.446215,18.7069235 154.86707,18.7069235 C156.011911,18.7069235 157.428155,18.2934529 158.401172,17.5907471 L159.872738,19.7635706 C158.577551,20.8441588 156.456439,21.4562765 154.746663,21.4562765" id="Fill-20" fill="#0F0F28" mask="url(#mask-34)"></path>
                        </g>
                        <g id="Fill-21-Clipped">
                            <mask id="mask-36" fill="white">
                                <use xlink:href="#path-35"></use>
                            </mask>
                            <g id="path-1"></g>
                            <polygon id="Fill-21" fill="#0F0F28" mask="url(#mask-36)" points="171.397945 21.0183471 171.397945 12.8479353 166.034311 12.8479353 166.034311 21.0183471 162.824331 21.0183471 162.824331 2.56552353 166.034311 2.56552353 166.034311 9.97628823 171.397945 9.97628823 171.397945 2.56552353 174.607924 2.56552353 174.607924 21.0183471"></polygon>
                        </g>
                        <g id="Fill-22-Clipped">
                            <mask id="mask-38" fill="white">
                                <use xlink:href="#path-37"></use>
                            </mask>
                            <g id="path-1"></g>
                            <path d="M184.862937,4.93544118 C182.178191,4.93544118 181.477879,8.92391177 181.477879,11.7923235 C181.477879,14.6626765 182.178191,18.6472647 184.862937,18.6472647 C187.546381,18.6472647 188.251249,14.6626765 188.251249,11.7923235 C188.251249,8.92391177 187.546381,4.93544118 184.862937,4.93544118 M184.862937,21.4561471 C180.059683,21.4561471 178.261391,16.1302059 178.261391,11.7923235 C178.261391,7.45832355 180.150802,2.12397059 184.862937,2.12397059 C189.635602,2.12397059 191.463181,7.45832355 191.463181,11.7923235 C191.463181,16.1302059 189.635602,21.4561471 184.862937,21.4561471" id="Fill-22" fill="#0F0F28" mask="url(#mask-38)"></path>
                        </g>
                        <g id="Fill-23-Clipped">
                            <mask id="mask-40" fill="white">
                                <use xlink:href="#path-39"></use>
                            </mask>
                            <g id="path-1"></g>
                            <path d="M190.036718,8.11825879 C190.036718,8.63784709 189.61562,9.05972943 189.094942,9.05972943 C188.57101,9.05972943 188.147959,8.63784709 188.147959,8.11825879 C188.147959,7.60255291 188.57101,7.18131765 189.094942,7.18131765 C189.61562,7.18131765 190.036718,7.60255291 190.036718,8.11825879" id="Fill-23" fill="#FFFFFF" mask="url(#mask-40)"></path>
                        </g>
                        <g id="Fill-24-Clipped">
                            <mask id="mask-42" fill="white">
                                <use xlink:href="#path-41"></use>
                            </mask>
                            <g id="path-1"></g>
                            <polygon id="Fill-24" fill="#FFFFFF" mask="url(#mask-42)" points="126.169774 18.9249177 126.169774 10.7525647 120.808743 10.7525647 120.808743 18.9249177 117.594208 18.9249177 117.594208 0.472094118 120.808743 0.472094118 120.808743 7.88221177 126.169774 7.88221177 126.169774 0.472094118 129.380404 0.472094118 129.380404 18.9249177"></polygon>
                        </g>
                        <g id="Fill-25-Clipped">
                            <mask id="mask-44" fill="white">
                                <use xlink:href="#path-43"></use>
                            </mask>
                            <g id="path-1"></g>
                            <polygon id="Fill-25" fill="#FFFFFF" mask="url(#mask-44)" points="133.683092 18.9249177 133.683092 0.472094118 143.703539 0.472094118 143.703539 3.31397647 136.895024 3.31397647 136.895024 7.88221177 142.112217 7.88221177 142.112217 10.7525647 136.895024 10.7525647 136.895024 16.0235059 143.999024 16.0235059 143.999024 18.9249177"></polygon>
                        </g>
                        <g id="Fill-26-Clipped">
                            <mask id="mask-46" fill="white">
                                <use xlink:href="#path-45"></use>
                            </mask>
                            <g id="path-1"></g>
                            <path d="M153.692811,19.3628471 C148.30054,19.3628471 146.474912,14.2400823 146.474912,9.69772943 C146.474912,5.42002353 148.741163,0.0306705882 153.752689,0.0306705882 C155.252892,0.0306705882 157.315428,0.440905882 158.553991,1.34743529 L157.315428,3.54484706 C156.344363,2.95796471 154.84416,2.75543529 153.752689,2.75543529 C151.01197,2.75543529 149.684892,7.29649412 149.684892,9.81743532 C149.684892,12.4231412 150.391712,16.6128471 153.813218,16.6128471 C154.960011,16.6128471 156.374953,16.2000235 157.348621,15.4947294 L158.818885,17.6688471 C157.522397,18.7481412 155.403889,19.3628471 153.692811,19.3628471" id="Fill-26" fill="#FFFFFF" mask="url(#mask-46)"></path>
                        </g>
                        <g id="Fill-27-Clipped">
                            <mask id="mask-48" fill="white">
                                <use xlink:href="#path-47"></use>
                            </mask>
                            <g id="path-1"></g>
                            <polygon id="Fill-27" fill="#FFFFFF" mask="url(#mask-48)" points="170.346045 18.9249177 170.346045 10.7525647 164.979808 10.7525647 164.979808 18.9249177 161.769828 18.9249177 161.769828 0.472094118 164.979808 0.472094118 164.979808 7.88221177 170.346045 7.88221177 170.346045 0.472094118 173.554072 0.472094118 173.554072 18.9249177"></polygon>
                        </g>
                        <g id="Fill-28-Clipped">
                            <mask id="mask-50" fill="white">
                                <use xlink:href="#path-49"></use>
                            </mask>
                            <g id="path-1"></g>
                            <path d="M183.80915,2.8413 C181.126357,2.8413 180.424092,6.82977059 180.424092,9.69818234 C180.424092,12.5691823 181.126357,16.5531235 183.80915,16.5531235 C186.492594,16.5531235 187.199414,12.5691823 187.199414,9.69818234 C187.199414,6.82977059 186.492594,2.8413 183.80915,2.8413 M183.80915,19.3626529 C179.005895,19.3626529 177.207604,14.0341235 177.207604,9.69818234 C177.207604,5.36224118 179.097014,0.0304764706 183.80915,0.0304764706 C188.583767,0.0304764706 190.411346,5.36224118 190.411346,9.69818234 C190.411346,14.0341235 188.583767,19.3626529 183.80915,19.3626529" id="Fill-28" fill="#FFFFFF" mask="url(#mask-50)"></path>
                        </g>
                    </g>
                </g>
            </g>
        </g>
    </g>
</svg>