<?xml version="1.0" encoding="utf-8"?>
<!-- Generator: Adobe Illustrator 22.1.0, SVG Export Plug-In . SVG Version: 6.00 Build 0)  -->
<svg version="1.1" id="Layer_1" xmlns="http://www.w3.org/2000/svg" xmlns:xlink="http://www.w3.org/1999/xlink" x="0px" y="0px"
	 viewBox="0 0 222 89" style="enable-background:new 0 0 222 89;" xml:space="preserve">
<style type="text/css">
	.st0{fill:#FEFEFE;}
</style>
<title>logo-rectangular-blanco copy</title>
<desc>Created with Sketch.</desc>
<g id="logo-fci">
	<g id="logo-ci" transform="translate(52.000000, 35.000000)">
		<path id="Ciudadanía-Inteligen" class="st0" d="M37.5-23.9c2,0,3.7,0.5,5.1,1.6s2.2,2.5,2.6,4.3h-4.1c-0.3-0.7-0.8-1.3-1.4-1.8
			c-0.6-0.4-1.3-0.6-2.2-0.6c-1.1,0-2,0.4-2.7,1.2s-1,1.9-1,3.3s0.3,2.5,1,3.3c0.7,0.8,1.6,1.2,2.7,1.2c0.9,0,1.6-0.2,2.2-0.6
			c0.6-0.4,1.1-1,1.4-1.7h4.1c-0.4,1.8-1.3,3.3-2.6,4.3c-1.3,1.1-3,1.6-5.1,1.6c-1.6,0-2.9-0.3-4.1-1s-2.1-1.6-2.7-2.9
			c-0.7-1.2-1-2.7-1-4.2s0.3-3,1-4.2c0.7-1.2,1.6-2.2,2.7-2.9C34.6-23.6,36-23.9,37.5-23.9z M47.3-23.9c0-0.6,0.2-1.1,0.6-1.5
			c0.4-0.4,1-0.6,1.7-0.6c0.7,0,1.3,0.2,1.7,0.6c0.4,0.4,0.6,0.9,0.6,1.5c0,0.6-0.2,1.1-0.6,1.4s-1,0.6-1.7,0.6
			c-0.7,0-1.3-0.2-1.7-0.6C47.5-22.9,47.3-23.3,47.3-23.9z M51.5-20.4v12.6h-3.9v-12.6H51.5z M67-20.4v12.6h-3.9V-10
			c-0.4,0.7-0.9,1.3-1.6,1.8C60.8-7.8,60-7.6,59-7.6c-1.4,0-2.6-0.5-3.4-1.4c-0.9-1-1.3-2.3-1.3-4v-7.4h3.8v6.9c0,0.9,0.2,1.5,0.7,2
			c0.4,0.5,1.1,0.7,1.8,0.7c0.8,0,1.4-0.2,1.8-0.7c0.4-0.5,0.7-1.2,0.7-2.1v-6.7H67z M74.8-20.5c1,0,1.8,0.2,2.5,0.7
			c0.7,0.4,1.2,1,1.5,1.8v-6.4h3.9v16.7h-3.9V-10c-0.3,0.7-0.8,1.3-1.5,1.8c-0.7,0.4-1.5,0.7-2.5,0.7c-1,0-2-0.2-2.8-0.8
			c-0.8-0.5-1.5-1.3-2-2.2c-0.5-1-0.7-2.1-0.7-3.4c0-1.3,0.2-2.5,0.7-3.4c0.5-1,1.1-1.7,2-2.2C72.8-20.3,73.7-20.5,74.8-20.5z
			 M76-17.2c-0.8,0-1.5,0.3-2,0.8c-0.5,0.5-0.8,1.3-0.8,2.2c0,1,0.2,1.7,0.8,2.2c0.5,0.5,1.2,0.8,2,0.8c0.8,0,1.5-0.3,2-0.8
			c0.5-0.5,0.8-1.3,0.8-2.2c0-0.9-0.2-1.7-0.8-2.2C77.5-16.9,76.9-17.2,76-17.2z M90.5-20.5c1,0,1.8,0.2,2.5,0.7
			c0.7,0.4,1.2,1,1.6,1.8v-2.3h3.8v12.6h-3.8V-10c-0.3,0.7-0.9,1.3-1.6,1.8c-0.7,0.4-1.5,0.7-2.5,0.7c-1,0-2-0.2-2.8-0.8
			c-0.8-0.5-1.5-1.3-2-2.2c-0.5-1-0.7-2.1-0.7-3.4c0-1.3,0.2-2.5,0.7-3.4c0.5-1,1.1-1.7,2-2.2C88.5-20.3,89.4-20.5,90.5-20.5z
			 M91.7-17.2c-0.8,0-1.5,0.3-2,0.8c-0.5,0.5-0.8,1.3-0.8,2.2c0,1,0.2,1.7,0.8,2.2c0.5,0.5,1.2,0.8,2,0.8c0.8,0,1.5-0.3,2-0.8
			c0.5-0.6,0.8-1.3,0.8-2.2c0-0.9-0.2-1.7-0.8-2.2C93.2-16.9,92.5-17.2,91.7-17.2z M106.1-20.5c1,0,1.8,0.2,2.5,0.7
			c0.7,0.4,1.2,1,1.5,1.8v-6.4h3.9v16.7h-3.9V-10c-0.3,0.7-0.8,1.3-1.5,1.8c-0.7,0.4-1.5,0.7-2.5,0.7c-1,0-2-0.2-2.8-0.8
			c-0.8-0.5-1.5-1.3-2-2.2c-0.5-1-0.7-2.1-0.7-3.4c0-1.3,0.2-2.5,0.7-3.4c0.5-1,1.1-1.7,2-2.2C104.1-20.3,105-20.5,106.1-20.5z
			 M107.3-17.2c-0.8,0-1.5,0.3-2,0.8c-0.5,0.5-0.8,1.3-0.8,2.2c0,1,0.2,1.7,0.8,2.2c0.5,0.5,1.2,0.8,2,0.8c0.8,0,1.5-0.3,2-0.8
			c0.5-0.6,0.8-1.3,0.8-2.2c0-0.9-0.2-1.7-0.8-2.2C108.8-16.9,108.1-17.2,107.3-17.2z M121.7-20.5c1,0,1.8,0.2,2.5,0.7
			c0.7,0.4,1.2,1,1.6,1.8v-2.3h3.8v12.6h-3.8V-10c-0.3,0.7-0.9,1.3-1.6,1.8c-0.7,0.4-1.5,0.7-2.5,0.7c-1,0-2-0.2-2.8-0.8
			c-0.8-0.5-1.5-1.3-2-2.2c-0.5-1-0.7-2.1-0.7-3.4c0-1.3,0.2-2.5,0.7-3.4c0.5-1,1.1-1.7,2-2.2C119.8-20.3,120.7-20.5,121.7-20.5z
			 M122.9-17.2c-0.8,0-1.5,0.3-2,0.8c-0.5,0.5-0.8,1.3-0.8,2.2c0,1,0.2,1.7,0.8,2.2c0.5,0.5,1.2,0.8,2,0.8c0.8,0,1.5-0.3,2-0.8
			c0.5-0.5,0.8-1.3,0.8-2.2c0-0.9-0.2-1.7-0.8-2.2C124.4-16.9,123.8-17.2,122.9-17.2z M140.5-20.5c1.4,0,2.6,0.5,3.4,1.4
			c0.8,0.9,1.3,2.3,1.3,4v7.3h-3.9v-6.8c0-0.9-0.2-1.5-0.7-2c-0.4-0.5-1-0.7-1.8-0.7c-0.8,0-1.4,0.2-1.9,0.7
			c-0.4,0.5-0.7,1.2-0.7,2.1v6.7h-3.9v-12.7h3.9v2.3c0.4-0.7,0.9-1.3,1.6-1.8C138.7-20.3,139.6-20.5,140.5-20.5z M152.4-20.4v12.6
			h-3.9v-12.6H152.4z M153.7-23.6l-5.4,2.3v-2.6l5.4-2.6V-23.6z M160.6-20.5c1,0,1.8,0.2,2.5,0.7c0.7,0.4,1.2,1,1.6,1.8v-2.3h3.8
			v12.6h-3.8V-10c-0.3,0.7-0.9,1.3-1.6,1.8c-0.7,0.4-1.5,0.7-2.5,0.7c-1,0-2-0.2-2.8-0.8c-0.8-0.5-1.5-1.3-2-2.2s-0.7-2.1-0.7-3.4
			c0-1.3,0.2-2.5,0.7-3.4c0.5-1,1.1-1.7,2-2.2C158.7-20.3,159.6-20.5,160.6-20.5z M161.9-17.2c-0.8,0-1.5,0.3-2,0.8
			c-0.5,0.5-0.8,1.3-0.8,2.2c0,1,0.2,1.7,0.8,2.2c0.5,0.5,1.2,0.8,2,0.8s1.5-0.3,2-0.8c0.5-0.5,0.8-1.3,0.8-2.2
			c0-0.9-0.2-1.7-0.8-2.2C163.3-16.9,162.7-17.2,161.9-17.2z M34.1,0.1v16h-3.9v-16C30.2,0.1,34.1,0.1,34.1,0.1z M45.1,3.4
			c1.4,0,2.6,0.5,3.4,1.4c0.9,1,1.3,2.3,1.3,4v7.3h-3.9V9.2c0-0.9-0.2-1.5-0.7-2s-1-0.7-1.8-0.7c-0.8,0-1.4,0.2-1.9,0.7
			c-0.4,0.5-0.7,1.2-0.7,2.1v6.7H37V3.5h3.9v2.3C41.3,5,41.8,4.4,42.5,4S44.1,3.4,45.1,3.4z M59.8,12.8v3.3h-1.8
			c-1.5,0-2.6-0.4-3.4-1.1c-0.8-0.7-1.2-1.9-1.2-3.6V6.7h-1.7V3.5h1.7V0.4h3.9v3.1h2.5v3.3h-2.5v4.7c0,0.5,0.1,0.9,0.3,1
			c0.2,0.2,0.5,0.3,1,0.3L59.8,12.8L59.8,12.8z M74.3,9.4c0,0.3,0,0.7-0.1,1h-8.7c0,0.9,0.3,1.6,0.7,2c0.4,0.4,1,0.6,1.7,0.6
			c0.6,0,1.1-0.2,1.4-0.4c0.4-0.3,0.6-0.7,0.7-1.1h4.1c-0.2,0.9-0.5,1.7-1.1,2.4c-0.6,0.7-1.3,1.3-2.1,1.6C70,16,69,16.2,68,16.2
			c-1.2,0-2.3-0.2-3.3-0.8c-0.9-0.5-1.7-1.3-2.2-2.2c-0.5-1-0.8-2.1-0.8-3.4s0.3-2.5,0.8-3.4c0.5-1,1.3-1.7,2.2-2.2
			c1-0.5,2.1-0.8,3.3-0.8c1.3,0,2.4,0.2,3.3,0.8c0.9,0.5,1.7,1.2,2.2,2.2C74,7.2,74.3,8.3,74.3,9.4z M70.4,8.9
			c0-0.8-0.2-1.4-0.7-1.9c-0.4-0.4-1-0.6-1.7-0.6c-0.7,0-1.3,0.2-1.8,0.6c-0.4,0.4-0.7,1-0.8,1.8L70.4,8.9L70.4,8.9z M80.4-0.6v16.7
			h-3.9V-0.6H80.4z M83.1,0c0-0.6,0.2-1.1,0.6-1.5c0.4-0.4,1-0.6,1.7-0.6s1.3,0.2,1.7,0.6c0.4,0.4,0.6,0.9,0.6,1.5
			c0,0.6-0.2,1.1-0.6,1.4C86.6,1.8,86,2,85.4,2s-1.3-0.2-1.7-0.6C83.3,1,83.1,0.5,83.1,0z M87.3,3.5v12.6h-3.9V3.5H87.3z M95.1,3.4
			c1,0,1.8,0.2,2.5,0.7c0.7,0.4,1.2,1,1.6,1.8V3.5h3.8v12.5c0,1.2-0.2,2.2-0.7,3.2s-1.1,1.7-2.1,2.2c-0.9,0.6-2.1,0.8-3.5,0.8
			c-1.9,0-3.4-0.4-4.5-1.3c-1.1-0.9-1.8-2.1-2-3.6h3.8c0.1,0.5,0.4,0.9,0.8,1.2c0.4,0.3,1,0.4,1.7,0.4c0.8,0,1.4-0.2,1.9-0.7
			c0.5-0.4,0.7-1.2,0.7-2.2v-2.2c-0.3,0.7-0.9,1.3-1.6,1.8c-0.7,0.4-1.5,0.7-2.5,0.7c-1,0-2-0.2-2.8-0.8c-0.8-0.5-1.5-1.3-2-2.2
			c-0.5-1-0.7-2.1-0.7-3.4s0.2-2.5,0.7-3.4c0.5-1,1.1-1.7,2-2.2C93.1,3.6,94.1,3.4,95.1,3.4z M96.3,6.7c-0.8,0-1.5,0.3-2,0.8
			c-0.5,0.5-0.8,1.3-0.8,2.2c0,0.9,0.2,1.7,0.8,2.2c0.5,0.5,1.2,0.8,2,0.8s1.5-0.3,2-0.8c0.5-0.5,0.8-1.3,0.8-2.2
			c0-0.9-0.2-1.7-0.8-2.2S97.1,6.7,96.3,6.7z M117.9,9.4c0,0.3,0,0.7-0.1,1H109c0,0.9,0.3,1.6,0.7,2c0.4,0.4,1,0.6,1.7,0.6
			c0.6,0,1.1-0.2,1.4-0.4c0.4-0.3,0.6-0.7,0.7-1.1h4.1c-0.2,0.9-0.5,1.7-1.1,2.4c-0.6,0.7-1.3,1.3-2.1,1.6c-0.9,0.4-1.8,0.6-2.9,0.6
			c-1.2,0-2.3-0.2-3.3-0.8c-0.9-0.5-1.7-1.3-2.2-2.2s-0.8-2.1-0.8-3.4s0.3-2.5,0.8-3.4c0.5-1,1.3-1.7,2.2-2.2s2.1-0.8,3.3-0.8
			c1.3,0,2.4,0.2,3.3,0.8s1.7,1.2,2.2,2.2S117.9,8.3,117.9,9.4z M114,8.9c0-0.8-0.2-1.4-0.7-1.9c-0.4-0.4-1-0.6-1.7-0.6
			c-0.7,0-1.3,0.2-1.8,0.6c-0.4,0.4-0.7,1-0.8,1.8L114,8.9L114,8.9z M128.2,3.4c1.4,0,2.6,0.5,3.4,1.4c0.9,1,1.3,2.3,1.3,4v7.3H129
			V9.2c0-0.9-0.2-1.5-0.7-2c-0.4-0.5-1-0.7-1.8-0.7c-0.8,0-1.4,0.2-1.9,0.7c-0.4,0.5-0.7,1.2-0.7,2.1v6.7h-3.9V3.5h3.9v2.3
			c0.4-0.7,0.9-1.3,1.6-1.8C126.4,3.6,127.3,3.4,128.2,3.4z M143,12.8v3.3h-1.8c-1.5,0-2.6-0.4-3.4-1.1s-1.2-1.9-1.2-3.6V6.7h-1.7
			V3.5h1.7V0.4h3.9v3.1h2.5v3.3h-2.5v4.7c0,0.5,0.1,0.9,0.3,1c0.2,0.2,0.5,0.3,1,0.3L143,12.8L143,12.8z M157.4,9.4
			c0,0.3,0,0.7-0.1,1h-8.7c0,0.9,0.3,1.6,0.7,2c0.4,0.4,1,0.6,1.7,0.6c0.6,0,1.1-0.2,1.4-0.4s0.6-0.7,0.7-1.1h4.1
			c-0.2,0.9-0.5,1.7-1.1,2.4c-0.6,0.7-1.3,1.3-2.1,1.6c-0.9,0.4-1.8,0.6-2.9,0.6c-1.2,0-2.3-0.2-3.3-0.8c-0.9-0.5-1.7-1.3-2.2-2.2
			c-0.5-1-0.8-2.1-0.8-3.4s0.3-2.5,0.8-3.4c0.5-1,1.3-1.7,2.2-2.2c1-0.5,2.1-0.8,3.3-0.8c1.3,0,2.4,0.2,3.3,0.8
			c0.9,0.5,1.7,1.2,2.2,2.2C157.2,7.2,157.4,8.3,157.4,9.4z M153.5,8.9c0-0.8-0.2-1.4-0.7-1.9c-0.4-0.4-1-0.6-1.7-0.6
			c-0.7,0-1.3,0.2-1.8,0.6c-0.4,0.4-0.7,1-0.8,1.8L153.5,8.9L153.5,8.9z"/>
	</g>
</g>
<g>
	<path class="st0" d="M21.5,11.1c0.2-0.2,0.4-0.4,0.6-0.7c1.2-1.8,0.6-4.3-1.2-5.5c-0.7-0.4-1.4-0.6-2.2-0.6l0,0
		c-1.4,0-2.7,0.7-3.4,1.8c-0.6,0.9-0.8,2-0.5,3s0.9,2,1.8,2.5c0.7,0.4,1.4,0.6,2.2,0.6C19.7,12.3,20.7,11.8,21.5,11.1z"/>
	<path class="st0" d="M11.1,19.3c-0.7-0.4-1.4-0.6-2.2-0.6c-1.4,0-2.7,0.7-3.4,1.8c-0.6,0.9-0.8,2-0.5,3c0.2,1,0.9,2,1.8,2.5
		c0.7,0.4,1.4,0.6,2.2,0.6c1.1,0,2.1-0.4,2.8-1.2c0.2-0.2,0.4-0.4,0.6-0.7C13.5,22.9,12.9,20.5,11.1,19.3z"/>
	<path class="st0" d="M28.6,14c-0.7-0.4-1.6-0.6-2.4-0.4c-0.8,0.2-1.6,0.7-2,1.4c-0.4,0.7-0.6,1.6-0.4,2.4c0.2,0.8,0.7,1.6,1.4,2
		c0.5,0.3,1.1,0.5,1.7,0.5c0.8,0,1.6-0.3,2.2-0.9c0.2-0.2,0.3-0.4,0.4-0.6C30.4,16.9,30,15,28.6,14z"/>
	<path class="st0" d="M21.5,24.3c-0.7-0.4-1.6-0.6-2.4-0.4s-1.6,0.7-2,1.4c-0.4,0.7-0.6,1.6-0.4,2.4c0.2,0.8,0.7,1.6,1.4,2
		c0.5,0.3,1.1,0.5,1.7,0.5c0.8,0,1.6-0.3,2.2-0.9c0.2-0.2,0.3-0.4,0.4-0.6C23.4,27.2,23,25.3,21.5,24.3z"/>
	<path class="st0" d="M19.2,37.1c-0.7-0.4-1.6-0.6-2.4-0.4c-0.8,0.2-1.6,0.7-2,1.4c-0.4,0.7-0.6,1.6-0.4,2.4c0.2,0.8,0.7,1.6,1.4,2
		c0.5,0.3,1.1,0.5,1.7,0.5c0.8,0,1.6-0.3,2.2-0.9c0.2-0.2,0.3-0.4,0.4-0.6C21,39.9,20.6,38,19.2,37.1z"/>
	<path class="st0" d="M21.5,49.2c-0.7-0.4-1.6-0.6-2.4-0.4s-1.6,0.7-2,1.4c-0.4,0.7-0.6,1.6-0.4,2.4c0.2,0.8,0.7,1.6,1.4,2
		c0.5,0.3,1.1,0.5,1.7,0.5c0.8,0,1.6-0.3,2.2-0.9c0.2-0.2,0.3-0.4,0.4-0.5C23.4,52,23,50.1,21.5,49.2z"/>
	<path class="st0" d="M11.1,53c-0.7-0.4-1.4-0.6-2.2-0.6c-1.4,0-2.7,0.7-3.4,1.8c-0.6,0.9-0.8,2-0.5,3c0.2,1,0.9,2,1.8,2.5
		c0.7,0.4,1.4,0.6,2.2,0.6c1.1,0,2.1-0.4,2.8-1.2c0.2-0.2,0.4-0.4,0.6-0.7C13.5,56.7,12.9,54.2,11.1,53z"/>
	<path class="st0" d="M8.9,42.5c0.2-0.2,0.4-0.4,0.6-0.7c1.2-1.8,0.6-4.3-1.2-5.5c-0.7-0.4-1.4-0.6-2.2-0.6l0,0
		c-1.4,0-2.7,0.7-3.4,1.8c-0.6,0.9-0.8,2-0.5,3c0.2,1,0.9,2,1.8,2.5c0.7,0.4,1.4,0.6,2.2,0.6C7.1,43.7,8.2,43.3,8.9,42.5z"/>
	<path class="st0" d="M68.5,76.8c-0.7-0.4-1.4-0.6-2.2-0.6c-1.4,0-2.7,0.7-3.4,1.8l0,0c-0.6,0.9-0.8,2-0.5,3c0.2,1,0.9,2,1.8,2.5
		c0.7,0.4,1.4,0.6,2.2,0.6c1.1,0,2.1-0.4,2.8-1.2c0.2-0.2,0.4-0.4,0.6-0.7C70.9,80.5,70.3,78,68.5,76.8z"/>
	<path class="st0" d="M34.2,76.8c-0.7-0.4-1.4-0.6-2.2-0.6l0,0c-1.4,0-2.7,0.7-3.4,1.8c-0.6,0.9-0.8,2-0.5,3c0.2,1,0.9,2,1.8,2.5
		c0.7,0.4,1.4,0.6,2.2,0.6c1.1,0,2.1-0.4,2.8-1.2c0.2-0.2,0.4-0.4,0.6-0.7C36.6,80.5,36.1,78,34.2,76.8z"/>
	<g id="_xF672_-copy_2_">
		<path class="st0" d="M49.1,52.3c0.5,0,1-0.2,1.3-0.5c0.4-0.4,0.5-0.8,0.5-1.3c0-0.5-0.2-1-0.5-1.3c-0.4-0.4-0.8-0.5-1.3-0.5
			c-2.5,0-4.5-0.9-6.3-2.6c-1.8-1.8-2.6-3.8-2.6-6.3c0-0.5-0.2-1-0.5-1.3c-0.4-0.4-0.8-0.5-1.3-0.5c-0.5,0-1,0.2-1.3,0.5
			c-0.4,0.4-0.5,0.8-0.5,1.3c0,2.2,0.6,4.3,1.7,6.3c1.1,2,2.7,3.5,4.5,4.6C44.8,51.8,46.9,52.3,49.1,52.3z M49.2,59.4
			c3.6,0,6.9-0.9,9.9-2.7c3-1.8,5.4-4.1,7.1-7.2c1.8-3,2.6-6.3,2.6-10c0-2.5-0.4-4.8-1.3-7c-0.9-2.2-2-4.2-3.6-6
			c-1.3-1.5-2.6-3.4-3.8-5.7c-1.2-2.1-1.8-3.6-2-4.6H40.3c-0.2,0.9-0.8,2.5-1.9,4.6c-1.3,2.3-2.6,4.2-3.9,5.7
			c-1.6,1.8-2.8,3.8-3.6,6c-0.9,2.2-1.3,4.5-1.3,7c0,3.4,0.8,6.7,2.5,9.7c1.7,3,4,5.5,7,7.3C42.1,58.5,45.5,59.4,49.2,59.4z
			 M61.4,28.8c1.3,1.5,2.4,3.2,3,5c0.7,1.8,1,3.7,1,5.7c0,2.9-0.7,5.6-2.2,8.1c-1.4,2.5-3.4,4.5-5.9,5.9c-2.5,1.5-5.2,2.2-8.2,2.2
			c-2.9,0-5.7-0.7-8.2-2.2c-2.5-1.5-4.4-3.4-5.8-6c-1.4-2.5-2.1-5.2-2.1-8c0-4,1.3-7.6,4-10.7c0.9-1,1.8-2.2,2.8-3.8
			c1.1-1.8,2-3.6,2.8-5.3h13c0.8,1.8,1.7,3.5,2.8,5.3C59.6,26.6,60.5,27.9,61.4,28.8z"/>
	</g>
	<g id="Rectangle-Copy-2_2_">
		<path class="st0" d="M43.4,1.9h11.7c1.6,0,2.9,1.3,2.9,2.9V6H40.5V4.8C40.5,3.2,41.8,1.9,43.4,1.9z"/>
	</g>
	<g id="Rectangle-Copy_2_">
		<rect x="40.5" y="9.3" class="st0" width="17.4" height="4"/>
	</g>
	<path class="st0" d="M51.4,79.7c-0.7-0.4-1.4-0.6-2.2-0.6l0,0c-1.4,0-2.7,0.7-3.4,1.8c-0.6,0.9-0.8,2-0.5,3c0.2,1,0.9,2,1.8,2.5
		c0.7,0.4,1.4,0.6,2.2,0.6c1.1,0,2.1-0.4,2.8-1.2c0.2-0.2,0.4-0.4,0.6-0.7C53.8,83.4,53.2,80.9,51.4,79.7z"/>
	<path class="st0" d="M47.5,74.2c0.5,0.3,1.1,0.5,1.7,0.5c0.8,0,1.6-0.3,2.2-0.9c0.2-0.2,0.3-0.4,0.4-0.6c0.9-1.5,0.5-3.4-1-4.3
		c-0.7-0.4-1.6-0.6-2.4-0.4c-0.8,0.2-1.6,0.7-2,1.4c-0.4,0.7-0.6,1.6-0.4,2.4C46.3,73.1,46.8,73.8,47.5,74.2z"/>
	<path class="st0" d="M64.3,71.3c0.9-1.5,0.5-3.4-1-4.3c-0.7-0.4-1.6-0.6-2.4-0.4c-0.8,0.2-1.6,0.7-2,1.4c-0.4,0.7-0.6,1.6-0.4,2.4
		s0.7,1.6,1.4,2c0.5,0.3,1.1,0.5,1.7,0.5c0.8,0,1.6-0.3,2.2-0.9C64,71.6,64.2,71.4,64.3,71.3z"/>
	<path class="st0" d="M38.5,66.9c-0.7-0.4-1.6-0.6-2.4-0.4c-0.8,0.2-1.6,0.7-2,1.4c-0.4,0.7-0.6,1.6-0.4,2.4c0.2,0.8,0.7,1.6,1.4,2
		c0.5,0.3,1.1,0.5,1.7,0.5c0.8,0,1.6-0.3,2.2-0.9c0.2-0.2,0.3-0.4,0.4-0.6c0.4-0.7,0.6-1.6,0.4-2.4C39.6,68.1,39.2,67.3,38.5,66.9z"
		/>
	<path class="st0" d="M20.4,67.4c-0.7-0.4-1.4-0.6-2.2-0.6c-1.4,0-2.7,0.7-3.4,1.8c-0.6,0.9-0.8,2-0.5,3c0.2,1,0.9,2,1.8,2.5
		c0.7,0.4,1.4,0.6,2.2,0.6c1.1,0,2.1-0.4,2.8-1.2c0.2-0.2,0.4-0.4,0.6-0.7C22.8,71.1,22.2,68.7,20.4,67.4z"/>
	<path class="st0" d="M82.3,67.4c-0.7-0.4-1.4-0.6-2.2-0.6c-1.4,0-2.7,0.7-3.4,1.8c-0.6,0.9-0.8,2-0.5,3c0.2,1,0.9,2,1.8,2.5
		c0.7,0.4,1.4,0.6,2.2,0.6c1.1,0,2.1-0.4,2.8-1.2c0.2-0.2,0.4-0.4,0.6-0.7C84.7,71.1,84.2,68.7,82.3,67.4z"/>
	<path class="st0" d="M28.2,59.9c-0.7-0.4-1.6-0.6-2.4-0.4s-1.6,0.7-2,1.4c-0.4,0.7-0.6,1.6-0.4,2.4c0.2,0.8,0.7,1.6,1.4,2
		c0.5,0.3,1.1,0.5,1.7,0.5c0.8,0,1.6-0.3,2.2-0.9c0.2-0.2,0.3-0.4,0.4-0.6C30.1,62.8,29.7,60.8,28.2,59.9z"/>
	<path class="st0" d="M73.5,59.9c-0.7-0.4-1.6-0.6-2.4-0.4c-0.8,0.2-1.6,0.7-2,1.4c-0.4,0.7-0.6,1.6-0.4,2.4c0.2,0.8,0.7,1.6,1.4,2
		c0.5,0.3,1.1,0.5,1.7,0.5c0.8,0,1.6-0.3,2.2-0.9c0.2-0.2,0.3-0.4,0.4-0.6C75.4,62.8,75,60.8,73.5,59.9z"/>
</g>
</svg>
