<svg width="232" height="22" viewBox="0 0 232 22" fill="none" xmlns="http://www.w3.org/2000/svg">
<path d="M32.9212 1.08231H40.1555C42.624 1.08231 44.4563 1.66144 45.6525 2.8197C46.8488 3.95897 47.4469 5.73433 47.4469 8.14579V13.9561C47.4469 16.3675 46.8488 18.1524 45.6525 19.3107C44.4563 20.4499 42.624 21.0196 40.1555 21.0196H32.9212V17.4024H34.801V4.67101H32.9212V1.08231ZM40.1555 17.4309C41.4657 17.4309 42.3771 17.127 42.8898 16.5194C43.4215 15.8928 43.6873 14.9245 43.6873 13.6143V8.14579C43.6873 7.00652 43.4215 6.14257 42.8898 5.55395C42.3771 4.96533 41.4657 4.67101 40.1555 4.67101H38.5606V17.4309H40.1555Z" fill="white"/>
<path d="M51.5285 17.6017H56.3134V10.3104H51.8702V6.89259H59.9021V17.6017H64.0035V21.0196H51.5285V17.6017ZM60.785 2.70577C60.785 3.08553 60.7091 3.4463 60.5572 3.78808C60.4243 4.11087 60.2344 4.39569 59.9875 4.64253C59.7407 4.87038 59.4464 5.06026 59.1046 5.21217C58.7818 5.34508 58.44 5.41154 58.0793 5.41154C57.6995 5.41154 57.3482 5.34508 57.0254 5.21217C56.7026 5.06026 56.4178 4.87038 56.171 4.64253C55.9241 4.39569 55.7248 4.11087 55.5729 3.78808C55.44 3.4463 55.3735 3.08553 55.3735 2.70577C55.3735 2.32601 55.44 1.97474 55.5729 1.65194C55.7248 1.31016 55.9241 1.02534 56.171 0.79749C56.4178 0.550648 56.7026 0.360769 57.0254 0.227855C57.3482 0.0759516 57.6995 0 58.0793 0C58.44 0 58.7818 0.0759516 59.1046 0.227855C59.4464 0.360769 59.7407 0.550648 59.9875 0.79749C60.2344 1.02534 60.4243 1.31016 60.5572 1.65194C60.7091 1.97474 60.785 2.32601 60.785 2.70577Z" fill="white"/>
<path d="M82.4968 15.8359C82.174 17.5068 81.405 18.8549 80.1898 19.8803C78.9936 20.9056 77.3891 21.4183 75.3764 21.4183C74.3321 21.4183 73.3542 21.2569 72.4428 20.9341C71.5503 20.6113 70.7718 20.1461 70.1073 19.5385C69.4427 18.9309 68.9205 18.1809 68.5408 17.2884C68.161 16.396 67.9711 15.3802 67.9711 14.2409V13.8991C67.9711 12.7598 68.161 11.7345 68.5408 10.8231C68.9205 9.91166 69.4427 9.13316 70.1073 8.48757C70.7908 7.84198 71.5788 7.3483 72.4712 7.00652C73.3827 6.66474 74.351 6.49385 75.3764 6.49385C77.3511 6.49385 78.9461 7.00652 80.1613 8.03186C81.3955 9.05721 82.174 10.4053 82.4968 12.0763L78.9651 12.9877C78.8512 12.1522 78.4904 11.4307 77.8828 10.8231C77.2752 10.2155 76.4207 9.91166 75.3194 9.91166C74.8068 9.91166 74.3226 10.0066 73.8669 10.1965C73.4111 10.3864 73.0124 10.6617 72.6706 11.0225C72.3288 11.3642 72.0535 11.7915 71.8446 12.3041C71.6548 12.7978 71.5598 13.358 71.5598 13.9846V14.1554C71.5598 14.782 71.6548 15.3422 71.8446 15.8359C72.0535 16.3106 72.3288 16.7093 72.6706 17.0321C73.0124 17.3549 73.4111 17.6017 73.8669 17.7726C74.3226 17.9245 74.8068 18.0005 75.3194 18.0005C76.4207 18.0005 77.2562 17.7252 77.8258 17.1745C78.4144 16.6239 78.7942 15.8833 78.9651 14.9529L82.4968 15.8359Z" fill="white"/>
<path d="M89.7969 21.0196H86.2081V1.08231H89.7969V9.17114H90.3095C90.6703 8.31668 91.202 7.6616 91.9045 7.20589C92.6071 6.7312 93.471 6.49385 94.4963 6.49385C95.1989 6.49385 95.8445 6.60777 96.4331 6.83563C97.0217 7.06348 97.5344 7.40526 97.9711 7.86097C98.4078 8.31668 98.7496 8.90531 98.9965 9.62684C99.2433 10.3294 99.3667 11.1649 99.3667 12.1332V21.0196H95.778V12.9877C95.778 11.9813 95.5312 11.1933 95.0375 10.6237C94.5628 10.0351 93.8697 9.74077 92.9583 9.74077C91.895 9.74077 91.0975 10.1015 90.5659 10.8231C90.0532 11.5256 89.7969 12.475 89.7969 13.6713V21.0196Z" fill="white"/>
<path d="M117.433 14.127C117.433 15.3042 117.233 16.3485 116.835 17.26C116.436 18.1524 115.895 18.9119 115.211 19.5385C114.528 20.1461 113.74 20.6113 112.847 20.9341C111.974 21.2569 111.053 21.4183 110.085 21.4183C109.116 21.4183 108.186 21.2569 107.293 20.9341C106.42 20.6113 105.641 20.1461 104.958 19.5385C104.274 18.9119 103.733 18.1524 103.334 17.26C102.936 16.3485 102.736 15.3042 102.736 14.127V13.7852C102.736 12.6269 102.936 11.6016 103.334 10.7092C103.733 9.79773 104.274 9.02873 104.958 8.40213C105.641 7.77553 106.42 7.30083 107.293 6.97804C108.186 6.65524 109.116 6.49385 110.085 6.49385C111.053 6.49385 111.974 6.65524 112.847 6.97804C113.74 7.30083 114.528 7.77553 115.211 8.40213C115.895 9.02873 116.436 9.79773 116.835 10.7092C117.233 11.6016 117.433 12.6269 117.433 13.7852V14.127ZM110.085 18.0005C110.597 18.0005 111.081 17.915 111.537 17.7442C111.993 17.5733 112.392 17.3264 112.733 17.0036C113.075 16.6808 113.341 16.2916 113.531 15.8359C113.74 15.3612 113.844 14.8295 113.844 14.2409V13.6713C113.844 13.0826 113.74 12.5605 113.531 12.1048C113.341 11.6301 113.075 11.2313 112.733 10.9085C112.392 10.5857 111.993 10.3389 111.537 10.168C111.081 9.99711 110.597 9.91166 110.085 9.91166C109.572 9.91166 109.088 9.99711 108.632 10.168C108.176 10.3389 107.778 10.5857 107.436 10.9085C107.094 11.2313 106.819 11.6301 106.61 12.1048C106.42 12.5605 106.325 13.0826 106.325 13.6713V14.2409C106.325 14.8295 106.42 15.3612 106.61 15.8359C106.819 16.2916 107.094 16.6808 107.436 17.0036C107.778 17.3264 108.176 17.5733 108.632 17.7442C109.088 17.915 109.572 18.0005 110.085 18.0005Z" fill="white"/>
<path d="M147.276 1.08228H151.035V9.22807H157.472V1.08228H161.232V21.0195H157.472V12.8168H151.035V21.0195H147.276V1.08228Z" fill="white"/>
<path d="M168.361 15.1238C168.38 15.5415 168.475 15.9308 168.646 16.2916C168.835 16.6333 169.082 16.9371 169.386 17.203C169.709 17.4498 170.07 17.6492 170.468 17.8011C170.886 17.934 171.323 18.0005 171.779 18.0005C172.671 18.0005 173.355 17.8486 173.829 17.5447C174.304 17.222 174.646 16.8422 174.855 16.4055L177.931 18.1144C177.76 18.4752 177.522 18.8549 177.219 19.2537C176.915 19.6334 176.516 19.9847 176.022 20.3075C175.548 20.6303 174.959 20.8961 174.256 21.105C173.573 21.3138 172.766 21.4183 171.836 21.4183C170.772 21.4183 169.804 21.2474 168.93 20.9056C168.057 20.5638 167.297 20.0701 166.652 19.4245C166.025 18.779 165.532 17.991 165.171 17.0606C164.829 16.1302 164.658 15.0763 164.658 13.8991V13.7282C164.658 12.6459 164.838 11.6585 165.199 10.7661C165.579 9.87365 166.092 9.11414 166.737 8.48754C167.383 7.86094 168.133 7.37675 168.987 7.03497C169.861 6.6742 170.791 6.49381 171.779 6.49381C172.994 6.49381 174.038 6.71218 174.912 7.1489C175.785 7.56663 176.507 8.10778 177.076 8.77236C177.646 9.41794 178.064 10.1395 178.329 10.937C178.595 11.7155 178.728 12.475 178.728 13.2155V15.1238H168.361ZM171.75 9.74074C170.839 9.74074 170.098 9.97809 169.528 10.4528C168.959 10.9085 168.589 11.4402 168.418 12.0478H175.082C174.969 11.3832 174.608 10.8325 174 10.3958C173.412 9.9591 172.661 9.74074 171.75 9.74074Z" fill="white"/>
<path d="M196.424 15.8358C196.101 17.5068 195.332 18.8549 194.117 19.8803C192.921 20.9056 191.316 21.4183 189.304 21.4183C188.259 21.4183 187.281 21.2569 186.37 20.9341C185.477 20.6113 184.699 20.1461 184.034 19.5385C183.37 18.9309 182.848 18.1808 182.468 17.2884C182.088 16.396 181.898 15.3801 181.898 14.2409V13.8991C181.898 12.7598 182.088 11.7345 182.468 10.823C182.848 9.91163 183.37 9.13313 184.034 8.48754C184.718 7.84195 185.506 7.34827 186.398 7.00649C187.31 6.66471 188.278 6.49381 189.304 6.49381C191.278 6.49381 192.873 7.00649 194.088 8.03183C195.323 9.05718 196.101 10.4053 196.424 12.0762L192.892 12.9877C192.778 12.1522 192.418 11.4307 191.81 10.823C191.202 10.2154 190.348 9.91163 189.247 9.91163C188.734 9.91163 188.25 10.0066 187.794 10.1964C187.338 10.3863 186.94 10.6617 186.598 11.0224C186.256 11.3642 185.981 11.7914 185.772 12.3041C185.582 12.7978 185.487 13.3579 185.487 13.9845V14.1554C185.487 14.782 185.582 15.3422 185.772 15.8358C185.981 16.3105 186.256 16.7093 186.598 17.0321C186.94 17.3549 187.338 17.6017 187.794 17.7726C188.25 17.9245 188.734 18.0005 189.247 18.0005C190.348 18.0005 191.183 17.7251 191.753 17.1745C192.342 16.6238 192.721 15.8833 192.892 14.9529L196.424 15.8358Z" fill="white"/>
<path d="M203.724 21.0195H200.135V1.08228H203.724V9.1711H204.237C204.597 8.31665 205.129 7.66157 205.832 7.20586C206.534 6.73116 207.398 6.49381 208.423 6.49381C209.126 6.49381 209.772 6.60774 210.36 6.8356C210.949 7.06345 211.462 7.40523 211.898 7.86094C212.335 8.31665 212.677 8.90527 212.924 9.62681C213.17 10.3294 213.294 11.1648 213.294 12.1332V21.0195H209.705V12.9877C209.705 11.9813 209.458 11.1933 208.965 10.6237C208.49 10.0351 207.797 9.74074 206.885 9.74074C205.822 9.74074 205.025 10.1015 204.493 10.823C203.98 11.5256 203.724 12.475 203.724 13.6712V21.0195Z" fill="white"/>
<path d="M231.36 14.1269C231.36 15.3042 231.161 16.3485 230.762 17.2599C230.363 18.1524 229.822 18.9119 229.138 19.5385C228.455 20.1461 227.667 20.6113 226.774 20.9341C225.901 21.2569 224.98 21.4183 224.012 21.4183C223.043 21.4183 222.113 21.2569 221.22 20.9341C220.347 20.6113 219.569 20.1461 218.885 19.5385C218.201 18.9119 217.66 18.1524 217.262 17.2599C216.863 16.3485 216.663 15.3042 216.663 14.1269V13.7852C216.663 12.6269 216.863 11.6015 217.262 10.7091C217.66 9.7977 218.201 9.02869 218.885 8.40209C219.569 7.7755 220.347 7.3008 221.22 6.97801C222.113 6.65521 223.043 6.49381 224.012 6.49381C224.98 6.49381 225.901 6.65521 226.774 6.97801C227.667 7.3008 228.455 7.7755 229.138 8.40209C229.822 9.02869 230.363 9.7977 230.762 10.7091C231.161 11.6015 231.36 12.6269 231.36 13.7852V14.1269ZM224.012 18.0005C224.524 18.0005 225.009 17.915 225.464 17.7441C225.92 17.5732 226.319 17.3264 226.661 17.0036C227.002 16.6808 227.268 16.2915 227.458 15.8358C227.667 15.3611 227.771 14.8295 227.771 14.2409V13.6712C227.771 13.0826 227.667 12.5604 227.458 12.1047C227.268 11.63 227.002 11.2313 226.661 10.9085C226.319 10.5857 225.92 10.3389 225.464 10.168C225.009 9.99708 224.524 9.91163 224.012 9.91163C223.499 9.91163 223.015 9.99708 222.559 10.168C222.103 10.3389 221.705 10.5857 221.363 10.9085C221.021 11.2313 220.746 11.63 220.537 12.1047C220.347 12.5604 220.252 13.0826 220.252 13.6712V14.2409C220.252 14.8295 220.347 15.3611 220.537 15.8358C220.746 16.2915 221.021 16.6808 221.363 17.0036C221.705 17.3264 222.103 17.5732 222.559 17.7441C223.015 17.915 223.499 18.0005 224.012 18.0005Z" fill="white"/>
<path d="M5.92421 15.1788H5.65079C5.56977 15.3509 5.4685 15.518 5.34698 15.6801C5.23559 15.832 5.08368 15.9687 4.89127 16.0902C4.70899 16.2117 4.4862 16.3079 4.2229 16.3788C3.96973 16.4497 3.66086 16.4851 3.29629 16.4851C2.83046 16.4851 2.395 16.4041 1.98993 16.2421C1.59498 16.0699 1.2456 15.8218 0.941798 15.4978C0.648119 15.1636 0.415201 14.7585 0.243045 14.2826C0.0810149 13.8066 0 13.2597 0 12.642V12.3686C0 11.761 0.0860783 11.2192 0.258235 10.7432C0.440518 10.2673 0.683563 9.86725 0.987368 9.54319C1.3013 9.209 1.6608 8.95583 2.06588 8.78367C2.48108 8.61151 2.91653 8.52544 3.37224 8.52544C3.97985 8.52544 4.46088 8.6419 4.81532 8.87481C5.16976 9.0976 5.44825 9.4166 5.65079 9.8318H5.92421V5.63928H7.83819V16.2725H5.92421V15.1788ZM3.91909 14.6623C4.51658 14.6623 4.9976 14.475 5.36217 14.1003C5.73686 13.7155 5.92421 13.2142 5.92421 12.5964V12.4141C5.92421 11.7964 5.73686 11.3002 5.36217 10.9255C4.9976 10.5407 4.51658 10.3483 3.91909 10.3483C3.32161 10.3483 2.83552 10.5356 2.46083 10.9103C2.09626 11.2749 1.91398 11.7762 1.91398 12.4141V12.5964C1.91398 13.2344 2.09626 13.7408 2.46083 14.1155C2.83552 14.48 3.32161 14.6623 3.91909 14.6623Z" fill="white"/>
<path d="M11.5037 13.1281C11.5138 13.3509 11.5644 13.5585 11.6556 13.7509C11.7568 13.9332 11.8885 14.0952 12.0505 14.237C12.2227 14.3686 12.4151 14.475 12.6278 14.556C12.8505 14.6269 13.0835 14.6623 13.3265 14.6623C13.8025 14.6623 14.167 14.5813 14.4202 14.4193C14.6734 14.2471 14.8557 14.0446 14.9671 13.8117L16.6076 14.7231C16.5165 14.9155 16.3899 15.118 16.2279 15.3307C16.0658 15.5332 15.8532 15.7206 15.5899 15.8927C15.3367 16.0649 15.0228 16.2067 14.6481 16.3181C14.2835 16.4294 13.8531 16.4851 13.3569 16.4851C12.7898 16.4851 12.2733 16.394 11.8075 16.2117C11.3416 16.0294 10.9366 15.7661 10.5923 15.4218C10.2581 15.0775 9.99477 14.6572 9.80236 14.161C9.62008 13.6648 9.52894 13.1028 9.52894 12.4749V12.3838C9.52894 11.8065 9.62514 11.2799 9.81755 10.804C10.0201 10.328 10.2935 9.92294 10.6378 9.58876C10.9821 9.25457 11.3822 8.99634 11.8379 8.81405C12.3037 8.62164 12.7999 8.52544 13.3265 8.52544C13.9746 8.52544 14.5316 8.6419 14.9974 8.87481C15.4633 9.0976 15.8481 9.38622 16.1519 9.74066C16.4557 10.085 16.6785 10.4698 16.8203 10.8951C16.962 11.3103 17.0329 11.7154 17.0329 12.1103V13.1281H11.5037ZM13.3113 10.2571C12.8252 10.2571 12.4303 10.3837 12.1265 10.6369C11.8227 10.8799 11.6252 11.1635 11.5341 11.4875H15.0886C15.0278 11.1331 14.8354 10.8394 14.5114 10.6065C14.1974 10.3736 13.7974 10.2571 13.3113 10.2571Z" fill="white"/>
<path d="M19.0731 14.4496H21.7162V7.46212H19.1642V5.63928H23.6301V14.4496H26.091V16.2725H19.0731V14.4496Z" fill="white"/>
<path d="M128.814 16.1282C128.611 16.6042 128.328 16.9435 127.963 17.146C127.598 17.3384 127.173 17.4346 126.687 17.4346C126.231 17.4346 125.801 17.3485 125.396 17.1764C125.001 17.0042 124.652 16.751 124.348 16.4169C124.044 16.0827 123.801 15.6776 123.619 15.2016C123.446 14.7257 123.36 14.1839 123.36 13.5763V13.3332C123.36 12.7357 123.446 12.199 123.619 11.7231C123.791 11.2471 124.024 10.842 124.317 10.5078C124.611 10.1737 124.95 9.92048 125.335 9.74832C125.73 9.56604 126.15 9.4749 126.596 9.4749C127.133 9.4749 127.563 9.56604 127.887 9.74832C128.221 9.93061 128.485 10.2142 128.677 10.599H128.95V9.68756H130.864V14.9434C130.864 15.2472 131.001 15.3991 131.274 15.3991H131.563V17.2219H130.257C129.912 17.2219 129.629 17.1207 129.406 16.9181C129.193 16.7156 129.087 16.4523 129.087 16.1282H128.814ZM127.112 15.6118C127.669 15.6118 128.115 15.4295 128.449 15.0649C128.783 14.6902 128.95 14.1839 128.95 13.5459V13.3636C128.95 12.7256 128.783 12.2243 128.449 11.8598C128.115 11.4851 127.669 11.2977 127.112 11.2977C126.555 11.2977 126.11 11.4851 125.776 11.8598C125.441 12.2243 125.274 12.7256 125.274 13.3636V13.5459C125.274 14.1839 125.441 14.6902 125.776 15.0649C126.11 15.4295 126.555 15.6118 127.112 15.6118Z" fill="white"/>
<path d="M133.193 15.3991H135.836V8.41158H133.284V6.58875H137.75V15.3991H140.211V17.2219H133.193V15.3991Z" fill="white"/>
</svg>
