<?xml version="1.0" encoding="UTF-8" standalone="no"?>
<svg width="148px" height="366px" viewBox="0 0 148 366" version="1.1" xmlns="http://www.w3.org/2000/svg" xmlns:xlink="http://www.w3.org/1999/xlink">
    <!-- Generator: Sketch 41.2 (35397) - http://www.bohemiancoding.com/sketch -->
    <title>Artboard Copy</title>
    <desc>Created with Sketch.</desc>
    <defs>
        <polygon id="path-1" points="0.1824 50 73.8864 50 73.8864 0.8861 0.1824 0.8861"></polygon>
        <polygon id="path-3" points="0 357 106.954 357 106.954 0.878 0 0.878"></polygon>
    </defs>
    <g id="Page-1" stroke="none" stroke-width="1" fill="none" fill-rule="evenodd">
        <g id="Artboard-Copy">
            <g id="Page-1" transform="translate(21.000000, 8.000000)">
                <polygon id="Fill-1" fill="#4CB3E6" points="68.269 78.181 106.954 78.181 106.954 55.425 68.269 55.425"></polygon>
                <polygon id="Fill-2" fill="#0C1522" points="38.685 291.601 68.268 291.601 68.268 66.803 38.685 66.803"></polygon>
                <polyline id="Fill-3" fill="#FEFEFE" points="50.9479 284.8342 50.9479 73.0132 56.0059 73.0132 56.0059 284.8082"></polyline>
                <g id="Group-65" transform="translate(0.000000, 0.122000)">
                    <path d="M74.2106,52.1576 C74.2106,40.7066 64.9276,31.4246 53.4776,31.4246 C42.0256,31.4246 32.7436,40.7066 32.7436,52.1576 C32.7436,63.6086 42.0256,72.8906 53.4776,72.8906 C64.9276,72.8906 74.2106,63.6086 74.2106,52.1576 Z" id="Fill-4" fill="#ED7880"></path>
                    <path d="M56.1315,52.1576 C56.1315,50.6916 54.9435,49.5026 53.4775,49.5026 C52.0105,49.5026 50.8215,50.6916 50.8215,52.1576 C50.8215,53.6236 52.0105,54.8126 53.4775,54.8126 C54.9435,54.8126 56.1315,53.6236 56.1315,52.1576" id="Fill-6" fill="#F2A5AE"></path>
                    <g id="Group-10" transform="translate(16.000000, 307.000000)">
                        <mask id="mask-2" fill="white">
                            <use xlink:href="#path-1"></use>
                        </mask>
                        <g id="Clip-9"></g>
                        <path d="M73.8864,0.8861 L73.8864,42.5661 C73.8864,46.6711 57.3874,50.0001 37.0334,50.0001 C16.6814,50.0001 0.1824,46.6711 0.1824,42.5661 L0.1824,0.8861" id="Fill-8" fill="#6BC3EF" mask="url(#mask-2)"></path>
                    </g>
                    <path d="M76.0886,302.0863 C84.5006,303.4483 89.8866,305.5403 89.8866,307.8863 C89.8866,311.9923 73.3876,315.3203 53.0336,315.3203 C32.6816,315.3203 16.1826,311.9923 16.1826,307.8863 C16.1826,305.5283 21.6206,303.4283 30.1046,302.0653" id="Fill-11" fill="#ABDDF5"></path>
                    <path d="M76.0436,295.7738 L76.0436,304.8768 C76.0436,307.4608 65.7416,309.5538 53.0336,309.5538 C40.3266,309.5538 30.0246,307.4608 30.0246,304.8768 L30.0246,295.7738" id="Fill-13" fill="#6BC3EF"></path>
                    <path d="M67.8796,292.2005 C72.8726,293.0575 76.0436,294.3415 76.0436,295.7735 C76.0436,298.3575 65.7416,300.4515 53.0336,300.4515 C40.3266,300.4515 30.0256,298.3575 30.0256,295.7735 C30.0256,294.3335 33.2296,293.0455 38.2666,292.1865" id="Fill-15" fill="#ABDDF5"></path>
                    <path d="M68.3942,287.1575 L68.3942,293.3545 C68.3942,294.7055 61.7722,295.8015 53.6032,295.8015 C45.4342,295.8015 38.8122,294.7055 38.8122,293.3545 L38.8122,287.1575" id="Fill-17" fill="#ED7880"></path>
                    <path d="M68.3942,287.1575 C68.3942,288.5085 61.7722,289.6025 53.6032,289.6025 C45.4342,289.6025 38.8122,288.5085 38.8122,287.1575 C38.8122,285.8065 45.4342,284.7125 53.6032,284.7125 C61.7722,284.7125 68.3942,285.8065 68.3942,287.1575" id="Fill-19" fill="#F2A5AE"></path>
                    <mask id="mask-4" fill="white">
                        <use xlink:href="#path-3"></use>
                    </mask>
                    <g id="Clip-22"></g>
                    <polygon id="Fill-21" fill="#D3ECFA" mask="url(#mask-4)" points="68.268 259.787 106.954 259.787 106.954 237.031 68.268 237.031"></polygon>
                    <polygon id="Fill-23" fill="#91CEEC" mask="url(#mask-4)" points="68.268 168.96 106.954 168.96 106.954 146.204 68.268 146.204"></polygon>
                    <polygon id="Fill-24" fill="#ABDDF5" mask="url(#mask-4)" points="-0.001 214.472 38.685 214.472 38.685 191.716 -0.001 191.716"></polygon>
                    <polygon id="Fill-25" fill="#6BC3EF" mask="url(#mask-4)" points="-0.001 123.827 38.685 123.827 38.685 101.071 -0.001 101.071"></polygon>
                    <path d="M61.0622,32.5013 L61.0622,25.8163 C61.0622,21.8373 57.8352,18.6103 53.8562,18.6103 C49.8762,18.6103 46.6502,21.8373 46.6502,25.8163 L46.6502,32.2193 C48.7892,31.4743 51.0832,31.0643 53.4772,31.0643 C56.1552,31.0643 58.7122,31.5763 61.0622,32.5013" id="Fill-26" fill="#F2A5AE" mask="url(#mask-4)"></path>
                    <polygon id="Fill-27" fill="#FEFEFE" mask="url(#mask-4)" points="36.283 248.327 65.866 248.327 65.866 246.554 36.283 246.554"></polygon>
                    <polygon id="Fill-28" fill="#FEFEFE" mask="url(#mask-4)" points="36.283 202.967 65.866 202.967 65.866 201.194 36.283 201.194"></polygon>
                    <polygon id="Fill-29" fill="#FEFEFE" mask="url(#mask-4)" points="36.283 157.607 65.866 157.607 65.866 155.834 36.283 155.834"></polygon>
                    <polygon id="Fill-30" fill="#FEFEFE" mask="url(#mask-4)" points="36.283 112.246 65.866 112.246 65.866 110.473 36.283 110.473"></polygon>
                    <path d="M51.0749,29.2083 C53.3649,29.2083 55.6129,29.5653 57.7729,30.2713 L57.7729,24.8483 C57.7729,21.3633 54.9379,18.5283 51.4539,18.5283 C47.9699,18.5283 45.1349,21.3633 45.1349,24.8483 L45.1349,30.0403 C47.0649,29.4873 49.0579,29.2083 51.0749,29.2083 L51.0749,29.2083 Z M59.5469,32.8343 L58.3359,32.3563 C53.9429,30.6303 49.0039,30.5323 44.5399,32.0873 L43.3609,32.4973 L43.3609,24.8483 C43.3609,20.3863 46.9919,16.7553 51.4539,16.7553 C55.9159,16.7553 59.5469,20.3863 59.5469,24.8483 L59.5469,32.8343 Z" id="Fill-31" fill="#0C1522" mask="url(#mask-4)"></path>
                    <path d="M51.0749,30.9818 C48.8449,30.9818 46.6449,31.3538 44.5399,32.0868 C36.5779,34.8638 31.2279,42.3958 31.2279,50.8288 C31.2279,61.7718 40.1319,70.6748 51.0749,70.6748 C56.4409,70.6748 61.4699,68.5648 65.2329,64.7308 C68.0149,61.8988 69.8649,58.3468 70.5849,54.4598 C70.8079,53.2488 70.9219,52.0268 70.9219,50.8288 C70.9219,42.6168 65.9809,35.3668 58.3359,32.3578 L58.3359,32.3568 C56.0149,31.4448 53.5729,30.9818 51.0749,30.9818 M51.0749,72.4488 C39.1539,72.4488 29.4549,62.7498 29.4549,50.8288 C29.4549,41.6418 35.2829,33.4378 43.9559,30.4138 C48.8209,28.7178 54.2019,28.8248 58.9839,30.7088 C67.3129,33.9858 72.6949,41.8828 72.6949,50.8288 C72.6949,52.1338 72.5709,53.4638 72.3269,54.7818 C71.5439,59.0178 69.5279,62.8878 66.4989,65.9728 C62.3979,70.1488 56.9209,72.4488 51.0749,72.4488" id="Fill-32" fill="#0C1522" mask="url(#mask-4)"></path>
                    <path d="M75.3893,250.6038 L79.8143,250.6038 L79.8143,251.8918 L73.9833,251.8918 L73.9833,250.5688 C73.9833,249.6378 74.3133,248.9628 74.9723,248.5408 C75.1953,248.3978 75.4533,248.2708 75.7473,248.1598 L77.3333,247.5508 C77.6833,247.4158 77.9393,247.2478 78.1033,247.0448 C78.2653,246.8418 78.3473,246.5888 78.3473,246.2878 C78.3473,245.9858 78.2403,245.7328 78.0253,245.5308 C77.8103,245.3278 77.5033,245.2258 77.1073,245.2258 C76.7093,245.2258 76.3813,245.3218 76.1233,245.5128 C75.8653,245.7038 75.7153,245.9858 75.6763,246.3598 L74.1143,246.3598 C74.1303,245.6038 74.4203,245.0118 74.9843,244.5828 C75.5013,244.1928 76.1973,243.9988 77.0713,243.9988 C77.8743,243.9988 78.5373,244.2128 79.0633,244.6418 C79.5953,245.0868 79.8623,245.6308 79.8623,246.2758 C79.8623,246.9188 79.7013,247.4338 79.3783,247.8198 C79.0563,248.2058 78.5573,248.5288 77.8823,248.7918 L76.2723,249.4118 C75.9623,249.5308 75.7383,249.6638 75.5993,249.8108 C75.4593,249.9578 75.3893,250.1468 75.3893,250.3768 L75.3893,250.6038 Z" id="Fill-33" fill="#1E1E1C" mask="url(#mask-4)"></path>
                    <path d="M85.5554,245.9837 C85.2484,245.5097 84.8164,245.2737 84.2544,245.2737 C83.6954,245.2737 83.2614,245.5097 82.9544,245.9837 C82.6494,246.4567 82.4964,247.1377 82.4964,248.0277 C82.4964,248.9187 82.6494,249.5957 82.9544,250.0607 C83.2614,250.5267 83.6954,250.7587 84.2544,250.7587 C84.8164,250.7587 85.2484,250.5267 85.5554,250.0607 C85.8604,249.5957 86.0134,248.9187 86.0134,248.0277 C86.0134,247.1377 85.8604,246.4567 85.5554,245.9837 M84.2484,243.9987 C84.7264,243.9987 85.1604,244.0797 85.5554,244.2427 C85.9484,244.4057 86.2844,244.6547 86.5624,244.9877 C87.1664,245.6957 87.4684,246.7097 87.4684,248.0277 C87.4684,249.3477 87.1664,250.3617 86.5624,251.0687 C86.0054,251.7287 85.2394,252.0587 84.2614,252.0587 C83.2754,252.0587 82.5004,251.7287 81.9354,251.0687 C81.3394,250.3777 81.0414,249.3637 81.0414,248.0277 C81.0414,246.6927 81.3394,245.6787 81.9354,244.9877 C82.5004,244.3277 83.2714,243.9987 84.2484,243.9987" id="Fill-34" fill="#1E1E1C" mask="url(#mask-4)"></path>
                    <path d="M94.861,249.3284 C94.479,249.3284 94.289,249.6324 94.289,250.2404 C94.289,250.8494 94.479,251.1524 94.861,251.1524 C95.028,251.1524 95.168,251.0834 95.278,250.9434 C95.389,250.8054 95.445,250.5694 95.445,250.2404 C95.445,249.9104 95.389,249.6764 95.278,249.5364 C95.168,249.3974 95.028,249.3284 94.861,249.3284 L94.861,249.3284 Z M94.861,248.4334 C95.314,248.4334 95.696,248.5844 96.007,248.8874 C96.332,249.1974 96.495,249.6454 96.495,250.2334 C96.495,250.8224 96.332,251.2794 96.007,251.6044 C95.704,251.9074 95.322,252.0584 94.861,252.0584 C94.4,252.0584 94.019,251.9074 93.716,251.6044 C93.39,251.2794 93.228,250.8224 93.228,250.2334 C93.228,249.6454 93.39,249.1974 93.716,248.8874 C94.027,248.5844 94.408,248.4334 94.861,248.4334 L94.861,248.4334 Z M90.962,245.7984 C90.962,245.1944 90.767,244.8914 90.378,244.8914 C89.996,244.8914 89.805,245.1944 89.805,245.7984 C89.805,246.4114 89.996,246.7174 90.378,246.7174 C90.767,246.7174 90.962,246.4114 90.962,245.7984 L90.962,245.7984 Z M94.539,244.1524 L95.959,244.1524 L90.724,251.8914 L89.293,251.8914 L94.539,244.1524 Z M90.389,243.9984 C90.604,243.9984 90.811,244.0364 91.009,244.1114 C91.209,244.1864 91.383,244.3004 91.535,244.4504 C91.86,244.7614 92.023,245.2104 92.023,245.7984 C92.023,246.3794 91.86,246.8314 91.535,247.1584 C91.232,247.4604 90.846,247.6104 90.378,247.6104 C89.924,247.6104 89.547,247.4604 89.245,247.1584 C88.92,246.8314 88.757,246.3794 88.757,245.7984 C88.757,245.2104 88.92,244.7614 89.245,244.4504 C89.555,244.1494 89.936,243.9984 90.389,243.9984 L90.389,243.9984 Z" id="Fill-35" fill="#1E1E1C" mask="url(#mask-4)"></path>
                    <path d="M77.1071,157.2767 C76.7251,157.2767 76.4051,157.3887 76.1471,157.6157 C75.8881,157.8417 75.7591,158.1427 75.7591,158.5157 C75.7591,158.8897 75.8881,159.1857 76.1471,159.4047 C76.4051,159.6237 76.7231,159.7327 77.1001,159.7327 C77.4781,159.7327 77.7981,159.6237 78.0601,159.4047 C78.3231,159.1857 78.4551,158.8897 78.4551,158.5157 C78.4551,158.1427 78.3191,157.8377 78.0481,157.5977 C77.8021,157.3837 77.4881,157.2767 77.1071,157.2767 L77.1071,157.2767 Z M78.3231,155.2497 C78.2831,154.9397 78.1721,154.6947 77.9901,154.5147 C77.8061,154.3377 77.5541,154.2477 77.2321,154.2477 C76.9101,154.2477 76.6281,154.3177 76.3851,154.4567 C76.1421,154.5947 75.9341,154.7967 75.7591,155.0587 C75.4101,155.5987 75.2351,156.3307 75.2351,157.2527 C75.2351,157.5937 75.2471,157.8527 75.2701,158.0277 C75.3571,157.3437 75.6161,156.8437 76.0451,156.5247 C76.4201,156.2557 76.8841,156.1207 77.4411,156.1207 C78.1561,156.1207 78.7481,156.3497 79.2171,156.8107 C79.6781,157.2557 79.9091,157.8437 79.9091,158.5767 C79.9091,159.3067 79.6501,159.8987 79.1331,160.3527 C78.6171,160.8057 77.9411,161.0327 77.1071,161.0327 C76.1361,161.0327 75.3461,160.6667 74.7341,159.9347 C74.1221,159.2047 73.8161,158.2697 73.8161,157.1327 C73.8161,155.8137 74.1221,154.7837 74.7341,154.0447 C75.3301,153.3297 76.1411,152.9707 77.1671,152.9707 C77.9451,152.9707 78.5741,153.1787 79.0501,153.5917 C79.5361,154.0127 79.7941,154.5657 79.8251,155.2497 L78.3231,155.2497 Z" id="Fill-36" fill="#1E1E1C" mask="url(#mask-4)"></path>
                    <path d="M85.5671,154.9574 C85.2601,154.4844 84.8281,154.2474 84.2671,154.2474 C83.7071,154.2474 83.2731,154.4844 82.9671,154.9574 C82.6621,155.4304 82.5081,156.1114 82.5081,157.0024 C82.5081,157.8934 82.6621,158.5694 82.9671,159.0354 C83.2731,159.5004 83.7071,159.7324 84.2671,159.7324 C84.8281,159.7324 85.2601,159.5004 85.5671,159.0354 C85.8731,158.5694 86.0261,157.8934 86.0261,157.0024 C86.0261,156.1114 85.8731,155.4304 85.5671,154.9574 M84.2611,152.9714 C84.7381,152.9714 85.1731,153.0534 85.5671,153.2164 C85.9601,153.3794 86.2961,153.6274 86.5751,153.9614 C87.1781,154.6694 87.4811,155.6824 87.4811,157.0024 C87.4811,158.3214 87.1781,159.3344 86.5751,160.0424 C86.0181,160.7024 85.2521,161.0324 84.2731,161.0324 C83.2881,161.0324 82.5121,160.7024 81.9481,160.0424 C81.3521,159.3514 81.0531,158.3374 81.0531,157.0024 C81.0531,155.6664 81.3521,154.6524 81.9481,153.9614 C82.5121,153.3024 83.2831,152.9714 84.2611,152.9714" id="Fill-37" fill="#1E1E1C" mask="url(#mask-4)"></path>
                    <path d="M94.8727,158.3011 C94.4917,158.3011 94.3007,158.6061 94.3007,159.2131 C94.3007,159.8221 94.4917,160.1251 94.8727,160.1251 C95.0397,160.1251 95.1787,160.0561 95.2907,159.9181 C95.4007,159.7781 95.4577,159.5441 95.4577,159.2131 C95.4577,158.8841 95.4007,158.6491 95.2907,158.5111 C95.1787,158.3711 95.0397,158.3011 94.8727,158.3011 L94.8727,158.3011 Z M94.8727,157.4071 C95.3257,157.4071 95.7077,157.5591 96.0177,157.8611 C96.3437,158.1701 96.5067,158.6191 96.5067,159.2081 C96.5067,159.7971 96.3437,160.2541 96.0177,160.5791 C95.7157,160.8811 95.3337,161.0321 94.8727,161.0321 C94.4117,161.0321 94.0297,160.8811 93.7277,160.5791 C93.4017,160.2541 93.2387,159.7971 93.2387,159.2081 C93.2387,158.6191 93.4017,158.1701 93.7277,157.8611 C94.0377,157.5591 94.4197,157.4071 94.8727,157.4071 L94.8727,157.4071 Z M90.9747,154.7721 C90.9747,154.1681 90.7787,153.8661 90.3897,153.8661 C90.0087,153.8661 89.8167,154.1681 89.8167,154.7721 C89.8167,155.3841 90.0087,155.6911 90.3897,155.6911 C90.7787,155.6911 90.9747,155.3841 90.9747,154.7721 L90.9747,154.7721 Z M94.5517,153.1271 L95.9697,153.1271 L90.7347,160.8641 L89.3047,160.8641 L94.5517,153.1271 Z M90.4017,152.9711 C90.6157,152.9711 90.8227,153.0091 91.0207,153.0851 C91.2197,153.1601 91.3937,153.2751 91.5457,153.4251 C91.8727,153.7351 92.0347,154.1841 92.0347,154.7721 C92.0347,155.3531 91.8727,155.8051 91.5457,156.1311 C91.2437,156.4341 90.8587,156.5841 90.3897,156.5841 C89.9357,156.5841 89.5597,156.4341 89.2567,156.1311 C88.9307,155.8051 88.7687,155.3531 88.7687,154.7721 C88.7687,154.1841 88.9307,153.7351 89.2567,153.4251 C89.5667,153.1221 89.9477,152.9711 90.4017,152.9711 L90.4017,152.9711 Z" id="Fill-38" fill="#1E1E1C" mask="url(#mask-4)"></path>
                    <path d="M71.4733,63.2093 C72.0693,63.1223 72.5943,62.9113 73.0463,62.5773 L74.1083,62.5773 L74.1083,70.3633 L72.7013,70.3633 L72.7013,64.2593 C72.2953,64.4573 71.8863,64.5583 71.4733,64.5583 L71.4733,63.2093 Z" id="Fill-39" fill="#1E1E1C" mask="url(#mask-4)"></path>
                    <path d="M80.3024,64.4554 C79.9954,63.9824 79.5634,63.7454 79.0024,63.7454 C78.4424,63.7454 78.0084,63.9824 77.7024,64.4554 C77.3974,64.9294 77.2434,65.6094 77.2434,66.5004 C77.2434,67.3914 77.3974,68.0674 77.7024,68.5334 C78.0084,68.9984 78.4424,69.2314 79.0024,69.2314 C79.5634,69.2314 79.9954,68.9984 80.3024,68.5334 C80.6094,68.0674 80.7614,67.3914 80.7614,66.5004 C80.7614,65.6094 80.6094,64.9294 80.3024,64.4554 M78.9964,62.4704 C79.4744,62.4704 79.9084,62.5514 80.3024,62.7154 C80.6964,62.8774 81.0314,63.1264 81.3094,63.4604 C81.9134,64.1684 82.2154,65.1814 82.2154,66.5004 C82.2154,67.8204 81.9134,68.8334 81.3094,69.5414 C80.7534,70.2004 79.9864,70.5314 79.0084,70.5314 C78.0224,70.5314 77.2474,70.2004 76.6834,69.5414 C76.0874,68.8504 75.7894,67.8364 75.7894,66.5004 C75.7894,65.1654 76.0874,64.1514 76.6834,63.4604 C77.2474,62.8004 78.0194,62.4704 78.9964,62.4704" id="Fill-40" fill="#1E1E1C" mask="url(#mask-4)"></path>
                    <path d="M87.8503,64.4554 C87.5433,63.9824 87.1113,63.7454 86.5503,63.7454 C85.9903,63.7454 85.5563,63.9824 85.2503,64.4554 C84.9453,64.9294 84.7913,65.6094 84.7913,66.5004 C84.7913,67.3914 84.9453,68.0674 85.2503,68.5334 C85.5563,68.9984 85.9903,69.2314 86.5503,69.2314 C87.1113,69.2314 87.5433,68.9984 87.8503,68.5334 C88.1563,68.0674 88.3093,67.3914 88.3093,66.5004 C88.3093,65.6094 88.1563,64.9294 87.8503,64.4554 M86.5443,62.4704 C87.0213,62.4704 87.4563,62.5514 87.8503,62.7154 C88.2433,62.8774 88.5793,63.1264 88.8583,63.4604 C89.4613,64.1684 89.7643,65.1814 89.7643,66.5004 C89.7643,67.8204 89.4613,68.8334 88.8583,69.5414 C88.3013,70.2004 87.5353,70.5314 86.5563,70.5314 C85.5713,70.5314 84.7953,70.2004 84.2313,69.5414 C83.6353,68.8504 83.3363,67.8364 83.3363,66.5004 C83.3363,65.1654 83.6353,64.1514 84.2313,63.4604 C84.7953,62.8004 85.5663,62.4704 86.5443,62.4704" id="Fill-41" fill="#1E1E1C" mask="url(#mask-4)"></path>
                    <path d="M97.1559,67.8001 C96.7749,67.8001 96.5849,68.1051 96.5849,68.7121 C96.5849,69.3211 96.7749,69.6241 97.1559,69.6241 C97.3229,69.6241 97.4629,69.5551 97.5739,69.4161 C97.6849,69.2771 97.7409,69.0421 97.7409,68.7121 C97.7409,68.3831 97.6849,68.1481 97.5739,68.0091 C97.4629,67.8691 97.3229,67.8001 97.1559,67.8001 L97.1559,67.8001 Z M97.1559,66.9061 C97.6099,66.9061 97.9919,67.0571 98.3019,67.3601 C98.6269,67.6691 98.7909,68.1181 98.7909,68.7061 C98.7909,69.2951 98.6269,69.7521 98.3019,70.0771 C97.9999,70.3801 97.6179,70.5311 97.1559,70.5311 C96.6949,70.5311 96.3139,70.3801 96.0119,70.0771 C95.6859,69.7521 95.5229,69.2951 95.5229,68.7061 C95.5229,68.1181 95.6859,67.6691 96.0119,67.3601 C96.3219,67.0571 96.7039,66.9061 97.1559,66.9061 L97.1559,66.9061 Z M93.2579,64.2701 C93.2579,63.6671 93.0619,63.3641 92.6729,63.3641 C92.2919,63.3641 92.1009,63.6671 92.1009,64.2701 C92.1009,64.8831 92.2919,65.1901 92.6729,65.1901 C93.0619,65.1901 93.2579,64.8831 93.2579,64.2701 L93.2579,64.2701 Z M96.8349,62.6251 L98.2539,62.6251 L93.0189,70.3631 L91.5889,70.3631 L96.8349,62.6251 Z M92.6849,62.4701 C92.8999,62.4701 93.1059,62.5081 93.3039,62.5841 C93.5039,62.6581 93.6779,62.7731 93.8299,62.9231 C94.1559,63.2341 94.3179,63.6831 94.3179,64.2701 C94.3179,64.8511 94.1559,65.3041 93.8299,65.6301 C93.5269,65.9321 93.1419,66.0821 92.6729,66.0821 C92.2199,66.0821 91.8429,65.9321 91.5399,65.6301 C91.2149,65.3041 91.0519,64.8511 91.0519,64.2701 C91.0519,63.6831 91.2149,63.2341 91.5399,62.9231 C91.8499,62.6211 92.2309,62.4701 92.6849,62.4701 L92.6849,62.4701 Z" id="Fill-42" fill="#1E1E1C" mask="url(#mask-4)"></path>
                    <path d="M6.9909,203.599 L9.3149,203.599 L9.3149,200.642 L6.9909,203.599 Z M10.6389,198.555 L10.6389,203.456 L11.9859,203.456 L11.9859,204.66 L10.6389,204.66 L10.6389,206.377 L9.2449,206.377 L9.2449,204.66 L5.3209,204.66 L5.3209,203.599 L9.2799,198.555 L10.6389,198.555 Z" id="Fill-43" fill="#1E1E1C" mask="url(#mask-4)"></path>
                    <path d="M17.2272,200.4691 C16.9202,199.9961 16.4882,199.7591 15.9282,199.7591 C15.3672,199.7591 14.9332,199.9961 14.6272,200.4691 C14.3222,200.9431 14.1682,201.6231 14.1682,202.5141 C14.1682,203.4051 14.3222,204.0811 14.6272,204.5471 C14.9332,205.0121 15.3672,205.2441 15.9282,205.2441 C16.4882,205.2441 16.9202,205.0121 17.2272,204.5471 C17.5342,204.0811 17.6872,203.4051 17.6872,202.5141 C17.6872,201.6231 17.5342,200.9431 17.2272,200.4691 M15.9212,198.4841 C16.3992,198.4841 16.8342,198.5651 17.2272,198.7291 C17.6212,198.8911 17.9562,199.1401 18.2352,199.4741 C18.8382,200.1821 19.1402,201.1951 19.1402,202.5141 C19.1402,203.8341 18.8382,204.8471 18.2352,205.5551 C17.6782,206.2141 16.9112,206.5451 15.9332,206.5451 C14.9472,206.5451 14.1722,206.2141 13.6082,205.5551 C13.0122,204.8641 12.7142,203.8501 12.7142,202.5141 C12.7142,201.1791 13.0122,200.1651 13.6082,199.4741 C14.1722,198.8141 14.9442,198.4841 15.9212,198.4841" id="Fill-44" fill="#1E1E1C" mask="url(#mask-4)"></path>
                    <path d="M26.5339,203.8128 C26.1519,203.8128 25.9609,204.1178 25.9609,204.7258 C25.9609,205.3338 26.1519,205.6378 26.5339,205.6378 C26.7009,205.6378 26.8399,205.5688 26.9509,205.4298 C27.0619,205.2898 27.1179,205.0558 27.1179,204.7258 C27.1179,204.3968 27.0619,204.1618 26.9509,204.0228 C26.8399,203.8828 26.7009,203.8128 26.5339,203.8128 L26.5339,203.8128 Z M26.5339,202.9198 C26.9869,202.9198 27.3689,203.0708 27.6789,203.3728 C28.0049,203.6828 28.1679,204.1318 28.1679,204.7198 C28.1679,205.3088 28.0049,205.7658 27.6789,206.0908 C27.3759,206.3928 26.9949,206.5448 26.5339,206.5448 C26.0729,206.5448 25.6909,206.3928 25.3889,206.0908 C25.0619,205.7658 24.8999,205.3088 24.8999,204.7198 C24.8999,204.1318 25.0619,203.6828 25.3889,203.3728 C25.6989,203.0708 26.0809,202.9198 26.5339,202.9198 L26.5339,202.9198 Z M22.6349,200.2838 C22.6349,199.6798 22.4399,199.3778 22.0509,199.3778 C21.6689,199.3778 21.4769,199.6798 21.4769,200.2838 C21.4769,200.8968 21.6689,201.2028 22.0509,201.2028 C22.4399,201.2028 22.6349,200.8968 22.6349,200.2838 L22.6349,200.2838 Z M26.2119,198.6388 L27.6309,198.6388 L22.3959,206.3768 L20.9659,206.3768 L26.2119,198.6388 Z M22.0629,198.4838 C22.2759,198.4838 22.4829,198.5218 22.6819,198.5978 C22.8809,198.6718 23.0549,198.7868 23.2069,198.9368 C23.5329,199.2468 23.6959,199.6958 23.6959,200.2838 C23.6959,200.8648 23.5329,201.3168 23.2069,201.6438 C22.9049,201.9458 22.5199,202.0958 22.0509,202.0958 C21.5969,202.0958 21.2199,201.9458 20.9179,201.6438 C20.5919,201.3168 20.4289,200.8648 20.4289,200.2838 C20.4289,199.6958 20.5919,199.2468 20.9179,198.9368 C21.2269,198.6348 21.6089,198.4838 22.0629,198.4838 L22.0629,198.4838 Z" id="Fill-45" fill="#1E1E1C" mask="url(#mask-4)"></path>
                    <path d="M7.8376,110.8333 L8.7316,111.1783 C9.1126,111.1783 9.4466,111.0823 9.7336,110.8923 C10.0116,110.7013 10.1506,110.4503 10.1506,110.1413 C10.1506,109.8303 10.0076,109.5823 9.7216,109.3963 C9.4356,109.2093 9.0616,109.1153 8.6006,109.1153 C8.1546,109.1153 7.7846,109.1983 7.4906,109.3653 C7.1966,109.5333 7.0506,109.7653 7.0506,110.0633 C7.0506,110.3613 7.3136,110.6183 7.8376,110.8333 L7.8376,110.8333 Z M8.3616,112.4183 C7.6386,112.4653 7.1496,112.6963 6.8956,113.1093 C6.8236,113.2293 6.7876,113.3683 6.7876,113.5273 C6.7876,113.6863 6.8356,113.8333 6.9316,113.9683 C7.0256,114.1043 7.1576,114.2193 7.3236,114.3133 C7.6426,114.5043 8.0896,114.6003 8.6656,114.6003 C9.2416,114.6003 9.6796,114.5223 9.9776,114.3673 C10.2756,114.2133 10.4246,114.0213 10.4246,113.7953 C10.4246,113.5683 10.3506,113.3863 10.2046,113.2473 C10.0566,113.1073 9.8566,112.9863 9.6026,112.8833 L8.3616,112.4183 Z M8.5106,107.8403 C9.4136,107.8403 10.1536,108.0483 10.7346,108.4653 C11.3156,108.8833 11.6056,109.4133 11.6056,110.0583 C11.6056,110.4463 11.4716,110.7953 11.2056,111.1013 C10.9396,111.4063 10.5556,111.6043 10.0546,111.6913 C10.7156,111.9533 11.1716,112.2203 11.4266,112.4893 C11.7286,112.8083 11.8796,113.2053 11.8796,113.6823 C11.8796,114.3423 11.5926,114.8753 11.0206,115.2793 C10.4246,115.6933 9.6176,115.8993 8.6006,115.8993 C7.6226,115.8993 6.8316,115.6853 6.2276,115.2563 C5.6306,114.8433 5.3336,114.3063 5.3336,113.6463 C5.3336,113.1613 5.5016,112.7703 5.8396,112.4723 C6.1786,112.1743 6.6086,111.9923 7.1336,111.9303 C6.4416,111.5963 5.9736,111.1623 5.7266,110.6293 C5.6386,110.4313 5.5956,110.2043 5.5956,109.9503 C5.5956,109.2983 5.8566,108.7833 6.3766,108.4063 C6.8976,108.0283 7.6086,107.8403 8.5106,107.8403 L8.5106,107.8403 Z" id="Fill-46" fill="#1E1E1C" mask="url(#mask-4)"></path>
                    <path d="M17.5368,109.8245 C17.2298,109.3515 16.7978,109.1155 16.2368,109.1155 C15.6778,109.1155 15.2438,109.3515 14.9368,109.8245 C14.6318,110.2985 14.4778,110.9795 14.4778,111.8695 C14.4778,112.7605 14.6318,113.4375 14.9368,113.9025 C15.2438,114.3675 15.6778,114.5995 16.2368,114.5995 C16.7978,114.5995 17.2298,114.3675 17.5368,113.9025 C17.8428,113.4375 17.9958,112.7605 17.9958,111.8695 C17.9958,110.9795 17.8428,110.2985 17.5368,109.8245 M16.2308,107.8405 C16.7078,107.8405 17.1428,107.9215 17.5368,108.0845 C17.9308,108.2475 18.2658,108.4955 18.5448,108.8295 C19.1478,109.5365 19.4508,110.5515 19.4508,111.8695 C19.4508,113.1885 19.1478,114.2035 18.5448,114.9105 C17.9878,115.5705 17.2218,115.8995 16.2428,115.8995 C15.2578,115.8995 14.4828,115.5705 13.9178,114.9105 C13.3218,114.2195 13.0228,113.2055 13.0228,111.8695 C13.0228,110.5345 13.3218,109.5205 13.9178,108.8295 C14.4828,108.1695 15.2528,107.8405 16.2308,107.8405" id="Fill-47" fill="#1E1E1C" mask="url(#mask-4)"></path>
                    <path d="M26.8434,113.1702 C26.4614,113.1702 26.2714,113.4742 26.2714,114.0822 C26.2714,114.6902 26.4614,114.9942 26.8434,114.9942 C27.0104,114.9942 27.1494,114.9242 27.2604,114.7842 C27.3714,114.6472 27.4274,114.4112 27.4274,114.0822 C27.4274,113.7512 27.3714,113.5182 27.2604,113.3772 C27.1494,113.2392 27.0104,113.1702 26.8434,113.1702 L26.8434,113.1702 Z M26.8434,112.2742 C27.2964,112.2742 27.6784,112.4262 27.9884,112.7292 C28.3134,113.0382 28.4774,113.4872 28.4774,114.0752 C28.4774,114.6632 28.3134,115.1202 27.9884,115.4472 C27.6864,115.7492 27.3044,115.8992 26.8434,115.8992 C26.3814,115.8992 26.0004,115.7492 25.6984,115.4472 C25.3724,115.1202 25.2094,114.6632 25.2094,114.0752 C25.2094,113.4872 25.3724,113.0382 25.6984,112.7292 C26.0084,112.4262 26.3904,112.2742 26.8434,112.2742 L26.8434,112.2742 Z M22.9444,109.6402 C22.9444,109.0362 22.7484,108.7332 22.3604,108.7332 C21.9784,108.7332 21.7874,109.0362 21.7874,109.6402 C21.7874,110.2522 21.9784,110.5582 22.3604,110.5582 C22.7484,110.5582 22.9444,110.2522 22.9444,109.6402 L22.9444,109.6402 Z M26.5214,107.9942 L27.9404,107.9942 L22.7054,115.7332 L21.2754,115.7332 L26.5214,107.9942 Z M22.3714,107.8402 C22.5864,107.8402 22.7934,107.8772 22.9914,107.9522 C23.1904,108.0282 23.3644,108.1412 23.5174,108.2922 C23.8424,108.6032 24.0044,109.0522 24.0044,109.6402 C24.0044,110.2202 23.8424,110.6742 23.5174,110.9992 C23.2134,111.3022 22.8284,111.4522 22.3604,111.4522 C21.9064,111.4522 21.5294,111.3022 21.2264,110.9992 C20.9014,110.6742 20.7394,110.2202 20.7394,109.6402 C20.7394,109.0522 20.9014,108.6032 21.2264,108.2922 C21.5374,107.9902 21.9184,107.8402 22.3714,107.8402 L22.3714,107.8402 Z" id="Fill-48" fill="#1E1E1C" mask="url(#mask-4)"></path>
                    <path d="M50.9479,300.0091 C42.6829,300.0091 27.0519,298.8461 27.0519,294.4451 C27.0519,293.7191 27.0519,291.5121 36.0319,289.9841 L36.3289,291.7321 C30.0989,292.7921 28.8259,294.1411 28.8259,294.4451 C28.8259,295.7321 36.6339,298.2361 50.9479,298.2361 C65.2619,298.2361 73.0709,295.7321 73.0709,294.4451 C73.0709,294.1441 71.8109,292.8041 65.6429,291.7431 L65.9439,289.9971 C74.8439,291.5271 74.8439,293.7231 74.8439,294.4451 C74.8439,298.8461 59.2129,300.0091 50.9479,300.0091" id="Fill-49" fill="#0C1522" mask="url(#mask-4)"></path>
                    <path d="M50.9479,309.1116 C42.6829,309.1116 27.0519,307.9486 27.0519,303.5476 L28.8259,303.5476 C28.8259,304.8346 36.6339,307.3386 50.9479,307.3386 C65.2619,307.3386 73.0709,304.8346 73.0709,303.5476 L74.8439,303.5476 C74.8439,307.9486 59.2129,309.1116 50.9479,309.1116" id="Fill-50" fill="#0C1522" mask="url(#mask-4)"></path>
                    <polygon id="Fill-51" fill="#0C1522" mask="url(#mask-4)" points="27.053 303.547 28.826 303.547 28.826 294.444 27.053 294.444"></polygon>
                    <polygon id="Fill-52" fill="#0C1522" mask="url(#mask-4)" points="73.071 303.547 74.844 303.547 74.844 294.444 73.071 294.444"></polygon>
                    <path d="M50.6325,356.557 C31.8785,356.557 12.8935,353.699 12.8935,348.236 L14.6665,348.236 C14.6665,350.97 28.3495,354.784 50.6325,354.784 C72.9155,354.784 86.5975,350.97 86.5975,348.236 L88.3705,348.236 C88.3705,353.699 69.3855,356.557 50.6325,356.557" id="Fill-53" fill="#0C1522" mask="url(#mask-4)"></path>
                    <path d="M50.6325,314.8783 C31.8785,314.8783 12.8935,312.0203 12.8935,306.5573 C12.8935,302.9703 20.8695,300.9363 27.5615,299.8613 L27.8425,301.6113 C17.4415,303.2813 14.6665,305.5063 14.6665,306.5573 C14.6665,309.2913 28.3495,313.1053 50.6325,313.1053 C72.9155,313.1053 86.5975,309.2913 86.5975,306.5573 C86.5975,305.5133 83.8485,303.3013 73.5445,301.6313 L73.8275,299.8813 C83.4775,301.4443 88.3705,303.6903 88.3705,306.5573 C88.3705,312.0203 69.3855,314.8783 50.6325,314.8783" id="Fill-54" fill="#0C1522" mask="url(#mask-4)"></path>
                    <polygon id="Fill-55" fill="#0C1522" mask="url(#mask-4)" points="12.894 348.236 14.667 348.236 14.667 306.557 12.894 306.557"></polygon>
                    <polygon id="Fill-56" fill="#0C1522" mask="url(#mask-4)" points="86.598 349.043 88.371 349.043 88.371 307.363 86.598 307.363"></polygon>
                    <path d="M51.0749,295.3314 C47.3969,295.3314 35.3959,295.0914 35.3959,291.9994 L35.3959,285.8024 L37.1699,285.8024 L37.1699,291.8334 C38.0379,292.5604 43.2919,293.5584 51.0749,293.5584 C58.8579,293.5584 64.1109,292.5604 64.9789,291.8334 L64.9789,285.8024 L66.7529,285.8024 L66.7529,291.9994 C66.7529,295.0914 54.7529,295.3314 51.0749,295.3314" id="Fill-57" fill="#0C1522" mask="url(#mask-4)"></path>
                    <path d="M37.4343,285.8021 C38.8303,286.5061 43.8683,287.3611 51.0753,287.3611 C58.2813,287.3611 63.3183,286.5061 64.7143,285.8021 C63.3183,285.0981 58.2813,284.2421 51.0753,284.2421 C43.8693,284.2421 38.8303,285.0971 37.4343,285.8021 M51.0753,289.1341 C47.3973,289.1341 35.3963,288.8941 35.3963,285.8021 C35.3963,282.7101 47.3973,282.4691 51.0753,282.4691 C54.7523,282.4691 66.7523,282.7101 66.7523,285.8021 C66.7523,288.8941 54.7523,289.1341 51.0753,289.1341" id="Fill-58" fill="#0C1522" mask="url(#mask-4)"></path>
                    <path d="M51.0749,49.0599 C50.0989,49.0599 49.3059,49.8529 49.3059,50.8289 C49.3059,51.8029 50.0989,52.5959 51.0749,52.5959 C52.0499,52.5959 52.8429,51.8029 52.8429,50.8289 C52.8429,49.8529 52.0499,49.0599 51.0749,49.0599 M51.0749,54.3699 C49.1219,54.3699 47.5329,52.7809 47.5329,50.8289 C47.5329,48.8749 49.1219,47.2869 51.0749,47.2869 C53.0269,47.2869 54.6159,48.8749 54.6159,50.8289 C54.6159,52.7809 53.0269,54.3699 51.0749,54.3699" id="Fill-59" fill="#0C1522" mask="url(#mask-4)"></path>
                    <polygon id="Fill-60" fill="#0C1522" mask="url(#mask-4)" points="50.189 12.003 51.962 12.003 51.962 0.878 50.189 0.878"></polygon>
                    <polygon id="Fill-61" fill="#0C1522" mask="url(#mask-4)" points="26.928 25.911 38.053 25.911 38.053 24.138 26.928 24.138"></polygon>
                    <polygon id="Fill-62" fill="#0C1522" mask="url(#mask-4)" points="64.096 25.911 75.221 25.911 75.221 24.138 64.096 24.138"></polygon>
                    <polygon id="Fill-63" fill="#0C1522" mask="url(#mask-4)" points="41.4343 16.2591 33.5663 8.3911 34.8203 7.1371 42.6883 15.0051"></polygon>
                    <polygon id="Fill-64" fill="#0C1522" mask="url(#mask-4)" points="60.9089 16.4437 59.6549 15.1897 67.5189 7.3257 68.7729 8.5797"></polygon>
                </g>
            </g>
        </g>
    </g>
</svg>